<?xml version="1.0" encoding="utf-8"?>
<!-- Generator: Adobe Illustrator 21.0.0, SVG Export Plug-In . SVG Version: 6.00 Build 0)  -->
<svg version="1.1" id="Layer_1" xmlns="http://www.w3.org/2000/svg" xmlns:xlink="http://www.w3.org/1999/xlink" x="0px" y="0px"
	 viewBox="0 0 1836 538" style="enable-background:new 0 0 1836 538;" xml:space="preserve">
<style type="text/css">
	.st0{fill:#0093BD;}
</style>
<title>scilifelab_and_nbis_together</title>
<g id="Layer_1_Image">
	<path class="st0" d="M1333,112c3.2,2.1,7.1,0.4,10.7,2.7c-4.9,5.1-10,10.3-15,15.5c-1.4,1.5-2.8,0.4-4.1,0
		c-6.6-1.9-13.2-3.5-20.1-2.9c-13.5,1.2-22.1,9-27.5,20.9c-4.6,10.1-6.3,21-7.6,31.9c-1.2,9.6-2,19.2-3.2,28.8
		c-0.5,4.2,0.2,5.8,5,5.7c15.1-0.2,30.3,0.1,45.5,0.3c1.8,0,3.5,0.2,6,0.4c-5.5,6.5-8.1,13.6-10.1,21c-0.9,3.5,0,4.3,3.5,4.3
		c15.3-0.2,30.6-0.2,46-0.4c1.3,0,2.9,0.6,3.3-1.8c2.2-13.7-11.1-29.9-25.1-30.1c-1,0-2,0-3,0.1s-2.1,0.1-2.2-1.3
		c-0.1-1.2,0.7-1.6,1.8-1.9c21.9-6.2,48.9,15.3,47.5,37.7c-0.2,3.8-2.7,2.7-4.6,2.7c-21,0.1-42,0.3-63-0.1c-5.2-0.1-6.5,1.7-6.7,6.4
		c-0.5,16.1,3.4,30.8,14.1,43c10.9,12.4,27.5,16.1,42.8,10.1c7.7-3,12.9-8.6,16-16.2c0.5-1.2,0.6-3.5,2.7-2.7
		c2.3,0.8,0.7,2.6,0.3,3.8c-2.6,9.3-9,17-17.6,21.3c-19.5,10-48.6,5.7-64.4-9.4c-17.3-16.6-21.5-45.4-9.8-68.4
		c0.6-1.2,1.2-2.3,1.8-3.4c-0.8-1.7-2.1-1.1-3.2-1.1c-8.3-0.1-16.7,0.1-25-0.1c-2.9-0.1-4,0.7-4.3,3.7c-1.8,16.9-3.6,33.8-5.7,50.6
		c-2.9,24.3-2.7,48.9-8,72.9c-5,22.6-14.7,42.7-33.6,57.4c-9.1,7.1-19.8,11.8-31.2,13.7c-0.8,0.1-1.7,0-2.1,1h-17
		c-2.5-0.8-5-1.6-8.3-2.7c5.3-4.8,10.2-9.3,15.2-13.8c1.5-1.4,3.1-0.2,4.7,0.2c6.5,1.7,13,3,19.7,2c13-1.9,21.5-9.8,27.4-21
		c5.5-10.5,7.8-21.9,9-33.6c4.2-41.7,8.2-83.5,12.4-125.2c0.4-4.1-0.7-5.1-4.6-4.9c-5.3,0.3-10.6,0.1-17.3,0.1
		c5.1-5.3,9.3-9.8,13.6-14.2c1.3-1.3,3.2-0.8,4.8-0.6c4.4,0.6,6-1,6.3-5.6c0.8-13.3,3.4-26.5,8-39c7.2-20.4,18.4-37.6,38-48.2
		c8.4-4.5,17.6-7.3,27-8.4c1-0.1,2.4,0.5,3-1.1C1327.7,112,1330.3,112,1333,112z"/>
	<path d="M1738,272c-1.7,0.6-1.2,2.3-1.4,3.4c-7.3,28.5-31.3,44.4-60.6,40.3c-6.1-1-12-2.7-17.6-5.1c-7.5-3.2-11.1-1.9-15.5,5
		c-0.2,0.3-0.5,0.5-0.6,0.8c-0.7,2.7-2.7,3-5,2.7c-3-0.4-1.7-2.8-1.7-4.3c-0.1-47.3-0.1-94.6-0.1-142c0.1-4.5-0.4-9-1.4-13.4
		c-2-7.7-6.4-11.5-14.3-12.5c-1.3-0.2-3.3,0.8-3.6-1.6c-0.3-2.7,1.9-2.1,3.5-2.4c10.4-1.4,20.8-2.6,31.1-4.4
		c3.7-0.6,4.1,0.5,4.1,3.7c-0.1,24.2,0,48.3,0,72.5v5.7c14.2-16.2,31.4-18,49.3-12.1c18.5,6.1,29.5,19.7,32.9,39.1
		c0.1,0.7,0.2,1.3,0.9,1.5C1738,256.7,1738,264.3,1738,272z M1654.9,259.6c-0.5,11.7,0.7,23.3,3.3,34.7c3.3,13.8,15.2,21.1,29.1,18
		c9.1-2,15.3-7.7,19.9-15.4c9.6-16,10.6-33.3,7.2-51.1c-2.4-12.4-7.7-23.4-18-31.2c-11.5-8.7-25.8-6.3-34.2,5.4
		c-2.6,3.7-4.3,7.9-5.1,12.3C1655,241.3,1654.7,250.5,1654.9,259.6z"/>
	<path d="M763,287.3v-22.5c0-1.1-0.9-2.9,1.2-3.2s2.4,1.2,2.8,2.8c2.7,9.4,5.8,18.8,11,27.1c8.8,13.9,20.4,23.4,38,21.8
		c19-1.7,32-18.2,29.6-37.3c-1.7-13.8-8-24.5-20.2-31.4c-10.6-6-21.3-11.5-31.9-17.5c-12-6.8-21.4-16-23.8-30.3
		c-3.1-18.1,1.8-33.7,15.4-46.1c13.8-12.6,30-14.7,47.5-9c5.2,1.7,10.2,4,15.4,5.8c4.2,1.5,8.3,1.9,10.1-3.7
		c0.2-1.1,1.3-1.9,2.4-1.7c0.1,0,0.2,0,0.3,0.1c1.6,0.4,1.1,1.9,1.1,2.9c0.3,14.8,0.5,29.6,0.7,44.4c0,1.1,0.6,2.4-1.4,2.4
		c-1.5,0-1.9-0.8-2.3-2.1c-1.2-4.3-2.6-8.6-4-12.8c-3.2-9.4-7.8-18-15-25c-12.3-12-32.1-12.3-43.2-0.7
		c-11.8,12.2-10.9,30.8,2.1,43.3c7.5,7.2,16.9,11,26,15.4c11.7,5.7,23.6,10.9,32.9,20.3c14.9,15,18,33,11.7,52.5
		S849.1,313.5,829,317c-14.8,2.6-29.1,0.3-42.9-5.5c-2.9-1.2-5.8-2.5-8.8-3.6c-4.3-1.6-7.9-0.7-10.4,3.2c-0.7,1.1-1.4,2.4-3,2
		c-1.9-0.5-1.1-2.2-1.1-3.4c-0.1-7.5,0-15,0-22.5C762.9,287.3,762.9,287.3,763,287.3z"/>
	<path class="st0" d="M1100.9,313.9h-67.5c-0.8,0.1-1.7,0.1-2.5,0c-1.6-0.4-4.3,1.2-4.5-1.5c-0.3-2.9,2.6-1.7,4.1-2.2
		c1.1-0.3,2.3-0.2,3.5-0.5c10.9-2.4,17-9.9,18-22.2c0.3-3.1,0.5-6.3,0.5-9.5c-0.1-34.8-0.2-69.6-0.3-104.5c0-1.2-0.1-2.3-0.2-3.5
		c-1-14.4-7.5-21.4-21.7-23.5c-1.5-0.2-4,0.4-3.9-2c0.1-2.6,2.6-1.5,4-1.5c24-0.1,48-0.1,72,0c1.3,0,3.3-0.9,3.7,1.3
		c0.4,2-1.4,2-2.7,2.1c-19.1,1.8-22.9,13.3-23,27c-0.3,34.6-1.3,69.3,0.6,103.9c1.1,19.5,11.7,30.1,31.1,31.7c8,0.7,16,0.4,23.9-0.9
		c16.6-3,27.5-12.7,33.2-28.3c1.7-4.8,2.8-9.9,4.3-14.8c0.3-1.1,0-3,2.1-2.8c2.4,0.1,1.7,2,1.7,3.4c-0.4,15-0.9,30-1.2,44.9
		c-0.1,3.7-2.2,3.4-4.6,3.4C1147.8,313.8,1124.3,313.9,1100.9,313.9z"/>
	<path d="M930.1,315.9c-26.4,0.2-45.4-13.2-51.6-36.1c-8.2-30,7.1-61.5,34.7-70.8c13.4-4.6,27.1-4.9,40.6-0.1
		c4.3,1.5,8.1,4,11.2,7.3c3.3,3.6,4.7,7.7,3,12.4c-1.3,3.6-4.1,5.5-8,5.7c-5.3,0.3-8.3-2.9-10.6-7c-1.1-2.3-1.9-4.6-2.6-7
		c-3.5-10.1-10.7-13.8-21.1-10.7c-7.3,2.1-13.5,7-17.1,13.7c-11.5,20.7-14.2,42.1-3.6,64c5.9,12.2,15,21.2,29.3,22.9
		c14,1.7,23.6-3.9,29.8-16.6c0.6-1.3,0.5-4.1,2.9-3.1s0.5,2.9,0,4.2c-5.4,14.1-16.5,20.2-30.9,21.2
		C934.1,316,932.1,315.9,930.1,315.9z"/>
	<path class="st0" d="M1217.9,252.4c0,13-0.1,26,0,39c0.1,11.8,3,15.5,14.4,18.8c1.3,0.4,3.5,0.2,3.1,2.4s-2.4,1.3-3.8,1.3
		c-16,0.1-32,0.1-48,0c-1.2,0-3.3,1-3.6-1.4c-0.2-2,1.7-1.9,2.8-2c10.8-1.1,14.4-7.2,15-17.8c1-17.5,0.7-35,0.4-52.4
		c0-4.5-0.2-9-0.8-13.4c-1.1-7.5-5.3-12.4-13.2-13.5c-1.2-0.2-3,0.4-3-1.6s1.8-1.6,3-1.7c9.7-1.3,19.5-2.4,29.2-3.8
		c3.5-0.5,4.2,0.7,4.2,4c-0.1,14.2-0.1,28.3-0.1,42.5C1217.7,252.4,1217.8,252.4,1217.9,252.4z"/>
	<path d="M1005.2,250.8c0,13.5-0.1,27,0,40.5c0.2,11.9,3.2,15.5,14.5,18.8c1.3,0.4,3.5,0.2,3,2.4s-2.4,1.2-3.7,1.2
		c-16,0.1-32,0.1-48,0c-1.3,0-3.4,0.9-3.4-1.6c-0.1-1.9,1.8-1.7,3-2c10.9-2.7,13.8-5.6,14.6-16.9c1.4-21.3,1.5-42.6,0.1-63.9
		c-0.6-10.4-4.2-14-14.2-16.3c-1.1-0.3-2.4,0-2.2-1.9c0.1-1.5,1.2-1.3,2.2-1.4c10.4-1.3,20.8-2.5,31.2-4c3.6-0.5,2.8,1.6,2.8,3.5
		v41.5C1005.1,250.8,1005.1,250.8,1005.2,250.8z"/>
	<path d="M995,162c6.4,0,11.7,5.2,11.8,11.6c-0.1,6.7-5.5,12-12.2,11.9c-6.5,0-11.7-5.3-11.7-11.8c0,0,0,0,0,0
		c-0.1-6.4,5-11.6,11.4-11.7C994.5,162,994.8,162,995,162z"/>
	<path class="st0" d="M1196,173.8c-0.1-6.6,5.2-12,11.8-12.1c6.6-0.1,12,5.2,12.1,11.8c0,6.5-5.1,11.8-11.6,12
		c-6.5,0.2-11.9-4.8-12.2-11.3C1196,174.1,1196,173.9,1196,173.8z"/>
	<path d="M1450.5,313.9h-72c-1.1,0-2.4,0.3-2.5-1.5s1-1.8,2.2-1.9c2.3-0.2,4.6-0.6,6.9-1.1c9.1-2.5,14.4-8.4,16-17.7
		c0.8-4.4,1.1-8.9,1.1-13.4c0-34.6-0.1-69.3-0.2-103.9c-0.1-3.5-0.4-7-1.1-10.4c-1.8-8.9-8.6-15.2-17.7-16.7c-1.5-0.2-3-0.3-4.5-0.6
		c-1.2-0.2-2.9,0.1-2.7-2c0.2-1.9,1.7-1.2,2.7-1.3h74.5c1,0,2.5-0.6,2.8,1.2c0.3,2.1-1.3,1.9-2.6,2.1c-2.5,0.3-4.9,0.8-7.3,1.4
		c-8.6,2.4-13.3,8.3-15.1,16.8c-0.9,5.4-1.4,10.9-1.2,16.4c0,29,0,58,0.2,87c0,4.8,0.4,9.6,1.1,14.4c2,13.8,10.1,22.6,23.7,25.5
		c12.1,2.6,24.7,2.2,36.6-1.2c13.9-4,22.5-13.7,27.4-26.9c1.7-4.7,2.8-9.6,4.1-14.4c0.4-1.5,0-3.7,2.6-3.4c2.4,0.3,1.4,2.3,1.3,3.5
		c-0.4,14.8-1,29.6-1.3,44.4c-0.1,3.7-1.9,3.8-4.7,3.8C1497.5,313.8,1474,313.9,1450.5,313.9z"/>
	<path d="M1590.5,301.7c-9.4,9.8-20.3,15.2-33.7,14.2c-3.1-0.1-6.3-0.7-9.3-1.5c-10.6-2.9-17-10.1-18.2-20.1
		c-1.3-10.7,3.8-20.5,13.5-25.8c7.4-4,15.7-5.4,23.6-7.7c5.6-1.6,11.2-3.2,16.1-6.4c3-2,5.7-4.5,6.5-8c2.3-9.8,2.2-19.6-2.6-28.7
		c-3.4-6.4-9.4-9.4-16.5-9.3s-12.1,4-14.9,10.6c-0.9,2.2-1.9,4.3-2.8,6.4c-1.9,4.4-5.4,6.2-10,5.8c-4.4-0.3-7.6-2.7-8.8-6.9
		c-1.3-4.4,0.2-8.2,3.9-11c6.3-4.8,13.9-6.3,21.5-7.4c11.9-1.7,24.1-0.2,35.2,4.4c11.3,4.5,15.5,10.6,15.6,22.8l0.3,57
		c-0.1,3.2,0.2,6.3,0.9,9.4c1,4,3,7.2,7.2,8.1s8.3,0.4,11.3-3.3c0.4-0.5,0.9-1,1.3-1.5c0.8-1,1.6-1.8,2.9-0.8c1,0.8,0.4,1.8,0,2.7
		c-1.9,4.5-5.7,8-10.3,9.6c-11.8,4.2-23.6,0.5-30.7-9.8C1591.7,303.6,1591.1,302.7,1590.5,301.7z M1590.5,252.8
		c-9.1,7.4-19.1,11.2-27.7,17.3c-6.4,4.4-10.5,11.3-11.5,19c-1.2,8.3,2.5,16.8,8.8,20.3c6,3.3,14.5,1.7,20.7-3.9
		c3.7-3.6,6.4-8.2,7.6-13.2C1591.7,279.8,1590.1,266.9,1590.5,252.8L1590.5,252.8z"/>
</g>
<g id="Layer_4">
	<path d="M143.2,165.2v107.9c0,8.5,0.5,14.8,1.4,18.9c1.5,7,6.4,12.8,13.1,15.3c3.7,1.2,7.6,1.9,11.5,2v2.8H112v-2.9
		c3.9-0.1,7.8-0.8,11.5-2c3-1.1,5.7-2.9,7.9-5.2c2.7-2.8,4.5-6.3,5.3-10.1c0.9-4.1,1.4-10.4,1.4-18.8v-91.5c0-8.4-0.5-14.6-1.4-18.7
		c-0.8-3.8-2.6-7.3-5.3-10.1c-2.1-2.3-4.8-4.1-7.8-5.2c-3.7-1.2-7.7-1.9-11.6-2v-2.9h47.7l100.7,128.5v-89.5
		c0-8.5-0.5-14.8-1.4-18.9c-1.5-7-6.4-12.8-13.1-15.3c-3.7-1.2-7.6-1.9-11.5-2v-2.9h57.2v2.9c-8.3,0-14.7,2.4-19.4,7.2
		c-2.7,2.8-4.5,6.3-5.3,10.1c-1,4.1-1.4,10.3-1.4,18.7V312H260L143.2,165.2z"/>
	<path d="M288.7,312v-2.9c3.9-0.1,7.9-0.8,11.6-2c2.9-1.1,5.6-2.9,7.7-5.1c2.7-2.8,4.6-6.2,5.3-10c0.9-4,1.4-10.3,1.4-18.9v-91.5
		c0-8.5-0.5-14.8-1.4-18.9c-0.8-3.8-2.6-7.2-5.3-10c-2.1-2.3-4.8-4.1-7.8-5.2c-3.7-1.2-7.6-1.9-11.5-2v-2.9h81.5
		c8.3,0,13.7,0.1,16.3,0.3c9.4,0.7,17.2,3,23.4,6.7c5.2,3.2,9.5,7.6,12.5,13c3,5.6,4.5,11.8,4.4,18.1c0,10.8-3.3,19.7-10,26.7
		c-2.4,2.5-5.1,4.7-8.2,6.4c-4.3,2.2-8.7,4.1-13.3,5.6c6.3,0.9,12.5,2.4,18.5,4.3c4.3,1.5,8.3,3.7,11.9,6.6
		c5.3,4.3,9.5,9.8,12.3,16.1c3,6.5,4.5,13.6,4.4,20.8c0.1,7.1-1.5,14.2-4.5,20.6c-2.8,6-7.2,11.2-12.6,15.1
		c-5.3,3.5-11.2,6-17.4,7.1c-6.7,1.3-16.2,2-28.5,2L288.7,312z M341.9,146.6v73.7h10c4.9,0,9.8-0.3,14.6-1c3.6-0.5,7.1-1.3,10.6-2.4
		c2.6-0.9,5.1-2.1,7.4-3.7c4.2-3.1,7.6-7.3,9.7-12.1c2.3-5.1,3.5-10.7,3.4-16.3c0-6.1-1.2-12.2-3.5-17.9c-2-5.1-5.2-9.7-9.4-13.2
		c-3.4-2.7-7.4-4.6-11.6-5.6c-4.3-1-10.9-1.5-19.8-1.5L341.9,146.6z M341.9,224.1v51.1c-0.1,5,0.3,10.1,1.3,15
		c0.7,3.5,2.2,6.8,4.3,9.7c4.2,5.5,11.5,8.3,21.7,8.3c13.3,0,23.9-3.6,31.6-10.9c7.7-7.3,11.6-17.2,11.6-29.8
		c0.1-6.8-1.2-13.6-3.6-20c-2.4-6.2-5.6-10.9-9.7-14.2c-7.4-6.1-19.1-9.2-35-9.2L341.9,224.1z"/>
	<path d="M513.4,142.8v2.9c-3.9,0.1-7.8,0.8-11.5,2c-3,1.1-5.7,2.9-7.9,5.2c-3.2,3.3-5.2,7.9-6,13.8c-0.5,5-0.8,10.1-0.7,15.1v91.4
		c-0.1,5.4,0.2,10.9,1,16.3c0.4,3.4,1.5,6.6,3.2,9.5c2,3.2,4.9,5.8,8.3,7.4c3.4,1.6,7.9,2.6,13.5,2.9v2.8h-79.2v-2.9
		c3.9-0.1,7.9-0.8,11.6-2c2.9-1.1,5.6-2.9,7.8-5.1c2.7-2.8,4.6-6.2,5.3-10c0.9-4,1.4-10.3,1.4-18.9v-91.5c0-8.5-0.5-14.8-1.4-18.9
		c-0.8-3.8-2.6-7.2-5.3-10c-2.1-2.3-4.8-4.1-7.8-5.2c-3.7-1.2-7.6-1.9-11.5-2v-2.9L513.4,142.8z"/>
	<path d="M516.4,311.5l0.4-51.2l2.8,0.1c3.5,13,7.6,23.3,12.4,30.8c9,13.8,20.4,20.8,34,20.8c9.5,0,17.4-3.2,23.6-9.5
		c6.2-6.4,9.3-14.4,9.3-24.2c0-4.4-0.7-8.7-2-12.9c-1.2-4-3.1-7.9-5.5-11.3c-2.8-3.6-6.3-6.8-10.1-9.3c-6.4-4.2-13.1-7.9-19.9-11.3
		c-6.2-3-12.2-6.4-18-10c-3.7-2.3-7.1-5.1-10.1-8.3c-7.1-7.8-10.7-17.2-10.7-28.4c0-6.8,1.4-13.6,4.2-19.8
		c2.7-6.2,6.6-11.8,11.6-16.4c8.4-8,19.6-12.3,31.1-12.1c3.6,0,7.3,0.4,10.8,1.2c4.5,1.2,9,2.8,13.3,4.6c4.1,1.7,6.9,2.7,8.4,3.2
		c1.3,0.4,2.6,0.7,4,0.7c2.9,0,4.8-2.1,5.8-6.3h2.8l0.9,49.2h-2.8c-2.2-7.9-4.1-13.9-5.8-18c-1.5-4-3.5-7.9-5.8-11.6
		c-4-6.4-8.5-11.2-13.4-14.3c-5-3.1-10.9-4.8-16.8-4.6c-9.2,0-16.5,3.1-21.9,9.4c-2.3,2.7-4.1,5.7-5.3,9.1
		c-1.3,3.3-1.9,6.9-1.9,10.4c0,13.8,8.9,25,26.6,33.4l17.5,8.4c13.5,6.4,23.2,13.4,29.1,21.1c6.7,8.5,10.3,19.1,10.2,30
		c0,7.5-1.5,14.9-4.6,21.8c-4,9.3-10.7,17.1-19.3,22.3c-8.6,5.2-18.7,7.9-30.4,7.9c-10.6,0-21.1-2.1-30.8-6.3
		c-5.1-2.2-8.2-3.5-9.2-3.8c-1.1-0.3-2.2-0.5-3.3-0.5c-4,0-6.7,2-8.2,6L516.4,311.5z"/>
</g>
</svg>
