<?xml version="1.0" encoding="utf-8"?>
<!-- Generator: Adobe Illustrator 21.0.0, SVG Export Plug-In . SVG Version: 6.00 Build 0)  -->
<svg version="1.1" id="Layer_1" xmlns="http://www.w3.org/2000/svg" xmlns:xlink="http://www.w3.org/1999/xlink" x="0px" y="0px"
	 viewBox="0 0 1836 538" style="enable-background:new 0 0 1836 538;" xml:space="preserve">
<style type="text/css">
	.st0{fill:#0093BD;}
	.st1{fill:#1E1E1F;}
	.st2{fill:#FEFEFE;}
	.st3{fill:#006699;}
	.st4{fill:#33CCFF;}
</style>
<title>scilifelab_and_nbis_together</title>
<g id="Layer_1_Image">
	<path class="st0" d="M1321,112c3.2,2.1,7.1,0.4,10.7,2.7c-4.9,5.1-10,10.3-15,15.5c-1.4,1.5-2.8,0.4-4.1,0
		c-6.6-1.9-13.2-3.5-20.1-2.9c-13.5,1.2-22.1,9-27.5,20.9c-4.6,10.1-6.3,21-7.6,31.9c-1.2,9.6-2,19.2-3.2,28.8
		c-0.5,4.2,0.2,5.8,5,5.7c15.1-0.2,30.3,0.1,45.5,0.3c1.8,0,3.5,0.2,6,0.4c-5.5,6.5-8.1,13.6-10.1,21c-0.9,3.5,0,4.3,3.5,4.3
		c15.3-0.2,30.6-0.2,46-0.4c1.3,0,2.9,0.6,3.3-1.8c2.2-13.7-11.1-29.9-25.1-30.1c-1,0-2,0-3,0.1s-2.1,0.1-2.2-1.3
		c-0.1-1.2,0.7-1.6,1.8-1.9c21.9-6.2,48.9,15.3,47.5,37.7c-0.2,3.8-2.7,2.7-4.6,2.7c-21,0.1-42,0.3-63-0.1c-5.2-0.1-6.5,1.7-6.7,6.4
		c-0.5,16.1,3.4,30.8,14.1,43c10.9,12.4,27.5,16.1,42.8,10.1c7.7-3,12.9-8.6,16-16.2c0.5-1.2,0.6-3.5,2.7-2.7
		c2.3,0.8,0.7,2.6,0.3,3.8c-2.6,9.3-9,17-17.6,21.3c-19.5,10-48.6,5.7-64.4-9.4c-17.3-16.6-21.5-45.4-9.8-68.4
		c0.6-1.2,1.2-2.3,1.8-3.4c-0.8-1.7-2.1-1.1-3.2-1.1c-8.3-0.1-16.7,0.1-25-0.1c-2.9-0.1-4,0.7-4.3,3.7c-1.8,16.9-3.6,33.8-5.7,50.6
		c-2.9,24.3-2.7,48.9-8,72.9c-5,22.6-14.7,42.7-33.6,57.4c-9.1,7.1-19.8,11.8-31.2,13.7c-0.8,0.1-1.7,0-2.1,1h-17
		c-2.5-0.8-5-1.6-8.3-2.7c5.3-4.8,10.2-9.3,15.2-13.8c1.5-1.4,3.1-0.2,4.7,0.2c6.5,1.7,13,3,19.7,2c13-1.9,21.5-9.8,27.4-21
		c5.5-10.5,7.8-21.9,9-33.6c4.2-41.7,8.2-83.5,12.4-125.2c0.4-4.1-0.7-5.1-4.6-4.9c-5.3,0.3-10.6,0.1-17.3,0.1
		c5.1-5.3,9.3-9.8,13.6-14.2c1.3-1.3,3.2-0.8,4.8-0.6c4.4,0.6,6-1,6.3-5.6c0.8-13.3,3.4-26.5,8-39c7.2-20.4,18.4-37.6,38-48.2
		c8.4-4.5,17.6-7.3,27-8.4c1-0.1,2.4,0.5,3-1.1C1315.7,112,1318.3,112,1321,112z"/>
	<path class="st1" d="M1726,272c-1.7,0.6-1.2,2.3-1.4,3.4c-7.3,28.5-31.3,44.4-60.6,40.3c-6.1-1-12-2.7-17.6-5.1
		c-7.5-3.2-11.1-1.9-15.5,5c-0.2,0.3-0.5,0.5-0.6,0.8c-0.7,2.7-2.7,3-5,2.7c-3-0.4-1.7-2.8-1.7-4.3c-0.1-47.3-0.1-94.6-0.1-142
		c0.1-4.5-0.4-9-1.4-13.4c-2-7.7-6.4-11.5-14.3-12.5c-1.3-0.2-3.3,0.8-3.6-1.6c-0.3-2.7,1.9-2.1,3.5-2.4c10.4-1.4,20.8-2.6,31.1-4.4
		c3.7-0.6,4.1,0.5,4.1,3.7c-0.1,24.2,0,48.3,0,72.5v5.7c14.2-16.2,31.4-18,49.3-12.1c18.5,6.1,29.5,19.7,32.9,39.1
		c0.1,0.7,0.2,1.3,0.9,1.5C1726,256.7,1726,264.3,1726,272z M1642.9,259.6c-0.5,11.7,0.7,23.3,3.3,34.7c3.3,13.8,15.2,21.1,29.1,18
		c9.1-2,15.3-7.7,19.9-15.4c9.6-16,10.6-33.3,7.2-51.1c-2.4-12.4-7.7-23.4-18-31.2c-11.5-8.7-25.8-6.3-34.2,5.4
		c-2.6,3.7-4.3,7.9-5.1,12.3C1643,241.3,1642.7,250.5,1642.9,259.6z"/>
	<path class="st1" d="M751,287.3v-22.5c0-1.1-0.9-2.9,1.2-3.2s2.4,1.2,2.8,2.8c2.7,9.4,5.8,18.8,11,27.1c8.8,13.9,20.4,23.4,38,21.8
		c19-1.7,32-18.2,29.6-37.3c-1.7-13.8-8-24.5-20.2-31.4c-10.6-6-21.3-11.5-31.9-17.5c-12-6.8-21.4-16-23.8-30.3
		c-3.1-18.1,1.8-33.7,15.4-46.1c13.8-12.6,30-14.7,47.5-9c5.2,1.7,10.2,4,15.4,5.8c4.2,1.5,8.3,1.9,10.1-3.7
		c0.2-1.1,1.3-1.9,2.4-1.7c0.1,0,0.2,0,0.3,0.1c1.6,0.4,1.1,1.9,1.1,2.9c0.3,14.8,0.5,29.6,0.7,44.4c0,1.1,0.6,2.4-1.4,2.4
		c-1.5,0-1.9-0.8-2.3-2.1c-1.2-4.3-2.6-8.6-4-12.8c-3.2-9.4-7.8-18-15-25c-12.3-12-32.1-12.3-43.2-0.7
		c-11.8,12.2-10.9,30.8,2.1,43.3c7.5,7.2,16.9,11,26,15.4c11.7,5.7,23.6,10.9,32.9,20.3c14.9,15,18,33,11.7,52.5
		S837.1,313.5,817,317c-14.8,2.6-29.1,0.3-42.9-5.5c-2.9-1.2-5.8-2.5-8.8-3.6c-4.3-1.6-7.9-0.7-10.4,3.2c-0.7,1.1-1.4,2.4-3,2
		c-1.9-0.5-1.1-2.2-1.1-3.4c-0.1-7.5,0-15,0-22.5C750.9,287.3,750.9,287.3,751,287.3z"/>
	<path class="st0" d="M1088.9,313.9h-67.5c-0.8,0.1-1.7,0.1-2.5,0c-1.6-0.4-4.3,1.2-4.5-1.5c-0.3-2.9,2.6-1.7,4.1-2.2
		c1.1-0.3,2.3-0.2,3.5-0.5c10.9-2.4,17-9.9,18-22.2c0.3-3.1,0.5-6.3,0.5-9.5c-0.1-34.8-0.2-69.6-0.3-104.5c0-1.2-0.1-2.3-0.2-3.5
		c-1-14.4-7.5-21.4-21.7-23.5c-1.5-0.2-4,0.4-3.9-2c0.1-2.6,2.6-1.5,4-1.5c24-0.1,48-0.1,72,0c1.3,0,3.3-0.9,3.7,1.3
		c0.4,2-1.4,2-2.7,2.1c-19.1,1.8-22.9,13.3-23,27c-0.3,34.6-1.3,69.3,0.6,103.9c1.1,19.5,11.7,30.1,31.1,31.7c8,0.7,16,0.4,23.9-0.9
		c16.6-3,27.5-12.7,33.2-28.3c1.7-4.8,2.8-9.9,4.3-14.8c0.3-1.1,0-3,2.1-2.8c2.4,0.1,1.7,2,1.7,3.4c-0.4,15-0.9,30-1.2,44.9
		c-0.1,3.7-2.2,3.4-4.6,3.4C1135.8,313.8,1112.3,313.9,1088.9,313.9z"/>
	<path class="st1" d="M918.1,315.9c-26.4,0.2-45.4-13.2-51.6-36.1c-8.2-30,7.1-61.5,34.7-70.8c13.4-4.6,27.1-4.9,40.6-0.1
		c4.3,1.5,8.1,4,11.2,7.3c3.3,3.6,4.7,7.7,3,12.4c-1.3,3.6-4.1,5.5-8,5.7c-5.3,0.3-8.3-2.9-10.6-7c-1.1-2.3-1.9-4.6-2.6-7
		c-3.5-10.1-10.7-13.8-21.1-10.7c-7.3,2.1-13.5,7-17.1,13.7c-11.5,20.7-14.2,42.1-3.6,64c5.9,12.2,15,21.2,29.3,22.9
		c14,1.7,23.6-3.9,29.8-16.6c0.6-1.3,0.5-4.1,2.9-3.1s0.5,2.9,0,4.2c-5.4,14.1-16.5,20.2-30.9,21.2
		C922.1,316,920.1,315.9,918.1,315.9z"/>
	<path class="st0" d="M1205.9,252.4c0,13-0.1,26,0,39c0.1,11.8,3,15.5,14.4,18.8c1.3,0.4,3.5,0.2,3.1,2.4s-2.4,1.3-3.8,1.3
		c-16,0.1-32,0.1-48,0c-1.2,0-3.3,1-3.6-1.4c-0.2-2,1.7-1.9,2.8-2c10.8-1.1,14.4-7.2,15-17.8c1-17.5,0.7-35,0.4-52.4
		c0-4.5-0.2-9-0.8-13.4c-1.1-7.5-5.3-12.4-13.2-13.5c-1.2-0.2-3,0.4-3-1.6s1.8-1.6,3-1.7c9.7-1.3,19.5-2.4,29.2-3.8
		c3.5-0.5,4.2,0.7,4.2,4c-0.1,14.2-0.1,28.3-0.1,42.5C1205.7,252.4,1205.8,252.4,1205.9,252.4z"/>
	<path class="st1" d="M993.2,250.8c0,13.5-0.1,27,0,40.5c0.2,11.9,3.2,15.5,14.5,18.8c1.3,0.4,3.5,0.2,3,2.4s-2.4,1.2-3.7,1.2
		c-16,0.1-32,0.1-48,0c-1.3,0-3.4,0.9-3.4-1.6c-0.1-1.9,1.8-1.7,3-2c10.9-2.7,13.8-5.6,14.6-16.9c1.4-21.3,1.5-42.6,0.1-63.9
		c-0.6-10.4-4.2-14-14.2-16.3c-1.1-0.3-2.4,0-2.2-1.9c0.1-1.5,1.2-1.3,2.2-1.4c10.4-1.3,20.8-2.5,31.2-4c3.6-0.5,2.8,1.6,2.8,3.5
		v41.5C993.1,250.8,993.1,250.8,993.2,250.8z"/>
	<path class="st1" d="M983,162c6.4,0,11.7,5.2,11.8,11.6c-0.1,6.7-5.5,12-12.2,11.9c-6.5,0-11.7-5.3-11.7-11.8c0,0,0,0,0,0
		c-0.1-6.4,5-11.6,11.4-11.7C982.5,162,982.8,162,983,162z"/>
	<path class="st0" d="M1184,173.8c-0.1-6.6,5.2-12,11.8-12.1c6.6-0.1,12,5.2,12.1,11.8c0,6.5-5.1,11.8-11.6,12
		c-6.5,0.2-11.9-4.8-12.2-11.3C1184,174.1,1184,173.9,1184,173.8z"/>
	<path class="st1" d="M1438.5,313.9h-72c-1.1,0-2.4,0.3-2.5-1.5s1-1.8,2.2-1.9c2.3-0.2,4.6-0.6,6.9-1.1c9.1-2.5,14.4-8.4,16-17.7
		c0.8-4.4,1.1-8.9,1.1-13.4c0-34.6-0.1-69.3-0.2-103.9c-0.1-3.5-0.4-7-1.1-10.4c-1.8-8.9-8.6-15.2-17.7-16.7c-1.5-0.2-3-0.3-4.5-0.6
		c-1.2-0.2-2.9,0.1-2.7-2c0.2-1.9,1.7-1.2,2.7-1.3h74.5c1,0,2.5-0.6,2.8,1.2c0.3,2.1-1.3,1.9-2.6,2.1c-2.5,0.3-4.9,0.8-7.3,1.4
		c-8.6,2.4-13.3,8.3-15.1,16.8c-0.9,5.4-1.4,10.9-1.2,16.4c0,29,0,58,0.2,87c0,4.8,0.4,9.6,1.1,14.4c2,13.8,10.1,22.6,23.7,25.5
		c12.1,2.6,24.7,2.2,36.6-1.2c13.9-4,22.5-13.7,27.4-26.9c1.7-4.7,2.8-9.6,4.1-14.4c0.4-1.5,0-3.7,2.6-3.4c2.4,0.3,1.4,2.3,1.3,3.5
		c-0.4,14.8-1,29.6-1.3,44.4c-0.1,3.7-1.9,3.8-4.7,3.8C1485.5,313.8,1462,313.9,1438.5,313.9z"/>
	<path class="st1" d="M1578.5,301.7c-9.4,9.8-20.3,15.2-33.7,14.2c-3.1-0.1-6.3-0.7-9.3-1.5c-10.6-2.9-17-10.1-18.2-20.1
		c-1.3-10.7,3.8-20.5,13.5-25.8c7.4-4,15.7-5.4,23.6-7.7c5.6-1.6,11.2-3.2,16.1-6.4c3-2,5.7-4.5,6.5-8c2.3-9.8,2.2-19.6-2.6-28.7
		c-3.4-6.4-9.4-9.4-16.5-9.3s-12.1,4-14.9,10.6c-0.9,2.2-1.9,4.3-2.8,6.4c-1.9,4.4-5.4,6.2-10,5.8c-4.4-0.3-7.6-2.7-8.8-6.9
		c-1.3-4.4,0.2-8.2,3.9-11c6.3-4.8,13.9-6.3,21.5-7.4c11.9-1.7,24.1-0.2,35.2,4.4c11.3,4.5,15.5,10.6,15.6,22.8l0.3,57
		c-0.1,3.2,0.2,6.3,0.9,9.4c1,4,3,7.2,7.2,8.1s8.3,0.4,11.3-3.3c0.4-0.5,0.9-1,1.3-1.5c0.8-1,1.6-1.8,2.9-0.8c1,0.8,0.4,1.8,0,2.7
		c-1.9,4.5-5.7,8-10.3,9.6c-11.8,4.2-23.6,0.5-30.7-9.8C1579.7,303.6,1579.1,302.7,1578.5,301.7z M1578.5,252.8
		c-9.1,7.4-19.1,11.2-27.7,17.3c-6.4,4.4-10.5,11.3-11.5,19c-1.2,8.3,2.5,16.8,8.8,20.3c6,3.3,14.5,1.7,20.7-3.9
		c3.7-3.6,6.4-8.2,7.6-13.2C1579.7,279.8,1578.1,266.9,1578.5,252.8L1578.5,252.8z"/>
	<path class="st2" d="M1642.9,259.6c-0.2-9.2,0.1-18.3,2.1-27.3c0.9-4.4,2.6-8.6,5.1-12.3c8.4-11.7,22.7-14,34.2-5.4
		c10.3,7.8,15.6,18.8,18,31.2c3.5,17.8,2.5,35.1-7.2,51.1c-4.6,7.6-10.9,13.4-19.9,15.4c-14,3.1-25.8-4.2-29.1-18
		C1643.5,282.9,1642.5,271.3,1642.9,259.6z"/>
	<path class="st2" d="M1578.5,252.8c-0.3,14,1.2,26.9-2.2,39.6c-1.1,5.1-3.8,9.7-7.6,13.2c-6.1,5.6-14.7,7.2-20.7,3.9
		c-6.2-3.4-9.9-11.9-8.8-20.3c0.9-7.7,5.1-14.6,11.5-19C1559.4,264,1569.4,260.2,1578.5,252.8z"/>
</g>
<g id="Layer_2">
	<g id="g7130">
		<path id="path7134" class="st3" d="M435.4,149.4L435.4,149.4c-0.7-1.4-2.2-2.4-3.8-2.4h-3.5c-1.3,0-2.4,1.1-2.3,2.4
			c0,0.4,0.1,0.7,0.3,1l5.9,11.7l5.3,9.1c4.2,7.1,9.9,13.3,16.7,18l34.8,24.3c4.7,3.3,8.7,7.5,11.8,12.4l11.4,18.2l1.7-14.7
			l-9.1-16.3c-2.6-4.7-6.3-8.6-10.8-11.6l-37.7-25.2l-3.6-3.3c-5.9-5.4-10.8-11.8-14.4-18.9L435.4,149.4"/>
		<path id="path7136" class="st3" d="M456,285.8L456,285.8l-12.6-11.5l-7.5-18.5l0.3-7.1l-3.7,12.7l2,7.8
			c2.2,8.8,7.7,16.5,15.4,21.4l32.9,21.4c3.2,2.1,7,3.2,10.9,3.2h1.4c1.8,0,3.3-1.5,3.3-3.3c0-1.2-0.6-2.3-1.7-2.9L456,285.8"/>
		<path id="path7138" class="st3" d="M511,171.9L511,171.9l0.1,0.3c0.6,1.2,0.8,2.6,0.4,3.9l-1.4,4.6c-0.3,0.9-1.3,1.5-2.2,1.2
			c-0.3-0.1-0.7-0.3-0.9-0.6l-18.8-24.2c-1.3-1.7-1-4.1,0.7-5.4c0.7-0.6,1.6-0.8,2.5-0.8l5.9,0.3c1.8,0.1,3.4,1.1,4.3,2.7L511,171.9
			"/>
		<path id="path7140" class="st4" d="M500.8,159.4L500.8,159.4c0.7,1.3,0.2,2.9-1.1,3.6c-0.5,0.2-1,0.3-1.5,0.3l-27.5-2.8
			c-0.2,0-0.4,0-0.5,0l-30.9,3.1c-1.1,0.1-2.2-0.5-2.7-1.5l-3.3-6.8c-0.6-1.3-0.1-2.9,1.3-3.5c0.5-0.2,1.1-0.3,1.6-0.2l33.1,6.4
			c0.3,0,0.5,0,0.8,0l25.8-2.9c1.5-0.2,3,0.6,3.7,1.9L500.8,159.4"/>
		<path id="path7142" class="st4" d="M509.2,177.6L509.2,177.6c0.2,0.3,0.3,0.7,0.4,1.1l0,0c0.1,1.5-0.9,2.7-2.4,2.9
			c-0.2,0-0.3,0-0.5,0l-22.9-2.4c-0.2,0-0.3,0-0.5,0l-29.3,2.4c-0.7,0.1-1.5-0.2-2-0.7l-2.6-2.4c-1.1-1-1.1-2.7-0.2-3.7
			c0.5-0.6,1.3-0.9,2.2-0.8l31.2,2.8c0.3,0,0.6,0,0.8-0.1l19.2-4.4c1.8-0.4,3.6,0.4,4.5,1.9L509.2,177.6"/>
		<path id="path7144" class="st4" d="M473.7,193.1l15.8,2.6c0.4,0.1,0.9,0,1.3-0.1l6.5-2.4c1.4-0.5,2.9,0.2,3.4,1.6
			c0.2,0.6,0.2,1.2,0,1.8l-0.1,0.4c-0.4,1.1-1.5,1.9-2.7,1.8l-7.1-0.6c-0.4,0-0.7,0-1.1,0.1l-8.4,3c-1,0.3-2,0.1-2.8-0.6l-5.7-5.8
			c-0.4-0.4-0.4-1.1,0-1.5C473,193.2,473.4,193.1,473.7,193.1"/>
		<path id="path7146" class="st4" d="M439.8,273.6L439.8,273.6c0.4,1.3,1.7,2,3,1.8l16.4-3.2c0.2,0,0.4,0,0.6,0l12.2,0.7
			c1,0.1,2-0.5,2.5-1.5l0.4-0.9c0.7-1.3,0.1-2.9-1.2-3.6c-0.6-0.3-1.2-0.4-1.8-0.2l-11.9,3c-0.3,0.1-0.7,0.1-1,0l-19-2.8
			c-0.9-0.1-1.7,0.5-1.8,1.4c0,0.3,0,0.5,0.1,0.7L439.8,273.6"/>
		<path id="path7148" class="st4" d="M495.5,214.1l-4.1,2c-0.4,0.2-0.8,0.3-1.2,0.3l-16.8-0.2c-1.2,0-2.3,0.8-2.6,2l-0.9,3.8
			c-0.3,1.4,0.5,2.9,2,3.2c0.5,0.1,1,0.1,1.5-0.1l17.5-6.1c0.4-0.2,0.9-0.2,1.4-0.1l4.3,0.8c1.4,0.3,2.8-0.7,3.1-2.1
			c0.1-0.6,0-1.3-0.4-1.9l-0.4-0.6C498.2,214,496.7,213.6,495.5,214.1"/>
		<path id="path7150" class="st4" d="M509.5,233.2L509.5,233.2c0.5,1.4-0.2,2.9-1.6,3.4c-0.3,0.1-0.7,0.2-1,0.2L486,236
			c-0.2,0-0.4,0-0.6,0l-34.2,6.7c-1.4,0.3-2.8-0.7-3.1-2.1c-0.1-0.7,0-1.4,0.4-1.9l4.5-6.8c0.5-0.8,1.5-1.3,2.5-1.2l29.8,3.3
			c0.3,0,0.5,0,0.8,0l20-3.8c1.3-0.2,2.5,0.5,3,1.7L509.5,233.2"/>
		<path id="path7152" class="st4" d="M481.4,303.2L481.4,303.2c1.2,0.8,1.5,2.5,0.6,3.7c-0.5,0.8-1.5,1.2-2.4,1.1l-18.2-1.3h-0.6
			l-19.8,2.8c-1.5,0.2-2.8-0.8-3-2.3c-0.1-0.6,0-1.2,0.4-1.7l2.3-3.8c0.6-1,1.8-1.5,2.9-1.2l16.9,4.5c0.4,0.1,0.9,0.1,1.3,0
			l16.3-2.8c1-0.2,1.9,0.1,2.7,0.6L481.4,303.2"/>
		<path id="path7154" class="st4" d="M500.9,245.9l-5.1,10.2c-0.5,1-1.6,1.6-2.6,1.5l-27.7-2.9c-0.2,0-0.5,0-0.7,0l-27,4.3
			c-1.4,0.2-2.8-0.8-3-2.2c-0.1-0.6,0-1.2,0.3-1.7l1.6-2.8c0.5-0.9,1.5-1.4,2.5-1.3l25.6,1.6c0.2,0,0.4,0,0.6,0L500.9,245.9
			L500.9,245.9"/>
		<path id="path7156" class="st0" d="M506.1,183.4l5.7-8.7l-0.3,13.1c0,1.4-0.5,2.7-1.4,3.9l-5.9,7.7c-4.3,5.6-9.5,10.6-15.3,14.7
			l-35.3,25c-2.2,1.6-4.2,3.4-6,5.4c0,0-12.1,12.3-15.1,17c0.5-2.4,0.6-3.7,0.6-3.7c1.2-7.4,4.2-14.3,8.9-20.2l2.9-3.7
			c2.3-3,5-5.5,8.1-7.7l34.6-23.9c2.7-1.9,5.3-4,7.6-6.4l5-5.1C502.4,188.4,504.3,186,506.1,183.4L506.1,183.4"/>
		<path id="path7158" class="st0" d="M483,258.7l-23.2,16c-7.5,5.2-13.9,11.8-18.9,19.4l-13.1,20.1c-0.4,0.6-0.2,1.5,0.4,1.9
			c0.2,0.1,0.5,0.2,0.7,0.2h6c1.5,0,2.9-0.8,3.7-2.1l3.2-5.3c5.6-9.4,13.1-17.5,22-23.9l23.9-17c6.5-4.6,12.6-9.9,18.3-15.6l3.9-4
			c1.8-1.9,2.9-4.4,3-7l0.5-12v0.1c-1.6,3.7-3.9,7.1-6.8,10l-1,1c-0.7,0.7-1.5,1.4-2.3,2.1L483,258.7"/>
		<path id="path7160" class="st0" d="M143,140v179.2h38.6V215.6L232,319.2h45.8V140h-38.5v103.3L188.4,140H143z"/>
		<path id="path7162" class="st0" d="M334.8,241.1v46.7h24.8c10.5,0,18.2-2,23.2-6s7.5-10.1,7.5-18.4c0-14.9-10.6-22.3-31.9-22.3
			L334.8,241.1L334.8,241.1z M334.8,210.9h22.1c10.3,0,17.8-1.6,22.4-4.8c4.6-3.2,6.9-8.5,6.9-15.8c0-6.9-2.5-11.8-7.5-14.8
			c-5-3-13-4.5-23.8-4.5h-20L334.8,210.9L334.8,210.9z M296.8,139.9h55.8c25.4,0,43.9,3.6,55.4,10.9s17.2,18.7,17.2,34.5
			c0,10.7-2.5,19.5-7.5,26.4c-4.7,6.7-11.9,11.1-20,12.4v1.2c11.3,2.5,19.5,7.3,24.6,14.2c5.1,6.9,7.6,16.2,7.5,27.7
			c0,16.3-5.9,29.1-17.7,38.3c-11.8,9.2-27.8,13.7-48.1,13.7h-67.1L296.8,139.9"/>
		<path id="path7164" class="st0" d="M630.2,268.3c0,15.8-5.8,28.2-17.5,37.3c-11.6,9.1-27.8,13.6-48.6,13.6
			c-19.1,0-36-3.5-50.8-10.5v-34.4c12.1,5.3,22.3,9,30.7,11.1c7.5,2,15.2,3.1,23,3.2c8.3,0,14.7-1.6,19.2-4.7
			c4.5-3.1,6.7-7.7,6.7-13.9c0-3.3-1-6.5-3-9.1c-2.4-3.1-5.3-5.7-8.6-7.7c-3.8-2.5-11.5-6.4-23.2-11.8c-11-5-19.2-9.9-24.6-14.5
			c-5.4-4.5-9.8-10-13.1-16.1c-3.3-6.1-4.9-13.3-4.9-21.5c0-15.5,5.4-27.6,16.1-36.4s25.6-13.3,44.6-13.3c9.3,0,14.8,1.3,23.2,3.6
			c9.3,2.6,14.1,3.7,23.2,7.2l0.5,35.1c-8.6-5.9-18.2-10.4-28.2-13.4c-6.5-2-13.8-1.8-19.8-1.8c-7.2,0-12.7,1.6-16.5,4.9
			c-3.8,3.1-5.9,7.9-5.8,12.8c-0.1,3,0.7,6,2.3,8.5c2,2.8,4.5,5.2,7.4,7c3.4,2.3,11.4,6.3,24.1,12.2c16.8,7.8,28.2,15.6,34.5,23.5
			C627.1,247.3,630.2,256.9,630.2,268.3"/>
	</g>
</g>
</svg>
