<svg xmlns="http://www.w3.org/2000/svg" viewBox="0 0 376.67 172.67"><defs><style>.\38 47b9525-35f5-4381-a485-6120de23971c,.ec23e0ac-cdce-4388-8795-90772f4d367f{fill:none;}.\34 1b492d0-086b-45dd-b751-139c57ef609a,.\36 30df32a-f398-4a81-9093-72eb6e24b182,.\38 47b9525-35f5-4381-a485-6120de23971c,.b44d7049-33e6-4da7-b2ae-e321b9156a10,.ec23e0ac-cdce-4388-8795-90772f4d367f{stroke:#575756;stroke-miterlimit:10;}.\38 47b9525-35f5-4381-a485-6120de23971c{stroke-width:0.75px;}.\36 30df32a-f398-4a81-9093-72eb6e24b182{fill:#a7cee3;}.\34 1b492d0-086b-45dd-b751-139c57ef609a,.\36 30df32a-f398-4a81-9093-72eb6e24b182,.b44d7049-33e6-4da7-b2ae-e321b9156a10{stroke-width:0.5px;}.b44d7049-33e6-4da7-b2ae-e321b9156a10,.efcd2f14-f975-4182-b9fd-c92d3044e80f{fill:#575756;}.\34 1b492d0-086b-45dd-b751-139c57ef609a{fill:#fffcbf;}</style></defs><title>rnaseq</title><g id="a6cbd79b-6119-42cd-a526-807fa33e5072" data-name="lines"><line class="ec23e0ac-cdce-4388-8795-90772f4d367f" x1="4.33" y1="21.99" x2="249" y2="21.99"/><line class="ec23e0ac-cdce-4388-8795-90772f4d367f" x1="4.33" y1="36.12" x2="249" y2="36.12"/><line class="ec23e0ac-cdce-4388-8795-90772f4d367f" x1="85.7" y1="7.87" x2="249" y2="7.87"/><line class="ec23e0ac-cdce-4388-8795-90772f4d367f" x1="4.33" y1="116.54" x2="78.92" y2="116.54"/><line class="ec23e0ac-cdce-4388-8795-90772f4d367f" x1="29.14" y1="104.66" x2="78.92" y2="104.66"/><line class="ec23e0ac-cdce-4388-8795-90772f4d367f" x1="91.36" y1="116.54" x2="165.94" y2="116.54"/><line class="ec23e0ac-cdce-4388-8795-90772f4d367f" x1="116.16" y1="104.41" x2="165.94" y2="104.41"/><line class="ec23e0ac-cdce-4388-8795-90772f4d367f" x1="4.33" y1="165.9" x2="78.92" y2="165.9"/><line class="ec23e0ac-cdce-4388-8795-90772f4d367f" x1="29.14" y1="154.03" x2="78.92" y2="154.03"/><line class="ec23e0ac-cdce-4388-8795-90772f4d367f" x1="91.36" y1="165.9" x2="165.94" y2="165.9"/><line class="ec23e0ac-cdce-4388-8795-90772f4d367f" x1="116.16" y1="153.78" x2="165.94" y2="153.78"/><line class="847b9525-35f5-4381-a485-6120de23971c" x1="4.33" y1="47.87" x2="249" y2="47.87"/><line class="847b9525-35f5-4381-a485-6120de23971c" x1="4.91" y1="49.25" x2="4.91" y2="47.75"/><line class="847b9525-35f5-4381-a485-6120de23971c" x1="31.26" y1="49.25" x2="31.26" y2="47.75"/><line class="847b9525-35f5-4381-a485-6120de23971c" x1="58.77" y1="49.25" x2="58.77" y2="47.75"/><line class="847b9525-35f5-4381-a485-6120de23971c" x1="113.03" y1="49.25" x2="113.03" y2="47.75"/><line class="847b9525-35f5-4381-a485-6120de23971c" x1="140.3" y1="49.25" x2="140.3" y2="47.75"/><line class="847b9525-35f5-4381-a485-6120de23971c" x1="194.24" y1="49.25" x2="194.24" y2="47.75"/><line class="847b9525-35f5-4381-a485-6120de23971c" x1="221.37" y1="49.25" x2="221.37" y2="47.75"/><line class="847b9525-35f5-4381-a485-6120de23971c" x1="248.71" y1="49.25" x2="248.71" y2="47.75"/><line class="847b9525-35f5-4381-a485-6120de23971c" x1="166.98" y1="49.25" x2="166.98" y2="47.75"/><line class="847b9525-35f5-4381-a485-6120de23971c" x1="85.9" y1="49.25" x2="85.9" y2="47.75"/></g><g id="0c633c24-393c-4a82-9c8d-8fc586affb7c" data-name="boxes"><rect class="630df32a-f398-4a81-9093-72eb6e24b182" x="4.33" y="17.78" width="53.86" height="7.67"/><rect class="630df32a-f398-4a81-9093-72eb6e24b182" x="166.49" y="18.03" width="82.15" height="7.67"/><rect class="b44d7049-33e6-4da7-b2ae-e321b9156a10" x="4.33" y="31.91" width="53.86" height="7.67"/><rect class="b44d7049-33e6-4da7-b2ae-e321b9156a10" x="166.49" y="32.16" width="82.15" height="7.67"/><rect class="41b492d0-086b-45dd-b751-139c57ef609a" x="85.7" y="4.03" width="27.5" height="7.67"/><rect class="b44d7049-33e6-4da7-b2ae-e321b9156a10" x="85.7" y="31.91" width="27.5" height="7.67"/><rect class="41b492d0-086b-45dd-b751-139c57ef609a" x="193.99" y="4.28" width="54.64" height="7.67"/><rect class="630df32a-f398-4a81-9093-72eb6e24b182" x="4.33" y="112.33" width="16.42" height="7.67"/><rect class="630df32a-f398-4a81-9093-72eb6e24b182" x="16.37" y="91.14" width="3.39" height="3.83"/><rect class="630df32a-f398-4a81-9093-72eb6e24b182" x="63.59" y="85.04" width="3.39" height="3.83"/><rect class="630df32a-f398-4a81-9093-72eb6e24b182" x="68.78" y="85.04" width="3.39" height="3.83"/><rect class="630df32a-f398-4a81-9093-72eb6e24b182" x="73.74" y="85.04" width="3.39" height="3.83"/><rect class="630df32a-f398-4a81-9093-72eb6e24b182" x="53.76" y="112.58" width="25.04" height="7.67"/><rect class="41b492d0-086b-45dd-b751-139c57ef609a" x="29.14" y="100.58" width="8.38" height="7.67"/><rect class="41b492d0-086b-45dd-b751-139c57ef609a" x="29.13" y="91.14" width="3.32" height="3.83"/><rect class="41b492d0-086b-45dd-b751-139c57ef609a" x="34.31" y="91.14" width="3.32" height="3.83"/><rect class="41b492d0-086b-45dd-b751-139c57ef609a" x="62.48" y="91.14" width="3.32" height="3.83"/><rect class="41b492d0-086b-45dd-b751-139c57ef609a" x="66.82" y="91.14" width="3.32" height="3.83"/><rect class="41b492d0-086b-45dd-b751-139c57ef609a" x="71.11" y="91.14" width="3.32" height="3.83"/><rect class="41b492d0-086b-45dd-b751-139c57ef609a" x="75.33" y="91.14" width="3.32" height="3.83"/><rect class="41b492d0-086b-45dd-b751-139c57ef609a" x="116.03" y="91.14" width="3.32" height="3.83"/><rect class="41b492d0-086b-45dd-b751-139c57ef609a" x="121.21" y="91.14" width="3.32" height="3.83"/><rect class="41b492d0-086b-45dd-b751-139c57ef609a" x="149.38" y="91.14" width="3.32" height="3.83"/><rect class="41b492d0-086b-45dd-b751-139c57ef609a" x="153.72" y="91.14" width="3.32" height="3.83"/><rect class="41b492d0-086b-45dd-b751-139c57ef609a" x="158.01" y="91.14" width="3.32" height="3.83"/><rect class="41b492d0-086b-45dd-b751-139c57ef609a" x="162.24" y="91.14" width="3.32" height="3.83"/><rect class="41b492d0-086b-45dd-b751-139c57ef609a" x="149.38" y="85.04" width="3.32" height="3.83"/><rect class="41b492d0-086b-45dd-b751-139c57ef609a" x="153.72" y="85.04" width="3.32" height="3.83"/><rect class="41b492d0-086b-45dd-b751-139c57ef609a" x="158.01" y="85.04" width="3.32" height="3.83"/><rect class="41b492d0-086b-45dd-b751-139c57ef609a" x="162.24" y="85.04" width="3.32" height="3.83"/><rect class="41b492d0-086b-45dd-b751-139c57ef609a" x="62.15" y="100.83" width="16.66" height="7.67"/><rect class="630df32a-f398-4a81-9093-72eb6e24b182" x="91.36" y="112.33" width="16.42" height="7.67"/><rect class="630df32a-f398-4a81-9093-72eb6e24b182" x="140.79" y="112.58" width="25.04" height="7.67"/><rect class="41b492d0-086b-45dd-b751-139c57ef609a" x="116.16" y="100.58" width="8.38" height="7.67"/><rect class="41b492d0-086b-45dd-b751-139c57ef609a" x="149.18" y="100.83" width="16.66" height="7.67"/><rect class="630df32a-f398-4a81-9093-72eb6e24b182" x="4.33" y="161.7" width="16.42" height="7.67"/><rect class="630df32a-f398-4a81-9093-72eb6e24b182" x="65.59" y="134.41" width="3.39" height="3.83"/><rect class="630df32a-f398-4a81-9093-72eb6e24b182" x="70.78" y="134.41" width="3.39" height="3.83"/><rect class="630df32a-f398-4a81-9093-72eb6e24b182" x="63.59" y="140.51" width="3.39" height="3.83"/><rect class="630df32a-f398-4a81-9093-72eb6e24b182" x="68.78" y="140.51" width="3.39" height="3.83"/><rect class="630df32a-f398-4a81-9093-72eb6e24b182" x="73.74" y="140.51" width="3.39" height="3.83"/><rect class="630df32a-f398-4a81-9093-72eb6e24b182" x="7.78" y="134.41" width="3.39" height="3.83"/><rect class="630df32a-f398-4a81-9093-72eb6e24b182" x="12.97" y="134.41" width="3.39" height="3.83"/><rect class="630df32a-f398-4a81-9093-72eb6e24b182" x="5.78" y="140.51" width="3.39" height="3.83"/><rect class="630df32a-f398-4a81-9093-72eb6e24b182" x="10.97" y="140.51" width="3.39" height="3.83"/><rect class="630df32a-f398-4a81-9093-72eb6e24b182" x="15.92" y="140.51" width="3.39" height="3.83"/><rect class="630df32a-f398-4a81-9093-72eb6e24b182" x="53.76" y="161.95" width="25.04" height="7.67"/><rect class="41b492d0-086b-45dd-b751-139c57ef609a" x="29.14" y="149.95" width="8.38" height="7.67"/><rect class="41b492d0-086b-45dd-b751-139c57ef609a" x="116.03" y="140.51" width="3.32" height="3.83"/><rect class="41b492d0-086b-45dd-b751-139c57ef609a" x="120.89" y="140.51" width="3.32" height="3.83"/><rect class="41b492d0-086b-45dd-b751-139c57ef609a" x="149.38" y="140.51" width="3.32" height="3.83"/><rect class="41b492d0-086b-45dd-b751-139c57ef609a" x="153.72" y="140.51" width="3.32" height="3.83"/><rect class="41b492d0-086b-45dd-b751-139c57ef609a" x="158.01" y="140.51" width="3.32" height="3.83"/><rect class="41b492d0-086b-45dd-b751-139c57ef609a" x="162.24" y="140.51" width="3.32" height="3.83"/><rect class="41b492d0-086b-45dd-b751-139c57ef609a" x="62.15" y="150.2" width="16.66" height="7.67"/><rect class="630df32a-f398-4a81-9093-72eb6e24b182" x="91.36" y="161.7" width="16.42" height="7.67"/><rect class="630df32a-f398-4a81-9093-72eb6e24b182" x="140.79" y="161.95" width="25.04" height="7.67"/><rect class="41b492d0-086b-45dd-b751-139c57ef609a" x="116.16" y="149.95" width="8.38" height="7.67"/><rect class="41b492d0-086b-45dd-b751-139c57ef609a" x="149.18" y="150.2" width="16.66" height="7.67"/></g><g id="c81960ed-a96b-4147-8a82-f9baf09c5534" data-name="text-annotations"><path class="efcd2f14-f975-4182-b9fd-c92d3044e80f" d="M264.64,11.87h-1.49v-8h1.49Z"/><path class="efcd2f14-f975-4182-b9fd-c92d3044e80f" d="M269.7,7.33a.36.36,0,0,1-.12.12.3.3,0,0,1-.15,0,.48.48,0,0,1-.21-.06L269,7.31l-.34-.12a1.63,1.63,0,0,0-.45-.06,1,1,0,0,0-.63.17.53.53,0,0,0-.23.45.42.42,0,0,0,.12.31,1.05,1.05,0,0,0,.31.22,3.12,3.12,0,0,0,.44.17l.51.16.51.2a1.77,1.77,0,0,1,.44.29,1.32,1.32,0,0,1,.31.42,1.3,1.3,0,0,1,.12.58,1.88,1.88,0,0,1-.15.75,1.65,1.65,0,0,1-.44.59,2,2,0,0,1-.71.39,3.29,3.29,0,0,1-1.53.09,3.34,3.34,0,0,1-.53-.15,2.9,2.9,0,0,1-.47-.22,2.21,2.21,0,0,1-.38-.27l.31-.52a.45.45,0,0,1,.14-.14.4.4,0,0,1,.21,0,.44.44,0,0,1,.24.07l.26.15a2.31,2.31,0,0,0,.35.15,1.53,1.53,0,0,0,.51.07,1.32,1.32,0,0,0,.42-.06.88.88,0,0,0,.29-.15.56.56,0,0,0,.17-.22.65.65,0,0,0,.05-.26.46.46,0,0,0-.12-.32,1,1,0,0,0-.31-.22,3,3,0,0,0-.45-.17l-.51-.16a4.69,4.69,0,0,1-.51-.21,1.76,1.76,0,0,1-.45-.3,1.36,1.36,0,0,1-.31-.45,1.55,1.55,0,0,1-.12-.64,1.62,1.62,0,0,1,.14-.66,1.53,1.53,0,0,1,.4-.55,2,2,0,0,1,.66-.37,2.79,2.79,0,0,1,.92-.14,2.82,2.82,0,0,1,1.06.19,2.4,2.4,0,0,1,.8.51Z"/><path class="efcd2f14-f975-4182-b9fd-c92d3044e80f" d="M273.57,6.14a3.09,3.09,0,0,1,1.15.2,2.48,2.48,0,0,1,.88.58,2.55,2.55,0,0,1,.56.91,3.48,3.48,0,0,1,.2,1.2,3.49,3.49,0,0,1-.2,1.21,2.61,2.61,0,0,1-.56.92,2.44,2.44,0,0,1-.88.58,3.09,3.09,0,0,1-1.15.2,3.12,3.12,0,0,1-1.15-.2,2.47,2.47,0,0,1-.88-.58,2.65,2.65,0,0,1-.57-.92,3.47,3.47,0,0,1-.2-1.21,3.46,3.46,0,0,1,.2-1.2,2.59,2.59,0,0,1,.57-.91,2.51,2.51,0,0,1,.88-.58A3.12,3.12,0,0,1,273.57,6.14Zm0,4.77a1.2,1.2,0,0,0,1-.47,2.37,2.37,0,0,0,.34-1.39,2.4,2.4,0,0,0-.34-1.39,1.19,1.19,0,0,0-1-.48,1.21,1.21,0,0,0-1.06.48,2.39,2.39,0,0,0-.34,1.39,2.36,2.36,0,0,0,.34,1.38A1.21,1.21,0,0,0,273.57,10.91Z"/><path class="efcd2f14-f975-4182-b9fd-c92d3044e80f" d="M277.65,11.87V7.25l-.49-.08a.52.52,0,0,1-.26-.11.29.29,0,0,1-.1-.23V6.28h.84V5.86A2.43,2.43,0,0,1,277.8,5a1.76,1.76,0,0,1,1.08-1.07,2.54,2.54,0,0,1,.88-.14,2.41,2.41,0,0,1,.72.1l0,.68a.2.2,0,0,1-.15.2,1.17,1.17,0,0,1-.32,0,1.61,1.61,0,0,0-.43.05.73.73,0,0,0-.32.18.84.84,0,0,0-.2.34,1.75,1.75,0,0,0-.07.53v.37h1.47v1H279v4.63Z"/><path class="efcd2f14-f975-4182-b9fd-c92d3044e80f" d="M283.67,6.14a3.1,3.1,0,0,1,1.15.2,2.49,2.49,0,0,1,.88.58,2.55,2.55,0,0,1,.56.91,3.46,3.46,0,0,1,.2,1.2,3.47,3.47,0,0,1-.2,1.21,2.61,2.61,0,0,1-.56.92,2.45,2.45,0,0,1-.88.58,3.34,3.34,0,0,1-2.3,0,2.46,2.46,0,0,1-.88-.58,2.62,2.62,0,0,1-.57-.92,3.45,3.45,0,0,1-.2-1.21,3.43,3.43,0,0,1,.2-1.2,2.56,2.56,0,0,1,.57-.91,2.5,2.5,0,0,1,.88-.58A3.12,3.12,0,0,1,283.67,6.14Zm0,4.77a1.19,1.19,0,0,0,1-.47,2.36,2.36,0,0,0,.34-1.39,2.39,2.39,0,0,0-.34-1.39,1.19,1.19,0,0,0-1-.48,1.2,1.2,0,0,0-1.06.48,2.39,2.39,0,0,0-.34,1.39,2.36,2.36,0,0,0,.34,1.38A1.21,1.21,0,0,0,283.67,10.91Z"/><path class="efcd2f14-f975-4182-b9fd-c92d3044e80f" d="M287.52,11.87V6.23h.8a.43.43,0,0,1,.29.08.44.44,0,0,1,.11.26l.08.68a2.69,2.69,0,0,1,.71-.82,1.5,1.5,0,0,1,.91-.3,1.19,1.19,0,0,1,.69.19l-.18,1a.21.21,0,0,1-.07.14.24.24,0,0,1-.15,0l-.23,0a1.52,1.52,0,0,0-.38,0,1.15,1.15,0,0,0-.73.23,1.8,1.8,0,0,0-.51.68v3.51Z"/><path class="efcd2f14-f975-4182-b9fd-c92d3044e80f" d="M292,11.87V6.23h.83a.33.33,0,0,1,.35.25l.09.42a3.12,3.12,0,0,1,.31-.3,2,2,0,0,1,.35-.24,1.86,1.86,0,0,1,.4-.16,1.75,1.75,0,0,1,.46-.06,1.32,1.32,0,0,1,.88.29,1.74,1.74,0,0,1,.51.77,1.72,1.72,0,0,1,.33-.48,1.81,1.81,0,0,1,.43-.33,2,2,0,0,1,.5-.19,2.41,2.41,0,0,1,.54-.06,2.26,2.26,0,0,1,.83.14,1.59,1.59,0,0,1,.61.42,1.85,1.85,0,0,1,.38.67,2.93,2.93,0,0,1,.13.91v3.59h-1.36V8.28a1.21,1.21,0,0,0-.24-.81.87.87,0,0,0-.69-.27,1,1,0,0,0-.39.07.9.9,0,0,0-.52.54,1.29,1.29,0,0,0-.08.47v3.59H295.3V8.28a1.23,1.23,0,0,0-.23-.83.85.85,0,0,0-.67-.26,1.08,1.08,0,0,0-.55.15,1.83,1.83,0,0,0-.48.4v4.13Z"/><path class="efcd2f14-f975-4182-b9fd-c92d3044e80f" d="M310.46,11.87h-1.14a.5.5,0,0,1-.32-.1.55.55,0,0,1-.18-.24l-.59-1.62h-3.29l-.59,1.62a.52.52,0,0,1-.17.23.48.48,0,0,1-.32.1H302.7l3.12-8h1.51Zm-5.15-3h2.54l-1-2.65-.15-.42c-.05-.16-.11-.33-.16-.52-.05.19-.1.36-.15.52s-.1.3-.15.42Z"/><path class="efcd2f14-f975-4182-b9fd-c92d3044e80f" d="M264.64,25.21h-1.49v-8h1.49Z"/><path class="efcd2f14-f975-4182-b9fd-c92d3044e80f" d="M269.7,20.66a.36.36,0,0,1-.12.12.3.3,0,0,1-.15,0,.48.48,0,0,1-.21-.06l-.26-.12-.34-.12a1.63,1.63,0,0,0-.45-.06,1,1,0,0,0-.63.17.53.53,0,0,0-.23.45.42.42,0,0,0,.12.31,1.05,1.05,0,0,0,.31.22,3.12,3.12,0,0,0,.44.17l.51.16.51.2a1.77,1.77,0,0,1,.44.29,1.32,1.32,0,0,1,.31.42,1.3,1.3,0,0,1,.12.58,1.88,1.88,0,0,1-.15.75,1.65,1.65,0,0,1-.44.59,2,2,0,0,1-.71.39,3.29,3.29,0,0,1-1.53.09,3.34,3.34,0,0,1-.53-.15,2.9,2.9,0,0,1-.47-.22,2.21,2.21,0,0,1-.38-.27l.31-.52a.45.45,0,0,1,.14-.14.4.4,0,0,1,.21,0,.44.44,0,0,1,.24.07l.26.15a2.31,2.31,0,0,0,.35.15,1.53,1.53,0,0,0,.51.07,1.32,1.32,0,0,0,.42-.06.88.88,0,0,0,.29-.15.56.56,0,0,0,.17-.22.65.65,0,0,0,.05-.26.46.46,0,0,0-.12-.32,1,1,0,0,0-.31-.22,3,3,0,0,0-.45-.17l-.51-.16a4.69,4.69,0,0,1-.51-.21,1.76,1.76,0,0,1-.45-.3,1.36,1.36,0,0,1-.31-.45,1.55,1.55,0,0,1-.12-.64,1.62,1.62,0,0,1,.14-.66,1.53,1.53,0,0,1,.4-.55,2,2,0,0,1,.66-.37,2.79,2.79,0,0,1,.92-.14,2.82,2.82,0,0,1,1.06.19,2.4,2.4,0,0,1,.8.51Z"/><path class="efcd2f14-f975-4182-b9fd-c92d3044e80f" d="M273.57,19.47a3.09,3.09,0,0,1,1.15.2,2.48,2.48,0,0,1,.88.58,2.55,2.55,0,0,1,.56.91,3.78,3.78,0,0,1,0,2.41,2.61,2.61,0,0,1-.56.92,2.44,2.44,0,0,1-.88.58,3.09,3.09,0,0,1-1.15.2,3.12,3.12,0,0,1-1.15-.2,2.47,2.47,0,0,1-.88-.58,2.65,2.65,0,0,1-.57-.92,3.74,3.74,0,0,1,0-2.41,2.59,2.59,0,0,1,.57-.91,2.51,2.51,0,0,1,.88-.58A3.12,3.12,0,0,1,273.57,19.47Zm0,4.77a1.2,1.2,0,0,0,1-.47,2.37,2.37,0,0,0,.34-1.39,2.4,2.4,0,0,0-.34-1.39,1.19,1.19,0,0,0-1-.48,1.21,1.21,0,0,0-1.06.48,2.39,2.39,0,0,0-.34,1.39,2.36,2.36,0,0,0,.34,1.38A1.21,1.21,0,0,0,273.57,24.24Z"/><path class="efcd2f14-f975-4182-b9fd-c92d3044e80f" d="M277.65,25.21V20.59l-.49-.08a.52.52,0,0,1-.26-.11.29.29,0,0,1-.1-.23v-.56h.84v-.42a2.43,2.43,0,0,1,.15-.87,1.76,1.76,0,0,1,1.08-1.07,2.54,2.54,0,0,1,.88-.14,2.41,2.41,0,0,1,.72.1l0,.68a.2.2,0,0,1-.15.2,1.17,1.17,0,0,1-.32,0,1.61,1.61,0,0,0-.43.05.73.73,0,0,0-.32.18.84.84,0,0,0-.2.34,1.75,1.75,0,0,0-.07.53v.37h1.47v1H279v4.63Z"/><path class="efcd2f14-f975-4182-b9fd-c92d3044e80f" d="M283.67,19.47a3.1,3.1,0,0,1,1.15.2,2.49,2.49,0,0,1,.88.58,2.55,2.55,0,0,1,.56.91,3.78,3.78,0,0,1,0,2.41,2.61,2.61,0,0,1-.56.92,2.45,2.45,0,0,1-.88.58,3.34,3.34,0,0,1-2.3,0,2.46,2.46,0,0,1-.88-.58,2.62,2.62,0,0,1-.57-.92,3.72,3.72,0,0,1,0-2.41,2.56,2.56,0,0,1,.57-.91,2.5,2.5,0,0,1,.88-.58A3.12,3.12,0,0,1,283.67,19.47Zm0,4.77a1.19,1.19,0,0,0,1-.47,2.36,2.36,0,0,0,.34-1.39,2.39,2.39,0,0,0-.34-1.39,1.19,1.19,0,0,0-1-.48,1.2,1.2,0,0,0-1.06.48,2.39,2.39,0,0,0-.34,1.39,2.36,2.36,0,0,0,.34,1.38A1.21,1.21,0,0,0,283.67,24.24Z"/><path class="efcd2f14-f975-4182-b9fd-c92d3044e80f" d="M287.52,25.21V19.56h.8a.43.43,0,0,1,.29.08.44.44,0,0,1,.11.26l.08.68a2.69,2.69,0,0,1,.71-.82,1.5,1.5,0,0,1,.91-.3,1.19,1.19,0,0,1,.69.19l-.18,1a.21.21,0,0,1-.07.14.24.24,0,0,1-.15,0l-.23,0a1.52,1.52,0,0,0-.38,0,1.15,1.15,0,0,0-.73.23,1.8,1.8,0,0,0-.51.68v3.51Z"/><path class="efcd2f14-f975-4182-b9fd-c92d3044e80f" d="M292,25.21V19.56h.83a.33.33,0,0,1,.35.25l.09.42a3.12,3.12,0,0,1,.31-.3,2,2,0,0,1,.35-.24,1.86,1.86,0,0,1,.4-.16,1.75,1.75,0,0,1,.46-.06,1.32,1.32,0,0,1,.88.29,1.74,1.74,0,0,1,.51.77,1.72,1.72,0,0,1,.33-.48,1.81,1.81,0,0,1,.43-.33,2,2,0,0,1,.5-.19,2.41,2.41,0,0,1,.54-.06,2.26,2.26,0,0,1,.83.14,1.59,1.59,0,0,1,.61.42,1.85,1.85,0,0,1,.38.67,2.93,2.93,0,0,1,.13.91v3.59h-1.36V21.61a1.21,1.21,0,0,0-.24-.81.87.87,0,0,0-.69-.27,1,1,0,0,0-.39.07.9.9,0,0,0-.52.54,1.29,1.29,0,0,0-.08.47v3.59H295.3V21.61a1.23,1.23,0,0,0-.23-.83.85.85,0,0,0-.67-.26,1.08,1.08,0,0,0-.55.15,1.83,1.83,0,0,0-.48.4v4.13Z"/><path class="efcd2f14-f975-4182-b9fd-c92d3044e80f" d="M303.47,25.21v-8h2.74a5.21,5.21,0,0,1,1.33.15,2.54,2.54,0,0,1,.91.42,1.64,1.64,0,0,1,.52.67,2.25,2.25,0,0,1,.17.88,1.74,1.74,0,0,1-.08.54,1.53,1.53,0,0,1-.26.48,1.91,1.91,0,0,1-.44.4,2.67,2.67,0,0,1-.63.31q1.64.37,1.64,1.77a2.25,2.25,0,0,1-.19.94,2.05,2.05,0,0,1-.56.74,2.69,2.69,0,0,1-.91.49,4,4,0,0,1-1.23.18ZM305,20.7h1.18a2,2,0,0,0,1.14-.28,1,1,0,0,0,.39-.87,1,1,0,0,0-.35-.89,1.84,1.84,0,0,0-1.1-.26H305Zm0,1v2.33h1.5a2.08,2.08,0,0,0,.69-.1,1.21,1.21,0,0,0,.45-.26,1,1,0,0,0,.24-.38,1.47,1.47,0,0,0,.07-.47,1.23,1.23,0,0,0-.08-.46.87.87,0,0,0-.26-.35,1.21,1.21,0,0,0-.45-.22,2.49,2.49,0,0,0-.67-.08Z"/><path class="efcd2f14-f975-4182-b9fd-c92d3044e80f" d="M266.19,39a2.19,2.19,0,0,0,.87-.17,1.83,1.83,0,0,0,.65-.46,2,2,0,0,0,.41-.71,2.8,2.8,0,0,0,.14-.91V31.93h1.06v4.79a3.6,3.6,0,0,1-.22,1.26,3,3,0,0,1-.62,1,2.84,2.84,0,0,1-1,.67,3.67,3.67,0,0,1-2.62,0,2.86,2.86,0,0,1-1-.67,2.91,2.91,0,0,1-.62-1,3.58,3.58,0,0,1-.22-1.26V31.93h1.06v4.78a2.8,2.8,0,0,0,.14.91,2,2,0,0,0,.41.71,1.87,1.87,0,0,0,.65.46A2.2,2.2,0,0,0,266.19,39Z"/><path class="efcd2f14-f975-4182-b9fd-c92d3044e80f" d="M271,39.81V34.24h.58a.25.25,0,0,1,.26.2l.08.6a3.14,3.14,0,0,1,.81-.65,2.11,2.11,0,0,1,1-.25,2,2,0,0,1,.8.15,1.57,1.57,0,0,1,.58.43,1.89,1.89,0,0,1,.35.67,2.9,2.9,0,0,1,.12.86v3.55h-1V36.26a1.5,1.5,0,0,0-.29-1,1.08,1.08,0,0,0-.88-.35,1.65,1.65,0,0,0-.81.21,2.64,2.64,0,0,0-.7.57v4.1Z"/><path class="efcd2f14-f975-4182-b9fd-c92d3044e80f" d="M278.43,32.49a.63.63,0,0,1-.06.27.77.77,0,0,1-.15.22.72.72,0,0,1-.22.15.67.67,0,0,1-.27.06.65.65,0,0,1-.27-.06.72.72,0,0,1-.22-.15.72.72,0,0,1-.15-.22.64.64,0,0,1-.05-.27.68.68,0,0,1,.05-.27.72.72,0,0,1,.15-.23.73.73,0,0,1,.22-.15.65.65,0,0,1,.27-.05.67.67,0,0,1,.27.05.73.73,0,0,1,.22.15.76.76,0,0,1,.15.23A.67.67,0,0,1,278.43,32.49Zm-.22,1.75v5.57h-1V34.24Z"/><path class="efcd2f14-f975-4182-b9fd-c92d3044e80f" d="M282.19,34.15a2.86,2.86,0,0,1,1.1.2,2.33,2.33,0,0,1,.84.58,2.57,2.57,0,0,1,.53.9,3.91,3.91,0,0,1,0,2.37,2.57,2.57,0,0,1-.53.9,2.3,2.3,0,0,1-.84.58,3.13,3.13,0,0,1-2.21,0,2.33,2.33,0,0,1-.84-.58,2.58,2.58,0,0,1-.53-.9,3.85,3.85,0,0,1,0-2.37,2.58,2.58,0,0,1,.53-.9,2.36,2.36,0,0,1,.84-.58A2.86,2.86,0,0,1,282.19,34.15Zm0,5a1.43,1.43,0,0,0,1.23-.55,3.15,3.15,0,0,0,0-3.09,1.43,1.43,0,0,0-1.23-.56,1.71,1.71,0,0,0-.73.14,1.36,1.36,0,0,0-.51.41,1.84,1.84,0,0,0-.31.66,3.92,3.92,0,0,0,0,1.77,1.81,1.81,0,0,0,.31.66,1.37,1.37,0,0,0,.51.41A1.71,1.71,0,0,0,282.19,39.12Z"/><path class="efcd2f14-f975-4182-b9fd-c92d3044e80f" d="M286.05,39.81V34.24h.58a.25.25,0,0,1,.26.2l.08.6a3.14,3.14,0,0,1,.81-.65,2.11,2.11,0,0,1,1-.25,2,2,0,0,1,.81.15,1.57,1.57,0,0,1,.58.43,1.89,1.89,0,0,1,.35.67,2.93,2.93,0,0,1,.12.86v3.55h-1V36.26a1.5,1.5,0,0,0-.29-1,1.08,1.08,0,0,0-.88-.35,1.65,1.65,0,0,0-.81.21,2.66,2.66,0,0,0-.7.57v4.1Z"/><path class="efcd2f14-f975-4182-b9fd-c92d3044e80f" d="M320.77,10.91h3.41v.9h-4.48V3.92h1.07Z"/><path class="efcd2f14-f975-4182-b9fd-c92d3044e80f" d="M327.21,6.15a2.49,2.49,0,0,1,.92.17,2.08,2.08,0,0,1,.73.48,2.2,2.2,0,0,1,.48.78,3,3,0,0,1,.17,1.06.64.64,0,0,1,0,.31.2.2,0,0,1-.19.08h-3.71a3.07,3.07,0,0,0,.14.92,1.87,1.87,0,0,0,.36.65,1.45,1.45,0,0,0,.55.39,1.88,1.88,0,0,0,.71.13A2.09,2.09,0,0,0,328,11a3,3,0,0,0,.46-.18l.32-.18a.43.43,0,0,1,.22-.08.22.22,0,0,1,.19.09l.28.36a1.87,1.87,0,0,1-.43.38,2.72,2.72,0,0,1-.54.27,3.5,3.5,0,0,1-.6.16,3.66,3.66,0,0,1-.61.05,2.84,2.84,0,0,1-1.06-.2,2.34,2.34,0,0,1-.84-.57,2.62,2.62,0,0,1-.55-.93,3.79,3.79,0,0,1-.2-1.28,3.25,3.25,0,0,1,.18-1.09,2.57,2.57,0,0,1,.51-.88,2.37,2.37,0,0,1,.82-.58A2.69,2.69,0,0,1,327.21,6.15Zm0,.72a1.5,1.5,0,0,0-1.12.41,1.93,1.93,0,0,0-.51,1.14h3a2,2,0,0,0-.09-.62,1.39,1.39,0,0,0-.28-.49,1.23,1.23,0,0,0-.44-.32A1.49,1.49,0,0,0,327.23,6.87Z"/><path class="efcd2f14-f975-4182-b9fd-c92d3044e80f" d="M330.77,11.81V6.23h.58a.25.25,0,0,1,.26.2l.08.6a3.14,3.14,0,0,1,.81-.65,2.11,2.11,0,0,1,1-.25,2,2,0,0,1,.81.15,1.57,1.57,0,0,1,.58.43,1.91,1.91,0,0,1,.35.67,2.93,2.93,0,0,1,.12.86v3.55h-1V8.26a1.5,1.5,0,0,0-.29-1,1.08,1.08,0,0,0-.88-.35,1.65,1.65,0,0,0-.81.21,2.66,2.66,0,0,0-.7.57v4.1Z"/><path class="efcd2f14-f975-4182-b9fd-c92d3044e80f" d="M338.76,6.14a2.79,2.79,0,0,1,.68.08,2.15,2.15,0,0,1,.58.23h1.51v.36c0,.12-.08.2-.23.23l-.63.09a1.69,1.69,0,0,1,.19.8,1.71,1.71,0,0,1-.16.74,1.67,1.67,0,0,1-.43.57,1.94,1.94,0,0,1-.66.36,2.65,2.65,0,0,1-.84.13,2.81,2.81,0,0,1-.74-.09.93.93,0,0,0-.27.24.45.45,0,0,0-.09.26.35.35,0,0,0,.16.31,1.11,1.11,0,0,0,.42.15,3.56,3.56,0,0,0,.6,0h.68a3.79,3.79,0,0,1,.68.06,2.07,2.07,0,0,1,.6.2,1.12,1.12,0,0,1,.42.38,1.15,1.15,0,0,1,.16.63,1.49,1.49,0,0,1-.18.7,1.9,1.9,0,0,1-.51.6,2.64,2.64,0,0,1-.82.42,3.5,3.5,0,0,1-1.09.16,4.2,4.2,0,0,1-1.07-.12,2.49,2.49,0,0,1-.76-.32,1.41,1.41,0,0,1-.45-.47,1.12,1.12,0,0,1-.15-.56,1,1,0,0,1,.26-.7,1.79,1.79,0,0,1,.72-.46,1,1,0,0,1-.38-.29.79.79,0,0,1-.14-.49.78.78,0,0,1,0-.25,1,1,0,0,1,.13-.26,1.4,1.4,0,0,1,.22-.24,1.46,1.46,0,0,1,.31-.2,1.73,1.73,0,0,1-.65-.61,1.68,1.68,0,0,1-.23-.89,1.72,1.72,0,0,1,.16-.74,1.64,1.64,0,0,1,.44-.57,2,2,0,0,1,.67-.36A2.73,2.73,0,0,1,338.76,6.14Zm1.74,5.95a.49.49,0,0,0-.12-.34.75.75,0,0,0-.31-.2,2.26,2.26,0,0,0-.46-.1,4.2,4.2,0,0,0-.54,0h-.58a2.13,2.13,0,0,1-.57-.07,1.6,1.6,0,0,0-.51.36.74.74,0,0,0-.2.51.67.67,0,0,0,.1.35.81.81,0,0,0,.29.28,1.71,1.71,0,0,0,.5.19,3.58,3.58,0,0,0,1.42,0,1.77,1.77,0,0,0,.53-.21,1,1,0,0,0,.33-.32A.76.76,0,0,0,340.5,12.09Zm-1.74-3a1.53,1.53,0,0,0,.52-.08,1.06,1.06,0,0,0,.38-.23.94.94,0,0,0,.23-.35A1.28,1.28,0,0,0,340,8a1.08,1.08,0,0,0-.31-.81,1.5,1.5,0,0,0-1.8,0,1.08,1.08,0,0,0-.31.81,1.26,1.26,0,0,0,.08.45,1,1,0,0,0,.23.35,1.06,1.06,0,0,0,.38.23A1.5,1.5,0,0,0,338.76,9.08Z"/><path class="efcd2f14-f975-4182-b9fd-c92d3044e80f" d="M344.2,11.89a1.35,1.35,0,0,1-1-.37,1.47,1.47,0,0,1-.35-1.06V7.05h-.67A.22.22,0,0,1,342,7a.2.2,0,0,1-.06-.16V6.45l.91-.12.23-1.72a.21.21,0,0,1,.07-.13.23.23,0,0,1,.15-.05h.5V6.34h1.59v.71h-1.59V10.4a.71.71,0,0,0,.17.52.6.6,0,0,0,.44.17.77.77,0,0,0,.27,0l.2-.09.14-.09a.18.18,0,0,1,.1,0,.17.17,0,0,1,.14.09l.29.47a1.82,1.82,0,0,1-.61.37A2.07,2.07,0,0,1,344.2,11.89Z"/><path class="efcd2f14-f975-4182-b9fd-c92d3044e80f" d="M346.61,11.81V3.7h1V7a3,3,0,0,1,.79-.61,2.12,2.12,0,0,1,1-.23,2,2,0,0,1,.81.15,1.57,1.57,0,0,1,.58.43,1.91,1.91,0,0,1,.35.67,2.93,2.93,0,0,1,.12.86v3.55h-1V8.26a1.5,1.5,0,0,0-.29-1,1.08,1.08,0,0,0-.88-.35,1.65,1.65,0,0,0-.81.21,2.66,2.66,0,0,0-.7.57v4.1Z"/><path class="efcd2f14-f975-4182-b9fd-c92d3044e80f" d="M352.75,6.81h4.72v.74h-4.72Zm0,1.84h4.72v.74h-4.72Z"/><path class="efcd2f14-f975-4182-b9fd-c92d3044e80f" d="M361.71,3.84a2.88,2.88,0,0,1,.92.14,2.15,2.15,0,0,1,.73.41,1.84,1.84,0,0,1,.48.64,2,2,0,0,1,.17.83,2.14,2.14,0,0,1-.1.67,1.59,1.59,0,0,1-.71.89,2.37,2.37,0,0,1-.57.25,2.14,2.14,0,0,1,1.16.68,1.84,1.84,0,0,1,.39,1.2,2.25,2.25,0,0,1-.21,1,2.2,2.2,0,0,1-.56.74,2.53,2.53,0,0,1-.83.47,3.15,3.15,0,0,1-1,.16,3.25,3.25,0,0,1-1.07-.16,2.22,2.22,0,0,1-.75-.43,2.28,2.28,0,0,1-.51-.65,4.82,4.82,0,0,1-.34-.82l.42-.18a.58.58,0,0,1,.23,0,.41.41,0,0,1,.2,0,.3.3,0,0,1,.13.15l0,0,0,.05.19.36a1.51,1.51,0,0,0,.3.38,1.6,1.6,0,0,0,.46.3,1.73,1.73,0,0,0,.69.12,1.81,1.81,0,0,0,.72-.13,1.58,1.58,0,0,0,.52-.35,1.46,1.46,0,0,0,.31-.48,1.4,1.4,0,0,0,.1-.52,1.89,1.89,0,0,0-.08-.58,1,1,0,0,0-.31-.46,1.59,1.59,0,0,0-.62-.3,3.84,3.84,0,0,0-1-.11V7.41a3,3,0,0,0,.85-.1,1.67,1.67,0,0,0,.58-.29,1.07,1.07,0,0,0,.33-.43,1.5,1.5,0,0,0,.1-.56,1.52,1.52,0,0,0-.11-.59,1.14,1.14,0,0,0-.29-.42,1.22,1.22,0,0,0-.44-.25,1.78,1.78,0,0,0-.55-.08,1.67,1.67,0,0,0-.55.09,1.48,1.48,0,0,0-.45.24,1.41,1.41,0,0,0-.33.37,1.75,1.75,0,0,0-.2.47.44.44,0,0,1-.13.23.35.35,0,0,1-.23.07h-.13l-.51-.09a2.89,2.89,0,0,1,.3-1,2.27,2.27,0,0,1,.56-.7,2.38,2.38,0,0,1,.78-.43A3,3,0,0,1,361.71,3.84Z"/><path class="efcd2f14-f975-4182-b9fd-c92d3044e80f" d="M320.77,24.24h3.41v.9h-4.48V17.26h1.07Z"/><path class="efcd2f14-f975-4182-b9fd-c92d3044e80f" d="M327.21,19.48a2.49,2.49,0,0,1,.92.17,2.08,2.08,0,0,1,.73.48,2.2,2.2,0,0,1,.48.78,3,3,0,0,1,.17,1.06.64.64,0,0,1,0,.31.2.2,0,0,1-.19.08h-3.71a3.07,3.07,0,0,0,.14.92,1.87,1.87,0,0,0,.36.65,1.45,1.45,0,0,0,.55.39,1.88,1.88,0,0,0,.71.13,2.09,2.09,0,0,0,.64-.09,3,3,0,0,0,.46-.18l.32-.18a.43.43,0,0,1,.22-.08.22.22,0,0,1,.19.09l.28.36a1.87,1.87,0,0,1-.43.38,2.72,2.72,0,0,1-.54.27,3.5,3.5,0,0,1-.6.16,3.66,3.66,0,0,1-.61.05,2.84,2.84,0,0,1-1.06-.2,2.34,2.34,0,0,1-.84-.57,2.62,2.62,0,0,1-.55-.93,3.79,3.79,0,0,1-.2-1.28,3.25,3.25,0,0,1,.18-1.09,2.57,2.57,0,0,1,.51-.88,2.37,2.37,0,0,1,.82-.58A2.69,2.69,0,0,1,327.21,19.48Zm0,.72a1.5,1.5,0,0,0-1.12.41,1.93,1.93,0,0,0-.51,1.14h3a2,2,0,0,0-.09-.62,1.39,1.39,0,0,0-.28-.49,1.23,1.23,0,0,0-.44-.32A1.49,1.49,0,0,0,327.23,20.2Z"/><path class="efcd2f14-f975-4182-b9fd-c92d3044e80f" d="M330.77,25.14V19.57h.58a.25.25,0,0,1,.26.2l.08.6a3.14,3.14,0,0,1,.81-.65,2.11,2.11,0,0,1,1-.25,2,2,0,0,1,.81.15,1.57,1.57,0,0,1,.58.43,1.91,1.91,0,0,1,.35.67,2.93,2.93,0,0,1,.12.86v3.55h-1V21.59a1.5,1.5,0,0,0-.29-1,1.08,1.08,0,0,0-.88-.35,1.65,1.65,0,0,0-.81.21,2.66,2.66,0,0,0-.7.57v4.1Z"/><path class="efcd2f14-f975-4182-b9fd-c92d3044e80f" d="M338.76,19.47a2.79,2.79,0,0,1,.68.08,2.15,2.15,0,0,1,.58.23h1.51v.36c0,.12-.08.2-.23.23l-.63.09a1.69,1.69,0,0,1,.19.8,1.71,1.71,0,0,1-.16.74,1.67,1.67,0,0,1-.43.57,1.94,1.94,0,0,1-.66.36,2.65,2.65,0,0,1-.84.13A2.81,2.81,0,0,1,338,23a.93.93,0,0,0-.27.24.45.45,0,0,0-.09.26.35.35,0,0,0,.16.31,1.11,1.11,0,0,0,.42.15,3.56,3.56,0,0,0,.6,0h.68a3.79,3.79,0,0,1,.68.06,2.07,2.07,0,0,1,.6.2,1.12,1.12,0,0,1,.42.38,1.15,1.15,0,0,1,.16.63,1.49,1.49,0,0,1-.18.7,1.9,1.9,0,0,1-.51.6,2.64,2.64,0,0,1-.82.42,3.5,3.5,0,0,1-1.09.16,4.2,4.2,0,0,1-1.07-.12,2.49,2.49,0,0,1-.76-.32,1.41,1.41,0,0,1-.45-.47,1.12,1.12,0,0,1-.15-.56,1,1,0,0,1,.26-.7,1.79,1.79,0,0,1,.72-.46,1,1,0,0,1-.38-.29.79.79,0,0,1-.14-.49.78.78,0,0,1,0-.25,1,1,0,0,1,.13-.26,1.4,1.4,0,0,1,.22-.24,1.46,1.46,0,0,1,.31-.2,1.73,1.73,0,0,1-.65-.61,1.68,1.68,0,0,1-.23-.89,1.72,1.72,0,0,1,.16-.74,1.64,1.64,0,0,1,.44-.57,2,2,0,0,1,.67-.36A2.73,2.73,0,0,1,338.76,19.47Zm1.74,5.95a.49.49,0,0,0-.12-.34.75.75,0,0,0-.31-.2,2.26,2.26,0,0,0-.46-.1,4.2,4.2,0,0,0-.54,0h-.58a2.13,2.13,0,0,1-.57-.07,1.6,1.6,0,0,0-.51.36.74.74,0,0,0-.2.51.67.67,0,0,0,.1.35.81.81,0,0,0,.29.28,1.71,1.71,0,0,0,.5.19,3.58,3.58,0,0,0,1.42,0,1.77,1.77,0,0,0,.53-.21,1,1,0,0,0,.33-.32A.76.76,0,0,0,340.5,25.42Zm-1.74-3a1.53,1.53,0,0,0,.52-.08,1.06,1.06,0,0,0,.38-.23.94.94,0,0,0,.23-.35,1.28,1.28,0,0,0,.08-.45,1.08,1.08,0,0,0-.31-.81,1.5,1.5,0,0,0-1.8,0,1.08,1.08,0,0,0-.31.81,1.26,1.26,0,0,0,.08.45,1,1,0,0,0,.23.35,1.06,1.06,0,0,0,.38.23A1.5,1.5,0,0,0,338.76,22.42Z"/><path class="efcd2f14-f975-4182-b9fd-c92d3044e80f" d="M344.2,25.23a1.35,1.35,0,0,1-1-.37,1.47,1.47,0,0,1-.35-1.06V20.39h-.67a.22.22,0,0,1-.15-.05.2.2,0,0,1-.06-.16v-.39l.91-.12.23-1.72a.21.21,0,0,1,.07-.13.23.23,0,0,1,.15-.05h.5v1.92h1.59v.71h-1.59v3.34a.71.71,0,0,0,.17.52.6.6,0,0,0,.44.17.77.77,0,0,0,.27,0l.2-.09.14-.09a.18.18,0,0,1,.1,0,.17.17,0,0,1,.14.09l.29.47a1.82,1.82,0,0,1-.61.37A2.07,2.07,0,0,1,344.2,25.23Z"/><path class="efcd2f14-f975-4182-b9fd-c92d3044e80f" d="M346.61,25.14V17h1v3.28a3,3,0,0,1,.79-.61,2.12,2.12,0,0,1,1-.23,2,2,0,0,1,.81.15,1.57,1.57,0,0,1,.58.43,1.91,1.91,0,0,1,.35.67,2.93,2.93,0,0,1,.12.86v3.55h-1V21.59a1.5,1.5,0,0,0-.29-1,1.08,1.08,0,0,0-.88-.35,1.65,1.65,0,0,0-.81.21,2.66,2.66,0,0,0-.7.57v4.1Z"/><path class="efcd2f14-f975-4182-b9fd-c92d3044e80f" d="M352.75,20.14h4.72v.74h-4.72Zm0,1.84h4.72v.74h-4.72Z"/><path class="efcd2f14-f975-4182-b9fd-c92d3044e80f" d="M363.68,17.69a.47.47,0,0,1-.13.34.61.61,0,0,1-.45.13h-2.47l-.36,2.07a5.44,5.44,0,0,1,1.14-.13,3,3,0,0,1,1.09.18,2.24,2.24,0,0,1,.79.5,2.1,2.1,0,0,1,.48.75,2.7,2.7,0,0,1,.16.95,2.8,2.8,0,0,1-.22,1.13,2.59,2.59,0,0,1-.6.87,2.64,2.64,0,0,1-.9.55,3.3,3.3,0,0,1-1.78.12,3.31,3.31,0,0,1-.59-.18,3.5,3.5,0,0,1-.51-.26,2.93,2.93,0,0,1-.42-.31l.3-.42a.31.31,0,0,1,.26-.14.49.49,0,0,1,.25.09l.34.19a2.92,2.92,0,0,0,.46.19,2.09,2.09,0,0,0,.64.09,2,2,0,0,0,.74-.13,1.57,1.57,0,0,0,.56-.38,1.67,1.67,0,0,0,.36-.59,2.17,2.17,0,0,0,.13-.76,2,2,0,0,0-.11-.67,1.31,1.31,0,0,0-.32-.51A1.49,1.49,0,0,0,362,21a2.26,2.26,0,0,0-.76-.12,4,4,0,0,0-.62,0,4.28,4.28,0,0,0-.66.16l-.62-.18.64-3.69h3.73Z"/><path class="efcd2f14-f975-4182-b9fd-c92d3044e80f" d="M185.84,93.37h3.41v.9h-4.48V86.39h1.07Z"/><path class="efcd2f14-f975-4182-b9fd-c92d3044e80f" d="M192.33,88.61a2.86,2.86,0,0,1,1.1.2,2.32,2.32,0,0,1,.84.58,2.56,2.56,0,0,1,.53.91,3.91,3.91,0,0,1,0,2.37,2.56,2.56,0,0,1-.53.9,2.28,2.28,0,0,1-.84.58,3.12,3.12,0,0,1-2.21,0,2.32,2.32,0,0,1-.84-.58,2.57,2.57,0,0,1-.53-.9,3.85,3.85,0,0,1,0-2.37,2.57,2.57,0,0,1,.53-.91,2.36,2.36,0,0,1,.84-.58A2.86,2.86,0,0,1,192.33,88.61Zm0,5a1.43,1.43,0,0,0,1.23-.55,3.15,3.15,0,0,0,0-3.09,1.43,1.43,0,0,0-1.23-.56,1.72,1.72,0,0,0-.73.14,1.36,1.36,0,0,0-.51.41,1.82,1.82,0,0,0-.31.66,3.93,3.93,0,0,0,0,1.77,1.8,1.8,0,0,0,.31.66,1.36,1.36,0,0,0,.51.41A1.7,1.7,0,0,0,192.33,93.58Z"/><path class="efcd2f14-f975-4182-b9fd-c92d3044e80f" d="M198.06,88.6a2.79,2.79,0,0,1,.68.08,2.17,2.17,0,0,1,.58.23h1.51v.36c0,.12-.08.2-.23.23l-.63.09a1.69,1.69,0,0,1,.19.8,1.71,1.71,0,0,1-.16.74,1.66,1.66,0,0,1-.43.57,1.93,1.93,0,0,1-.66.36,2.66,2.66,0,0,1-.84.13,2.81,2.81,0,0,1-.74-.09.93.93,0,0,0-.27.24.45.45,0,0,0-.09.26.35.35,0,0,0,.16.31,1.11,1.11,0,0,0,.42.15,3.56,3.56,0,0,0,.6,0h.68a3.79,3.79,0,0,1,.68.06,2.08,2.08,0,0,1,.6.2,1.13,1.13,0,0,1,.42.38,1.15,1.15,0,0,1,.16.63,1.49,1.49,0,0,1-.18.7,1.9,1.9,0,0,1-.51.6,2.65,2.65,0,0,1-.82.42,3.51,3.51,0,0,1-1.09.16,4.2,4.2,0,0,1-1.07-.12,2.48,2.48,0,0,1-.76-.32,1.41,1.41,0,0,1-.45-.47,1.12,1.12,0,0,1-.15-.56,1,1,0,0,1,.26-.7,1.78,1.78,0,0,1,.72-.46,1,1,0,0,1-.38-.29.79.79,0,0,1-.14-.49.77.77,0,0,1,0-.25,1.06,1.06,0,0,1,.13-.26,1.42,1.42,0,0,1,.22-.24,1.44,1.44,0,0,1,.31-.2,1.74,1.74,0,0,1-.65-.61,1.68,1.68,0,0,1-.23-.89,1.72,1.72,0,0,1,.16-.74,1.65,1.65,0,0,1,.44-.57,2,2,0,0,1,.67-.36A2.74,2.74,0,0,1,198.06,88.6Zm1.74,5.95a.49.49,0,0,0-.12-.34.75.75,0,0,0-.31-.2,2.23,2.23,0,0,0-.46-.1,4.2,4.2,0,0,0-.54,0h-.58a2.11,2.11,0,0,1-.57-.07,1.61,1.61,0,0,0-.51.36.73.73,0,0,0-.2.51.67.67,0,0,0,.1.35.82.82,0,0,0,.29.28,1.71,1.71,0,0,0,.5.19,3.6,3.6,0,0,0,1.42,0,1.76,1.76,0,0,0,.53-.21,1,1,0,0,0,.33-.32A.76.76,0,0,0,199.8,94.55Zm-1.74-3a1.52,1.52,0,0,0,.52-.08,1.06,1.06,0,0,0,.38-.23.94.94,0,0,0,.23-.35,1.28,1.28,0,0,0,.08-.45,1.09,1.09,0,0,0-.31-.81,1.5,1.5,0,0,0-1.8,0,1.09,1.09,0,0,0-.31.81,1.26,1.26,0,0,0,.08.45,1,1,0,0,0,.23.35,1.06,1.06,0,0,0,.38.23A1.48,1.48,0,0,0,198.06,91.54Z"/><path class="efcd2f14-f975-4182-b9fd-c92d3044e80f" d="M202.93,93.28a1.68,1.68,0,0,1,.54.09,1.26,1.26,0,0,1,.44.25,1.18,1.18,0,0,1,.29.4,1.31,1.31,0,0,1,.11.54,1.43,1.43,0,0,1-.08.47,2,2,0,0,1-.21.42,3.16,3.16,0,0,1-.3.39l-.36.38-1.21,1.24.26-.06.25,0h1.54a.2.2,0,0,1,.15.05.19.19,0,0,1,.05.14v.35h-3.07v-.2a.37.37,0,0,1,0-.12.35.35,0,0,1,.08-.12L202.91,96l.33-.36a2.67,2.67,0,0,0,.26-.34,1.65,1.65,0,0,0,.17-.35,1.24,1.24,0,0,0,.06-.38.9.9,0,0,0-.06-.35.7.7,0,0,0-.18-.25.75.75,0,0,0-.26-.15,1,1,0,0,0-.32,0,1,1,0,0,0-.32.05.87.87,0,0,0-.26.14.83.83,0,0,0-.19.22.81.81,0,0,0-.11.28.26.26,0,0,1-.08.13.21.21,0,0,1-.13,0h-.07l-.3-.05a1.71,1.71,0,0,1,.17-.56,1.32,1.32,0,0,1,.33-.41,1.37,1.37,0,0,1,.45-.25A1.74,1.74,0,0,1,202.93,93.28Z"/><path class="efcd2f14-f975-4182-b9fd-c92d3044e80f" d="M206.31,90.81a8.65,8.65,0,0,0,.3,2.29,9.12,9.12,0,0,0,.88,2.12.5.5,0,0,1,0,.1.39.39,0,0,1,0,.09.2.2,0,0,1,0,.13l-.1.09-.43.26a10.16,10.16,0,0,1-.7-1.25,8.49,8.49,0,0,1-.47-1.25,8.64,8.64,0,0,1-.26-1.26,10.3,10.3,0,0,1,0-2.61,8.44,8.44,0,0,1,.73-2.51,10.42,10.42,0,0,1,.7-1.26l.43.27.1.09a.2.2,0,0,1,0,.13.42.42,0,0,1-.05.19,8.73,8.73,0,0,0-1.18,4.4Z"/><path class="efcd2f14-f975-4182-b9fd-c92d3044e80f" d="M209.6,93.52h1.69V88.15c0-.16,0-.32,0-.49l-1.41,1.2-.11.06-.1,0a.3.3,0,0,1-.15,0,.26.26,0,0,1-.1-.08l-.31-.42,2.34-2h.8v7.15h1.55v.75H209.6Z"/><path class="efcd2f14-f975-4182-b9fd-c92d3044e80f" d="M220.45,90.33a6.37,6.37,0,0,1-.22,1.79,3.75,3.75,0,0,1-.61,1.25,2.44,2.44,0,0,1-.91.74,2.73,2.73,0,0,1-2.25,0,2.45,2.45,0,0,1-.91-.74,3.71,3.71,0,0,1-.6-1.25,7.41,7.41,0,0,1,0-3.58,3.75,3.75,0,0,1,.6-1.26,2.45,2.45,0,0,1,.91-.74,2.73,2.73,0,0,1,2.25,0,2.44,2.44,0,0,1,.91.74,3.79,3.79,0,0,1,.61,1.26A6.41,6.41,0,0,1,220.45,90.33Zm-1,0a6.45,6.45,0,0,0-.15-1.51,3,3,0,0,0-.41-1,1.52,1.52,0,0,0-.59-.54,1.58,1.58,0,0,0-1.4,0,1.5,1.5,0,0,0-.59.54,3.06,3.06,0,0,0-.4,1,7.64,7.64,0,0,0,0,3,3.06,3.06,0,0,0,.4,1,1.5,1.5,0,0,0,.59.54,1.59,1.59,0,0,0,1.4,0,1.52,1.52,0,0,0,.59-.54,3,3,0,0,0,.41-1A6.42,6.42,0,0,0,219.44,90.33Z"/><path class="efcd2f14-f975-4182-b9fd-c92d3044e80f" d="M221.67,94.38a.58.58,0,0,1-.23.29.59.59,0,0,1-.31.09h-.41L224,86.53a.59.59,0,0,1,.2-.27.53.53,0,0,1,.31-.09H225Z"/><path class="efcd2f14-f975-4182-b9fd-c92d3044e80f" d="M226.47,93.52h1.69V88.15c0-.16,0-.32,0-.49l-1.41,1.2-.11.06-.1,0a.3.3,0,0,1-.15,0,.27.27,0,0,1-.1-.08L226,88.4l2.34-2h.8v7.15h1.55v.75h-4.22Z"/><path class="efcd2f14-f975-4182-b9fd-c92d3044e80f" d="M237.32,90.33a6.37,6.37,0,0,1-.22,1.79,3.73,3.73,0,0,1-.61,1.25,2.44,2.44,0,0,1-.91.74,2.73,2.73,0,0,1-2.25,0,2.46,2.46,0,0,1-.9-.74,3.71,3.71,0,0,1-.61-1.25,7.41,7.41,0,0,1,0-3.58,3.75,3.75,0,0,1,.61-1.26,2.46,2.46,0,0,1,.9-.74,2.73,2.73,0,0,1,2.25,0,2.44,2.44,0,0,1,.91.74,3.77,3.77,0,0,1,.61,1.26A6.41,6.41,0,0,1,237.32,90.33Zm-1,0a6.45,6.45,0,0,0-.15-1.51,3.06,3.06,0,0,0-.41-1,1.53,1.53,0,0,0-.59-.54,1.58,1.58,0,0,0-1.4,0,1.51,1.51,0,0,0-.59.54,3.11,3.11,0,0,0-.4,1,7.64,7.64,0,0,0,0,3,3.11,3.11,0,0,0,.4,1,1.51,1.51,0,0,0,.59.54,1.58,1.58,0,0,0,1.4,0,1.53,1.53,0,0,0,.59-.54,3.06,3.06,0,0,0,.41-1A6.42,6.42,0,0,0,236.3,90.33Z"/><path class="efcd2f14-f975-4182-b9fd-c92d3044e80f" d="M239.29,90.81a8.73,8.73,0,0,0-1.18-4.4.42.42,0,0,1-.05-.19.2.2,0,0,1,0-.13.4.4,0,0,1,.1-.09l.43-.27a10.42,10.42,0,0,1,.7,1.26,8.7,8.7,0,0,1,.47,1.25,8.54,8.54,0,0,1,.26,1.26,10.3,10.3,0,0,1,0,2.61,8.49,8.49,0,0,1-.73,2.51,10.16,10.16,0,0,1-.7,1.25l-.43-.26a.4.4,0,0,1-.1-.09.2.2,0,0,1,0-.13.39.39,0,0,1,0-.09.5.5,0,0,1,0-.1,9.12,9.12,0,0,0,.88-2.12A8.65,8.65,0,0,0,239.29,90.81Z"/><path class="efcd2f14-f975-4182-b9fd-c92d3044e80f" d="M215.29,108.27a6.52,6.52,0,0,1-.22,1.81,3.71,3.71,0,0,1-.62,1.27,2.5,2.5,0,0,1-.93.75,2.75,2.75,0,0,1-1.16.24,2.72,2.72,0,0,1-1.15-.24,2.48,2.48,0,0,1-.92-.75,3.71,3.71,0,0,1-.61-1.27,7.55,7.55,0,0,1,0-3.62,3.71,3.71,0,0,1,.61-1.26,2.48,2.48,0,0,1,.92-.75,2.72,2.72,0,0,1,1.15-.24,2.75,2.75,0,0,1,1.16.24,2.5,2.5,0,0,1,.93.75,3.71,3.71,0,0,1,.62,1.26A6.51,6.51,0,0,1,215.29,108.27Zm-1.4,0a6.75,6.75,0,0,0-.13-1.43,2.88,2.88,0,0,0-.34-.9,1.24,1.24,0,0,0-.49-.47,1.28,1.28,0,0,0-.57-.13,1.26,1.26,0,0,0-.56.13,1.22,1.22,0,0,0-.48.47,2.89,2.89,0,0,0-.33.9,8.31,8.31,0,0,0,0,2.86,2.89,2.89,0,0,0,.33.9,1.22,1.22,0,0,0,.48.47,1.26,1.26,0,0,0,.56.13,1.28,1.28,0,0,0,.57-.13,1.24,1.24,0,0,0,.49-.47,2.88,2.88,0,0,0,.34-.9A6.75,6.75,0,0,0,213.89,108.27Z"/><path class="efcd2f14-f975-4182-b9fd-c92d3044e80f" d="M258.54,93.37h3.41v.9h-4.48V86.39h1.07Z"/><path class="efcd2f14-f975-4182-b9fd-c92d3044e80f" d="M265,88.61a2.86,2.86,0,0,1,1.1.2,2.33,2.33,0,0,1,.84.58,2.56,2.56,0,0,1,.53.91,3.93,3.93,0,0,1,0,2.37,2.56,2.56,0,0,1-.53.9,2.29,2.29,0,0,1-.84.58,3.12,3.12,0,0,1-2.21,0,2.31,2.31,0,0,1-.84-.58,2.57,2.57,0,0,1-.53-.9,3.87,3.87,0,0,1,0-2.37,2.57,2.57,0,0,1,.53-.91,2.35,2.35,0,0,1,.84-.58A2.86,2.86,0,0,1,265,88.61Zm0,5a1.43,1.43,0,0,0,1.23-.55,3.14,3.14,0,0,0,0-3.09,1.43,1.43,0,0,0-1.23-.56,1.72,1.72,0,0,0-.73.14,1.36,1.36,0,0,0-.51.41,1.84,1.84,0,0,0-.31.66,3.93,3.93,0,0,0,0,1.77,1.81,1.81,0,0,0,.31.66,1.36,1.36,0,0,0,.51.41A1.7,1.7,0,0,0,265,93.58Z"/><path class="efcd2f14-f975-4182-b9fd-c92d3044e80f" d="M270.76,88.6a2.8,2.8,0,0,1,.68.08,2.16,2.16,0,0,1,.57.23h1.51v.36c0,.12-.08.2-.23.23l-.63.09a1.81,1.81,0,0,1,0,1.54,1.67,1.67,0,0,1-.43.57,1.94,1.94,0,0,1-.66.36,2.67,2.67,0,0,1-.84.13,2.81,2.81,0,0,1-.74-.09.93.93,0,0,0-.27.24.45.45,0,0,0-.09.26.35.35,0,0,0,.16.31,1.1,1.1,0,0,0,.42.15,3.56,3.56,0,0,0,.6,0h.68a3.8,3.8,0,0,1,.69.06,2.09,2.09,0,0,1,.6.2,1.12,1.12,0,0,1,.42.38,1.14,1.14,0,0,1,.16.63,1.49,1.49,0,0,1-.18.7,1.89,1.89,0,0,1-.51.6,2.65,2.65,0,0,1-.82.42,3.52,3.52,0,0,1-1.09.16,4.21,4.21,0,0,1-1.07-.12,2.5,2.5,0,0,1-.76-.32,1.42,1.42,0,0,1-.45-.47,1.11,1.11,0,0,1-.15-.56,1,1,0,0,1,.26-.7,1.79,1.79,0,0,1,.72-.46,1,1,0,0,1-.38-.29.79.79,0,0,1-.14-.49.77.77,0,0,1,0-.25,1,1,0,0,1,.13-.26,1.46,1.46,0,0,1,.22-.24,1.44,1.44,0,0,1,.31-.2,1.73,1.73,0,0,1-.65-.61,1.68,1.68,0,0,1-.23-.89,1.72,1.72,0,0,1,.16-.74,1.64,1.64,0,0,1,.44-.57,2,2,0,0,1,.67-.36A2.74,2.74,0,0,1,270.76,88.6Zm1.74,5.95a.49.49,0,0,0-.12-.34.74.74,0,0,0-.31-.2,2.23,2.23,0,0,0-.46-.1,4.22,4.22,0,0,0-.54,0h-.58a2.11,2.11,0,0,1-.57-.07,1.62,1.62,0,0,0-.51.36.73.73,0,0,0-.2.51.67.67,0,0,0,.1.35.82.82,0,0,0,.29.28,1.71,1.71,0,0,0,.5.19,3.6,3.6,0,0,0,1.42,0,1.77,1.77,0,0,0,.53-.21,1,1,0,0,0,.33-.32A.76.76,0,0,0,272.5,94.55Zm-1.74-3a1.53,1.53,0,0,0,.53-.08,1.06,1.06,0,0,0,.38-.23,1,1,0,0,0,.23-.35,1.3,1.3,0,0,0,.08-.45,1.08,1.08,0,0,0-.31-.81,1.5,1.5,0,0,0-1.8,0,1.09,1.09,0,0,0-.31.81,1.24,1.24,0,0,0,.08.45,1,1,0,0,0,.23.35,1.07,1.07,0,0,0,.38.23A1.48,1.48,0,0,0,270.76,91.54Z"/><path class="efcd2f14-f975-4182-b9fd-c92d3044e80f" d="M275.64,93.28a1.68,1.68,0,0,1,.54.09,1.26,1.26,0,0,1,.44.25,1.18,1.18,0,0,1,.29.4,1.31,1.31,0,0,1,.11.54,1.43,1.43,0,0,1-.08.47,2,2,0,0,1-.21.42,3.16,3.16,0,0,1-.3.39l-.36.38-1.21,1.24.26-.06.25,0h1.54a.2.2,0,0,1,.15.05.19.19,0,0,1,.05.14v.35H274v-.2a.37.37,0,0,1,0-.12.35.35,0,0,1,.08-.12L275.62,96l.33-.36a2.67,2.67,0,0,0,.26-.34,1.65,1.65,0,0,0,.17-.35,1.24,1.24,0,0,0,.06-.38.9.9,0,0,0-.06-.35.7.7,0,0,0-.18-.25.75.75,0,0,0-.26-.15,1,1,0,0,0-.32,0,1,1,0,0,0-.32.05A.87.87,0,0,0,275,94a.83.83,0,0,0-.19.22.81.81,0,0,0-.11.28.26.26,0,0,1-.08.13.21.21,0,0,1-.13,0h-.07l-.3-.05a1.71,1.71,0,0,1,.17-.56,1.32,1.32,0,0,1,.33-.41,1.37,1.37,0,0,1,.45-.25A1.74,1.74,0,0,1,275.64,93.28Z"/><path class="efcd2f14-f975-4182-b9fd-c92d3044e80f" d="M279,90.81a8.65,8.65,0,0,0,.3,2.29,9.12,9.12,0,0,0,.88,2.12.5.5,0,0,1,0,.1.39.39,0,0,1,0,.09.2.2,0,0,1,0,.13l-.1.09-.43.26a10.16,10.16,0,0,1-.7-1.25,8.49,8.49,0,0,1-.47-1.25,8.64,8.64,0,0,1-.26-1.26,10.3,10.3,0,0,1,0-2.61A8.44,8.44,0,0,1,279,87a10.42,10.42,0,0,1,.7-1.26l.43.27.1.09a.2.2,0,0,1,0,.13.42.42,0,0,1-.05.19,8.73,8.73,0,0,0-1.18,4.4Z"/><path class="efcd2f14-f975-4182-b9fd-c92d3044e80f" d="M282.31,93.52H284V88.15c0-.16,0-.32,0-.49l-1.41,1.2-.11.06-.1,0a.3.3,0,0,1-.15,0,.26.26,0,0,1-.1-.08l-.31-.42,2.34-2h.8v7.15h1.55v.75h-4.22Z"/><path class="efcd2f14-f975-4182-b9fd-c92d3044e80f" d="M293.16,90.33a6.37,6.37,0,0,1-.22,1.79,3.75,3.75,0,0,1-.61,1.25,2.44,2.44,0,0,1-.91.74,2.73,2.73,0,0,1-2.25,0,2.45,2.45,0,0,1-.91-.74,3.71,3.71,0,0,1-.6-1.25,7.41,7.41,0,0,1,0-3.58,3.75,3.75,0,0,1,.6-1.26,2.45,2.45,0,0,1,.91-.74,2.73,2.73,0,0,1,2.25,0,2.44,2.44,0,0,1,.91.74,3.79,3.79,0,0,1,.61,1.26A6.41,6.41,0,0,1,293.16,90.33Zm-1,0a6.45,6.45,0,0,0-.15-1.51,3,3,0,0,0-.41-1,1.52,1.52,0,0,0-.59-.54,1.58,1.58,0,0,0-1.4,0,1.5,1.5,0,0,0-.59.54,3.06,3.06,0,0,0-.4,1,7.64,7.64,0,0,0,0,3,3.06,3.06,0,0,0,.4,1,1.5,1.5,0,0,0,.59.54,1.59,1.59,0,0,0,1.4,0,1.52,1.52,0,0,0,.59-.54,3,3,0,0,0,.41-1A6.42,6.42,0,0,0,292.14,90.33Z"/><path class="efcd2f14-f975-4182-b9fd-c92d3044e80f" d="M294.37,94.38a.58.58,0,0,1-.23.29.59.59,0,0,1-.31.09h-.41l3.31-8.23a.59.59,0,0,1,.2-.27.53.53,0,0,1,.31-.09h.41Z"/><path class="efcd2f14-f975-4182-b9fd-c92d3044e80f" d="M301,86.3a2.89,2.89,0,0,1,.92.14,2.17,2.17,0,0,1,.73.41,1.86,1.86,0,0,1,.48.64,2,2,0,0,1,.17.83,2.17,2.17,0,0,1-.1.67,1.6,1.6,0,0,1-.71.89,2.38,2.38,0,0,1-.57.25,2.14,2.14,0,0,1,1.16.68,1.84,1.84,0,0,1,.39,1.2,2.25,2.25,0,0,1-.21,1,2.2,2.2,0,0,1-.56.74,2.54,2.54,0,0,1-.83.47,3.16,3.16,0,0,1-1,.16,3.24,3.24,0,0,1-1.07-.16,2.22,2.22,0,0,1-.75-.43,2.29,2.29,0,0,1-.51-.65,4.8,4.8,0,0,1-.33-.82l.42-.18a.57.57,0,0,1,.23,0,.41.41,0,0,1,.2,0,.3.3,0,0,1,.13.15l0,0,0,.05.19.36a1.51,1.51,0,0,0,.3.38,1.62,1.62,0,0,0,.46.3,1.72,1.72,0,0,0,.69.12,1.8,1.8,0,0,0,.72-.13,1.57,1.57,0,0,0,.52-.35,1.45,1.45,0,0,0,.31-.48,1.42,1.42,0,0,0,.1-.52,1.89,1.89,0,0,0-.08-.58,1,1,0,0,0-.31-.46,1.58,1.58,0,0,0-.62-.3,3.84,3.84,0,0,0-1-.11v-.71a3,3,0,0,0,.86-.1,1.66,1.66,0,0,0,.58-.29,1.05,1.05,0,0,0,.33-.43,1.48,1.48,0,0,0,.1-.56,1.5,1.5,0,0,0-.11-.59,1.13,1.13,0,0,0-.29-.42,1.23,1.23,0,0,0-.44-.25,1.8,1.8,0,0,0-.55-.08,1.66,1.66,0,0,0-.55.09,1.48,1.48,0,0,0-.45.24,1.42,1.42,0,0,0-.33.37,1.74,1.74,0,0,0-.2.47.44.44,0,0,1-.13.23.35.35,0,0,1-.23.07h-.13l-.51-.09a2.92,2.92,0,0,1,.3-1,2.28,2.28,0,0,1,.56-.7,2.39,2.39,0,0,1,.78-.43A3,3,0,0,1,301,86.3Z"/><path class="efcd2f14-f975-4182-b9fd-c92d3044e80f" d="M305.61,90.81a8.73,8.73,0,0,0-1.18-4.4.42.42,0,0,1-.05-.19.2.2,0,0,1,0-.13.4.4,0,0,1,.1-.09l.43-.27a10.42,10.42,0,0,1,.7,1.26,8.7,8.7,0,0,1,.47,1.25,8.54,8.54,0,0,1,.26,1.26,10.3,10.3,0,0,1,0,2.61,8.49,8.49,0,0,1-.73,2.51,10.16,10.16,0,0,1-.7,1.25l-.43-.26a.4.4,0,0,1-.1-.09.2.2,0,0,1,0-.13.39.39,0,0,1,0-.09.5.5,0,0,1,0-.1,9.12,9.12,0,0,0,.88-2.12A8.65,8.65,0,0,0,305.61,90.81Z"/><path class="efcd2f14-f975-4182-b9fd-c92d3044e80f" d="M308.15,94.38a.58.58,0,0,1-.54.38h-.41l3.3-8.23a.59.59,0,0,1,.2-.27.53.53,0,0,1,.31-.09h.41Z"/><path class="efcd2f14-f975-4182-b9fd-c92d3044e80f" d="M313,90.81a8.65,8.65,0,0,0,.3,2.29,9.12,9.12,0,0,0,.88,2.12.5.5,0,0,1,0,.1.39.39,0,0,1,0,.09.2.2,0,0,1,0,.13l-.1.09-.43.26a10.16,10.16,0,0,1-.7-1.25,8.49,8.49,0,0,1-.47-1.25,8.64,8.64,0,0,1-.26-1.26,10.3,10.3,0,0,1,0-2.61,8.44,8.44,0,0,1,.73-2.51,10.42,10.42,0,0,1,.7-1.26l.43.27.1.09a.2.2,0,0,1,0,.13.42.42,0,0,1-.05.19,8.73,8.73,0,0,0-1.18,4.4Z"/><path class="efcd2f14-f975-4182-b9fd-c92d3044e80f" d="M318.25,89.44a2.57,2.57,0,0,1,.9.16,2.13,2.13,0,0,1,1.25,1.19,2.51,2.51,0,0,1,.19,1,2.57,2.57,0,0,1-.2,1,2.48,2.48,0,0,1-.55.81,2.55,2.55,0,0,1-.86.54,3,3,0,0,1-1.1.2,2.92,2.92,0,0,1-1.08-.19,2.33,2.33,0,0,1-.82-.54,2.37,2.37,0,0,1-.53-.85,3.18,3.18,0,0,1-.18-1.11,3,3,0,0,1,.23-1.1,5.55,5.55,0,0,1,.73-1.25l2-2.69a.62.62,0,0,1,.21-.17.7.7,0,0,1,.31-.07h.87l-2.73,3.46a2.31,2.31,0,0,1,.62-.3A2.42,2.42,0,0,1,318.25,89.44Zm-2,2.4a2.09,2.09,0,0,0,.11.69,1.5,1.5,0,0,0,.32.54,1.44,1.44,0,0,0,.52.35,1.85,1.85,0,0,0,.7.12,1.93,1.93,0,0,0,.71-.13,1.62,1.62,0,0,0,.55-.35,1.56,1.56,0,0,0,.35-.53,1.79,1.79,0,0,0,.12-.67,1.9,1.9,0,0,0-.12-.7,1.45,1.45,0,0,0-.87-.86,1.92,1.92,0,0,0-.68-.12,1.82,1.82,0,0,0-.71.13,1.63,1.63,0,0,0-.54.36,1.56,1.56,0,0,0-.34.53A1.68,1.68,0,0,0,316.21,91.84Z"/><path class="efcd2f14-f975-4182-b9fd-c92d3044e80f" d="M321.94,94.38a.58.58,0,0,1-.23.29.59.59,0,0,1-.31.09H321l3.31-8.23a.59.59,0,0,1,.2-.27.53.53,0,0,1,.31-.09h.41Z"/><path class="efcd2f14-f975-4182-b9fd-c92d3044e80f" d="M328.56,86.3a2.89,2.89,0,0,1,.92.14,2.17,2.17,0,0,1,.73.41,1.86,1.86,0,0,1,.48.64,2,2,0,0,1,.17.83,2.17,2.17,0,0,1-.1.67,1.6,1.6,0,0,1-.71.89,2.38,2.38,0,0,1-.57.25,2.14,2.14,0,0,1,1.16.68A1.84,1.84,0,0,1,331,92a2.25,2.25,0,0,1-.21,1,2.2,2.2,0,0,1-.56.74,2.54,2.54,0,0,1-.83.47,3.16,3.16,0,0,1-1,.16,3.24,3.24,0,0,1-1.07-.16,2.22,2.22,0,0,1-.75-.43,2.29,2.29,0,0,1-.51-.65,4.8,4.8,0,0,1-.33-.82l.42-.18a.57.57,0,0,1,.23,0,.41.41,0,0,1,.2,0,.3.3,0,0,1,.13.15l0,0,0,.05.19.36a1.51,1.51,0,0,0,.3.38,1.62,1.62,0,0,0,.46.3,1.72,1.72,0,0,0,.69.12,1.8,1.8,0,0,0,.72-.13,1.57,1.57,0,0,0,.52-.35,1.45,1.45,0,0,0,.31-.48,1.42,1.42,0,0,0,.1-.52,1.89,1.89,0,0,0-.08-.58,1,1,0,0,0-.31-.46,1.58,1.58,0,0,0-.62-.3,3.84,3.84,0,0,0-1-.11v-.71a3,3,0,0,0,.86-.1,1.66,1.66,0,0,0,.58-.29,1.05,1.05,0,0,0,.33-.43,1.48,1.48,0,0,0,.1-.56,1.5,1.5,0,0,0-.11-.59,1.13,1.13,0,0,0-.29-.42,1.23,1.23,0,0,0-.44-.25,1.8,1.8,0,0,0-.55-.08,1.66,1.66,0,0,0-.55.09,1.48,1.48,0,0,0-.45.24,1.42,1.42,0,0,0-.33.37,1.74,1.74,0,0,0-.2.47.44.44,0,0,1-.13.23.35.35,0,0,1-.23.07h-.13l-.51-.09a2.92,2.92,0,0,1,.3-1,2.28,2.28,0,0,1,.56-.7,2.39,2.39,0,0,1,.78-.43A3,3,0,0,1,328.56,86.3Z"/><path class="efcd2f14-f975-4182-b9fd-c92d3044e80f" d="M333.17,90.81a8.73,8.73,0,0,0-1.18-4.4.42.42,0,0,1-.05-.19.2.2,0,0,1,0-.13.4.4,0,0,1,.1-.09l.43-.27a10.42,10.42,0,0,1,.7,1.26,8.7,8.7,0,0,1,.47,1.25,8.54,8.54,0,0,1,.26,1.26,10.3,10.3,0,0,1,0,2.61,8.49,8.49,0,0,1-.73,2.51,10.16,10.16,0,0,1-.7,1.25l-.43-.26a.4.4,0,0,1-.1-.09.2.2,0,0,1,0-.13.39.39,0,0,1,0-.09.5.5,0,0,1,0-.1,9.12,9.12,0,0,0,.88-2.12A8.65,8.65,0,0,0,333.17,90.81Z"/><path class="efcd2f14-f975-4182-b9fd-c92d3044e80f" d="M338.42,87.85V90.2h2.24v.74h-2.24v2.37h-.8V90.95h-2.23V90.2h2.23V87.85Z"/><path class="efcd2f14-f975-4182-b9fd-c92d3044e80f" d="M342.8,90.81a8.61,8.61,0,0,0,.3,2.29,9.12,9.12,0,0,0,.87,2.12.42.42,0,0,1,0,.1.34.34,0,0,1,0,.09.2.2,0,0,1,0,.13.4.4,0,0,1-.1.09l-.43.26a10,10,0,0,1-.7-1.25,8.49,8.49,0,0,1-.47-1.25,8.78,8.78,0,0,1-.26-1.26,10.42,10.42,0,0,1,0-2.61,8.67,8.67,0,0,1,.26-1.26,8.58,8.58,0,0,1,.47-1.25,10.29,10.29,0,0,1,.7-1.26l.43.27a.4.4,0,0,1,.1.09.2.2,0,0,1,0,.13.41.41,0,0,1-.05.19,8.75,8.75,0,0,0-1.18,4.4Z"/><path class="efcd2f14-f975-4182-b9fd-c92d3044e80f" d="M349.48,91.42h1.19V92a.22.22,0,0,1-.05.15.2.2,0,0,1-.16.06h-1v2.07h-.86V92.19h-3.49a.3.3,0,0,1-.19-.06.28.28,0,0,1-.1-.16l-.1-.5,3.83-5.09h.91Zm-.86-3.25c0-.09,0-.2,0-.31a3.29,3.29,0,0,1,0-.34l-2.87,3.9h2.82Z"/><path class="efcd2f14-f975-4182-b9fd-c92d3044e80f" d="M351.78,94.38a.58.58,0,0,1-.54.38h-.41l3.3-8.23a.59.59,0,0,1,.2-.27.53.53,0,0,1,.31-.09h.41Z"/><path class="efcd2f14-f975-4182-b9fd-c92d3044e80f" d="M360.38,86.81a.47.47,0,0,1-.13.34.61.61,0,0,1-.45.13h-2.47L357,89.36a5.47,5.47,0,0,1,1.14-.13,3,3,0,0,1,1.09.18,2.24,2.24,0,0,1,.79.5,2.1,2.1,0,0,1,.48.75,2.69,2.69,0,0,1,.16.95,2.8,2.8,0,0,1-.22,1.13,2.6,2.6,0,0,1-.6.87,2.64,2.64,0,0,1-.9.55,3.18,3.18,0,0,1-1.12.19,3.15,3.15,0,0,1-.67-.07,3.27,3.27,0,0,1-.59-.18,3.46,3.46,0,0,1-.51-.26,2.93,2.93,0,0,1-.42-.31l.3-.42a.31.31,0,0,1,.26-.14.49.49,0,0,1,.25.08l.34.19a2.92,2.92,0,0,0,.46.19,2.11,2.11,0,0,0,.64.08,2,2,0,0,0,.74-.13,1.58,1.58,0,0,0,.56-.38,1.67,1.67,0,0,0,.36-.59,2.16,2.16,0,0,0,.13-.76,2,2,0,0,0-.11-.67,1.31,1.31,0,0,0-.32-.51,1.48,1.48,0,0,0-.54-.32,2.26,2.26,0,0,0-.76-.12,4,4,0,0,0-.62,0,4.33,4.33,0,0,0-.66.16l-.62-.18.64-3.69h3.73Z"/><path class="efcd2f14-f975-4182-b9fd-c92d3044e80f" d="M363,90.81a8.75,8.75,0,0,0-1.18-4.4.41.41,0,0,1-.05-.19.2.2,0,0,1,0-.13.4.4,0,0,1,.1-.09l.43-.27a10.29,10.29,0,0,1,.7,1.26,8.58,8.58,0,0,1,.47,1.25,8.67,8.67,0,0,1,.26,1.26,10.42,10.42,0,0,1,0,2.61,8.78,8.78,0,0,1-.26,1.26,8.49,8.49,0,0,1-.47,1.25,10,10,0,0,1-.7,1.25l-.43-.26a.4.4,0,0,1-.1-.09.2.2,0,0,1,0-.13.34.34,0,0,1,0-.09.42.42,0,0,1,0-.1,9.12,9.12,0,0,0,.87-2.12A8.61,8.61,0,0,0,363,90.81Z"/><path class="efcd2f14-f975-4182-b9fd-c92d3044e80f" d="M366.32,90.81a8.75,8.75,0,0,0-1.18-4.4.41.41,0,0,1-.05-.19.2.2,0,0,1,0-.13.4.4,0,0,1,.1-.09l.43-.27a10.29,10.29,0,0,1,.7,1.26,8.58,8.58,0,0,1,.47,1.25,8.67,8.67,0,0,1,.26,1.26,10.42,10.42,0,0,1,0,2.61,8.78,8.78,0,0,1-.26,1.26,8.49,8.49,0,0,1-.47,1.25,10,10,0,0,1-.7,1.25l-.43-.26a.4.4,0,0,1-.1-.09.2.2,0,0,1,0-.13.34.34,0,0,1,0-.09.42.42,0,0,1,0-.1,9.12,9.12,0,0,0,.87-2.12A8.61,8.61,0,0,0,366.32,90.81Z"/><path class="efcd2f14-f975-4182-b9fd-c92d3044e80f" d="M307.41,108.27a6.52,6.52,0,0,1-.22,1.81,3.71,3.71,0,0,1-.62,1.27,2.5,2.5,0,0,1-.93.75,2.75,2.75,0,0,1-1.16.24,2.72,2.72,0,0,1-1.15-.24,2.48,2.48,0,0,1-.92-.75,3.71,3.71,0,0,1-.61-1.27,7.55,7.55,0,0,1,0-3.62,3.71,3.71,0,0,1,.61-1.26,2.48,2.48,0,0,1,.92-.75,2.72,2.72,0,0,1,1.15-.24,2.75,2.75,0,0,1,1.16.24,2.5,2.5,0,0,1,.93.75,3.71,3.71,0,0,1,.62,1.26A6.51,6.51,0,0,1,307.41,108.27Zm-1.4,0a6.75,6.75,0,0,0-.13-1.43,2.88,2.88,0,0,0-.34-.9,1.24,1.24,0,0,0-.49-.47,1.28,1.28,0,0,0-.57-.13,1.26,1.26,0,0,0-.56.13,1.22,1.22,0,0,0-.48.47,2.89,2.89,0,0,0-.33.9,8.31,8.31,0,0,0,0,2.86,2.89,2.89,0,0,0,.33.9,1.22,1.22,0,0,0,.48.47,1.26,1.26,0,0,0,.56.13,1.28,1.28,0,0,0,.57-.13,1.24,1.24,0,0,0,.49-.47,2.88,2.88,0,0,0,.34-.9A6.75,6.75,0,0,0,306,108.27Z"/><path class="efcd2f14-f975-4182-b9fd-c92d3044e80f" d="M308.09,111.5a.85.85,0,0,1,.06-.32.77.77,0,0,1,.18-.26.87.87,0,0,1,.27-.18.83.83,0,0,1,.33-.07.82.82,0,0,1,.33.07.84.84,0,0,1,.26.18.83.83,0,0,1,.18.26.83.83,0,0,1,0,.65.84.84,0,0,1-.18.26.79.79,0,0,1-.26.17.85.85,0,0,1-.33.06.86.86,0,0,1-.33-.06.81.81,0,0,1-.27-.17.78.78,0,0,1-.18-.26A.84.84,0,0,1,308.09,111.5Z"/><path class="efcd2f14-f975-4182-b9fd-c92d3044e80f" d="M313.47,104.21a3,3,0,0,1,1,.16,2.28,2.28,0,0,1,.78.46,2.09,2.09,0,0,1,.51.71,2.31,2.31,0,0,1,.18.93,2.48,2.48,0,0,1-.13.81,3.33,3.33,0,0,1-.35.71,4.79,4.79,0,0,1-.51.66l-.61.65-1.79,1.83a4.35,4.35,0,0,1,.52-.12,3,3,0,0,1,.48,0h2a.48.48,0,0,1,.35.12.43.43,0,0,1,.13.33v.81h-5.46v-.45a.79.79,0,0,1,.06-.29.79.79,0,0,1,.18-.28l2.41-2.42q.3-.31.54-.59a4,4,0,0,0,.4-.56,2.51,2.51,0,0,0,.25-.56,2,2,0,0,0,.09-.6,1.4,1.4,0,0,0-.08-.5,1,1,0,0,0-.6-.59,1.44,1.44,0,0,0-.48-.07,1.27,1.27,0,0,0-.81.25,1.29,1.29,0,0,0-.44.67.55.55,0,0,1-.18.3.5.5,0,0,1-.31.09l-.18,0-.71-.13a3,3,0,0,1,.32-1,2.37,2.37,0,0,1,1.41-1.15A3.25,3.25,0,0,1,313.47,104.21Z"/><path class="efcd2f14-f975-4182-b9fd-c92d3044e80f" d="M322,104.87a.63.63,0,0,1-.18.47.86.86,0,0,1-.61.18H319l-.29,1.66a5,5,0,0,1,1-.11,3,3,0,0,1,1.1.19,2.27,2.27,0,0,1,.8.52,2.18,2.18,0,0,1,.49.77,2.73,2.73,0,0,1,.17,1,2.92,2.92,0,0,1-.22,1.15,2.62,2.62,0,0,1-.62.89,2.77,2.77,0,0,1-.94.57,3.33,3.33,0,0,1-1.18.2,3.17,3.17,0,0,1-.71-.08,3.54,3.54,0,0,1-.63-.21,3.49,3.49,0,0,1-.54-.3,3.39,3.39,0,0,1-.45-.35l.42-.58a.41.41,0,0,1,.35-.19.52.52,0,0,1,.28.09l.33.19a2.8,2.8,0,0,0,.43.19,1.79,1.79,0,0,0,.6.09,1.68,1.68,0,0,0,.66-.12,1.28,1.28,0,0,0,.48-.34,1.44,1.44,0,0,0,.29-.52,2.11,2.11,0,0,0,.1-.65,1.35,1.35,0,0,0-.38-1,1.53,1.53,0,0,0-1.11-.37,3.42,3.42,0,0,0-1.16.21l-.85-.24.66-3.86H322Z"/><path class="efcd2f14-f975-4182-b9fd-c92d3044e80f" d="M189,142.74h3.41v.9H188v-7.88H189Z"/><path class="efcd2f14-f975-4182-b9fd-c92d3044e80f" d="M195.52,138a2.86,2.86,0,0,1,1.1.2,2.33,2.33,0,0,1,.84.58,2.56,2.56,0,0,1,.53.9,3.93,3.93,0,0,1,0,2.37,2.56,2.56,0,0,1-.53.9,2.3,2.3,0,0,1-.84.58,3.13,3.13,0,0,1-2.21,0,2.31,2.31,0,0,1-.84-.58,2.57,2.57,0,0,1-.53-.9,3.87,3.87,0,0,1,0-2.37,2.57,2.57,0,0,1,.53-.9,2.34,2.34,0,0,1,.84-.58A2.86,2.86,0,0,1,195.52,138Zm0,5a1.43,1.43,0,0,0,1.23-.55,3.14,3.14,0,0,0,0-3.09,1.43,1.43,0,0,0-1.23-.56,1.71,1.71,0,0,0-.73.14,1.36,1.36,0,0,0-.51.41,1.84,1.84,0,0,0-.31.66,3.92,3.92,0,0,0,0,1.77,1.81,1.81,0,0,0,.31.66,1.36,1.36,0,0,0,.51.41A1.71,1.71,0,0,0,195.52,142.95Z"/><path class="efcd2f14-f975-4182-b9fd-c92d3044e80f" d="M201.25,138a2.8,2.8,0,0,1,.68.08,2.14,2.14,0,0,1,.57.23H204v.36q0,.18-.23.23l-.63.09a1.81,1.81,0,0,1,0,1.54,1.68,1.68,0,0,1-.43.57,2,2,0,0,1-.66.36,2.65,2.65,0,0,1-.84.13,2.81,2.81,0,0,1-.74-.09.93.93,0,0,0-.27.24.45.45,0,0,0-.09.26.35.35,0,0,0,.16.31,1.1,1.1,0,0,0,.42.15,3.56,3.56,0,0,0,.6,0H202a3.8,3.8,0,0,1,.69.06,2.07,2.07,0,0,1,.6.2,1.12,1.12,0,0,1,.42.38,1.14,1.14,0,0,1,.16.63,1.49,1.49,0,0,1-.18.7,1.89,1.89,0,0,1-.51.6,2.64,2.64,0,0,1-.82.42,3.5,3.5,0,0,1-1.09.16,4.21,4.21,0,0,1-1.07-.12,2.51,2.51,0,0,1-.76-.32,1.42,1.42,0,0,1-.45-.47,1.11,1.11,0,0,1-.15-.56,1,1,0,0,1,.26-.7,1.8,1.8,0,0,1,.72-.46,1,1,0,0,1-.38-.29.79.79,0,0,1-.14-.49.78.78,0,0,1,0-.25,1,1,0,0,1,.13-.26,1.44,1.44,0,0,1,.22-.24,1.46,1.46,0,0,1,.31-.2,1.73,1.73,0,0,1-.65-.61,1.68,1.68,0,0,1-.23-.89,1.72,1.72,0,0,1,.16-.74,1.63,1.63,0,0,1,.44-.57,2,2,0,0,1,.67-.36A2.72,2.72,0,0,1,201.25,138Zm1.74,5.95a.49.49,0,0,0-.12-.34.74.74,0,0,0-.31-.2,2.26,2.26,0,0,0-.46-.1,4.22,4.22,0,0,0-.54,0H201a2.13,2.13,0,0,1-.57-.07,1.61,1.61,0,0,0-.51.36.74.74,0,0,0-.2.51.67.67,0,0,0,.1.35.82.82,0,0,0,.29.28,1.71,1.71,0,0,0,.5.19,3.19,3.19,0,0,0,.71.07,3.16,3.16,0,0,0,.71-.07,1.79,1.79,0,0,0,.53-.21,1,1,0,0,0,.33-.32A.76.76,0,0,0,203,143.92Zm-1.74-3a1.54,1.54,0,0,0,.53-.08,1.05,1.05,0,0,0,.38-.23,1,1,0,0,0,.23-.35,1.3,1.3,0,0,0,.08-.45,1.08,1.08,0,0,0-.31-.81,1.5,1.5,0,0,0-1.8,0,1.08,1.08,0,0,0-.31.81,1.24,1.24,0,0,0,.08.45,1,1,0,0,0,.23.35,1.06,1.06,0,0,0,.38.23A1.49,1.49,0,0,0,201.25,140.91Z"/><path class="efcd2f14-f975-4182-b9fd-c92d3044e80f" d="M206.12,142.65a1.68,1.68,0,0,1,.54.09,1.26,1.26,0,0,1,.44.25,1.17,1.17,0,0,1,.29.4,1.31,1.31,0,0,1,.11.54,1.43,1.43,0,0,1-.08.47,2,2,0,0,1-.21.42,3.12,3.12,0,0,1-.3.39l-.36.38-1.21,1.24.26-.06.25,0h1.54a.2.2,0,0,1,.15.05.19.19,0,0,1,.05.14v.35h-3.07v-.2a.36.36,0,0,1,0-.12.35.35,0,0,1,.08-.12l1.47-1.48.33-.36a2.67,2.67,0,0,0,.26-.34,1.65,1.65,0,0,0,.17-.35,1.24,1.24,0,0,0,.06-.38.9.9,0,0,0-.06-.35.7.7,0,0,0-.18-.25.75.75,0,0,0-.26-.15,1,1,0,0,0-.32,0,1,1,0,0,0-.32.05.86.86,0,0,0-.26.14.84.84,0,0,0-.19.22.82.82,0,0,0-.11.28.26.26,0,0,1-.08.13.21.21,0,0,1-.13,0h-.07l-.3-.05a1.72,1.72,0,0,1,.17-.56,1.33,1.33,0,0,1,.33-.41,1.37,1.37,0,0,1,.45-.25A1.74,1.74,0,0,1,206.12,142.65Z"/><path class="efcd2f14-f975-4182-b9fd-c92d3044e80f" d="M209.5,140.18a8.66,8.66,0,0,0,.3,2.29,9.13,9.13,0,0,0,.88,2.11.52.52,0,0,1,0,.1.39.39,0,0,1,0,.09.2.2,0,0,1,0,.13l-.1.09-.43.26a10.09,10.09,0,0,1-.7-1.25,8.48,8.48,0,0,1-.47-1.25,8.64,8.64,0,0,1-.26-1.26,10.3,10.3,0,0,1,0-2.61,8.43,8.43,0,0,1,.73-2.51,10.43,10.43,0,0,1,.7-1.26l.43.27.1.09a.2.2,0,0,1,0,.13.42.42,0,0,1-.05.19,8.74,8.74,0,0,0-1.18,4.4Z"/><path class="efcd2f14-f975-4182-b9fd-c92d3044e80f" d="M214.79,138.81a2.57,2.57,0,0,1,.9.16,2.13,2.13,0,0,1,1.25,1.19,2.51,2.51,0,0,1,.19,1,2.57,2.57,0,0,1-.2,1,2.48,2.48,0,0,1-.55.81,2.55,2.55,0,0,1-.86.54,3,3,0,0,1-1.1.2,2.91,2.91,0,0,1-1.08-.19,2.31,2.31,0,0,1-.82-.54,2.36,2.36,0,0,1-.53-.85,3.18,3.18,0,0,1-.18-1.11,3,3,0,0,1,.23-1.1,5.55,5.55,0,0,1,.73-1.25l2-2.69a.62.62,0,0,1,.21-.17.69.69,0,0,1,.31-.07h.87l-2.73,3.46a2.32,2.32,0,0,1,.62-.3A2.44,2.44,0,0,1,214.79,138.81Zm-2,2.4a2.09,2.09,0,0,0,.11.69,1.49,1.49,0,0,0,.32.54,1.44,1.44,0,0,0,.52.35,1.84,1.84,0,0,0,.7.12,1.92,1.92,0,0,0,.71-.13,1.61,1.61,0,0,0,.55-.35,1.56,1.56,0,0,0,.35-.53,1.79,1.79,0,0,0,.12-.67,1.9,1.9,0,0,0-.12-.7,1.45,1.45,0,0,0-.87-.86,1.92,1.92,0,0,0-.68-.12,1.82,1.82,0,0,0-.71.13,1.63,1.63,0,0,0-.54.36,1.56,1.56,0,0,0-.34.53A1.68,1.68,0,0,0,212.75,141.21Z"/><path class="efcd2f14-f975-4182-b9fd-c92d3044e80f" d="M218.48,143.75a.58.58,0,0,1-.23.29.59.59,0,0,1-.31.09h-.41l3.31-8.23a.59.59,0,0,1,.2-.27.53.53,0,0,1,.31-.09h.41Z"/><path class="efcd2f14-f975-4182-b9fd-c92d3044e80f" d="M223.28,142.89H225v-5.37c0-.16,0-.32,0-.49l-1.41,1.2-.11.06-.1,0a.3.3,0,0,1-.15,0,.28.28,0,0,1-.1-.08l-.31-.42,2.34-2h.8v7.15h1.55v.75h-4.22Z"/><path class="efcd2f14-f975-4182-b9fd-c92d3044e80f" d="M234.13,139.7a6.37,6.37,0,0,1-.22,1.79,3.73,3.73,0,0,1-.61,1.25,2.44,2.44,0,0,1-.91.74,2.73,2.73,0,0,1-2.25,0,2.46,2.46,0,0,1-.9-.74,3.71,3.71,0,0,1-.61-1.25,7.41,7.41,0,0,1,0-3.58,3.75,3.75,0,0,1,.61-1.26,2.46,2.46,0,0,1,.9-.74,2.73,2.73,0,0,1,2.25,0,2.44,2.44,0,0,1,.91.74,3.77,3.77,0,0,1,.61,1.26A6.41,6.41,0,0,1,234.13,139.7Zm-1,0a6.45,6.45,0,0,0-.15-1.52,3.07,3.07,0,0,0-.41-1,1.54,1.54,0,0,0-.59-.54,1.58,1.58,0,0,0-1.4,0,1.52,1.52,0,0,0-.59.54,3.12,3.12,0,0,0-.4,1,7.65,7.65,0,0,0,0,3,3.12,3.12,0,0,0,.4,1,1.52,1.52,0,0,0,.59.54,1.58,1.58,0,0,0,1.4,0,1.54,1.54,0,0,0,.59-.54,3.07,3.07,0,0,0,.41-1A6.42,6.42,0,0,0,233.11,139.7Z"/><path class="efcd2f14-f975-4182-b9fd-c92d3044e80f" d="M236.1,140.18a8.74,8.74,0,0,0-1.18-4.4.42.42,0,0,1-.05-.19.2.2,0,0,1,0-.13.39.39,0,0,1,.1-.09l.43-.27a10.43,10.43,0,0,1,.7,1.26,8.67,8.67,0,0,1,.47,1.25,8.54,8.54,0,0,1,.26,1.26,10.3,10.3,0,0,1,0,2.61,8.48,8.48,0,0,1-.73,2.51,10.09,10.09,0,0,1-.7,1.25L235,145a.39.39,0,0,1-.1-.09.2.2,0,0,1,0-.13.39.39,0,0,1,0-.09.52.52,0,0,1,0-.1,9.13,9.13,0,0,0,.88-2.11A8.66,8.66,0,0,0,236.1,140.18Z"/><path class="efcd2f14-f975-4182-b9fd-c92d3044e80f" d="M200.15,157.73H203v1.13h-2.85Z"/><path class="efcd2f14-f975-4182-b9fd-c92d3044e80f" d="M209.65,157.64a6.52,6.52,0,0,1-.22,1.81,3.69,3.69,0,0,1-.62,1.27,2.48,2.48,0,0,1-.93.75,2.76,2.76,0,0,1-1.16.25,2.72,2.72,0,0,1-1.15-.25,2.47,2.47,0,0,1-.92-.75,3.69,3.69,0,0,1-.61-1.27,7.52,7.52,0,0,1,0-3.62,3.68,3.68,0,0,1,.61-1.26,2.49,2.49,0,0,1,.92-.75,2.72,2.72,0,0,1,1.15-.24,2.76,2.76,0,0,1,1.16.24,2.49,2.49,0,0,1,.93.75,3.69,3.69,0,0,1,.62,1.26A6.52,6.52,0,0,1,209.65,157.64Zm-1.4,0a6.76,6.76,0,0,0-.13-1.43,2.86,2.86,0,0,0-.34-.9,1.23,1.23,0,0,0-.49-.47,1.29,1.29,0,0,0-.57-.13,1.26,1.26,0,0,0-.56.13,1.22,1.22,0,0,0-.48.47,2.87,2.87,0,0,0-.33.9,8.37,8.37,0,0,0,0,2.86,2.91,2.91,0,0,0,.33.9,1.23,1.23,0,0,0,.48.47,1.26,1.26,0,0,0,.56.13,1.29,1.29,0,0,0,.57-.13,1.24,1.24,0,0,0,.49-.47,2.9,2.9,0,0,0,.34-.9A6.75,6.75,0,0,0,208.25,157.64Z"/><path class="efcd2f14-f975-4182-b9fd-c92d3044e80f" d="M210.33,160.87a.82.82,0,0,1,.06-.32.77.77,0,0,1,.18-.26.89.89,0,0,1,.27-.18.85.85,0,0,1,.33-.07.83.83,0,0,1,.32.07.87.87,0,0,1,.26.18.82.82,0,0,1,.18.26.84.84,0,0,1,0,.65.83.83,0,0,1-.18.26.81.81,0,0,1-.26.17.87.87,0,0,1-.32.06.88.88,0,0,1-.33-.06.83.83,0,0,1-.27-.17.77.77,0,0,1-.18-.26A.82.82,0,0,1,210.33,160.87Z"/><path class="efcd2f14-f975-4182-b9fd-c92d3044e80f" d="M218.43,153.67v.59a1.31,1.31,0,0,1-.06.43,2.49,2.49,0,0,1-.11.27l-3,6.2a.93.93,0,0,1-.26.33.72.72,0,0,1-.46.13h-1l3.08-6.08a3.18,3.18,0,0,1,.43-.64h-3.81a.3.3,0,0,1-.22-.09.3.3,0,0,1-.09-.22v-.92Z"/><path class="efcd2f14-f975-4182-b9fd-c92d3044e80f" d="M222.22,153.58a3,3,0,0,1,1,.16,2.28,2.28,0,0,1,.76.43,1.91,1.91,0,0,1,.48.65,2,2,0,0,1,.17.81,2.36,2.36,0,0,1-.08.67,1.56,1.56,0,0,1-.25.5,1.53,1.53,0,0,1-.4.36,2.4,2.4,0,0,1-.53.25,2.08,2.08,0,0,1,1.07.69,1.86,1.86,0,0,1,.35,1.16,2.39,2.39,0,0,1-.22,1,2.25,2.25,0,0,1-.59.77,2.57,2.57,0,0,1-.87.47,3.36,3.36,0,0,1-1,.16,3.58,3.58,0,0,1-1-.14,2.27,2.27,0,0,1-.78-.41,2.44,2.44,0,0,1-.56-.66,4.43,4.43,0,0,1-.4-.9l.6-.25a.79.79,0,0,1,.31-.07.52.52,0,0,1,.26.06.41.41,0,0,1,.17.18q.1.19.22.38a1.49,1.49,0,0,0,.28.33,1.33,1.33,0,0,0,.39.24,1.4,1.4,0,0,0,.53.09,1.49,1.49,0,0,0,.61-.11,1.3,1.3,0,0,0,.43-.29,1.23,1.23,0,0,0,.26-.4,1.25,1.25,0,0,0,.08-.45,2.09,2.09,0,0,0-.06-.52.77.77,0,0,0-.25-.4,1.37,1.37,0,0,0-.55-.26,4,4,0,0,0-1-.09v-1a3.29,3.29,0,0,0,.83-.09,1.41,1.41,0,0,0,.53-.24.84.84,0,0,0,.27-.38,1.47,1.47,0,0,0,.08-.48A1.12,1.12,0,0,0,223,155a1.18,1.18,0,0,0-.84-.29,1.25,1.25,0,0,0-.8.25,1.34,1.34,0,0,0-.45.66.6.6,0,0,1-.18.3.48.48,0,0,1-.3.09l-.19,0-.71-.12a3,3,0,0,1,.32-1,2.38,2.38,0,0,1,1.41-1.16A3.27,3.27,0,0,1,222.22,153.58Z"/><path class="efcd2f14-f975-4182-b9fd-c92d3044e80f" d="M273.46,142.74h3.41v.9h-4.48v-7.88h1.07Z"/><path class="efcd2f14-f975-4182-b9fd-c92d3044e80f" d="M279.95,138a2.86,2.86,0,0,1,1.1.2,2.32,2.32,0,0,1,.84.58,2.56,2.56,0,0,1,.53.9,3.91,3.91,0,0,1,0,2.37,2.56,2.56,0,0,1-.53.9,2.29,2.29,0,0,1-.84.58,3.13,3.13,0,0,1-2.21,0,2.33,2.33,0,0,1-.84-.58,2.57,2.57,0,0,1-.53-.9,3.85,3.85,0,0,1,0-2.37,2.57,2.57,0,0,1,.53-.9,2.36,2.36,0,0,1,.84-.58A2.86,2.86,0,0,1,279.95,138Zm0,5a1.43,1.43,0,0,0,1.23-.55,3.15,3.15,0,0,0,0-3.09,1.43,1.43,0,0,0-1.23-.56,1.71,1.71,0,0,0-.73.14,1.36,1.36,0,0,0-.51.41,1.82,1.82,0,0,0-.31.66,3.92,3.92,0,0,0,0,1.77,1.79,1.79,0,0,0,.31.66,1.37,1.37,0,0,0,.51.41A1.71,1.71,0,0,0,279.95,142.95Z"/><path class="efcd2f14-f975-4182-b9fd-c92d3044e80f" d="M285.69,138a2.79,2.79,0,0,1,.68.08,2.15,2.15,0,0,1,.58.23h1.51v.36c0,.12-.08.2-.23.23l-.63.09a1.69,1.69,0,0,1,.19.8,1.71,1.71,0,0,1-.16.74,1.67,1.67,0,0,1-.43.57,1.94,1.94,0,0,1-.66.36,2.65,2.65,0,0,1-.84.13,2.81,2.81,0,0,1-.74-.09.93.93,0,0,0-.27.24.45.45,0,0,0-.09.26.35.35,0,0,0,.16.31,1.11,1.11,0,0,0,.42.15,3.56,3.56,0,0,0,.6,0h.68a3.79,3.79,0,0,1,.68.06,2.07,2.07,0,0,1,.6.2,1.12,1.12,0,0,1,.42.38,1.15,1.15,0,0,1,.16.63,1.49,1.49,0,0,1-.18.7,1.9,1.9,0,0,1-.51.6,2.64,2.64,0,0,1-.82.42,3.5,3.5,0,0,1-1.09.16,4.2,4.2,0,0,1-1.07-.12,2.49,2.49,0,0,1-.76-.32,1.41,1.41,0,0,1-.45-.47,1.12,1.12,0,0,1-.15-.56,1,1,0,0,1,.26-.7,1.79,1.79,0,0,1,.72-.46,1,1,0,0,1-.38-.29.79.79,0,0,1-.14-.49.78.78,0,0,1,0-.25,1,1,0,0,1,.13-.26,1.4,1.4,0,0,1,.22-.24,1.46,1.46,0,0,1,.31-.2,1.73,1.73,0,0,1-.65-.61,1.68,1.68,0,0,1-.23-.89,1.72,1.72,0,0,1,.16-.74,1.64,1.64,0,0,1,.44-.57,2,2,0,0,1,.67-.36A2.73,2.73,0,0,1,285.69,138Zm1.74,5.95a.49.49,0,0,0-.12-.34.75.75,0,0,0-.31-.2,2.26,2.26,0,0,0-.46-.1,4.2,4.2,0,0,0-.54,0h-.58a2.13,2.13,0,0,1-.57-.07,1.6,1.6,0,0,0-.51.36.74.74,0,0,0-.2.51.67.67,0,0,0,.1.35.81.81,0,0,0,.29.28,1.71,1.71,0,0,0,.5.19,3.58,3.58,0,0,0,1.42,0,1.77,1.77,0,0,0,.53-.21,1,1,0,0,0,.33-.32A.76.76,0,0,0,287.42,143.92Zm-1.74-3a1.53,1.53,0,0,0,.52-.08,1.06,1.06,0,0,0,.38-.23.94.94,0,0,0,.23-.35,1.28,1.28,0,0,0,.08-.45,1.08,1.08,0,0,0-.31-.81,1.5,1.5,0,0,0-1.8,0,1.08,1.08,0,0,0-.31.81,1.26,1.26,0,0,0,.08.45,1,1,0,0,0,.23.35,1.06,1.06,0,0,0,.38.23A1.5,1.5,0,0,0,285.69,140.91Z"/><path class="efcd2f14-f975-4182-b9fd-c92d3044e80f" d="M290.56,142.65a1.68,1.68,0,0,1,.54.09,1.26,1.26,0,0,1,.44.25,1.17,1.17,0,0,1,.29.4,1.31,1.31,0,0,1,.11.54,1.43,1.43,0,0,1-.08.47,2,2,0,0,1-.21.42,3.12,3.12,0,0,1-.3.39l-.36.38-1.21,1.24.26-.06.25,0h1.54a.2.2,0,0,1,.15.05.19.19,0,0,1,.05.14v.35H289v-.2a.36.36,0,0,1,0-.12.35.35,0,0,1,.08-.12l1.47-1.48.33-.36a2.67,2.67,0,0,0,.26-.34,1.65,1.65,0,0,0,.17-.35,1.24,1.24,0,0,0,.06-.38.9.9,0,0,0-.06-.35.7.7,0,0,0-.18-.25.75.75,0,0,0-.26-.15,1,1,0,0,0-.32,0,1,1,0,0,0-.32.05.86.86,0,0,0-.26.14.84.84,0,0,0-.19.22.82.82,0,0,0-.11.28.26.26,0,0,1-.08.13.21.21,0,0,1-.13,0h-.07l-.3-.05a1.72,1.72,0,0,1,.17-.56,1.33,1.33,0,0,1,.33-.41,1.37,1.37,0,0,1,.45-.25A1.74,1.74,0,0,1,290.56,142.65Z"/><path class="efcd2f14-f975-4182-b9fd-c92d3044e80f" d="M293.94,140.18a8.66,8.66,0,0,0,.3,2.29,9.13,9.13,0,0,0,.88,2.11.52.52,0,0,1,0,.1.39.39,0,0,1,0,.09.2.2,0,0,1,0,.13l-.1.09-.43.26a10.09,10.09,0,0,1-.7-1.25,8.48,8.48,0,0,1-.47-1.25,8.64,8.64,0,0,1-.26-1.26,10.3,10.3,0,0,1,0-2.61,8.43,8.43,0,0,1,.73-2.51,10.43,10.43,0,0,1,.7-1.26l.43.27.1.09a.2.2,0,0,1,0,.13.42.42,0,0,1-.05.19,8.74,8.74,0,0,0-1.18,4.4Z"/><path class="efcd2f14-f975-4182-b9fd-c92d3044e80f" d="M299.22,138.81a2.57,2.57,0,0,1,.9.16,2.13,2.13,0,0,1,1.25,1.19,2.51,2.51,0,0,1,.19,1,2.57,2.57,0,0,1-.2,1,2.48,2.48,0,0,1-.55.81,2.55,2.55,0,0,1-.86.54,3,3,0,0,1-1.1.2,2.91,2.91,0,0,1-1.08-.19A2.31,2.31,0,0,1,297,143a2.36,2.36,0,0,1-.53-.85,3.18,3.18,0,0,1-.18-1.11,3,3,0,0,1,.23-1.1,5.55,5.55,0,0,1,.73-1.25l2-2.69a.62.62,0,0,1,.21-.17.69.69,0,0,1,.31-.07h.87l-2.73,3.46a2.32,2.32,0,0,1,.62-.3A2.44,2.44,0,0,1,299.22,138.81Zm-2,2.4a2.09,2.09,0,0,0,.11.69,1.49,1.49,0,0,0,.32.54,1.44,1.44,0,0,0,.52.35,1.84,1.84,0,0,0,.7.12,1.92,1.92,0,0,0,.71-.13,1.61,1.61,0,0,0,.55-.35,1.56,1.56,0,0,0,.35-.53,1.79,1.79,0,0,0,.12-.67,1.9,1.9,0,0,0-.12-.7,1.45,1.45,0,0,0-.87-.86,1.92,1.92,0,0,0-.68-.12,1.82,1.82,0,0,0-.71.13,1.63,1.63,0,0,0-.54.36,1.56,1.56,0,0,0-.34.53A1.68,1.68,0,0,0,297.19,141.21Z"/><path class="efcd2f14-f975-4182-b9fd-c92d3044e80f" d="M302.91,143.75a.58.58,0,0,1-.23.29.59.59,0,0,1-.31.09H302l3.31-8.23a.59.59,0,0,1,.2-.27.53.53,0,0,1,.31-.09h.41Z"/><path class="efcd2f14-f975-4182-b9fd-c92d3044e80f" d="M309.54,135.67a2.87,2.87,0,0,1,.92.14,2.16,2.16,0,0,1,.73.41,1.86,1.86,0,0,1,.48.64,2,2,0,0,1,.17.83,2.17,2.17,0,0,1-.1.67,1.6,1.6,0,0,1-.71.89,2.38,2.38,0,0,1-.57.25,2.13,2.13,0,0,1,1.16.68,1.84,1.84,0,0,1,.39,1.2,2.25,2.25,0,0,1-.21,1,2.2,2.2,0,0,1-.56.74,2.52,2.52,0,0,1-.83.47,3.15,3.15,0,0,1-1,.16,3.24,3.24,0,0,1-1.07-.16,2.22,2.22,0,0,1-.75-.43,2.29,2.29,0,0,1-.51-.65,4.81,4.81,0,0,1-.33-.82l.42-.18a.57.57,0,0,1,.23,0,.4.4,0,0,1,.2,0,.3.3,0,0,1,.13.15l0,0,0,.05.19.36a1.51,1.51,0,0,0,.3.38,1.61,1.61,0,0,0,.46.3,1.72,1.72,0,0,0,.69.12,1.8,1.8,0,0,0,.72-.13,1.58,1.58,0,0,0,.52-.35,1.46,1.46,0,0,0,.31-.48,1.42,1.42,0,0,0,.1-.52,1.89,1.89,0,0,0-.08-.58,1,1,0,0,0-.31-.46,1.59,1.59,0,0,0-.62-.3,3.85,3.85,0,0,0-1-.11v-.71a3,3,0,0,0,.86-.1,1.67,1.67,0,0,0,.58-.29,1.05,1.05,0,0,0,.33-.43,1.48,1.48,0,0,0,.1-.56,1.5,1.5,0,0,0-.11-.59,1.13,1.13,0,0,0-.29-.42,1.23,1.23,0,0,0-.44-.25,1.79,1.79,0,0,0-.55-.08,1.66,1.66,0,0,0-.55.09,1.48,1.48,0,0,0-.45.24,1.42,1.42,0,0,0-.33.37,1.75,1.75,0,0,0-.2.47.44.44,0,0,1-.13.23.35.35,0,0,1-.23.07h-.13l-.51-.09a2.91,2.91,0,0,1,.3-1,2.29,2.29,0,0,1,.56-.7,2.39,2.39,0,0,1,.78-.43A3,3,0,0,1,309.54,135.67Z"/><path class="efcd2f14-f975-4182-b9fd-c92d3044e80f" d="M314.15,140.18a8.74,8.74,0,0,0-1.18-4.4.42.42,0,0,1-.05-.19.2.2,0,0,1,0-.13.39.39,0,0,1,.1-.09l.43-.27a10.43,10.43,0,0,1,.7,1.26,8.67,8.67,0,0,1,.47,1.25,8.54,8.54,0,0,1,.26,1.26,10.3,10.3,0,0,1,0,2.61,8.48,8.48,0,0,1-.73,2.51,10.09,10.09,0,0,1-.7,1.25l-.43-.26a.39.39,0,0,1-.1-.09.2.2,0,0,1,0-.13.39.39,0,0,1,0-.09.52.52,0,0,1,0-.1,9.13,9.13,0,0,0,.88-2.11A8.66,8.66,0,0,0,314.15,140.18Z"/><path class="efcd2f14-f975-4182-b9fd-c92d3044e80f" d="M316.7,143.75a.58.58,0,0,1-.54.38h-.41l3.3-8.23a.59.59,0,0,1,.2-.27.53.53,0,0,1,.31-.09H320Z"/><path class="efcd2f14-f975-4182-b9fd-c92d3044e80f" d="M321.5,140.18a8.66,8.66,0,0,0,.3,2.29,9.13,9.13,0,0,0,.88,2.11.52.52,0,0,1,0,.1.39.39,0,0,1,0,.09.2.2,0,0,1,0,.13l-.1.09-.43.26a10.09,10.09,0,0,1-.7-1.25,8.48,8.48,0,0,1-.47-1.25,8.64,8.64,0,0,1-.26-1.26,10.3,10.3,0,0,1,0-2.61,8.43,8.43,0,0,1,.73-2.51,10.43,10.43,0,0,1,.7-1.26l.43.27.1.09a.2.2,0,0,1,0,.13.42.42,0,0,1-.05.19,8.74,8.74,0,0,0-1.18,4.4Z"/><path class="efcd2f14-f975-4182-b9fd-c92d3044e80f" d="M324.79,142.89h1.69v-5.37c0-.16,0-.32,0-.49l-1.41,1.2-.11.06-.1,0a.31.31,0,0,1-.15,0,.27.27,0,0,1-.1-.08l-.31-.42,2.34-2h.8v7.15H329v.75h-4.22Z"/><path class="efcd2f14-f975-4182-b9fd-c92d3044e80f" d="M335.64,139.7a6.37,6.37,0,0,1-.22,1.79,3.75,3.75,0,0,1-.61,1.25,2.44,2.44,0,0,1-.91.74,2.73,2.73,0,0,1-2.25,0,2.45,2.45,0,0,1-.91-.74,3.71,3.71,0,0,1-.6-1.25,7.41,7.41,0,0,1,0-3.58,3.75,3.75,0,0,1,.6-1.26,2.45,2.45,0,0,1,.91-.74,2.73,2.73,0,0,1,2.25,0,2.44,2.44,0,0,1,.91.74,3.79,3.79,0,0,1,.61,1.26A6.41,6.41,0,0,1,335.64,139.7Zm-1,0a6.45,6.45,0,0,0-.15-1.52,3,3,0,0,0-.41-1,1.53,1.53,0,0,0-.59-.54,1.58,1.58,0,0,0-1.4,0,1.51,1.51,0,0,0-.59.54,3.07,3.07,0,0,0-.4,1,7.65,7.65,0,0,0,0,3,3.07,3.07,0,0,0,.4,1,1.51,1.51,0,0,0,.59.54,1.59,1.59,0,0,0,1.4,0,1.53,1.53,0,0,0,.59-.54,3,3,0,0,0,.41-1A6.42,6.42,0,0,0,334.63,139.7Z"/><path class="efcd2f14-f975-4182-b9fd-c92d3044e80f" d="M336.86,143.75a.58.58,0,0,1-.23.29.59.59,0,0,1-.31.09h-.41l3.31-8.23a.59.59,0,0,1,.2-.27.53.53,0,0,1,.31-.09h.41Z"/><path class="efcd2f14-f975-4182-b9fd-c92d3044e80f" d="M345.45,136.18a.47.47,0,0,1-.13.34.61.61,0,0,1-.45.13H342.4l-.36,2.07a5.43,5.43,0,0,1,1.14-.13,3,3,0,0,1,1.09.18,2.24,2.24,0,0,1,.79.5,2.08,2.08,0,0,1,.48.75,2.68,2.68,0,0,1,.16.95,2.82,2.82,0,0,1-.22,1.13,2.6,2.6,0,0,1-.6.87,2.64,2.64,0,0,1-.9.55,3.17,3.17,0,0,1-1.12.19,3.13,3.13,0,0,1-.67-.07,3.32,3.32,0,0,1-.59-.18,3.54,3.54,0,0,1-.51-.26,2.83,2.83,0,0,1-.42-.31l.3-.42a.31.31,0,0,1,.26-.14.5.5,0,0,1,.25.09l.34.19a2.88,2.88,0,0,0,.46.19,2.09,2.09,0,0,0,.63.09,2,2,0,0,0,.74-.13,1.58,1.58,0,0,0,.56-.38,1.69,1.69,0,0,0,.36-.59,2.19,2.19,0,0,0,.13-.76,2,2,0,0,0-.11-.67,1.31,1.31,0,0,0-.33-.51,1.48,1.48,0,0,0-.54-.32,2.26,2.26,0,0,0-.76-.12,4,4,0,0,0-.62,0,4.25,4.25,0,0,0-.66.16l-.62-.18.64-3.69h3.73Z"/><path class="efcd2f14-f975-4182-b9fd-c92d3044e80f" d="M348.1,140.18a8.74,8.74,0,0,0-1.18-4.4.42.42,0,0,1-.05-.19.2.2,0,0,1,0-.13.39.39,0,0,1,.1-.09l.43-.27a10.43,10.43,0,0,1,.7,1.26,8.67,8.67,0,0,1,.47,1.25,8.54,8.54,0,0,1,.26,1.26,10.3,10.3,0,0,1,0,2.61,8.48,8.48,0,0,1-.73,2.51,10.09,10.09,0,0,1-.7,1.25L347,145a.39.39,0,0,1-.1-.09.2.2,0,0,1,0-.13.39.39,0,0,1,0-.09.52.52,0,0,1,0-.1,9.13,9.13,0,0,0,.88-2.11A8.66,8.66,0,0,0,348.1,140.18Z"/><path class="efcd2f14-f975-4182-b9fd-c92d3044e80f" d="M351.39,140.18a8.74,8.74,0,0,0-1.18-4.4.42.42,0,0,1-.05-.19.2.2,0,0,1,0-.13.39.39,0,0,1,.1-.09l.43-.27a10.43,10.43,0,0,1,.7,1.26,8.67,8.67,0,0,1,.47,1.25,8.54,8.54,0,0,1,.26,1.26,10.3,10.3,0,0,1,0,2.61,8.48,8.48,0,0,1-.73,2.51,10.09,10.09,0,0,1-.7,1.25l-.43-.26a.39.39,0,0,1-.1-.09.2.2,0,0,1,0-.13.39.39,0,0,1,0-.09.52.52,0,0,1,0-.1,9.13,9.13,0,0,0,.88-2.11A8.66,8.66,0,0,0,351.39,140.18Z"/><path class="efcd2f14-f975-4182-b9fd-c92d3044e80f" d="M315,157.64a6.52,6.52,0,0,1-.22,1.81,3.71,3.71,0,0,1-.62,1.27,2.49,2.49,0,0,1-.93.75,2.75,2.75,0,0,1-1.16.25,2.72,2.72,0,0,1-1.15-.25,2.48,2.48,0,0,1-.92-.75,3.7,3.7,0,0,1-.61-1.27,7.55,7.55,0,0,1,0-3.62,3.7,3.7,0,0,1,.61-1.26,2.49,2.49,0,0,1,.92-.75,2.72,2.72,0,0,1,1.15-.24,2.75,2.75,0,0,1,1.16.24,2.5,2.5,0,0,1,.93.75,3.71,3.71,0,0,1,.62,1.26A6.52,6.52,0,0,1,315,157.64Zm-1.4,0a6.75,6.75,0,0,0-.13-1.43,2.87,2.87,0,0,0-.34-.9,1.23,1.23,0,0,0-.49-.47,1.28,1.28,0,0,0-.57-.13,1.26,1.26,0,0,0-.56.13,1.22,1.22,0,0,0-.48.47,2.87,2.87,0,0,0-.33.9,8.31,8.31,0,0,0,0,2.86,2.91,2.91,0,0,0,.33.9,1.23,1.23,0,0,0,.48.47,1.26,1.26,0,0,0,.56.13,1.28,1.28,0,0,0,.57-.13,1.24,1.24,0,0,0,.49-.47,2.9,2.9,0,0,0,.34-.9A6.75,6.75,0,0,0,313.62,157.64Z"/></g><g id="8fa3ceff-8c95-4b48-a352-614972c03a2a" data-name="text-titles"><path class="efcd2f14-f975-4182-b9fd-c92d3044e80f" d="M16,72a.3.3,0,0,1,.23.1l.64.69a3.49,3.49,0,0,1-1.3,1,4.48,4.48,0,0,1-1.85.35,4.38,4.38,0,0,1-1.74-.33,3.82,3.82,0,0,1-1.32-.92,4,4,0,0,1-.84-1.4,5.26,5.26,0,0,1-.29-1.78A4.8,4.8,0,0,1,9.83,68a4,4,0,0,1,2.32-2.32A4.83,4.83,0,0,1,14,65.31a4.27,4.27,0,0,1,1.69.31,4,4,0,0,1,1.24.82l-.54.75a.5.5,0,0,1-.12.13.35.35,0,0,1-.21.05.47.47,0,0,1-.28-.11,3.37,3.37,0,0,0-.37-.23,3,3,0,0,0-.56-.23,3.24,3.24,0,0,0-2,.1,2.51,2.51,0,0,0-.88.61,2.81,2.81,0,0,0-.58,1,3.7,3.7,0,0,0-.21,1.27,3.81,3.81,0,0,0,.21,1.3,2.86,2.86,0,0,0,.56,1,2.39,2.39,0,0,0,.83.6,2.57,2.57,0,0,0,1,.21,4.51,4.51,0,0,0,.6,0,2.56,2.56,0,0,0,.49-.11,2.21,2.21,0,0,0,.43-.2,2.69,2.69,0,0,0,.4-.3l.13-.09A.32.32,0,0,1,16,72Z"/><path class="efcd2f14-f975-4182-b9fd-c92d3044e80f" d="M20.6,67.83a3.37,3.37,0,0,1,1.25.22,2.7,2.7,0,0,1,1,.63,2.8,2.8,0,0,1,.61,1,4.13,4.13,0,0,1,0,2.63,2.86,2.86,0,0,1-.61,1,2.67,2.67,0,0,1-1,.64,3.65,3.65,0,0,1-2.5,0,2.68,2.68,0,0,1-1-.64,2.85,2.85,0,0,1-.62-1,4.07,4.07,0,0,1,0-2.63,2.79,2.79,0,0,1,.62-1,2.72,2.72,0,0,1,1-.63A3.4,3.4,0,0,1,20.6,67.83Zm0,5.2a1.3,1.3,0,0,0,1.14-.52A2.59,2.59,0,0,0,22.1,71a2.62,2.62,0,0,0-.37-1.52A1.3,1.3,0,0,0,20.6,69a1.32,1.32,0,0,0-1.15.53A2.6,2.6,0,0,0,19.07,71a2.57,2.57,0,0,0,.37,1.51A1.32,1.32,0,0,0,20.6,73Z"/><path class="efcd2f14-f975-4182-b9fd-c92d3044e80f" d="M24.79,74.08V67.93h.91a.36.36,0,0,1,.38.27l.1.49a3.33,3.33,0,0,1,.39-.35,2.77,2.77,0,0,1,.44-.27,2.26,2.26,0,0,1,.5-.17,2.6,2.6,0,0,1,.58-.06A2.22,2.22,0,0,1,29,68a1.77,1.77,0,0,1,.65.48,2.11,2.11,0,0,1,.4.74,3.14,3.14,0,0,1,.13.94v3.92H28.67V70.16a1.32,1.32,0,0,0-.26-.87,1,1,0,0,0-.78-.31,1.54,1.54,0,0,0-.72.17,2.59,2.59,0,0,0-.64.47v4.45Z"/><path class="efcd2f14-f975-4182-b9fd-c92d3044e80f" d="M35.94,74.08a.36.36,0,0,1-.38-.27l-.12-.59a3.72,3.72,0,0,1-.4.39,2.52,2.52,0,0,1-.45.3,2.36,2.36,0,0,1-.52.19,2.52,2.52,0,0,1-.6.07,2,2,0,0,1-1.65-.82,2.92,2.92,0,0,1-.47-1A5,5,0,0,1,31.19,71a4.2,4.2,0,0,1,.19-1.27,3.09,3.09,0,0,1,.53-1,2.48,2.48,0,0,1,.83-.67,2.41,2.41,0,0,1,1.09-.24,2.14,2.14,0,0,1,.88.17,2.31,2.31,0,0,1,.65.44V65.17h1.48v8.92ZM34,73a1.52,1.52,0,0,0,.79-.19,2.34,2.34,0,0,0,.61-.55V69.5a1.46,1.46,0,0,0-.55-.43,1.62,1.62,0,0,0-.64-.13,1.43,1.43,0,0,0-.61.13,1.18,1.18,0,0,0-.46.38,1.85,1.85,0,0,0-.29.65,3.7,3.7,0,0,0-.1.93,4.14,4.14,0,0,0,.09.92,1.82,1.82,0,0,0,.25.61,1,1,0,0,0,.4.34A1.26,1.26,0,0,0,34,73Z"/><path class="efcd2f14-f975-4182-b9fd-c92d3044e80f" d="M40.25,66.13a.85.85,0,0,1-.08.36,1,1,0,0,1-.51.49.93.93,0,0,1-.37.08.89.89,0,0,1-.36-.08,1,1,0,0,1-.3-.2,1,1,0,0,1-.2-.29.88.88,0,0,1-.08-.36.93.93,0,0,1,.08-.37,1,1,0,0,1,.2-.3,1,1,0,0,1,.3-.2.9.9,0,0,1,.36-.07.93.93,0,0,1,.37.07,1,1,0,0,1,.3.2,1,1,0,0,1,.21.3A.9.9,0,0,1,40.25,66.13ZM40,67.93v6.16H38.55V67.93Z"/><path class="efcd2f14-f975-4182-b9fd-c92d3044e80f" d="M43.72,74.18a1.62,1.62,0,0,1-1.23-.45,1.74,1.74,0,0,1-.43-1.25V69h-.62a.28.28,0,0,1-.29-.31v-.59l1-.16.31-1.68a.3.3,0,0,1,.11-.19.35.35,0,0,1,.22-.07h.77V68h1.62V69H43.55v3.34a.66.66,0,0,0,.14.45.49.49,0,0,0,.38.16.69.69,0,0,0,.23,0l.16-.07.12-.07a.21.21,0,0,1,.11,0,.17.17,0,0,1,.11,0l.09.1.44.72a2.23,2.23,0,0,1-.74.41A2.78,2.78,0,0,1,43.72,74.18Z"/><path class="efcd2f14-f975-4182-b9fd-c92d3044e80f" d="M48.15,66.13a.85.85,0,0,1-.08.36,1,1,0,0,1-.51.49.92.92,0,0,1-.37.08.88.88,0,0,1-.36-.08,1,1,0,0,1-.3-.2,1,1,0,0,1-.2-.29.86.86,0,0,1-.08-.36.91.91,0,0,1,.08-.37,1,1,0,0,1,.2-.3,1,1,0,0,1,.3-.2.89.89,0,0,1,.36-.07.93.93,0,0,1,.37.07,1,1,0,0,1,.3.2,1,1,0,0,1,.21.3A.9.9,0,0,1,48.15,66.13Zm-.22,1.79v6.16H46.44V67.93Z"/><path class="efcd2f14-f975-4182-b9fd-c92d3044e80f" d="M52.23,67.83a3.37,3.37,0,0,1,1.25.22,2.69,2.69,0,0,1,1,.63,2.77,2.77,0,0,1,.61,1,4.13,4.13,0,0,1,0,2.63,2.83,2.83,0,0,1-.61,1,2.66,2.66,0,0,1-1,.64A3.65,3.65,0,0,1,51,74a2.68,2.68,0,0,1-1-.64,2.87,2.87,0,0,1-.62-1,4.07,4.07,0,0,1,0-2.63,2.81,2.81,0,0,1,.62-1,2.72,2.72,0,0,1,1-.63A3.4,3.4,0,0,1,52.23,67.83Zm0,5.2a1.3,1.3,0,0,0,1.14-.52A2.59,2.59,0,0,0,53.73,71a2.62,2.62,0,0,0-.37-1.52A1.3,1.3,0,0,0,52.23,69a1.32,1.32,0,0,0-1.15.53A2.6,2.6,0,0,0,50.7,71a2.57,2.57,0,0,0,.37,1.51A1.32,1.32,0,0,0,52.23,73Z"/><path class="efcd2f14-f975-4182-b9fd-c92d3044e80f" d="M56.42,74.08V67.93h.91a.36.36,0,0,1,.38.27l.1.49a3.41,3.41,0,0,1,.39-.35,2.78,2.78,0,0,1,.44-.27,2.26,2.26,0,0,1,.5-.17,2.6,2.6,0,0,1,.58-.06,2.21,2.21,0,0,1,.89.17,1.77,1.77,0,0,1,.65.48,2.11,2.11,0,0,1,.4.74,3.14,3.14,0,0,1,.13.94v3.92H60.3V70.16a1.32,1.32,0,0,0-.26-.87,1,1,0,0,0-.78-.31,1.54,1.54,0,0,0-.72.17,2.57,2.57,0,0,0-.64.47v4.45Z"/><path class="efcd2f14-f975-4182-b9fd-c92d3044e80f" d="M73.27,74.08H72a.54.54,0,0,1-.34-.1.59.59,0,0,1-.2-.26l-.65-1.77H67.24l-.65,1.77a.57.57,0,0,1-.19.25.53.53,0,0,1-.34.11H64.8l3.41-8.68h1.65Zm-5.62-3.28h2.77l-1.06-2.89-.16-.45c-.06-.17-.12-.36-.17-.57-.06.2-.11.39-.17.57s-.11.33-.16.46Z"/><path class="efcd2f14-f975-4182-b9fd-c92d3044e80f" d="M102.78,72a.3.3,0,0,1,.23.1l.64.69a3.49,3.49,0,0,1-1.3,1,4.48,4.48,0,0,1-1.85.35,4.38,4.38,0,0,1-1.74-.33,3.83,3.83,0,0,1-1.32-.92,4,4,0,0,1-.84-1.4,5.26,5.26,0,0,1-.29-1.78A4.8,4.8,0,0,1,96.64,68,4,4,0,0,1,99,65.64a4.83,4.83,0,0,1,1.81-.33,4.28,4.28,0,0,1,1.69.31,4,4,0,0,1,1.24.82l-.54.75a.47.47,0,0,1-.12.13.35.35,0,0,1-.21.05.47.47,0,0,1-.28-.11,3.58,3.58,0,0,0-.37-.23,3,3,0,0,0-.56-.23,3.24,3.24,0,0,0-2,.1,2.5,2.5,0,0,0-.88.61,2.8,2.8,0,0,0-.58,1A3.68,3.68,0,0,0,98,69.74a3.78,3.78,0,0,0,.21,1.3,2.85,2.85,0,0,0,.56,1,2.4,2.4,0,0,0,.83.6,2.58,2.58,0,0,0,1,.21,4.5,4.5,0,0,0,.6,0,2.53,2.53,0,0,0,.49-.11,2.18,2.18,0,0,0,.43-.2,2.64,2.64,0,0,0,.4-.3l.13-.09A.32.32,0,0,1,102.78,72Z"/><path class="efcd2f14-f975-4182-b9fd-c92d3044e80f" d="M107.41,67.83a3.37,3.37,0,0,1,1.25.22,2.69,2.69,0,0,1,1,.63,2.77,2.77,0,0,1,.61,1,4.13,4.13,0,0,1,0,2.63,2.83,2.83,0,0,1-.61,1,2.66,2.66,0,0,1-1,.64,3.65,3.65,0,0,1-2.5,0,2.68,2.68,0,0,1-1-.64,2.87,2.87,0,0,1-.62-1,4.07,4.07,0,0,1,0-2.63,2.81,2.81,0,0,1,.62-1,2.72,2.72,0,0,1,1-.63A3.4,3.4,0,0,1,107.41,67.83Zm0,5.2a1.3,1.3,0,0,0,1.14-.52,2.59,2.59,0,0,0,.37-1.51,2.62,2.62,0,0,0-.37-1.52,1.3,1.3,0,0,0-1.14-.52,1.32,1.32,0,0,0-1.15.53,2.6,2.6,0,0,0-.37,1.51,2.57,2.57,0,0,0,.37,1.51A1.32,1.32,0,0,0,107.41,73Z"/><path class="efcd2f14-f975-4182-b9fd-c92d3044e80f" d="M111.6,74.08V67.93h.91a.36.36,0,0,1,.38.27l.1.49a3.41,3.41,0,0,1,.39-.35,2.78,2.78,0,0,1,.44-.27,2.26,2.26,0,0,1,.5-.17,2.6,2.6,0,0,1,.58-.06,2.21,2.21,0,0,1,.89.17,1.77,1.77,0,0,1,.65.48,2.11,2.11,0,0,1,.4.74,3.14,3.14,0,0,1,.13.94v3.92h-1.48V70.16a1.32,1.32,0,0,0-.26-.87,1,1,0,0,0-.78-.31,1.54,1.54,0,0,0-.72.17,2.57,2.57,0,0,0-.64.47v4.45Z"/><path class="efcd2f14-f975-4182-b9fd-c92d3044e80f" d="M122.75,74.08a.36.36,0,0,1-.38-.27l-.12-.59a3.71,3.71,0,0,1-.4.39,2.55,2.55,0,0,1-.45.3,2.35,2.35,0,0,1-.52.19,2.51,2.51,0,0,1-.6.07,2,2,0,0,1-.92-.21,2.05,2.05,0,0,1-.72-.61,2.92,2.92,0,0,1-.47-1A5,5,0,0,1,118,71a4.2,4.2,0,0,1,.19-1.27,3.11,3.11,0,0,1,.53-1,2.5,2.5,0,0,1,.83-.67,2.41,2.41,0,0,1,1.09-.24,2.14,2.14,0,0,1,.88.17,2.31,2.31,0,0,1,.65.44V65.17h1.48v8.92Zm-2-1.09a1.52,1.52,0,0,0,.79-.19,2.32,2.32,0,0,0,.61-.55V69.5a1.46,1.46,0,0,0-.55-.43,1.62,1.62,0,0,0-.64-.13,1.44,1.44,0,0,0-.61.13,1.19,1.19,0,0,0-.46.38,1.87,1.87,0,0,0-.29.65,3.75,3.75,0,0,0-.1.93,4.08,4.08,0,0,0,.09.92,1.78,1.78,0,0,0,.25.61,1,1,0,0,0,.4.34A1.27,1.27,0,0,0,120.78,73Z"/><path class="efcd2f14-f975-4182-b9fd-c92d3044e80f" d="M127.06,66.13a.85.85,0,0,1-.08.36,1,1,0,0,1-.51.49.92.92,0,0,1-.37.08.88.88,0,0,1-.36-.08,1,1,0,0,1-.3-.2,1,1,0,0,1-.2-.29.86.86,0,0,1-.08-.36.91.91,0,0,1,.08-.37,1,1,0,0,1,.2-.3,1,1,0,0,1,.3-.2.89.89,0,0,1,.36-.07.93.93,0,0,1,.37.07,1,1,0,0,1,.3.2,1,1,0,0,1,.21.3A.9.9,0,0,1,127.06,66.13Zm-.22,1.79v6.16h-1.48V67.93Z"/><path class="efcd2f14-f975-4182-b9fd-c92d3044e80f" d="M130.54,74.18a1.62,1.62,0,0,1-1.23-.45,1.74,1.74,0,0,1-.43-1.25V69h-.62a.28.28,0,0,1-.29-.31v-.59l1-.16.31-1.68a.29.29,0,0,1,.11-.19.35.35,0,0,1,.22-.07h.77V68H132V69h-1.62v3.34a.66.66,0,0,0,.14.45.49.49,0,0,0,.38.16.7.7,0,0,0,.23,0l.16-.07.12-.07a.2.2,0,0,1,.11,0,.17.17,0,0,1,.11,0l.09.1.44.72a2.25,2.25,0,0,1-.74.41A2.78,2.78,0,0,1,130.54,74.18Z"/><path class="efcd2f14-f975-4182-b9fd-c92d3044e80f" d="M135,66.13a.85.85,0,0,1-.08.36,1,1,0,0,1-.51.49.93.93,0,0,1-.37.08.89.89,0,0,1-.36-.08,1,1,0,0,1-.3-.2,1,1,0,0,1-.2-.29.88.88,0,0,1-.08-.36.93.93,0,0,1,.08-.37,1,1,0,0,1,.2-.3,1,1,0,0,1,.3-.2.9.9,0,0,1,.36-.07.93.93,0,0,1,.37.07,1,1,0,0,1,.3.2,1,1,0,0,1,.21.3A.9.9,0,0,1,135,66.13Zm-.22,1.79v6.16h-1.48V67.93Z"/><path class="efcd2f14-f975-4182-b9fd-c92d3044e80f" d="M139,67.83a3.37,3.37,0,0,1,1.25.22,2.7,2.7,0,0,1,1,.63,2.8,2.8,0,0,1,.61,1,4.13,4.13,0,0,1,0,2.63,2.86,2.86,0,0,1-.61,1,2.67,2.67,0,0,1-1,.64,3.65,3.65,0,0,1-2.5,0,2.68,2.68,0,0,1-1-.64,2.85,2.85,0,0,1-.62-1,4.07,4.07,0,0,1,0-2.63,2.79,2.79,0,0,1,.62-1,2.72,2.72,0,0,1,1-.63A3.4,3.4,0,0,1,139,67.83Zm0,5.2a1.3,1.3,0,0,0,1.14-.52,2.59,2.59,0,0,0,.37-1.51,2.62,2.62,0,0,0-.37-1.52A1.3,1.3,0,0,0,139,69a1.32,1.32,0,0,0-1.15.53,2.6,2.6,0,0,0-.37,1.51,2.57,2.57,0,0,0,.37,1.51A1.32,1.32,0,0,0,139,73Z"/><path class="efcd2f14-f975-4182-b9fd-c92d3044e80f" d="M143.23,74.08V67.93h.91a.36.36,0,0,1,.38.27l.1.49a3.33,3.33,0,0,1,.39-.35,2.77,2.77,0,0,1,.44-.27,2.26,2.26,0,0,1,.5-.17,2.6,2.6,0,0,1,.58-.06,2.22,2.22,0,0,1,.89.17,1.77,1.77,0,0,1,.65.48,2.11,2.11,0,0,1,.4.74,3.14,3.14,0,0,1,.13.94v3.92h-1.48V70.16a1.32,1.32,0,0,0-.26-.87,1,1,0,0,0-.78-.31,1.54,1.54,0,0,0-.72.17,2.59,2.59,0,0,0-.64.47v4.45Z"/><path class="efcd2f14-f975-4182-b9fd-c92d3044e80f" d="M152.45,74.08V65.41h3a5.68,5.68,0,0,1,1.46.16,2.77,2.77,0,0,1,1,.46,1.78,1.78,0,0,1,.57.73,2.44,2.44,0,0,1,.18,1,1.91,1.91,0,0,1-.09.59,1.71,1.71,0,0,1-.28.52,2.1,2.1,0,0,1-.48.44,2.89,2.89,0,0,1-.69.34q1.79.4,1.79,1.93a2.47,2.47,0,0,1-.21,1,2.26,2.26,0,0,1-.61.81,2.92,2.92,0,0,1-1,.53,4.32,4.32,0,0,1-1.34.19Zm1.61-4.92h1.29a2.16,2.16,0,0,0,1.25-.3,1.08,1.08,0,0,0,.43-1,1.13,1.13,0,0,0-.38-1,2,2,0,0,0-1.2-.29h-1.38Zm0,1.12v2.54h1.64a2.25,2.25,0,0,0,.75-.11,1.31,1.31,0,0,0,.49-.29,1.05,1.05,0,0,0,.26-.42,1.56,1.56,0,0,0,.08-.51,1.34,1.34,0,0,0-.09-.51,1,1,0,0,0-.28-.38,1.32,1.32,0,0,0-.49-.24,2.74,2.74,0,0,0-.73-.08Z"/><path class="efcd2f14-f975-4182-b9fd-c92d3044e80f" d="M200,72.78a2.13,2.13,0,0,0,.84-.16,1.74,1.74,0,0,0,.62-.44,1.93,1.93,0,0,0,.39-.68,2.82,2.82,0,0,0,.13-.9v-5.2h1.61v5.2a4,4,0,0,1-.25,1.43,3.19,3.19,0,0,1-1.85,1.88,4.35,4.35,0,0,1-3,0A3.18,3.18,0,0,1,196.64,72a4,4,0,0,1-.25-1.43v-5.2H198V70.6a2.82,2.82,0,0,0,.13.9,2,2,0,0,0,.39.69,1.7,1.7,0,0,0,.62.44A2.13,2.13,0,0,0,200,72.78Z"/><path class="efcd2f14-f975-4182-b9fd-c92d3044e80f" d="M205.15,74.08V67.93h.91a.36.36,0,0,1,.38.27l.1.49a3.41,3.41,0,0,1,.39-.35,2.78,2.78,0,0,1,.44-.27,2.26,2.26,0,0,1,.5-.17,2.6,2.6,0,0,1,.58-.06,2.21,2.21,0,0,1,.89.17,1.77,1.77,0,0,1,.65.48,2.11,2.11,0,0,1,.4.74,3.14,3.14,0,0,1,.13.94v3.92H209V70.16a1.32,1.32,0,0,0-.26-.87A1,1,0,0,0,208,69a1.54,1.54,0,0,0-.72.17,2.57,2.57,0,0,0-.64.47v4.45Z"/><path class="efcd2f14-f975-4182-b9fd-c92d3044e80f" d="M213.77,66.13a.85.85,0,0,1-.08.36,1,1,0,0,1-.51.49.92.92,0,0,1-.37.08.88.88,0,0,1-.36-.08,1,1,0,0,1-.3-.2,1,1,0,0,1-.2-.29.86.86,0,0,1-.08-.36.91.91,0,0,1,.08-.37,1,1,0,0,1,.2-.3,1,1,0,0,1,.3-.2.89.89,0,0,1,.36-.07.93.93,0,0,1,.37.07,1,1,0,0,1,.3.2,1,1,0,0,1,.21.3A.9.9,0,0,1,213.77,66.13Zm-.22,1.79v6.16h-1.48V67.93Z"/><path class="efcd2f14-f975-4182-b9fd-c92d3044e80f" d="M217.85,67.83a3.37,3.37,0,0,1,1.25.22,2.69,2.69,0,0,1,1,.63,2.77,2.77,0,0,1,.61,1,4.13,4.13,0,0,1,0,2.63,2.83,2.83,0,0,1-.61,1,2.66,2.66,0,0,1-1,.64,3.65,3.65,0,0,1-2.5,0,2.68,2.68,0,0,1-1-.64,2.87,2.87,0,0,1-.62-1,4.07,4.07,0,0,1,0-2.63,2.81,2.81,0,0,1,.62-1,2.72,2.72,0,0,1,1-.63A3.4,3.4,0,0,1,217.85,67.83Zm0,5.2a1.3,1.3,0,0,0,1.14-.52,2.59,2.59,0,0,0,.37-1.51,2.62,2.62,0,0,0-.37-1.52,1.3,1.3,0,0,0-1.14-.52,1.32,1.32,0,0,0-1.15.53,2.6,2.6,0,0,0-.37,1.51,2.57,2.57,0,0,0,.37,1.51A1.32,1.32,0,0,0,217.85,73Z"/><path class="efcd2f14-f975-4182-b9fd-c92d3044e80f" d="M222,74.08V67.93h.91a.36.36,0,0,1,.38.27l.1.49a3.41,3.41,0,0,1,.39-.35,2.78,2.78,0,0,1,.44-.27,2.26,2.26,0,0,1,.5-.17,2.6,2.6,0,0,1,.58-.06,2.21,2.21,0,0,1,.89.17,1.77,1.77,0,0,1,.65.48,2.11,2.11,0,0,1,.4.74,3.14,3.14,0,0,1,.13.94v3.92h-1.48V70.16a1.32,1.32,0,0,0-.26-.87,1,1,0,0,0-.78-.31,1.54,1.54,0,0,0-.72.17,2.57,2.57,0,0,0-.64.47v4.45Z"/><path class="efcd2f14-f975-4182-b9fd-c92d3044e80f" d="M303.22,65.41v1.33h-2.61v7.35H299V66.73h-2.62V65.41Z"/><path class="efcd2f14-f975-4182-b9fd-c92d3044e80f" d="M303.21,74.08V67.93h.87a.46.46,0,0,1,.32.08.48.48,0,0,1,.12.29l.09.74a2.94,2.94,0,0,1,.77-.9,1.63,1.63,0,0,1,1-.33,1.29,1.29,0,0,1,.76.21l-.19,1.11a.23.23,0,0,1-.08.15.26.26,0,0,1-.16,0,1,1,0,0,1-.25,0,1.66,1.66,0,0,0-.41,0,1.26,1.26,0,0,0-.79.25,2,2,0,0,0-.56.75v3.83Z"/><path class="efcd2f14-f975-4182-b9fd-c92d3044e80f" d="M309.46,67.93v3.91a1.32,1.32,0,0,0,.26.87,1,1,0,0,0,.78.31,1.57,1.57,0,0,0,.72-.17,2.51,2.51,0,0,0,.64-.47V67.93h1.48v6.16h-.91a.36.36,0,0,1-.38-.27l-.1-.49a4.25,4.25,0,0,1-.4.35,2.39,2.39,0,0,1-.43.27,2.44,2.44,0,0,1-.5.17,2.49,2.49,0,0,1-.57.06,2.18,2.18,0,0,1-.89-.17,1.77,1.77,0,0,1-.65-.48,2.13,2.13,0,0,1-.4-.74,3.14,3.14,0,0,1-.13-.95V67.93Z"/><path class="efcd2f14-f975-4182-b9fd-c92d3044e80f" d="M317,74.18a1.62,1.62,0,0,1-1.23-.45,1.74,1.74,0,0,1-.43-1.25V69h-.62a.28.28,0,0,1-.29-.31v-.59l1-.16.31-1.68a.3.3,0,0,1,.11-.19A.35.35,0,0,1,316,66h.77V68h1.62V69h-1.62v3.34a.66.66,0,0,0,.14.45.49.49,0,0,0,.38.16.69.69,0,0,0,.23,0l.16-.07.12-.07a.21.21,0,0,1,.11,0,.17.17,0,0,1,.11,0l.09.1.44.72a2.23,2.23,0,0,1-.74.41A2.78,2.78,0,0,1,317,74.18Z"/><path class="efcd2f14-f975-4182-b9fd-c92d3044e80f" d="M319.57,74.08V65.17h1.48v3.43a3.15,3.15,0,0,1,.79-.55,2.29,2.29,0,0,1,1-.21,2.22,2.22,0,0,1,.89.17,1.77,1.77,0,0,1,.65.48,2.11,2.11,0,0,1,.4.74,3.14,3.14,0,0,1,.13.94v3.92h-1.48V70.16a1.32,1.32,0,0,0-.26-.87,1,1,0,0,0-.78-.31,1.54,1.54,0,0,0-.72.17,2.59,2.59,0,0,0-.64.47v4.45Z"/></g></svg>