<svg xmlns="http://www.w3.org/2000/svg" viewBox="0 0 306.83 174.75"><defs><style>.c722cb59-b5fa-4a3b-9a9b-6288532a28e3{fill:#ededed;}.\34 1a5c536-3cdd-4cae-9f81-0981242e11ea{fill:#3c3c3b;}</style></defs><title>rnaseq</title><g id="c6ebd888-f42c-4203-8641-4f40cb968076" data-name="background"><rect class="c722cb59-b5fa-4a3b-9a9b-6288532a28e3" x="99" y="3.17" width="88.33" height="167.79" rx="5" ry="5"/></g><g id="6b86f620-e6c3-440c-8692-7693dfaad536" data-name="text-titles"><path class="41a5c536-3cdd-4cae-9f81-0981242e11ea" d="M11.43,15.4v3.48H10V10.24h2.54a5.43,5.43,0,0,1,1.47.17,2.79,2.79,0,0,1,1,.49,2,2,0,0,1,.58.77,2.72,2.72,0,0,1,.05,1.84,2.35,2.35,0,0,1-.39.71,2.48,2.48,0,0,1-.63.55,3.22,3.22,0,0,1-.85.37,1.38,1.38,0,0,1,.45.44l2.33,3.29H15.35a.58.58,0,0,1-.54-.29l-2-2.91a.67.67,0,0,0-.22-.22.77.77,0,0,0-.36-.07Zm0-1h1.1a2.72,2.72,0,0,0,.84-.12,1.69,1.69,0,0,0,.6-.33,1.34,1.34,0,0,0,.36-.5,1.68,1.68,0,0,0,.12-.65A1.3,1.3,0,0,0,14,11.71a2.25,2.25,0,0,0-1.42-.37H11.43Z"/><path class="41a5c536-3cdd-4cae-9f81-0981242e11ea" d="M19.57,12.66a2.92,2.92,0,0,1,1,.18,2.3,2.3,0,0,1,.83.54,2.48,2.48,0,0,1,.54.87,3.27,3.27,0,0,1,.19,1.17.82.82,0,0,1-.07.4.26.26,0,0,1-.24.1H17.95a3.07,3.07,0,0,0,.16.9,1.87,1.87,0,0,0,.37.63,1.43,1.43,0,0,0,.55.38,2,2,0,0,0,.72.12,2.18,2.18,0,0,0,.65-.09,3,3,0,0,0,.48-.19l.35-.19a.52.52,0,0,1,.26-.09.27.27,0,0,1,.24.12l.37.47a2.32,2.32,0,0,1-.52.46,3,3,0,0,1-.61.3,3.47,3.47,0,0,1-.67.17,4.56,4.56,0,0,1-.67.05,3.2,3.2,0,0,1-1.18-.21,2.63,2.63,0,0,1-.94-.63,2.89,2.89,0,0,1-.62-1,4.08,4.08,0,0,1-.23-1.41,3.44,3.44,0,0,1,.2-1.19,2.83,2.83,0,0,1,.58-1,2.7,2.7,0,0,1,.91-.65A3,3,0,0,1,19.57,12.66Zm0,.94a1.49,1.49,0,0,0-1.1.4A2,2,0,0,0,18,15.13h3a1.9,1.9,0,0,0-.09-.6,1.41,1.41,0,0,0-.27-.49,1.24,1.24,0,0,0-.45-.32A1.52,1.52,0,0,0,19.6,13.6Z"/><path class="41a5c536-3cdd-4cae-9f81-0981242e11ea" d="M27.33,18.88a.56.56,0,0,1-.28-.06.43.43,0,0,1-.16-.23l-.13-.5a4.71,4.71,0,0,1-.46.38,3,3,0,0,1-.47.28,2.34,2.34,0,0,1-.52.17,3.07,3.07,0,0,1-.61.06,2.28,2.28,0,0,1-.69-.1,1.51,1.51,0,0,1-.55-.31,1.46,1.46,0,0,1-.37-.51,1.77,1.77,0,0,1-.14-.72,1.39,1.39,0,0,1,.19-.69,1.73,1.73,0,0,1,.62-.6,4,4,0,0,1,1.15-.44,8.36,8.36,0,0,1,1.76-.2V15a1.47,1.47,0,0,0-.28-1,1,1,0,0,0-.83-.32,1.82,1.82,0,0,0-.62.09,2.8,2.8,0,0,0-.44.2l-.33.2a.56.56,0,0,1-.31.09.37.37,0,0,1-.23-.07.57.57,0,0,1-.15-.17l-.23-.42a3.5,3.5,0,0,1,2.47-1,2.43,2.43,0,0,1,.94.17,1.88,1.88,0,0,1,.69.48,2.14,2.14,0,0,1,.43.74,2.93,2.93,0,0,1,.15,1v3.89Zm-2.25-.8a1.86,1.86,0,0,0,.87-.19,2.77,2.77,0,0,0,.71-.54V16.2a9.06,9.06,0,0,0-1.16.11,3.11,3.11,0,0,0-.77.22,1,1,0,0,0-.42.32.69.69,0,0,0-.13.41.89.89,0,0,0,.07.37.67.67,0,0,0,.19.25.77.77,0,0,0,.29.14A1.36,1.36,0,0,0,25.08,18.08Z"/><path class="41a5c536-3cdd-4cae-9f81-0981242e11ea" d="M33.83,18.88a.31.31,0,0,1-.33-.25L33.38,18a3.71,3.71,0,0,1-.41.4,2.6,2.6,0,0,1-.47.31,2.39,2.39,0,0,1-.53.2,2.45,2.45,0,0,1-.61.07,2.08,2.08,0,0,1-.94-.21,2,2,0,0,1-.72-.6,2.92,2.92,0,0,1-.46-1,5,5,0,0,1-.17-1.34,4.2,4.2,0,0,1,.18-1.27,3.09,3.09,0,0,1,.52-1,2.39,2.39,0,0,1,1.93-.92,2.07,2.07,0,0,1,1.6.65V10h1.29v8.88Zm-2-.95a1.63,1.63,0,0,0,.85-.21,2.45,2.45,0,0,0,.67-.61V14.27a1.62,1.62,0,0,0-.6-.48,1.73,1.73,0,0,0-.7-.14,1.41,1.41,0,0,0-1.18.55,2.67,2.67,0,0,0-.43,1.64,4.17,4.17,0,0,0,.1,1,1.86,1.86,0,0,0,.28.65,1.05,1.05,0,0,0,.44.37A1.42,1.42,0,0,0,31.81,17.93Z"/><path class="41a5c536-3cdd-4cae-9f81-0981242e11ea" d="M39.83,13.87a.32.32,0,0,1-.11.12.29.29,0,0,1-.15,0,.48.48,0,0,1-.22-.06l-.28-.14a2.48,2.48,0,0,0-.38-.14,1.86,1.86,0,0,0-.51-.06,1.54,1.54,0,0,0-.44.06,1,1,0,0,0-.33.16.73.73,0,0,0-.21.25.66.66,0,0,0-.07.3.51.51,0,0,0,.13.36,1.15,1.15,0,0,0,.35.25,3.39,3.39,0,0,0,.49.19l.56.18a5.7,5.7,0,0,1,.56.22,2.11,2.11,0,0,1,.49.31,1.41,1.41,0,0,1,.35.44,1.39,1.39,0,0,1,.13.63,2,2,0,0,1-.16.8,1.79,1.79,0,0,1-.46.64,2.09,2.09,0,0,1-.75.42,3.21,3.21,0,0,1-1,.15,3.25,3.25,0,0,1-.62-.06,3.5,3.5,0,0,1-.56-.16,3,3,0,0,1-.5-.24,2.63,2.63,0,0,1-.41-.3l.3-.49a.42.42,0,0,1,.13-.14.37.37,0,0,1,.2-.05.45.45,0,0,1,.25.08l.29.18a2.28,2.28,0,0,0,.4.18,1.81,1.81,0,0,0,.58.08,1.59,1.59,0,0,0,.5-.07,1,1,0,0,0,.35-.19.76.76,0,0,0,.2-.27A.82.82,0,0,0,39,17.2a.56.56,0,0,0-.13-.38,1.11,1.11,0,0,0-.35-.26,3.22,3.22,0,0,0-.5-.19l-.57-.18a6,6,0,0,1-.57-.22,2,2,0,0,1-.5-.32,1.46,1.46,0,0,1-.35-.47,1.59,1.59,0,0,1-.13-.68,1.68,1.68,0,0,1,.58-1.28,2.1,2.1,0,0,1,.7-.4,2.89,2.89,0,0,1,1-.15,3,3,0,0,1,1.12.2,2.44,2.44,0,0,1,.85.54Z"/><path class="41a5c536-3cdd-4cae-9f81-0981242e11ea" d="M14.49,53.85q.08.18.15.38l.15-.38c.05-.13.11-.25.17-.36l2.73-5a.36.36,0,0,1,.19-.2,1,1,0,0,1,.29,0h1v8.64H18V51q0-.14,0-.31t0-.34l-2.77,5.12a.53.53,0,0,1-.5.32h-.2a.52.52,0,0,1-.5-.32l-2.83-5.14q0,.18,0,.35c0,.11,0,.22,0,.32v5.92H10V48.24h1.05a1,1,0,0,1,.29,0,.36.36,0,0,1,.19.2l2.77,5Z"/><path class="41a5c536-3cdd-4cae-9f81-0981242e11ea" d="M24.81,56.88a.56.56,0,0,1-.28-.06.43.43,0,0,1-.16-.23l-.13-.5a4.71,4.71,0,0,1-.46.38,3,3,0,0,1-.47.28,2.34,2.34,0,0,1-.52.17,3.07,3.07,0,0,1-.61.06,2.28,2.28,0,0,1-.69-.1,1.51,1.51,0,0,1-.55-.31,1.46,1.46,0,0,1-.37-.51,1.77,1.77,0,0,1-.14-.72,1.39,1.39,0,0,1,.19-.69,1.73,1.73,0,0,1,.62-.6,4,4,0,0,1,1.15-.44,8.36,8.36,0,0,1,1.76-.2V53a1.47,1.47,0,0,0-.28-1,1,1,0,0,0-.83-.32,1.82,1.82,0,0,0-.62.09A2.8,2.8,0,0,0,22,52l-.33.2a.56.56,0,0,1-.31.09.37.37,0,0,1-.23-.07.57.57,0,0,1-.15-.17l-.23-.42a3.5,3.5,0,0,1,2.47-1,2.43,2.43,0,0,1,.94.17,1.88,1.88,0,0,1,.69.48,2.14,2.14,0,0,1,.43.74,2.93,2.93,0,0,1,.15,1v3.89Zm-2.25-.8a1.86,1.86,0,0,0,.87-.19,2.77,2.77,0,0,0,.71-.54V54.2a9.06,9.06,0,0,0-1.16.11,3.11,3.11,0,0,0-.77.22,1,1,0,0,0-.42.32.69.69,0,0,0-.13.41.89.89,0,0,0,.07.37.67.67,0,0,0,.19.25.77.77,0,0,0,.29.14A1.36,1.36,0,0,0,22.56,56.08Z"/><path class="41a5c536-3cdd-4cae-9f81-0981242e11ea" d="M26.89,58.91V50.76h.78A.32.32,0,0,1,28,51l.1.64a3.93,3.93,0,0,1,.41-.41,2.51,2.51,0,0,1,.46-.32,2.4,2.4,0,0,1,.53-.2,2.49,2.49,0,0,1,.61-.07,2.09,2.09,0,0,1,.94.21,2,2,0,0,1,.72.6,2.92,2.92,0,0,1,.47,1,5,5,0,0,1,.17,1.34A4.21,4.21,0,0,1,32.23,55a3.08,3.08,0,0,1-.52,1,2.38,2.38,0,0,1-1.93.92,2.07,2.07,0,0,1-1.6-.65v2.59Zm2.8-7.23a1.62,1.62,0,0,0-.85.21,2.42,2.42,0,0,0-.66.61v2.84a1.55,1.55,0,0,0,.59.49,1.75,1.75,0,0,0,.71.14,1.4,1.4,0,0,0,1.18-.55,2.68,2.68,0,0,0,.42-1.64,4.17,4.17,0,0,0-.1-1,1.86,1.86,0,0,0-.28-.65,1.07,1.07,0,0,0-.44-.37A1.43,1.43,0,0,0,29.69,51.68Z"/><path class="41a5c536-3cdd-4cae-9f81-0981242e11ea" d="M33.67,58.91V50.76h.78a.32.32,0,0,1,.34.25l.1.64a3.93,3.93,0,0,1,.41-.41,2.51,2.51,0,0,1,.46-.32,2.4,2.4,0,0,1,.53-.2,2.49,2.49,0,0,1,.61-.07,2.09,2.09,0,0,1,.94.21,2,2,0,0,1,.72.6,2.92,2.92,0,0,1,.47,1,5,5,0,0,1,.17,1.34A4.21,4.21,0,0,1,39,55a3.08,3.08,0,0,1-.52,1,2.38,2.38,0,0,1-1.93.92,2.07,2.07,0,0,1-1.6-.65v2.59Zm2.8-7.23a1.62,1.62,0,0,0-.85.21,2.42,2.42,0,0,0-.66.61v2.84a1.55,1.55,0,0,0,.59.49,1.75,1.75,0,0,0,.71.14,1.4,1.4,0,0,0,1.18-.55,2.68,2.68,0,0,0,.42-1.64,4.17,4.17,0,0,0-.1-1,1.86,1.86,0,0,0-.28-.65A1.07,1.07,0,0,0,37,51.8,1.43,1.43,0,0,0,36.47,51.68Z"/><path class="41a5c536-3cdd-4cae-9f81-0981242e11ea" d="M42,48.91a.81.81,0,0,1-.07.33.86.86,0,0,1-.19.27.92.92,0,0,1-.28.19.84.84,0,0,1-.34.07.78.78,0,0,1-.33-.07.86.86,0,0,1-.27-.19.91.91,0,0,1-.18-.27.81.81,0,0,1-.07-.33.83.83,0,0,1,.07-.34.92.92,0,0,1,.18-.27.88.88,0,0,1,.27-.19.79.79,0,0,1,.33-.07.84.84,0,0,1,.34.07.94.94,0,0,1,.28.19.87.87,0,0,1,.19.27A.83.83,0,0,1,42,48.91Zm-.22,1.85v6.12H40.49V50.76Z"/><path class="41a5c536-3cdd-4cae-9f81-0981242e11ea" d="M43.41,56.88V50.76h.78a.32.32,0,0,1,.34.25l.09.57a3.7,3.7,0,0,1,.4-.37,2.61,2.61,0,0,1,.45-.29,2.4,2.4,0,0,1,.51-.19,2.52,2.52,0,0,1,.59-.07,2.17,2.17,0,0,1,.88.17,1.77,1.77,0,0,1,.64.47,2,2,0,0,1,.39.74,3.21,3.21,0,0,1,.13.94v3.89H47.35V53a1.46,1.46,0,0,0-.29-1,1.06,1.06,0,0,0-.87-.34,1.67,1.67,0,0,0-.8.2,2.74,2.74,0,0,0-.69.54v4.46Z"/><path class="41a5c536-3cdd-4cae-9f81-0981242e11ea" d="M52.33,50.65a3,3,0,0,1,.74.09,2.73,2.73,0,0,1,.63.24h1.72v.48c0,.16-.1.26-.29.29l-.61.1a1.92,1.92,0,0,1,.16.77A1.82,1.82,0,0,1,54,54.07a2.2,2.2,0,0,1-.74.4,3,3,0,0,1-.94.14l-.37,0-.36-.06a.85.85,0,0,0-.26.22.39.39,0,0,0-.08.23.31.31,0,0,0,.17.29,1.37,1.37,0,0,0,.46.14,5.7,5.7,0,0,0,.65.05l.74,0a7,7,0,0,1,.74.1,2.14,2.14,0,0,1,.65.23A1.19,1.19,0,0,1,55.31,57a1.65,1.65,0,0,1-.2.77,2.08,2.08,0,0,1-.57.67,3,3,0,0,1-.92.47,3.94,3.94,0,0,1-1.23.18,4.76,4.76,0,0,1-1.19-.13,2.8,2.8,0,0,1-.85-.36,1.53,1.53,0,0,1-.5-.52,1.23,1.23,0,0,1-.17-.61A1.07,1.07,0,0,1,50,56.7a1.83,1.83,0,0,1,.74-.48,1,1,0,0,1-.41-.33.91.91,0,0,1-.15-.55.86.86,0,0,1,0-.28,1.12,1.12,0,0,1,.15-.29,1.45,1.45,0,0,1,.25-.27,1.8,1.8,0,0,1,.34-.23,1.92,1.92,0,0,1-.72-.67,1.82,1.82,0,0,1-.26-1,1.86,1.86,0,0,1,.18-.82,1.8,1.8,0,0,1,.5-.62,2.27,2.27,0,0,1,.75-.4A3.12,3.12,0,0,1,52.33,50.65Zm1.79,6.53a.45.45,0,0,0-.12-.32.81.81,0,0,0-.31-.19,2,2,0,0,0-.46-.1l-.56,0-.61,0c-.21,0-.41,0-.6-.06a1.56,1.56,0,0,0-.47.36.73.73,0,0,0-.18.49.65.65,0,0,0,.09.34.79.79,0,0,0,.29.27,1.72,1.72,0,0,0,.5.18,3.47,3.47,0,0,0,.73.07,2.47,2.47,0,0,0,1.28-.26A.78.78,0,0,0,54.12,57.18Zm-1.79-3.41a1.21,1.21,0,0,0,.9-.31,1.09,1.09,0,0,0,.3-.8,1.07,1.07,0,0,0-.3-.8,1.52,1.52,0,0,0-1.8,0,1.06,1.06,0,0,0-.3.8,1.23,1.23,0,0,0,.08.44,1,1,0,0,0,.23.35,1,1,0,0,0,.38.23A1.53,1.53,0,0,0,52.33,53.77Z"/><path class="41a5c536-3cdd-4cae-9f81-0981242e11ea" d="M18.15,95.06A5.17,5.17,0,0,1,18,96.19a4.55,4.55,0,0,1-.35,1,4,4,0,0,1-.56.85,3.9,3.9,0,0,1-.75.67l2.2,2.39H17.42A1.39,1.39,0,0,1,17,101a.93.93,0,0,1-.37-.25l-1.39-1.52a4.8,4.8,0,0,1-.67.15,5,5,0,0,1-.72.05,4.56,4.56,0,0,1-1.76-.33,4,4,0,0,1-2.25-2.31,5.18,5.18,0,0,1,0-3.54,4.09,4.09,0,0,1,.88-1.4A4,4,0,0,1,12.07,91a4.88,4.88,0,0,1,3.53,0,4,4,0,0,1,1.36.92,4.12,4.12,0,0,1,.88,1.4A4.88,4.88,0,0,1,18.15,95.06Zm-1.43,0a4.17,4.17,0,0,0-.2-1.34,2.83,2.83,0,0,0-.58-1,2.51,2.51,0,0,0-.91-.64,3.33,3.33,0,0,0-2.39,0,2.53,2.53,0,0,0-.91.64,2.84,2.84,0,0,0-.58,1,4.51,4.51,0,0,0,0,2.68,2.8,2.8,0,0,0,.58,1,2.52,2.52,0,0,0,.91.63A3.38,3.38,0,0,0,15,98a2.5,2.5,0,0,0,.91-.63,2.8,2.8,0,0,0,.58-1A4.19,4.19,0,0,0,16.72,95.06Z"/><path class="41a5c536-3cdd-4cae-9f81-0981242e11ea" d="M20.59,93.26v3.89a1.46,1.46,0,0,0,.28,1,1.06,1.06,0,0,0,.87.34,1.68,1.68,0,0,0,.79-.2,2.69,2.69,0,0,0,.69-.54V93.26h1.29v6.12h-.78a.31.31,0,0,1-.33-.25l-.1-.57a3.42,3.42,0,0,1-.86.66,2.29,2.29,0,0,1-1.09.25,2.19,2.19,0,0,1-.89-.17,1.76,1.76,0,0,1-.65-.47,2,2,0,0,1-.39-.74,3.21,3.21,0,0,1-.13-.95V93.26Z"/><path class="41a5c536-3cdd-4cae-9f81-0981242e11ea" d="M30,99.38a.56.56,0,0,1-.28-.06.43.43,0,0,1-.16-.23l-.13-.5A4.86,4.86,0,0,1,29,99a3,3,0,0,1-.47.28,2.36,2.36,0,0,1-.52.17,3.07,3.07,0,0,1-.61.06,2.29,2.29,0,0,1-.69-.1,1.52,1.52,0,0,1-.55-.31,1.45,1.45,0,0,1-.37-.51,1.78,1.78,0,0,1-.14-.72,1.39,1.39,0,0,1,.19-.69,1.73,1.73,0,0,1,.62-.6,4,4,0,0,1,1.15-.44,8.36,8.36,0,0,1,1.76-.2v-.41a1.47,1.47,0,0,0-.28-1,1,1,0,0,0-.83-.32,1.82,1.82,0,0,0-.62.09,2.8,2.8,0,0,0-.44.2l-.33.2a.56.56,0,0,1-.31.09.37.37,0,0,1-.23-.07.57.57,0,0,1-.15-.17l-.23-.42a3.5,3.5,0,0,1,2.47-1,2.43,2.43,0,0,1,.94.17,1.88,1.88,0,0,1,.69.48,2.14,2.14,0,0,1,.43.74,2.93,2.93,0,0,1,.15,1v3.89Zm-2.25-.8a1.86,1.86,0,0,0,.87-.19,2.77,2.77,0,0,0,.71-.54V96.7a9.07,9.07,0,0,0-1.16.11,3.11,3.11,0,0,0-.77.22,1,1,0,0,0-.42.32.69.69,0,0,0-.13.41.89.89,0,0,0,.07.37.68.68,0,0,0,.19.25.76.76,0,0,0,.29.14A1.36,1.36,0,0,0,27.79,98.58Z"/><path class="41a5c536-3cdd-4cae-9f81-0981242e11ea" d="M32.12,99.38V93.26h.78a.32.32,0,0,1,.34.25l.09.57a3.7,3.7,0,0,1,.4-.37,2.61,2.61,0,0,1,.45-.29,2.4,2.4,0,0,1,.51-.19,2.52,2.52,0,0,1,.59-.07,2.17,2.17,0,0,1,.88.17,1.77,1.77,0,0,1,.64.47,2,2,0,0,1,.39.74,3.21,3.21,0,0,1,.13.94v3.89H36.05V95.49a1.46,1.46,0,0,0-.29-1,1.06,1.06,0,0,0-.87-.34,1.67,1.67,0,0,0-.8.2,2.74,2.74,0,0,0-.69.54v4.46Z"/><path class="41a5c536-3cdd-4cae-9f81-0981242e11ea" d="M40.73,99.48A1.55,1.55,0,0,1,39.55,99a1.68,1.68,0,0,1-.41-1.21V94.27h-.67a.27.27,0,0,1-.19-.07.26.26,0,0,1-.08-.21v-.52l1-.14.28-1.77a.34.34,0,0,1,.1-.17.28.28,0,0,1,.19-.06h.66v2h4.27v6H43.42V94.27h-3v3.47a.71.71,0,0,0,.16.5.56.56,0,0,0,.43.17.75.75,0,0,0,.26,0l.19-.08.13-.08a.18.18,0,0,1,.29.08l.38.63a2.11,2.11,0,0,1-.71.41A2.56,2.56,0,0,1,40.73,99.48ZM45,91.38a.79.79,0,0,1-.07.33.88.88,0,0,1-.19.27.93.93,0,0,1-.28.19.83.83,0,0,1-.33.07.79.79,0,0,1-.33-.07.91.91,0,0,1-.46-.46.79.79,0,0,1-.07-.33.84.84,0,0,1,.07-.34.88.88,0,0,1,.19-.28.9.9,0,0,1,.27-.19.79.79,0,0,1,.33-.07.83.83,0,0,1,.33.07.92.92,0,0,1,.28.19.86.86,0,0,1,.26.61Z"/><path class="41a5c536-3cdd-4cae-9f81-0981242e11ea" d="M46.75,99.38V94.29l-.6-.08a.53.53,0,0,1-.24-.11.27.27,0,0,1-.09-.22v-.53h.94v-.26a2.9,2.9,0,0,1,.18-1,2.19,2.19,0,0,1,.55-.82,2.54,2.54,0,0,1,.92-.54,3.83,3.83,0,0,1,1.29-.2l.5,0a2.21,2.21,0,0,1,.44.09l0,.67a.15.15,0,0,1-.15.14l-.37,0a3.68,3.68,0,0,0-.95.1,1.58,1.58,0,0,0-.64.32,1.22,1.22,0,0,0-.36.53,2.21,2.21,0,0,0-.11.74v.22h3.75v6H50.46V94.27H48v5.11Z"/><path class="41a5c536-3cdd-4cae-9f81-0981242e11ea" d="M57.71,94.46l-.11.12a.25.25,0,0,1-.16,0,.4.4,0,0,1-.21-.07L57,94.39a2.06,2.06,0,0,0-.37-.16,1.73,1.73,0,0,0-.54-.07,1.69,1.69,0,0,0-.73.15,1.43,1.43,0,0,0-.53.43,1.9,1.9,0,0,0-.32.68,3.54,3.54,0,0,0-.1.9,3.38,3.38,0,0,0,.11.92,2,2,0,0,0,.33.68,1.41,1.41,0,0,0,.52.42,1.57,1.57,0,0,0,.68.14,1.73,1.73,0,0,0,.61-.09,1.88,1.88,0,0,0,.39-.2l.27-.2a.37.37,0,0,1,.24-.09.28.28,0,0,1,.24.12l.37.47a2.38,2.38,0,0,1-.49.46,2.81,2.81,0,0,1-.57.3,3,3,0,0,1-.62.17,4.3,4.3,0,0,1-.65.05,2.67,2.67,0,0,1-1.06-.21,2.5,2.5,0,0,1-.86-.62,3,3,0,0,1-.58-1A3.88,3.88,0,0,1,53,96.31a4,4,0,0,1,.19-1.26,2.85,2.85,0,0,1,.56-1,2.55,2.55,0,0,1,.92-.66A3.13,3.13,0,0,1,56,93.16a3,3,0,0,1,1.17.22A2.85,2.85,0,0,1,58,94Z"/><path class="41a5c536-3cdd-4cae-9f81-0981242e11ea" d="M63.09,99.38a.56.56,0,0,1-.28-.06.43.43,0,0,1-.16-.23l-.13-.5a4.86,4.86,0,0,1-.46.38,3,3,0,0,1-.47.28,2.36,2.36,0,0,1-.52.17,3.07,3.07,0,0,1-.61.06,2.29,2.29,0,0,1-.69-.1,1.52,1.52,0,0,1-.55-.31,1.45,1.45,0,0,1-.37-.51,1.78,1.78,0,0,1-.14-.72,1.39,1.39,0,0,1,.19-.69,1.73,1.73,0,0,1,.62-.6,4,4,0,0,1,1.15-.44,8.36,8.36,0,0,1,1.76-.2v-.41a1.47,1.47,0,0,0-.28-1,1,1,0,0,0-.83-.32,1.82,1.82,0,0,0-.62.09,2.8,2.8,0,0,0-.44.2l-.33.2a.56.56,0,0,1-.31.09.37.37,0,0,1-.23-.07.57.57,0,0,1-.15-.17L59,94.11a3.5,3.5,0,0,1,2.47-1,2.43,2.43,0,0,1,.94.17,1.88,1.88,0,0,1,.69.48,2.14,2.14,0,0,1,.43.74,2.93,2.93,0,0,1,.15,1v3.89Zm-2.25-.8a1.86,1.86,0,0,0,.87-.19,2.77,2.77,0,0,0,.71-.54V96.7a9.07,9.07,0,0,0-1.16.11,3.11,3.11,0,0,0-.77.22,1,1,0,0,0-.42.32.69.69,0,0,0-.13.41.89.89,0,0,0,.07.37.68.68,0,0,0,.19.25.76.76,0,0,0,.29.14A1.36,1.36,0,0,0,60.84,98.58Z"/><path class="41a5c536-3cdd-4cae-9f81-0981242e11ea" d="M67,99.48A1.55,1.55,0,0,1,65.88,99a1.68,1.68,0,0,1-.41-1.21V94.27h-.67a.27.27,0,0,1-.19-.07.26.26,0,0,1-.08-.21v-.52l1-.14.28-1.77a.34.34,0,0,1,.1-.17.28.28,0,0,1,.19-.06h.66v2H71v6H69.74V94.27h-3v3.47a.71.71,0,0,0,.16.5.56.56,0,0,0,.43.17.75.75,0,0,0,.26,0l.19-.08.13-.08a.18.18,0,0,1,.29.08l.38.63a2.11,2.11,0,0,1-.71.41A2.56,2.56,0,0,1,67,99.48Zm4.24-8.09a.79.79,0,0,1-.07.33A.88.88,0,0,1,71,92a.93.93,0,0,1-.28.19.83.83,0,0,1-.33.07.79.79,0,0,1-.33-.07.91.91,0,0,1-.46-.46.79.79,0,0,1-.07-.33.84.84,0,0,1,.07-.34.88.88,0,0,1,.19-.28.9.9,0,0,1,.27-.19.79.79,0,0,1,.33-.07.83.83,0,0,1,.33.07.92.92,0,0,1,.28.19.86.86,0,0,1,.26.61Z"/><path class="41a5c536-3cdd-4cae-9f81-0981242e11ea" d="M75.3,93.16a3.25,3.25,0,0,1,1.23.22,2.63,2.63,0,0,1,.94.63,2.79,2.79,0,0,1,.6,1,4.18,4.18,0,0,1,0,2.62,2.82,2.82,0,0,1-.6,1,2.62,2.62,0,0,1-.94.63,3.52,3.52,0,0,1-2.46,0,2.64,2.64,0,0,1-.94-.63,2.8,2.8,0,0,1-.6-1,4.18,4.18,0,0,1,0-2.62,2.77,2.77,0,0,1,.6-1,2.66,2.66,0,0,1,.94-.63A3.26,3.26,0,0,1,75.3,93.16Zm0,5.3a1.43,1.43,0,0,0,1.23-.56,2.66,2.66,0,0,0,.4-1.59,2.69,2.69,0,0,0-.4-1.59,1.42,1.42,0,0,0-1.23-.56,1.44,1.44,0,0,0-1.25.56,2.68,2.68,0,0,0-.41,1.59,2.65,2.65,0,0,0,.41,1.59A1.45,1.45,0,0,0,75.3,98.46Z"/><path class="41a5c536-3cdd-4cae-9f81-0981242e11ea" d="M79.51,99.38V93.26h.78a.32.32,0,0,1,.34.25l.09.57a3.66,3.66,0,0,1,.41-.37,2.59,2.59,0,0,1,.45-.29,2.39,2.39,0,0,1,.51-.19,2.51,2.51,0,0,1,.59-.07,2.17,2.17,0,0,1,.88.17,1.77,1.77,0,0,1,.64.47,2,2,0,0,1,.39.74,3.21,3.21,0,0,1,.13.94v3.89H83.44V95.49a1.46,1.46,0,0,0-.29-1,1.07,1.07,0,0,0-.87-.34,1.67,1.67,0,0,0-.8.2,2.74,2.74,0,0,0-.69.54v4.46Z"/><path class="41a5c536-3cdd-4cae-9f81-0981242e11ea" d="M17.61,132.06a4.76,4.76,0,0,1-.31,1.75,3.87,3.87,0,0,1-2.24,2.25,4.76,4.76,0,0,1-1.77.32H10v-8.64h3.26a4.76,4.76,0,0,1,1.77.32,3.87,3.87,0,0,1,2.24,2.25A4.77,4.77,0,0,1,17.61,132.06Zm-1.43,0a4.16,4.16,0,0,0-.2-1.34,2.77,2.77,0,0,0-.58-1,2.5,2.5,0,0,0-.91-.63,3.13,3.13,0,0,0-1.2-.22H11.44v6.37h1.85a3.17,3.17,0,0,0,1.2-.22,2.45,2.45,0,0,0,.91-.63,2.8,2.8,0,0,0,.58-1A4.16,4.16,0,0,0,16.18,132.06Z"/><path class="41a5c536-3cdd-4cae-9f81-0981242e11ea" d="M20.36,128.41a.81.81,0,0,1-.07.33.86.86,0,0,1-.19.27.92.92,0,0,1-.28.19.83.83,0,0,1-.34.07.77.77,0,0,1-.33-.07.86.86,0,0,1-.27-.19.91.91,0,0,1-.18-.27.81.81,0,0,1-.07-.33.83.83,0,0,1,.07-.34.92.92,0,0,1,.18-.27.88.88,0,0,1,.27-.19.79.79,0,0,1,.33-.07.84.84,0,0,1,.34.07.94.94,0,0,1,.28.19.87.87,0,0,1,.19.27A.83.83,0,0,1,20.36,128.41Zm-.22,1.85v6.12H18.86v-6.12Z"/><path class="41a5c536-3cdd-4cae-9f81-0981242e11ea" d="M22.19,136.38v-5.09l-.6-.08a.53.53,0,0,1-.24-.11.27.27,0,0,1-.09-.22v-.53h.94v-.41a2.71,2.71,0,0,1,.15-.94,2,2,0,0,1,.44-.7,1.87,1.87,0,0,1,.69-.44,2.66,2.66,0,0,1,.92-.15,2.6,2.6,0,0,1,.4,0l.37.08,0,.65a.19.19,0,0,1-.16.19,1.69,1.69,0,0,1-.37,0,1.74,1.74,0,0,0-.49.06.86.86,0,0,0-.37.21,1,1,0,0,0-.23.4,2,2,0,0,0-.08.61v.38H26v-.59a2.71,2.71,0,0,1,.15-.94,1.94,1.94,0,0,1,.44-.7,1.86,1.86,0,0,1,.69-.44,2.61,2.61,0,0,1,.91-.15,2.55,2.55,0,0,1,.4,0l.37.08,0,.65a.19.19,0,0,1-.16.19,1.69,1.69,0,0,1-.37,0,1.74,1.74,0,0,0-.49.06.87.87,0,0,0-.37.21,1,1,0,0,0-.23.4,2,2,0,0,0-.08.61v.56h1.67v.93H27.31v5.11H26v-5.11H23.48v5.11Z"/><path class="41a5c536-3cdd-4cae-9f81-0981242e11ea" d="M32.26,130.16a2.91,2.91,0,0,1,1,.18,2.29,2.29,0,0,1,.83.54,2.47,2.47,0,0,1,.54.87,3.27,3.27,0,0,1,.19,1.17.82.82,0,0,1-.07.4.26.26,0,0,1-.24.1H30.63a3.07,3.07,0,0,0,.16.9,1.86,1.86,0,0,0,.37.63,1.43,1.43,0,0,0,.55.38,2,2,0,0,0,.72.12,2.16,2.16,0,0,0,.65-.09,3,3,0,0,0,.48-.19l.35-.19a.52.52,0,0,1,.26-.09.27.27,0,0,1,.24.12l.37.47a2.31,2.31,0,0,1-.52.46,3,3,0,0,1-.61.3,3.47,3.47,0,0,1-.67.17,4.63,4.63,0,0,1-.67.05,3.21,3.21,0,0,1-1.18-.21,2.64,2.64,0,0,1-.94-.63,2.89,2.89,0,0,1-.62-1,4.08,4.08,0,0,1-.23-1.41,3.44,3.44,0,0,1,.2-1.19,2.82,2.82,0,0,1,.58-1,2.7,2.7,0,0,1,.91-.65A3,3,0,0,1,32.26,130.16Zm0,.94a1.49,1.49,0,0,0-1.1.4,2,2,0,0,0-.51,1.13h3a1.9,1.9,0,0,0-.09-.6,1.41,1.41,0,0,0-.27-.49,1.24,1.24,0,0,0-.45-.32A1.52,1.52,0,0,0,32.28,131.1Z"/><path class="41a5c536-3cdd-4cae-9f81-0981242e11ea" d="M36.07,136.38v-6.12h.75a.41.41,0,0,1,.28.08.46.46,0,0,1,.11.26l.07.8a2.76,2.76,0,0,1,.7-.92,1.5,1.5,0,0,1,1-.33,1.46,1.46,0,0,1,.37,0,1.06,1.06,0,0,1,.31.13l-.09,1a.24.24,0,0,1-.08.14.21.21,0,0,1-.13,0l-.26,0a1.88,1.88,0,0,0-.35,0,1.38,1.38,0,0,0-.48.08,1.13,1.13,0,0,0-.37.23,1.56,1.56,0,0,0-.29.37,3.49,3.49,0,0,0-.23.49v3.8Z"/><path class="41a5c536-3cdd-4cae-9f81-0981242e11ea" d="M42.85,130.16a2.91,2.91,0,0,1,1,.18,2.29,2.29,0,0,1,.83.54,2.47,2.47,0,0,1,.54.87,3.27,3.27,0,0,1,.19,1.17.82.82,0,0,1-.07.4.26.26,0,0,1-.24.1H41.22a3.07,3.07,0,0,0,.16.9,1.86,1.86,0,0,0,.37.63,1.43,1.43,0,0,0,.55.38,2,2,0,0,0,.72.12,2.16,2.16,0,0,0,.65-.09,3,3,0,0,0,.48-.19l.35-.19a.52.52,0,0,1,.26-.09A.27.27,0,0,1,45,135l.37.47a2.31,2.31,0,0,1-.52.46,3,3,0,0,1-.61.3,3.47,3.47,0,0,1-.67.17,4.63,4.63,0,0,1-.67.05,3.21,3.21,0,0,1-1.18-.21,2.64,2.64,0,0,1-.94-.63,2.89,2.89,0,0,1-.62-1,4.08,4.08,0,0,1-.23-1.41,3.44,3.44,0,0,1,.2-1.19,2.82,2.82,0,0,1,.58-1,2.7,2.7,0,0,1,.91-.65A3,3,0,0,1,42.85,130.16Zm0,.94a1.49,1.49,0,0,0-1.1.4,2,2,0,0,0-.51,1.13h3a1.9,1.9,0,0,0-.09-.6,1.41,1.41,0,0,0-.27-.49,1.24,1.24,0,0,0-.45-.32A1.52,1.52,0,0,0,42.87,131.1Z"/><path class="41a5c536-3cdd-4cae-9f81-0981242e11ea" d="M46.66,136.38v-6.12h.78a.32.32,0,0,1,.34.25l.09.57a3.65,3.65,0,0,1,.4-.37,2.61,2.61,0,0,1,.45-.29,2.4,2.4,0,0,1,.51-.19,2.52,2.52,0,0,1,.59-.07,2.17,2.17,0,0,1,.88.17,1.76,1.76,0,0,1,.64.47,2,2,0,0,1,.39.74,3.2,3.2,0,0,1,.13.94v3.89H50.59v-3.89a1.46,1.46,0,0,0-.29-1,1.07,1.07,0,0,0-.87-.34,1.67,1.67,0,0,0-.8.2,2.73,2.73,0,0,0-.69.54v4.46Z"/><path class="41a5c536-3cdd-4cae-9f81-0981242e11ea" d="M55.27,136.48a1.55,1.55,0,0,1-1.17-.43,1.68,1.68,0,0,1-.41-1.21v-3.56H53a.27.27,0,0,1-.19-.07.26.26,0,0,1-.08-.21v-.52l1-.14.28-1.77a.35.35,0,0,1,.1-.17.28.28,0,0,1,.19-.06H55v2h4.27v6H58v-5.11H55v3.47a.71.71,0,0,0,.16.5.56.56,0,0,0,.43.17.75.75,0,0,0,.26,0l.19-.08.13-.08a.18.18,0,0,1,.29.08l.38.63a2.11,2.11,0,0,1-.71.41A2.56,2.56,0,0,1,55.27,136.48Zm4.24-8.09a.79.79,0,0,1-.07.33.88.88,0,0,1-.19.27.92.92,0,0,1-.28.19.83.83,0,0,1-.33.07.79.79,0,0,1-.33-.07.91.91,0,0,1-.46-.46.79.79,0,0,1-.07-.33.84.84,0,0,1,.07-.34.88.88,0,0,1,.19-.28.9.9,0,0,1,.27-.19.79.79,0,0,1,.33-.07.83.83,0,0,1,.33.07.92.92,0,0,1,.28.19.85.85,0,0,1,.19.28A.84.84,0,0,1,59.51,128.38Z"/><path class="41a5c536-3cdd-4cae-9f81-0981242e11ea" d="M64.82,136.38a.56.56,0,0,1-.28-.06.43.43,0,0,1-.16-.23l-.13-.5a4.86,4.86,0,0,1-.46.38,3,3,0,0,1-.47.28,2.36,2.36,0,0,1-.52.17,3.07,3.07,0,0,1-.61.06,2.29,2.29,0,0,1-.69-.1,1.52,1.52,0,0,1-.55-.31,1.45,1.45,0,0,1-.37-.51,1.78,1.78,0,0,1-.14-.72,1.39,1.39,0,0,1,.19-.69,1.73,1.73,0,0,1,.62-.6,4,4,0,0,1,1.15-.44,8.35,8.35,0,0,1,1.76-.2v-.41a1.47,1.47,0,0,0-.28-1,1,1,0,0,0-.83-.32,1.83,1.83,0,0,0-.62.09,2.84,2.84,0,0,0-.44.2l-.33.2a.56.56,0,0,1-.31.09.37.37,0,0,1-.23-.07.58.58,0,0,1-.15-.17l-.23-.42a3.51,3.51,0,0,1,2.47-1,2.44,2.44,0,0,1,.94.17,1.88,1.88,0,0,1,.69.48,2.14,2.14,0,0,1,.43.74,2.93,2.93,0,0,1,.15,1v3.89Zm-2.25-.8a1.86,1.86,0,0,0,.87-.19,2.77,2.77,0,0,0,.71-.54V133.7a9.07,9.07,0,0,0-1.16.11,3.11,3.11,0,0,0-.77.22,1,1,0,0,0-.42.32.69.69,0,0,0-.13.41.89.89,0,0,0,.07.37.68.68,0,0,0,.19.25.76.76,0,0,0,.29.14A1.36,1.36,0,0,0,62.57,135.58Z"/><path class="41a5c536-3cdd-4cae-9f81-0981242e11ea" d="M68.21,127.5v8.88H66.92V127.5Z"/><path class="41a5c536-3cdd-4cae-9f81-0981242e11ea" d="M12,144.55a3,3,0,0,1,.74.09,2.69,2.69,0,0,1,.63.24h1.72v.48c0,.16-.1.26-.29.29l-.61.1a1.92,1.92,0,0,1,.16.77,1.82,1.82,0,0,1-.67,1.44,2.2,2.2,0,0,1-.74.4,3,3,0,0,1-.94.14l-.37,0-.36-.06a.84.84,0,0,0-.26.22.39.39,0,0,0-.08.23.32.32,0,0,0,.17.29,1.39,1.39,0,0,0,.46.14,5.7,5.7,0,0,0,.65.05l.74,0a7.18,7.18,0,0,1,.74.1,2.15,2.15,0,0,1,.65.23,1.19,1.19,0,0,1,.63,1.13,1.65,1.65,0,0,1-.2.77,2.08,2.08,0,0,1-.57.67,3,3,0,0,1-.92.47A3.94,3.94,0,0,1,12,153a4.76,4.76,0,0,1-1.19-.13,2.81,2.81,0,0,1-.85-.36,1.53,1.53,0,0,1-.5-.52,1.23,1.23,0,0,1-.17-.61,1.07,1.07,0,0,1,.27-.74,1.82,1.82,0,0,1,.74-.48,1,1,0,0,1-.41-.33.91.91,0,0,1-.15-.55.86.86,0,0,1,0-.28,1.1,1.1,0,0,1,.15-.29,1.46,1.46,0,0,1,.25-.27,1.8,1.8,0,0,1,.34-.23,1.92,1.92,0,0,1-.72-.67,1.82,1.82,0,0,1-.26-1,1.86,1.86,0,0,1,.18-.82,1.8,1.8,0,0,1,.5-.62,2.27,2.27,0,0,1,.75-.4A3.14,3.14,0,0,1,12,144.55Zm1.79,6.53a.44.44,0,0,0-.12-.32.81.81,0,0,0-.31-.2,2,2,0,0,0-.46-.1l-.56,0-.61,0-.6-.06a1.57,1.57,0,0,0-.47.36.73.73,0,0,0-.18.49.65.65,0,0,0,.09.34.79.79,0,0,0,.29.27,1.7,1.7,0,0,0,.5.18,3.47,3.47,0,0,0,.73.07,2.47,2.47,0,0,0,1.28-.26A.78.78,0,0,0,13.76,151.08ZM12,147.67a1.21,1.21,0,0,0,.9-.31,1.09,1.09,0,0,0,.3-.8,1.07,1.07,0,0,0-.3-.8,1.24,1.24,0,0,0-.9-.29,1.24,1.24,0,0,0-.9.29,1.06,1.06,0,0,0-.3.8,1.23,1.23,0,0,0,.08.44,1,1,0,0,0,.23.35,1,1,0,0,0,.38.23A1.53,1.53,0,0,0,12,147.67Z"/><path class="41a5c536-3cdd-4cae-9f81-0981242e11ea" d="M18.54,144.56a2.93,2.93,0,0,1,1,.18,2.3,2.3,0,0,1,.83.54,2.48,2.48,0,0,1,.54.87,3.27,3.27,0,0,1,.19,1.17.83.83,0,0,1-.07.4.26.26,0,0,1-.24.1H16.91a3.07,3.07,0,0,0,.16.9,1.87,1.87,0,0,0,.37.63,1.43,1.43,0,0,0,.55.38,2,2,0,0,0,.72.12,2.2,2.2,0,0,0,.65-.09,3,3,0,0,0,.48-.19l.35-.19a.51.51,0,0,1,.26-.09.27.27,0,0,1,.24.12l.37.47a2.33,2.33,0,0,1-.52.46,3,3,0,0,1-.61.3,3.47,3.47,0,0,1-.67.17,4.49,4.49,0,0,1-.67.05,3.19,3.19,0,0,1-1.18-.21,2.61,2.61,0,0,1-.94-.63,2.89,2.89,0,0,1-.62-1,4.08,4.08,0,0,1-.23-1.41,3.44,3.44,0,0,1,.2-1.19,2.83,2.83,0,0,1,.58-1,2.71,2.71,0,0,1,.91-.64A3,3,0,0,1,18.54,144.56Zm0,.94a1.49,1.49,0,0,0-1.1.4A2,2,0,0,0,17,147h3a1.89,1.89,0,0,0-.09-.6,1.4,1.4,0,0,0-.27-.49,1.25,1.25,0,0,0-.45-.32A1.52,1.52,0,0,0,18.56,145.5Z"/><path class="41a5c536-3cdd-4cae-9f81-0981242e11ea" d="M22.35,150.78v-6.12h.78a.32.32,0,0,1,.34.25l.09.57a3.76,3.76,0,0,1,.4-.37,2.61,2.61,0,0,1,.45-.29,2.4,2.4,0,0,1,.51-.19,2.51,2.51,0,0,1,.59-.07,2.17,2.17,0,0,1,.88.17,1.78,1.78,0,0,1,.64.47,2,2,0,0,1,.39.74,3.21,3.21,0,0,1,.13.95v3.89H26.29v-3.89a1.46,1.46,0,0,0-.29-1,1.06,1.06,0,0,0-.87-.34,1.67,1.67,0,0,0-.8.2,2.75,2.75,0,0,0-.69.54v4.46Z"/><path class="41a5c536-3cdd-4cae-9f81-0981242e11ea" d="M31.64,144.56a2.93,2.93,0,0,1,1,.18,2.3,2.3,0,0,1,.83.54,2.48,2.48,0,0,1,.54.87,3.27,3.27,0,0,1,.19,1.17.83.83,0,0,1-.07.4.26.26,0,0,1-.24.1H30a3.07,3.07,0,0,0,.16.9,1.87,1.87,0,0,0,.37.63,1.43,1.43,0,0,0,.55.38,2,2,0,0,0,.72.12,2.2,2.2,0,0,0,.65-.09,3,3,0,0,0,.48-.19l.35-.19a.51.51,0,0,1,.26-.09.27.27,0,0,1,.24.12l.37.47a2.33,2.33,0,0,1-.52.46,3,3,0,0,1-.61.3,3.47,3.47,0,0,1-.67.17,4.49,4.49,0,0,1-.67.05,3.19,3.19,0,0,1-1.18-.21,2.61,2.61,0,0,1-.94-.63,2.89,2.89,0,0,1-.62-1,4.08,4.08,0,0,1-.23-1.41,3.44,3.44,0,0,1,.2-1.19,2.83,2.83,0,0,1,.58-1,2.71,2.71,0,0,1,.91-.64A3,3,0,0,1,31.64,144.56Zm0,.94a1.49,1.49,0,0,0-1.1.4,2,2,0,0,0-.51,1.13h3a1.89,1.89,0,0,0-.09-.6,1.4,1.4,0,0,0-.27-.49,1.25,1.25,0,0,0-.45-.32A1.52,1.52,0,0,0,31.67,145.5Z"/><path class="41a5c536-3cdd-4cae-9f81-0981242e11ea" d="M41,144.56a2.93,2.93,0,0,1,1,.18,2.3,2.3,0,0,1,.83.54,2.48,2.48,0,0,1,.54.87,3.27,3.27,0,0,1,.19,1.17.83.83,0,0,1-.07.4.26.26,0,0,1-.24.1H39.38a3.07,3.07,0,0,0,.16.9,1.87,1.87,0,0,0,.37.63,1.43,1.43,0,0,0,.55.38,2,2,0,0,0,.72.12,2.2,2.2,0,0,0,.65-.09,3,3,0,0,0,.48-.19l.35-.19a.51.51,0,0,1,.26-.09.27.27,0,0,1,.24.12l.37.47a2.33,2.33,0,0,1-.52.46,3,3,0,0,1-.61.3,3.47,3.47,0,0,1-.67.17,4.49,4.49,0,0,1-.67.05,3.19,3.19,0,0,1-1.18-.21,2.61,2.61,0,0,1-.94-.63,2.89,2.89,0,0,1-.62-1,4.08,4.08,0,0,1-.23-1.41,3.44,3.44,0,0,1,.2-1.19,2.83,2.83,0,0,1,.58-1,2.71,2.71,0,0,1,.91-.64A3,3,0,0,1,41,144.56Zm0,.94a1.49,1.49,0,0,0-1.1.4,2,2,0,0,0-.51,1.13h3a1.89,1.89,0,0,0-.09-.6,1.4,1.4,0,0,0-.27-.49,1.25,1.25,0,0,0-.45-.32A1.52,1.52,0,0,0,41,145.5Z"/><path class="41a5c536-3cdd-4cae-9f81-0981242e11ea" d="M46.15,147.63l-2-3h1.24a.42.42,0,0,1,.22,0,.41.41,0,0,1,.12.14L47.07,147a1.6,1.6,0,0,1,.17-.38l1.17-1.76a.35.35,0,0,1,.31-.2H49.9l-2,2.91L50,150.78H48.75a.34.34,0,0,1-.24-.08.66.66,0,0,1-.14-.17L47,148.27a1.17,1.17,0,0,1-.14.35l-1.28,1.91a1.13,1.13,0,0,1-.15.17.29.29,0,0,1-.21.08H44Z"/><path class="41a5c536-3cdd-4cae-9f81-0981242e11ea" d="M50.86,152.81v-8.15h.78a.32.32,0,0,1,.34.25l.1.64a3.88,3.88,0,0,1,.41-.41,2.51,2.51,0,0,1,.46-.32,2.43,2.43,0,0,1,.53-.2,2.49,2.49,0,0,1,.61-.07,2.08,2.08,0,0,1,.94.21,2,2,0,0,1,.72.6,2.92,2.92,0,0,1,.47,1,5,5,0,0,1,.17,1.34,4.2,4.2,0,0,1-.18,1.26,3.08,3.08,0,0,1-.52,1,2.38,2.38,0,0,1-1.93.92,2.07,2.07,0,0,1-1.6-.65v2.59Zm2.8-7.23a1.62,1.62,0,0,0-.85.21,2.42,2.42,0,0,0-.66.61v2.84a1.54,1.54,0,0,0,.59.49,1.75,1.75,0,0,0,.71.14,1.4,1.4,0,0,0,1.18-.55,2.68,2.68,0,0,0,.42-1.64,4.17,4.17,0,0,0-.1-1,1.86,1.86,0,0,0-.28-.65,1.07,1.07,0,0,0-.44-.37A1.44,1.44,0,0,0,53.66,145.58Z"/><path class="41a5c536-3cdd-4cae-9f81-0981242e11ea" d="M57.63,150.78v-6.12h.75a.41.41,0,0,1,.28.08.46.46,0,0,1,.11.26l.07.8a2.75,2.75,0,0,1,.7-.92,1.49,1.49,0,0,1,1-.33,1.46,1.46,0,0,1,.37,0,1,1,0,0,1,.31.13l-.09,1a.24.24,0,0,1-.08.14.22.22,0,0,1-.13,0l-.26,0a1.8,1.8,0,0,0-.35,0,1.38,1.38,0,0,0-.48.08,1.11,1.11,0,0,0-.37.23,1.6,1.6,0,0,0-.29.37,3.56,3.56,0,0,0-.23.49v3.8Z"/><path class="41a5c536-3cdd-4cae-9f81-0981242e11ea" d="M64.41,144.56a2.93,2.93,0,0,1,1,.18,2.3,2.3,0,0,1,.83.54,2.48,2.48,0,0,1,.54.87,3.27,3.27,0,0,1,.19,1.17.83.83,0,0,1-.07.4.26.26,0,0,1-.24.1H62.78a3.07,3.07,0,0,0,.16.9,1.87,1.87,0,0,0,.37.63,1.43,1.43,0,0,0,.55.38,2,2,0,0,0,.72.12,2.2,2.2,0,0,0,.65-.09,3,3,0,0,0,.48-.19l.35-.19a.51.51,0,0,1,.26-.09.27.27,0,0,1,.24.12l.37.47a2.33,2.33,0,0,1-.52.46,3,3,0,0,1-.61.3,3.47,3.47,0,0,1-.67.17,4.49,4.49,0,0,1-.67.05,3.19,3.19,0,0,1-1.18-.21,2.61,2.61,0,0,1-.94-.63,2.89,2.89,0,0,1-.62-1,4.08,4.08,0,0,1-.23-1.41,3.44,3.44,0,0,1,.2-1.19,2.83,2.83,0,0,1,.58-1,2.71,2.71,0,0,1,.91-.64A3,3,0,0,1,64.41,144.56Zm0,.94a1.49,1.49,0,0,0-1.1.4,2,2,0,0,0-.51,1.13h3a1.89,1.89,0,0,0-.09-.6,1.4,1.4,0,0,0-.27-.49,1.25,1.25,0,0,0-.45-.32A1.52,1.52,0,0,0,64.43,145.5Z"/><path class="41a5c536-3cdd-4cae-9f81-0981242e11ea" d="M71.87,145.77a.33.33,0,0,1-.11.12.29.29,0,0,1-.15,0,.48.48,0,0,1-.22-.06l-.28-.14a2.48,2.48,0,0,0-.38-.14,1.87,1.87,0,0,0-.51-.06,1.54,1.54,0,0,0-.44.06,1,1,0,0,0-.33.16.74.74,0,0,0-.21.25.66.66,0,0,0-.07.3.51.51,0,0,0,.13.36,1.15,1.15,0,0,0,.35.25,3.38,3.38,0,0,0,.49.19l.56.18a5.58,5.58,0,0,1,.56.22,2.11,2.11,0,0,1,.49.31,1.41,1.41,0,0,1,.35.44,1.39,1.39,0,0,1,.13.63,2,2,0,0,1-.16.8,1.8,1.8,0,0,1-.46.64,2.1,2.1,0,0,1-.75.42,3.46,3.46,0,0,1-1.64.09,3.5,3.5,0,0,1-.56-.16,3,3,0,0,1-.5-.24,2.66,2.66,0,0,1-.41-.3l.3-.49a.42.42,0,0,1,.13-.14.38.38,0,0,1,.2-.05.45.45,0,0,1,.25.08l.29.18a2.28,2.28,0,0,0,.4.18,1.81,1.81,0,0,0,.58.08,1.61,1.61,0,0,0,.5-.07,1,1,0,0,0,.35-.19.76.76,0,0,0,.2-.27.82.82,0,0,0,.07-.33.56.56,0,0,0-.13-.38,1.1,1.1,0,0,0-.35-.26,3.18,3.18,0,0,0-.5-.19l-.57-.18a6.09,6.09,0,0,1-.57-.22,2,2,0,0,1-.5-.32,1.46,1.46,0,0,1-.35-.47,1.58,1.58,0,0,1-.13-.68,1.68,1.68,0,0,1,.58-1.28,2.09,2.09,0,0,1,.7-.4,2.88,2.88,0,0,1,1-.15,3,3,0,0,1,1.12.2,2.43,2.43,0,0,1,.85.54Z"/><path class="41a5c536-3cdd-4cae-9f81-0981242e11ea" d="M77.11,145.77a.33.33,0,0,1-.11.12.29.29,0,0,1-.15,0,.49.49,0,0,1-.22-.06l-.28-.14a2.46,2.46,0,0,0-.38-.14,1.86,1.86,0,0,0-.51-.06,1.54,1.54,0,0,0-.43.06,1,1,0,0,0-.33.16.74.74,0,0,0-.21.25.66.66,0,0,0-.07.3.51.51,0,0,0,.13.36,1.15,1.15,0,0,0,.35.25,3.4,3.4,0,0,0,.49.19l.56.18a5.57,5.57,0,0,1,.56.22,2.09,2.09,0,0,1,.49.31,1.41,1.41,0,0,1,.35.44,1.39,1.39,0,0,1,.13.63,2,2,0,0,1-.16.8,1.8,1.8,0,0,1-.46.64,2.1,2.1,0,0,1-.75.42,3.46,3.46,0,0,1-1.64.09,3.49,3.49,0,0,1-.56-.16,3,3,0,0,1-.5-.24,2.69,2.69,0,0,1-.41-.3l.3-.49a.42.42,0,0,1,.13-.14.38.38,0,0,1,.2-.05.45.45,0,0,1,.25.08l.29.18a2.26,2.26,0,0,0,.4.18,1.81,1.81,0,0,0,.58.08,1.6,1.6,0,0,0,.5-.07,1,1,0,0,0,.35-.19.75.75,0,0,0,.2-.27.82.82,0,0,0,.07-.33.56.56,0,0,0-.13-.38,1.1,1.1,0,0,0-.35-.26,3.14,3.14,0,0,0-.5-.19l-.57-.18c-.19-.06-.38-.14-.57-.22a2,2,0,0,1-.5-.32,1.47,1.47,0,0,1-.35-.47,1.58,1.58,0,0,1-.13-.68,1.68,1.68,0,0,1,.58-1.28,2.09,2.09,0,0,1,.7-.4,2.88,2.88,0,0,1,1-.15,3,3,0,0,1,1.12.2,2.44,2.44,0,0,1,.85.54Z"/><path class="41a5c536-3cdd-4cae-9f81-0981242e11ea" d="M80.26,142.81a.81.81,0,0,1-.07.33.86.86,0,0,1-.19.27.91.91,0,0,1-.28.19.84.84,0,0,1-.34.07.79.79,0,0,1-.33-.07.87.87,0,0,1-.27-.19.91.91,0,0,1-.18-.27.81.81,0,0,1-.07-.33.82.82,0,0,1,.07-.34.92.92,0,0,1,.18-.27.88.88,0,0,1,.27-.19.79.79,0,0,1,.33-.07.84.84,0,0,1,.34.07.93.93,0,0,1,.28.19.86.86,0,0,1,.19.27A.82.82,0,0,1,80.26,142.81ZM80,144.66v6.12H78.75v-6.12Z"/><path class="41a5c536-3cdd-4cae-9f81-0981242e11ea" d="M84.31,144.56a3.26,3.26,0,0,1,1.23.22,2.64,2.64,0,0,1,.94.63,2.79,2.79,0,0,1,.6,1,4.18,4.18,0,0,1,0,2.62,2.83,2.83,0,0,1-.6,1,2.61,2.61,0,0,1-.94.63,3.52,3.52,0,0,1-2.46,0,2.64,2.64,0,0,1-.94-.63,2.81,2.81,0,0,1-.6-1,4.18,4.18,0,0,1,0-2.62,2.77,2.77,0,0,1,.6-1,2.66,2.66,0,0,1,.94-.63A3.27,3.27,0,0,1,84.31,144.56Zm0,5.3a1.43,1.43,0,0,0,1.23-.55,3.33,3.33,0,0,0,0-3.18,1.42,1.42,0,0,0-1.23-.56,1.44,1.44,0,0,0-1.25.56,3.3,3.3,0,0,0,0,3.18A1.45,1.45,0,0,0,84.31,149.86Z"/><path class="41a5c536-3cdd-4cae-9f81-0981242e11ea" d="M88.52,150.78v-6.12h.78a.32.32,0,0,1,.34.25l.09.57a3.72,3.72,0,0,1,.41-.37,2.59,2.59,0,0,1,.45-.29,2.39,2.39,0,0,1,.51-.19,2.51,2.51,0,0,1,.59-.07,2.17,2.17,0,0,1,.88.17,1.78,1.78,0,0,1,.64.47,2,2,0,0,1,.39.74,3.21,3.21,0,0,1,.13.95v3.89H92.45v-3.89a1.46,1.46,0,0,0-.29-1,1.06,1.06,0,0,0-.87-.34,1.67,1.67,0,0,0-.8.2,2.75,2.75,0,0,0-.69.54v4.46Z"/><path class="41a5c536-3cdd-4cae-9f81-0981242e11ea" d="M133.77,10.25v.95h-4.13v3h3.53v.95h-3.53v3.7h-1.17v-8.6Z"/><path class="41a5c536-3cdd-4cae-9f81-0981242e11ea" d="M139.56,18.84h-.47a.57.57,0,0,1-.25,0,.26.26,0,0,1-.13-.2l-.12-.56q-.24.22-.47.39a2.69,2.69,0,0,1-.48.29,2.48,2.48,0,0,1-.54.18,3.07,3.07,0,0,1-.63.06,2.15,2.15,0,0,1-.66-.1,1.51,1.51,0,0,1-.54-.3,1.42,1.42,0,0,1-.36-.5,1.76,1.76,0,0,1-.14-.72,1.35,1.35,0,0,1,.2-.7,1.75,1.75,0,0,1,.64-.59,4.16,4.16,0,0,1,1.15-.42,7.87,7.87,0,0,1,1.75-.17V15a1.65,1.65,0,0,0-.3-1.08,1.1,1.1,0,0,0-.9-.37,1.9,1.9,0,0,0-.66.1,2.45,2.45,0,0,0-.46.22l-.34.22a.48.48,0,0,1-.28.1.32.32,0,0,1-.19-.06.44.44,0,0,1-.13-.14l-.19-.34a3.46,3.46,0,0,1,1.09-.73,3.35,3.35,0,0,1,1.29-.24,2.3,2.3,0,0,1,.91.17,1.85,1.85,0,0,1,.67.47,2,2,0,0,1,.41.73,3,3,0,0,1,.14.94Zm-2.77-.65a2.17,2.17,0,0,0,.52-.06,2,2,0,0,0,.44-.16,2.33,2.33,0,0,0,.4-.25,3.42,3.42,0,0,0,.37-.34V16.12a7.14,7.14,0,0,0-1.25.09,3.53,3.53,0,0,0-.84.24,1.17,1.17,0,0,0-.47.36.76.76,0,0,0-.15.46,1,1,0,0,0,.08.42.79.79,0,0,0,.21.29.83.83,0,0,0,.31.16A1.41,1.41,0,0,0,136.79,18.19Z"/><path class="41a5c536-3cdd-4cae-9f81-0981242e11ea" d="M144.66,13.77a.24.24,0,0,1-.22.13.41.41,0,0,1-.2-.07l-.28-.15a2.71,2.71,0,0,0-.39-.15,1.88,1.88,0,0,0-.54-.07,1.59,1.59,0,0,0-.49.07,1.17,1.17,0,0,0-.37.19.85.85,0,0,0-.23.28.75.75,0,0,0-.08.34.57.57,0,0,0,.14.39,1.18,1.18,0,0,0,.36.27,3.14,3.14,0,0,0,.5.2l.58.19.58.22a2.09,2.09,0,0,1,.5.3,1.36,1.36,0,0,1,.36.44A1.35,1.35,0,0,1,145,17a2,2,0,0,1-.15.78,1.7,1.7,0,0,1-.44.62,2.14,2.14,0,0,1-.72.41,3,3,0,0,1-1,.15,3.08,3.08,0,0,1-1.15-.21,2.92,2.92,0,0,1-.88-.53l.25-.41a.37.37,0,0,1,.11-.12.32.32,0,0,1,.17,0,.4.4,0,0,1,.23.08l.29.19a2.23,2.23,0,0,0,.41.19,1.87,1.87,0,0,0,.61.08,1.67,1.67,0,0,0,.55-.08,1.15,1.15,0,0,0,.39-.22.87.87,0,0,0,.23-.32,1,1,0,0,0,.08-.38.64.64,0,0,0-.13-.42,1.13,1.13,0,0,0-.36-.28,2.91,2.91,0,0,0-.51-.2l-.58-.18c-.2-.06-.39-.14-.58-.22a2,2,0,0,1-.51-.31,1.39,1.39,0,0,1-.36-.46,1.49,1.49,0,0,1-.13-.66,1.61,1.61,0,0,1,.14-.67,1.63,1.63,0,0,1,.42-.56,2,2,0,0,1,.68-.39,2.71,2.71,0,0,1,.92-.14,2.91,2.91,0,0,1,1.08.19,2.56,2.56,0,0,1,.83.52Z"/><path class="41a5c536-3cdd-4cae-9f81-0981242e11ea" d="M148.23,18.94a1.46,1.46,0,0,1-1.11-.4,1.6,1.6,0,0,1-.39-1.16V13.66H146a.24.24,0,0,1-.16-.06.22.22,0,0,1-.07-.18V13l1-.13L147,11a.23.23,0,0,1,.08-.15.25.25,0,0,1,.17-.06h.54v2.09h1.74v.77h-1.74v3.65a.78.78,0,0,0,.19.57.65.65,0,0,0,.48.19.84.84,0,0,0,.29,0l.21-.1.15-.1a.2.2,0,0,1,.11,0,.18.18,0,0,1,.15.1l.31.51a2,2,0,0,1-.67.41A2.27,2.27,0,0,1,148.23,18.94Z"/><path class="41a5c536-3cdd-4cae-9f81-0981242e11ea" d="M159,14.55a5.29,5.29,0,0,1-.12,1.15,4.48,4.48,0,0,1-.36,1,4,4,0,0,1-.57.85,3.84,3.84,0,0,1-.76.67l2.21,2.38h-1a1.13,1.13,0,0,1-.38-.06.76.76,0,0,1-.31-.21l-1.51-1.64a4.93,4.93,0,0,1-.71.17,4.79,4.79,0,0,1-.77.06,4.5,4.5,0,0,1-1.73-.32,3.87,3.87,0,0,1-1.34-.9,4.06,4.06,0,0,1-.86-1.39,5.29,5.29,0,0,1,0-3.55,4.09,4.09,0,0,1,.86-1.39,3.89,3.89,0,0,1,1.34-.91,4.78,4.78,0,0,1,3.46,0,3.87,3.87,0,0,1,1.34.91,4.09,4.09,0,0,1,.86,1.39A5,5,0,0,1,159,14.55Zm-1.19,0a4.38,4.38,0,0,0-.22-1.42,3,3,0,0,0-.61-1.07,2.66,2.66,0,0,0-1-.67,3.49,3.49,0,0,0-2.51,0,2.7,2.7,0,0,0-1,.67,3,3,0,0,0-.61,1.07,4.78,4.78,0,0,0,0,2.84,3,3,0,0,0,.61,1.06,2.66,2.66,0,0,0,1,.67,3.54,3.54,0,0,0,2.51,0,2.62,2.62,0,0,0,1-.67,3,3,0,0,0,.61-1.06A4.35,4.35,0,0,0,157.83,14.55Z"/><path class="41a5c536-3cdd-4cae-9f81-0981242e11ea" d="M134.68,49.59a.46.46,0,0,1-.11.13.25.25,0,0,1-.16,0,.41.41,0,0,1-.24-.1l-.34-.23a2.81,2.81,0,0,0-.5-.23,2.15,2.15,0,0,0-.71-.1,2.09,2.09,0,0,0-.69.1,1.47,1.47,0,0,0-.5.29,1.16,1.16,0,0,0-.3.42,1.34,1.34,0,0,0-.1.52,1,1,0,0,0,.18.6,1.51,1.51,0,0,0,.47.4,3.54,3.54,0,0,0,.66.29l.76.26q.39.13.76.3a2.66,2.66,0,0,1,.66.42,1.9,1.9,0,0,1,.47.62,2.05,2.05,0,0,1,.18.9,2.9,2.9,0,0,1-.19,1.06,2.44,2.44,0,0,1-.56.86,2.63,2.63,0,0,1-.91.58,3.34,3.34,0,0,1-1.22.21,3.72,3.72,0,0,1-1.52-.3,3.56,3.56,0,0,1-1.17-.82l.34-.55a.43.43,0,0,1,.12-.11.28.28,0,0,1,.15,0,.48.48,0,0,1,.29.13,4.87,4.87,0,0,0,.41.3,3.11,3.11,0,0,0,.59.3,2.32,2.32,0,0,0,.84.13,2.22,2.22,0,0,0,.74-.11,1.57,1.57,0,0,0,.55-.32,1.38,1.38,0,0,0,.34-.49,1.66,1.66,0,0,0,.12-.64,1.08,1.08,0,0,0-.18-.64,1.48,1.48,0,0,0-.46-.42,3.28,3.28,0,0,0-.66-.29l-.76-.24a7.68,7.68,0,0,1-.76-.29,2.46,2.46,0,0,1-.66-.42,1.93,1.93,0,0,1-.46-.65,2.36,2.36,0,0,1,.51-2.59,2.48,2.48,0,0,1,.83-.53,3,3,0,0,1,1.14-.2,3.63,3.63,0,0,1,1.31.23,3,3,0,0,1,1,.66Z"/><path class="41a5c536-3cdd-4cae-9f81-0981242e11ea" d="M142.49,48.25v1h-2.78v7.62h-1.16V49.22h-2.79v-1Z"/><path class="41a5c536-3cdd-4cae-9f81-0981242e11ea" d="M150,56.84h-.9a.38.38,0,0,1-.25-.08.48.48,0,0,1-.14-.2l-.8-2.08H144l-.8,2.08a.47.47,0,0,1-.14.19.38.38,0,0,1-.25.08h-.9l3.44-8.6h1.18Zm-5.63-3.19h3.21l-1.35-3.5a6.54,6.54,0,0,1-.26-.81l-.13.45q-.06.21-.12.36Z"/><path class="41a5c536-3cdd-4cae-9f81-0981242e11ea" d="M152.36,53.26v3.59H151.2v-8.6h2.43a5.32,5.32,0,0,1,1.41.17,2.7,2.7,0,0,1,1,.48,1.9,1.9,0,0,1,.57.75,2.52,2.52,0,0,1,.19,1,2.48,2.48,0,0,1-.14.85,2.25,2.25,0,0,1-.42.71,2.49,2.49,0,0,1-.67.54,3.28,3.28,0,0,1-.89.34,1.24,1.24,0,0,1,.38.37l2.51,3.41h-1a.51.51,0,0,1-.47-.25l-2.23-3.07a.65.65,0,0,0-.22-.21.8.8,0,0,0-.36-.06Zm0-.85h1.22a3,3,0,0,0,.9-.12,1.83,1.83,0,0,0,.65-.35,1.45,1.45,0,0,0,.39-.54,1.76,1.76,0,0,0,.13-.69,1.37,1.37,0,0,0-.51-1.16,2.45,2.45,0,0,0-1.51-.39h-1.27Z"/><path class="41a5c536-3cdd-4cae-9f81-0981242e11ea" d="M106.31,99.34V94.18l-.67-.08a.54.54,0,0,1-.21-.09.22.22,0,0,1-.08-.18v-.44h1V92.8a2.72,2.72,0,0,1,.15-.93,1.88,1.88,0,0,1,.42-.68,1.79,1.79,0,0,1,.66-.42,2.45,2.45,0,0,1,.86-.14,2.31,2.31,0,0,1,.76.12l0,.53a.14.14,0,0,1-.1.14,1.2,1.2,0,0,1-.27,0h-.19a1.64,1.64,0,0,0-.5.07.94.94,0,0,0-.39.23,1.05,1.05,0,0,0-.25.43,2.09,2.09,0,0,0-.09.65v.56h1.76v.77h-1.72v5.18Z"/><path class="41a5c536-3cdd-4cae-9f81-0981242e11ea" d="M112.52,93.17a2.73,2.73,0,0,1,1,.18,2.27,2.27,0,0,1,.8.53,2.41,2.41,0,0,1,.52.85,3.29,3.29,0,0,1,.19,1.15.69.69,0,0,1-.05.34.22.22,0,0,1-.2.08h-4a3.36,3.36,0,0,0,.16,1,2.05,2.05,0,0,0,.4.71,1.58,1.58,0,0,0,.6.43,2,2,0,0,0,.78.14,2.28,2.28,0,0,0,.69-.09,3.38,3.38,0,0,0,.5-.2l.35-.2a.46.46,0,0,1,.24-.09.23.23,0,0,1,.2.1l.3.39a2,2,0,0,1-.47.42,2.91,2.91,0,0,1-.59.29,3.67,3.67,0,0,1-.65.17,4,4,0,0,1-.67.06,3.1,3.1,0,0,1-1.16-.21,2.57,2.57,0,0,1-.92-.62,2.86,2.86,0,0,1-.6-1,4.12,4.12,0,0,1-.22-1.39,3.55,3.55,0,0,1,.2-1.19,2.8,2.8,0,0,1,.56-1,2.57,2.57,0,0,1,.89-.64A2.93,2.93,0,0,1,112.52,93.17Zm0,.79a1.64,1.64,0,0,0-1.22.45,2.1,2.1,0,0,0-.55,1.24h3.31A2.18,2.18,0,0,0,114,95a1.53,1.53,0,0,0-.3-.53,1.35,1.35,0,0,0-.48-.35A1.63,1.63,0,0,0,112.55,94Z"/><path class="41a5c536-3cdd-4cae-9f81-0981242e11ea" d="M120.87,99.34h-.47a.58.58,0,0,1-.25,0,.27.27,0,0,1-.13-.2l-.12-.56q-.24.22-.47.39a2.65,2.65,0,0,1-.48.29,2.49,2.49,0,0,1-.54.18,3.08,3.08,0,0,1-.63.06,2.15,2.15,0,0,1-.66-.1,1.5,1.5,0,0,1-.54-.3,1.4,1.4,0,0,1-.36-.5,1.76,1.76,0,0,1-.13-.72,1.35,1.35,0,0,1,.2-.7,1.74,1.74,0,0,1,.64-.59,4.16,4.16,0,0,1,1.16-.42,7.86,7.86,0,0,1,1.75-.17v-.48a1.65,1.65,0,0,0-.3-1.08,1.1,1.1,0,0,0-.9-.37,1.91,1.91,0,0,0-.66.1,2.48,2.48,0,0,0-.46.22l-.34.22a.49.49,0,0,1-.28.1.32.32,0,0,1-.19-.06.42.42,0,0,1-.13-.14l-.19-.34a3.47,3.47,0,0,1,1.09-.73,3.35,3.35,0,0,1,1.29-.24,2.31,2.31,0,0,1,.91.17,1.87,1.87,0,0,1,.67.47,2,2,0,0,1,.41.73,3,3,0,0,1,.14.94Zm-2.77-.65a2.18,2.18,0,0,0,.52-.06,2,2,0,0,0,.44-.16,2.36,2.36,0,0,0,.4-.25,3.42,3.42,0,0,0,.37-.34V96.62a7.14,7.14,0,0,0-1.25.09,3.56,3.56,0,0,0-.84.24,1.17,1.17,0,0,0-.47.36.77.77,0,0,0-.15.46,1,1,0,0,0,.08.42.79.79,0,0,0,.21.29.83.83,0,0,0,.31.16A1.42,1.42,0,0,0,118.1,98.69Z"/><path class="41a5c536-3cdd-4cae-9f81-0981242e11ea" d="M124.33,99.44a1.46,1.46,0,0,1-1.11-.4,1.6,1.6,0,0,1-.39-1.16V94.16h-.73a.24.24,0,0,1-.16-.06.22.22,0,0,1-.07-.18V93.5l1-.13.25-1.88a.23.23,0,0,1,.08-.15.25.25,0,0,1,.17-.06h.54v2.09h1.74v.77H123.9v3.65a.78.78,0,0,0,.19.57.65.65,0,0,0,.48.19.84.84,0,0,0,.29,0l.21-.1.15-.1a.2.2,0,0,1,.11,0,.18.18,0,0,1,.15.1l.31.51a2,2,0,0,1-.67.41A2.26,2.26,0,0,1,124.33,99.44Z"/><path class="41a5c536-3cdd-4cae-9f81-0981242e11ea" d="M127.89,93.27v3.88a1.61,1.61,0,0,0,.32,1.07,1.18,1.18,0,0,0,1,.38,1.84,1.84,0,0,0,.88-.22,2.74,2.74,0,0,0,.76-.62V93.27h1.07v6.08h-.64a.27.27,0,0,1-.29-.22l-.08-.65a3.37,3.37,0,0,1-.89.71,2.33,2.33,0,0,1-1.13.27,2.19,2.19,0,0,1-.88-.17,1.74,1.74,0,0,1-.64-.46,2,2,0,0,1-.39-.73,3.25,3.25,0,0,1-.13-.94V93.27Z"/><path class="41a5c536-3cdd-4cae-9f81-0981242e11ea" d="M133.64,99.34V93.27h.61a.34.34,0,0,1,.24.07.4.4,0,0,1,.09.23l.07.95a2.78,2.78,0,0,1,.77-1,1.81,1.81,0,0,1,1.53-.3,1.57,1.57,0,0,1,.38.16l-.14.8a.18.18,0,0,1-.19.15.92.92,0,0,1-.26-.06,1.63,1.63,0,0,0-.49-.06,1.38,1.38,0,0,0-.93.32,2.43,2.43,0,0,0-.63.94v3.87Z"/><path class="41a5c536-3cdd-4cae-9f81-0981242e11ea" d="M140.88,93.17a2.73,2.73,0,0,1,1,.18,2.27,2.27,0,0,1,.8.53,2.41,2.41,0,0,1,.52.85,3.29,3.29,0,0,1,.19,1.15.69.69,0,0,1-.05.34.22.22,0,0,1-.2.08h-4a3.36,3.36,0,0,0,.16,1,2.05,2.05,0,0,0,.4.71,1.58,1.58,0,0,0,.6.43,2,2,0,0,0,.78.14,2.28,2.28,0,0,0,.69-.09,3.38,3.38,0,0,0,.5-.2l.35-.2a.46.46,0,0,1,.24-.09.23.23,0,0,1,.2.1l.3.39a2,2,0,0,1-.47.42,2.91,2.91,0,0,1-.59.29,3.67,3.67,0,0,1-.65.17,4,4,0,0,1-.67.06,3.1,3.1,0,0,1-1.16-.21,2.57,2.57,0,0,1-.92-.62,2.86,2.86,0,0,1-.6-1,4.12,4.12,0,0,1-.22-1.39,3.55,3.55,0,0,1,.2-1.19,2.8,2.8,0,0,1,.56-1,2.57,2.57,0,0,1,.89-.64A2.93,2.93,0,0,1,140.88,93.17Zm0,.79a1.64,1.64,0,0,0-1.22.45,2.1,2.1,0,0,0-.55,1.24h3.31a2.18,2.18,0,0,0-.1-.68,1.53,1.53,0,0,0-.3-.53,1.35,1.35,0,0,0-.48-.35A1.63,1.63,0,0,0,140.9,94Z"/><path class="41a5c536-3cdd-4cae-9f81-0981242e11ea" d="M151,97.57a.24.24,0,0,1,.17.08l.46.5a3.68,3.68,0,0,1-1.28,1,4.38,4.38,0,0,1-1.82.34,4.26,4.26,0,0,1-1.69-.32,3.69,3.69,0,0,1-1.29-.9,4.05,4.05,0,0,1-.83-1.39,5.18,5.18,0,0,1-.29-1.78,4.88,4.88,0,0,1,.31-1.78,4.06,4.06,0,0,1,.89-1.39A4,4,0,0,1,147,91a4.65,4.65,0,0,1,1.75-.32,3.92,3.92,0,0,1,2.86,1.09l-.38.53a.43.43,0,0,1-.1.1.26.26,0,0,1-.16,0,.3.3,0,0,1-.17-.06l-.21-.14-.28-.18a2.44,2.44,0,0,0-.38-.18,3.19,3.19,0,0,0-.52-.14,3.59,3.59,0,0,0-.68-.06,3.28,3.28,0,0,0-1.26.24,2.84,2.84,0,0,0-1,.68,3.07,3.07,0,0,0-.64,1.07,4.07,4.07,0,0,0-.23,1.41,4.14,4.14,0,0,0,.23,1.43,3.15,3.15,0,0,0,.63,1.07,2.66,2.66,0,0,0,.95.66,3,3,0,0,0,1.18.23,4.73,4.73,0,0,0,.69,0,2.89,2.89,0,0,0,.57-.14,2.46,2.46,0,0,0,.49-.24,3.79,3.79,0,0,0,.45-.35A.31.31,0,0,1,151,97.57Z"/><path class="41a5c536-3cdd-4cae-9f81-0981242e11ea" d="M155.44,93.17a3.13,3.13,0,0,1,1.2.22,2.54,2.54,0,0,1,.91.63,2.78,2.78,0,0,1,.58,1,4.27,4.27,0,0,1,0,2.59,2.78,2.78,0,0,1-.58,1,2.51,2.51,0,0,1-.91.63,3.42,3.42,0,0,1-2.41,0,2.53,2.53,0,0,1-.92-.63,2.8,2.8,0,0,1-.58-1,4.21,4.21,0,0,1,0-2.59,2.79,2.79,0,0,1,.58-1,2.56,2.56,0,0,1,.92-.63A3.12,3.12,0,0,1,155.44,93.17Zm0,5.42a1.56,1.56,0,0,0,1.34-.6,3.43,3.43,0,0,0,0-3.37,1.56,1.56,0,0,0-1.34-.61,1.87,1.87,0,0,0-.79.16,1.49,1.49,0,0,0-.56.45,2,2,0,0,0-.34.72,4.3,4.3,0,0,0,0,1.94,2,2,0,0,0,.34.72,1.49,1.49,0,0,0,.56.45A1.85,1.85,0,0,0,155.44,98.59Z"/><path class="41a5c536-3cdd-4cae-9f81-0981242e11ea" d="M160.58,93.27v3.88a1.61,1.61,0,0,0,.32,1.07,1.18,1.18,0,0,0,1,.38,1.84,1.84,0,0,0,.88-.22,2.74,2.74,0,0,0,.76-.62V93.27h1.07v6.08h-.64a.27.27,0,0,1-.29-.22l-.08-.65a3.37,3.37,0,0,1-.89.71,2.33,2.33,0,0,1-1.13.27,2.19,2.19,0,0,1-.88-.17,1.74,1.74,0,0,1-.64-.46,2,2,0,0,1-.39-.73,3.25,3.25,0,0,1-.13-.94V93.27Z"/><path class="41a5c536-3cdd-4cae-9f81-0981242e11ea" d="M166.32,99.34V93.27H167a.27.27,0,0,1,.29.22l.08.66a3.4,3.4,0,0,1,.88-.71,2.3,2.3,0,0,1,1.13-.27,2.19,2.19,0,0,1,.88.17,1.69,1.69,0,0,1,.64.47,2.07,2.07,0,0,1,.39.73,3.18,3.18,0,0,1,.13.94v3.87h-1.07V95.47A1.64,1.64,0,0,0,170,94.4a1.18,1.18,0,0,0-1-.38,1.79,1.79,0,0,0-.88.23,2.93,2.93,0,0,0-.76.62v4.48Z"/><path class="41a5c536-3cdd-4cae-9f81-0981242e11ea" d="M174.84,99.44a1.46,1.46,0,0,1-1.11-.4,1.6,1.6,0,0,1-.39-1.16V94.16h-.73a.24.24,0,0,1-.16-.06.22.22,0,0,1-.07-.18V93.5l1-.13.25-1.88a.23.23,0,0,1,.08-.15.25.25,0,0,1,.17-.06h.54v2.09h1.74v.77h-1.74v3.65a.78.78,0,0,0,.19.57.65.65,0,0,0,.48.19.84.84,0,0,0,.29,0l.21-.1.15-.1a.2.2,0,0,1,.11,0,.18.18,0,0,1,.15.1l.31.51a2,2,0,0,1-.67.41A2.26,2.26,0,0,1,174.84,99.44Z"/><path class="41a5c536-3cdd-4cae-9f81-0981242e11ea" d="M181,94.27a.24.24,0,0,1-.22.13.42.42,0,0,1-.2-.07l-.28-.15a2.65,2.65,0,0,0-.39-.15,1.88,1.88,0,0,0-.54-.07,1.6,1.6,0,0,0-.49.07,1.2,1.2,0,0,0-.37.19.84.84,0,0,0-.23.28.75.75,0,0,0-.08.34.58.58,0,0,0,.13.39,1.17,1.17,0,0,0,.36.27,3.07,3.07,0,0,0,.5.2l.58.19.58.22a2.13,2.13,0,0,1,.5.3,1.38,1.38,0,0,1,.36.44,1.35,1.35,0,0,1,.14.63,2,2,0,0,1-.15.78,1.7,1.7,0,0,1-.44.62,2.13,2.13,0,0,1-.72.41,3,3,0,0,1-1,.15,3.07,3.07,0,0,1-1.15-.21,2.88,2.88,0,0,1-.88-.53l.25-.41a.35.35,0,0,1,.11-.12.32.32,0,0,1,.17,0,.4.4,0,0,1,.23.08l.29.19a2.26,2.26,0,0,0,.41.19,1.9,1.9,0,0,0,.61.08,1.68,1.68,0,0,0,.55-.08,1.15,1.15,0,0,0,.39-.22.87.87,0,0,0,.23-.32,1,1,0,0,0,.07-.38.64.64,0,0,0-.13-.42,1.14,1.14,0,0,0-.36-.28,2.88,2.88,0,0,0-.51-.2l-.58-.18q-.3-.1-.58-.22a2.05,2.05,0,0,1-.51-.31,1.4,1.4,0,0,1-.36-.46,1.49,1.49,0,0,1-.13-.66,1.62,1.62,0,0,1,.14-.67,1.64,1.64,0,0,1,.42-.56,2.06,2.06,0,0,1,.68-.39,2.71,2.71,0,0,1,.92-.14,2.9,2.9,0,0,1,1.08.19,2.55,2.55,0,0,1,.83.52Z"/><path class="41a5c536-3cdd-4cae-9f81-0981242e11ea" d="M128.26,132a4.84,4.84,0,0,1-.31,1.76,3.89,3.89,0,0,1-.86,1.36,3.85,3.85,0,0,1-1.34.87,4.65,4.65,0,0,1-1.73.31h-3.22v-8.6H124a4.65,4.65,0,0,1,1.73.31,3.83,3.83,0,0,1,1.34.88,3.93,3.93,0,0,1,.86,1.36A4.84,4.84,0,0,1,128.26,132Zm-1.19,0a4.33,4.33,0,0,0-.22-1.42,3,3,0,0,0-.61-1.06,2.61,2.61,0,0,0-1-.66,3.33,3.33,0,0,0-1.25-.23h-2v6.71h2a3.33,3.33,0,0,0,1.25-.23,2.63,2.63,0,0,0,1-.66,3,3,0,0,0,.61-1.05A4.33,4.33,0,0,0,127.07,132Z"/><path class="41a5c536-3cdd-4cae-9f81-0981242e11ea" d="M135.15,127.75v.95H131v2.86h3.34v.91H131v2.93h4.13v.95h-5.3v-8.6Z"/><path class="41a5c536-3cdd-4cae-9f81-0981242e11ea" d="M141.22,129.09a.48.48,0,0,1-.11.13.25.25,0,0,1-.16,0,.42.42,0,0,1-.24-.1l-.34-.23a2.71,2.71,0,0,0-.5-.22,2.13,2.13,0,0,0-.71-.1,2.07,2.07,0,0,0-.69.11,1.47,1.47,0,0,0-.5.29,1.17,1.17,0,0,0-.3.42,1.35,1.35,0,0,0-.1.52,1,1,0,0,0,.18.6,1.52,1.52,0,0,0,.47.4,3.51,3.51,0,0,0,.66.29l.76.26q.39.13.76.3a2.64,2.64,0,0,1,.66.42,1.9,1.9,0,0,1,.47.62,2.06,2.06,0,0,1,.18.9,2.91,2.91,0,0,1-.19,1.06,2.44,2.44,0,0,1-.56.86,2.62,2.62,0,0,1-.91.58,3.34,3.34,0,0,1-1.22.21,3.73,3.73,0,0,1-1.52-.3,3.58,3.58,0,0,1-1.17-.82l.34-.55a.45.45,0,0,1,.12-.11.27.27,0,0,1,.15,0,.48.48,0,0,1,.29.13,4.57,4.57,0,0,0,.4.3,3.2,3.2,0,0,0,.59.3,2.33,2.33,0,0,0,.84.13,2.21,2.21,0,0,0,.74-.11,1.56,1.56,0,0,0,.55-.32,1.4,1.4,0,0,0,.34-.49,1.66,1.66,0,0,0,.12-.64,1.08,1.08,0,0,0-.18-.64,1.46,1.46,0,0,0-.46-.42,3.23,3.23,0,0,0-.66-.29l-.76-.24a7.56,7.56,0,0,1-.76-.29,2.45,2.45,0,0,1-.66-.42,1.94,1.94,0,0,1-.46-.64,2.48,2.48,0,0,1,0-1.84,2.26,2.26,0,0,1,.51-.76,2.47,2.47,0,0,1,.83-.53,3,3,0,0,1,1.14-.2,3.63,3.63,0,0,1,1.31.23,3,3,0,0,1,1,.66Z"/><path class="41a5c536-3cdd-4cae-9f81-0981242e11ea" d="M145.42,130.17a2.71,2.71,0,0,1,1,.18,2.25,2.25,0,0,1,.8.53,2.39,2.39,0,0,1,.53.85,3.29,3.29,0,0,1,.19,1.16.69.69,0,0,1-.05.34.22.22,0,0,1-.2.08h-4a3.36,3.36,0,0,0,.16,1,2,2,0,0,0,.4.71,1.58,1.58,0,0,0,.6.43,2,2,0,0,0,.78.14,2.27,2.27,0,0,0,.69-.09,3.3,3.3,0,0,0,.5-.2l.35-.2a.46.46,0,0,1,.24-.09.23.23,0,0,1,.2.1l.3.39a2,2,0,0,1-.47.42,2.89,2.89,0,0,1-.59.29,3.65,3.65,0,0,1-.65.17,4,4,0,0,1-.67.06,3.09,3.09,0,0,1-1.16-.21,2.56,2.56,0,0,1-.92-.62,2.86,2.86,0,0,1-.6-1,4.14,4.14,0,0,1-.22-1.39,3.52,3.52,0,0,1,.2-1.19,2.81,2.81,0,0,1,.56-1,2.59,2.59,0,0,1,.89-.64A2.92,2.92,0,0,1,145.42,130.17Zm0,.79a1.64,1.64,0,0,0-1.22.45,2.11,2.11,0,0,0-.55,1.24H147a2.15,2.15,0,0,0-.1-.68,1.52,1.52,0,0,0-.3-.53,1.34,1.34,0,0,0-.48-.35A1.63,1.63,0,0,0,145.44,131Z"/><path class="41a5c536-3cdd-4cae-9f81-0981242e11ea" d="M154.21,130.27v8.14h-1.07v-3a3.18,3.18,0,0,1-.87.71,2.27,2.27,0,0,1-1.12.27,2.19,2.19,0,0,1-.95-.2,2,2,0,0,1-.73-.59,2.81,2.81,0,0,1-.46-1,5,5,0,0,1-.16-1.34,4.23,4.23,0,0,1,.18-1.25,3,3,0,0,1,.52-1,2.38,2.38,0,0,1,1.93-.91,2.18,2.18,0,0,1,1,.21,2.38,2.38,0,0,1,.74.59l.07-.47a.27.27,0,0,1,.29-.22Zm-2.71,5.3a1.72,1.72,0,0,0,.92-.24,2.64,2.64,0,0,0,.72-.68v-2.94a1.74,1.74,0,0,0-.64-.55,1.83,1.83,0,0,0-.78-.17,1.54,1.54,0,0,0-1.31.61,2.82,2.82,0,0,0-.46,1.73,4.38,4.38,0,0,0,.1,1,2,2,0,0,0,.3.7,1.17,1.17,0,0,0,.49.4A1.63,1.63,0,0,0,151.51,135.56Z"/><path class="41a5c536-3cdd-4cae-9f81-0981242e11ea" d="M158.74,127.65a3.13,3.13,0,0,1,1,.16,2.35,2.35,0,0,1,.82.47,2.19,2.19,0,0,1,.54.75,2.44,2.44,0,0,1,.2,1,2.66,2.66,0,0,1-.14.89,3.67,3.67,0,0,1-.39.78,5.79,5.79,0,0,1-.57.73l-.68.72-2.26,2.32.49-.11a3.1,3.1,0,0,1,.47,0h2.88a.37.37,0,0,1,.28.1.36.36,0,0,1,.1.26v.65h-5.74V136a.66.66,0,0,1,0-.23.64.64,0,0,1,.15-.22l2.75-2.77q.34-.35.62-.67a4.83,4.83,0,0,0,.48-.65,3,3,0,0,0,.31-.66,2.28,2.28,0,0,0,.11-.71,1.7,1.7,0,0,0-.12-.66,1.28,1.28,0,0,0-.33-.47,1.39,1.39,0,0,0-.49-.28,1.93,1.93,0,0,0-.61-.09,1.84,1.84,0,0,0-.6.1,1.63,1.63,0,0,0-.49.27,1.61,1.61,0,0,0-.36.41,1.58,1.58,0,0,0-.21.52.48.48,0,0,1-.14.25.39.39,0,0,1-.25.08h-.14l-.56-.1a3.16,3.16,0,0,1,.32-1,2.47,2.47,0,0,1,.61-.76,2.59,2.59,0,0,1,.85-.46A3.21,3.21,0,0,1,158.74,127.65Z"/><path class="41a5c536-3cdd-4cae-9f81-0981242e11ea" d="M163.06,136.47a.62.62,0,0,1-.25.31.63.63,0,0,1-.34.1H162l3.61-9a.65.65,0,0,1,.22-.29.57.57,0,0,1,.34-.1h.45Z"/><path class="41a5c536-3cdd-4cae-9f81-0981242e11ea" d="M127.64,144.57a2.72,2.72,0,0,1,1,.18,2.27,2.27,0,0,1,.8.53,2.41,2.41,0,0,1,.52.85,3.29,3.29,0,0,1,.19,1.16.69.69,0,0,1-.05.34.23.23,0,0,1-.2.08h-4a3.36,3.36,0,0,0,.16,1,2.05,2.05,0,0,0,.4.71,1.58,1.58,0,0,0,.6.43,2,2,0,0,0,.78.14,2.28,2.28,0,0,0,.69-.09,3.38,3.38,0,0,0,.5-.2l.35-.2a.46.46,0,0,1,.24-.09.23.23,0,0,1,.2.1l.3.39a2,2,0,0,1-.47.42,2.91,2.91,0,0,1-.59.29,3.67,3.67,0,0,1-.65.17,4,4,0,0,1-.67.06,3.1,3.1,0,0,1-1.16-.21,2.57,2.57,0,0,1-.92-.62,2.86,2.86,0,0,1-.6-1,4.11,4.11,0,0,1-.22-1.39,3.55,3.55,0,0,1,.2-1.19,2.81,2.81,0,0,1,.56-1,2.59,2.59,0,0,1,.89-.64A2.93,2.93,0,0,1,127.64,144.57Zm0,.79a1.64,1.64,0,0,0-1.22.45,2.1,2.1,0,0,0-.55,1.24h3.31a2.18,2.18,0,0,0-.1-.68,1.52,1.52,0,0,0-.3-.53,1.34,1.34,0,0,0-.48-.35A1.63,1.63,0,0,0,127.66,145.36Z"/><path class="41a5c536-3cdd-4cae-9f81-0981242e11ea" d="M135.8,150.74a.27.27,0,0,1-.29-.22l-.1-.74a3.21,3.21,0,0,1-.89.76,2.28,2.28,0,0,1-1.15.29,2.19,2.19,0,0,1-.95-.2,2,2,0,0,1-.73-.59,2.81,2.81,0,0,1-.46-1,5,5,0,0,1-.16-1.34,4.23,4.23,0,0,1,.18-1.25,3,3,0,0,1,.52-1,2.38,2.38,0,0,1,1.93-.91,2.2,2.2,0,0,1,1,.19,2.28,2.28,0,0,1,.71.53v-3.37h1.07v8.84Zm-2.07-.78a1.72,1.72,0,0,0,.92-.24,2.64,2.64,0,0,0,.72-.68v-2.94a1.7,1.7,0,0,0-.64-.55,1.87,1.87,0,0,0-.78-.16,1.54,1.54,0,0,0-1.31.61,2.82,2.82,0,0,0-.46,1.73,4.38,4.38,0,0,0,.1,1,2,2,0,0,0,.3.7,1.17,1.17,0,0,0,.49.4A1.63,1.63,0,0,0,133.73,150Z"/><path class="41a5c536-3cdd-4cae-9f81-0981242e11ea" d="M140.28,144.56a3,3,0,0,1,.74.09,2.32,2.32,0,0,1,.63.25h1.65v.4q0,.2-.25.25l-.69.1a2,2,0,0,1,0,1.68,1.82,1.82,0,0,1-.47.62,2.13,2.13,0,0,1-.72.4,2.91,2.91,0,0,1-.92.14,3.06,3.06,0,0,1-.8-.1,1,1,0,0,0-.29.27.49.49,0,0,0-.1.28.38.38,0,0,0,.17.34,1.21,1.21,0,0,0,.46.17,4,4,0,0,0,.65,0h.75a4.12,4.12,0,0,1,.75.07,2.24,2.24,0,0,1,.65.22,1.22,1.22,0,0,1,.46.42,1.25,1.25,0,0,1,.17.69,1.63,1.63,0,0,1-.2.77,2.07,2.07,0,0,1-.56.66,2.87,2.87,0,0,1-.89.46,3.83,3.83,0,0,1-1.19.17,4.61,4.61,0,0,1-1.17-.13,2.71,2.71,0,0,1-.83-.35,1.54,1.54,0,0,1-.5-.51,1.22,1.22,0,0,1-.17-.61,1.1,1.1,0,0,1,.29-.77,2,2,0,0,1,.78-.5,1.07,1.07,0,0,1-.41-.32.86.86,0,0,1-.15-.54.84.84,0,0,1,0-.27,1.07,1.07,0,0,1,.15-.28,1.57,1.57,0,0,1,.58-.49,1.88,1.88,0,0,1-.71-.67,1.83,1.83,0,0,1-.25-1,1.87,1.87,0,0,1,.17-.81,1.77,1.77,0,0,1,.48-.62,2.18,2.18,0,0,1,.73-.39A3,3,0,0,1,140.28,144.56Zm1.9,6.49a.54.54,0,0,0-.13-.37.81.81,0,0,0-.34-.22,2.44,2.44,0,0,0-.5-.11,4.6,4.6,0,0,0-.59,0H140a2.28,2.28,0,0,1-.62-.08,1.75,1.75,0,0,0-.55.4.8.8,0,0,0-.21.56.74.74,0,0,0,.11.38.89.89,0,0,0,.32.31,1.86,1.86,0,0,0,.54.21,3.49,3.49,0,0,0,.77.08,3.45,3.45,0,0,0,.77-.08,1.93,1.93,0,0,0,.58-.23,1.1,1.1,0,0,0,.36-.35A.83.83,0,0,0,142.17,151.05Zm-1.9-3.28a1.67,1.67,0,0,0,.57-.09,1.15,1.15,0,0,0,.42-.25,1,1,0,0,0,.25-.39,1.42,1.42,0,0,0,.08-.5,1.18,1.18,0,0,0-.34-.89,1.63,1.63,0,0,0-2,0,1.18,1.18,0,0,0-.34.89,1.37,1.37,0,0,0,.09.5,1.07,1.07,0,0,0,.25.39,1.15,1.15,0,0,0,.41.25A1.63,1.63,0,0,0,140.28,147.77Z"/><path class="41a5c536-3cdd-4cae-9f81-0981242e11ea" d="M146.77,144.57a2.72,2.72,0,0,1,1,.18,2.27,2.27,0,0,1,.8.53,2.41,2.41,0,0,1,.52.85,3.29,3.29,0,0,1,.19,1.16.69.69,0,0,1-.05.34.23.23,0,0,1-.2.08h-4a3.36,3.36,0,0,0,.16,1,2.05,2.05,0,0,0,.4.71,1.58,1.58,0,0,0,.6.43,2,2,0,0,0,.78.14,2.28,2.28,0,0,0,.69-.09,3.38,3.38,0,0,0,.5-.2l.35-.2a.46.46,0,0,1,.24-.09.23.23,0,0,1,.2.1l.3.39a2,2,0,0,1-.47.42,2.91,2.91,0,0,1-.59.29,3.67,3.67,0,0,1-.65.17,4,4,0,0,1-.67.06,3.1,3.1,0,0,1-1.16-.21,2.57,2.57,0,0,1-.92-.62,2.86,2.86,0,0,1-.6-1,4.11,4.11,0,0,1-.22-1.39,3.55,3.55,0,0,1,.2-1.19,2.81,2.81,0,0,1,.56-1,2.59,2.59,0,0,1,.89-.64A2.93,2.93,0,0,1,146.77,144.57Zm0,.79a1.64,1.64,0,0,0-1.22.45A2.1,2.1,0,0,0,145,147h3.31a2.18,2.18,0,0,0-.1-.68,1.52,1.52,0,0,0-.3-.53,1.34,1.34,0,0,0-.48-.35A1.63,1.63,0,0,0,146.79,145.36Z"/><path class="41a5c536-3cdd-4cae-9f81-0981242e11ea" d="M152.1,147.16v3.59h-1.16v-8.6h2.43a5.34,5.34,0,0,1,1.41.17,2.7,2.7,0,0,1,1,.48,1.9,1.9,0,0,1,.57.75,2.52,2.52,0,0,1,.19,1,2.48,2.48,0,0,1-.14.85,2.25,2.25,0,0,1-.42.71,2.5,2.5,0,0,1-.67.54,3.28,3.28,0,0,1-.89.34,1.24,1.24,0,0,1,.38.37l2.51,3.41h-1a.51.51,0,0,1-.47-.25l-2.23-3.07a.66.66,0,0,0-.22-.21.8.8,0,0,0-.36-.06Zm0-.85h1.22a3,3,0,0,0,.9-.12,1.82,1.82,0,0,0,.65-.35,1.45,1.45,0,0,0,.39-.54,1.75,1.75,0,0,0,.13-.69,1.37,1.37,0,0,0-.51-1.16,2.45,2.45,0,0,0-1.51-.39H152.1Z"/><path class="41a5c536-3cdd-4cae-9f81-0981242e11ea" d="M158.47,150.87a.62.62,0,0,1-.25.31.63.63,0,0,1-.34.1h-.45l3.61-9a.65.65,0,0,1,.22-.29.58.58,0,0,1,.34-.1H162Z"/><path class="41a5c536-3cdd-4cae-9f81-0981242e11ea" d="M127.86,164.17h3.72v1H126.7v-8.6h1.16Z"/><path class="41a5c536-3cdd-4cae-9f81-0981242e11ea" d="M134.13,157.16a.68.68,0,0,1-.06.29.84.84,0,0,1-.17.24.78.78,0,0,1-.24.17.73.73,0,0,1-.29.06.71.71,0,0,1-.29-.06.8.8,0,0,1-.41-.4.71.71,0,0,1-.06-.29.77.77,0,0,1,.23-.54.77.77,0,0,1,.24-.17.71.71,0,0,1,.29-.06.73.73,0,0,1,.29.06.78.78,0,0,1,.24.17.82.82,0,0,1,.17.25A.72.72,0,0,1,134.13,157.16Zm-.24,1.91v6.08h-1.07v-6.08Z"/><path class="41a5c536-3cdd-4cae-9f81-0981242e11ea" d="M135.77,165.14v-6.08h.64a.27.27,0,0,1,.29.22l.08.62a3.15,3.15,0,0,1,.75-.68,1.78,1.78,0,0,1,1-.26,1.44,1.44,0,0,1,1,.34,1.93,1.93,0,0,1,.55.92,1.89,1.89,0,0,1,.33-.57,1.94,1.94,0,0,1,.46-.4,2,2,0,0,1,.55-.23A2.46,2.46,0,0,1,142,159a2.24,2.24,0,0,1,.86.15,1.69,1.69,0,0,1,.64.45,2,2,0,0,1,.4.72,3.21,3.21,0,0,1,.14,1v3.87h-1.07v-3.87a1.64,1.64,0,0,0-.31-1.08,1.12,1.12,0,0,0-.91-.37,1.35,1.35,0,0,0-.5.09,1.2,1.2,0,0,0-.42.27,1.29,1.29,0,0,0-.29.45,1.78,1.78,0,0,0-.1.63v3.87h-1.07v-3.87a1.7,1.7,0,0,0-.29-1.09,1,1,0,0,0-.86-.36,1.35,1.35,0,0,0-.73.21,2.38,2.38,0,0,0-.62.58v4.53Z"/><path class="41a5c536-3cdd-4cae-9f81-0981242e11ea" d="M145.62,165.14v-6.08h.64a.27.27,0,0,1,.29.22l.08.62a3.12,3.12,0,0,1,.75-.68,1.77,1.77,0,0,1,1-.26,1.44,1.44,0,0,1,1,.34,1.92,1.92,0,0,1,.55.92,1.91,1.91,0,0,1,.33-.57,2,2,0,0,1,.46-.4,2,2,0,0,1,.55-.23,2.45,2.45,0,0,1,.59-.07,2.24,2.24,0,0,1,.85.15,1.7,1.7,0,0,1,.64.45,2,2,0,0,1,.4.72,3.21,3.21,0,0,1,.14,1v3.87h-1.07v-3.87a1.64,1.64,0,0,0-.31-1.08,1.12,1.12,0,0,0-.91-.37,1.34,1.34,0,0,0-.5.09,1.19,1.19,0,0,0-.42.27,1.27,1.27,0,0,0-.29.45,1.75,1.75,0,0,0-.11.63v3.87H149.2v-3.87a1.71,1.71,0,0,0-.29-1.09,1,1,0,0,0-.86-.36,1.35,1.35,0,0,0-.74.21,2.41,2.41,0,0,0-.62.58v4.53Z"/><path class="41a5c536-3cdd-4cae-9f81-0981242e11ea" d="M159.94,165.14h-.47a.56.56,0,0,1-.25,0,.26.26,0,0,1-.13-.2l-.12-.56q-.24.22-.47.39a2.69,2.69,0,0,1-.48.29,2.47,2.47,0,0,1-.54.18,3.07,3.07,0,0,1-.63.06,2.15,2.15,0,0,1-.66-.1,1.53,1.53,0,0,1-.54-.3,1.43,1.43,0,0,1-.36-.5,1.77,1.77,0,0,1-.14-.72,1.35,1.35,0,0,1,.2-.7,1.75,1.75,0,0,1,.64-.59,4.14,4.14,0,0,1,1.15-.42,7.87,7.87,0,0,1,1.75-.17v-.48a1.65,1.65,0,0,0-.3-1.08,1.1,1.1,0,0,0-.9-.37,1.89,1.89,0,0,0-.66.1,2.42,2.42,0,0,0-.46.22l-.34.22a.49.49,0,0,1-.28.1.32.32,0,0,1-.19-.06.44.44,0,0,1-.13-.14l-.19-.34a3.44,3.44,0,0,1,1.09-.73,3.35,3.35,0,0,1,1.29-.24,2.29,2.29,0,0,1,.91.17,1.85,1.85,0,0,1,.67.47,2,2,0,0,1,.41.73,3,3,0,0,1,.14.94Zm-2.77-.65a2.17,2.17,0,0,0,.52-.06,2,2,0,0,0,.44-.16,2.27,2.27,0,0,0,.4-.25,3.41,3.41,0,0,0,.37-.34v-1.25a7.14,7.14,0,0,0-1.25.09,3.51,3.51,0,0,0-.84.24,1.16,1.16,0,0,0-.47.36.76.76,0,0,0-.15.46,1,1,0,0,0,.08.42.79.79,0,0,0,.21.29.83.83,0,0,0,.31.16A1.41,1.41,0,0,0,157.17,164.49Z"/><path class="41a5c536-3cdd-4cae-9f81-0981242e11ea" d="M207.27,10.25v.95h-4.13v3h3.53v.95h-3.53v3.7H202v-8.6Z"/><path class="41a5c536-3cdd-4cae-9f81-0981242e11ea" d="M213.06,18.84h-.47a.57.57,0,0,1-.25,0,.26.26,0,0,1-.13-.2l-.12-.56q-.24.22-.47.39a2.69,2.69,0,0,1-.48.29,2.48,2.48,0,0,1-.54.18,3.07,3.07,0,0,1-.63.06,2.15,2.15,0,0,1-.66-.1,1.51,1.51,0,0,1-.54-.3,1.42,1.42,0,0,1-.36-.5,1.76,1.76,0,0,1-.14-.72,1.35,1.35,0,0,1,.2-.7,1.75,1.75,0,0,1,.64-.59,4.16,4.16,0,0,1,1.15-.42,7.87,7.87,0,0,1,1.75-.17V15a1.65,1.65,0,0,0-.3-1.08,1.1,1.1,0,0,0-.9-.37,1.9,1.9,0,0,0-.66.1,2.45,2.45,0,0,0-.46.22l-.34.22a.48.48,0,0,1-.28.1.32.32,0,0,1-.19-.06.44.44,0,0,1-.13-.14l-.19-.34a3.46,3.46,0,0,1,1.09-.73,3.35,3.35,0,0,1,1.29-.24,2.3,2.3,0,0,1,.91.17,1.85,1.85,0,0,1,.67.47,2,2,0,0,1,.41.73,3,3,0,0,1,.14.94Zm-2.77-.65a2.17,2.17,0,0,0,.52-.06,2,2,0,0,0,.44-.16,2.33,2.33,0,0,0,.4-.25,3.42,3.42,0,0,0,.37-.34V16.12a7.14,7.14,0,0,0-1.25.09,3.53,3.53,0,0,0-.84.24,1.17,1.17,0,0,0-.47.36.76.76,0,0,0-.15.46,1,1,0,0,0,.08.42.79.79,0,0,0,.21.29.83.83,0,0,0,.31.16A1.41,1.41,0,0,0,210.29,18.19Z"/><path class="41a5c536-3cdd-4cae-9f81-0981242e11ea" d="M218.16,13.77a.24.24,0,0,1-.22.13.41.41,0,0,1-.2-.07l-.28-.15a2.71,2.71,0,0,0-.39-.15,1.88,1.88,0,0,0-.54-.07,1.59,1.59,0,0,0-.49.07,1.17,1.17,0,0,0-.37.19.85.85,0,0,0-.23.28.75.75,0,0,0-.08.34.57.57,0,0,0,.14.39,1.18,1.18,0,0,0,.36.27,3.14,3.14,0,0,0,.5.2l.58.19.58.22a2.09,2.09,0,0,1,.5.3,1.36,1.36,0,0,1,.36.44,1.35,1.35,0,0,1,.13.63,2,2,0,0,1-.15.78,1.7,1.7,0,0,1-.44.62,2.14,2.14,0,0,1-.72.41,3,3,0,0,1-1,.15,3.08,3.08,0,0,1-1.15-.21,2.92,2.92,0,0,1-.88-.53l.25-.41a.37.37,0,0,1,.11-.12.32.32,0,0,1,.17,0,.4.4,0,0,1,.23.08l.29.19a2.23,2.23,0,0,0,.41.19,1.87,1.87,0,0,0,.61.08,1.67,1.67,0,0,0,.55-.08,1.15,1.15,0,0,0,.39-.22.87.87,0,0,0,.23-.32,1,1,0,0,0,.08-.38.64.64,0,0,0-.13-.42,1.13,1.13,0,0,0-.36-.28,2.91,2.91,0,0,0-.51-.2l-.58-.18c-.2-.06-.39-.14-.58-.22a2,2,0,0,1-.51-.31,1.39,1.39,0,0,1-.36-.46,1.49,1.49,0,0,1-.13-.66,1.61,1.61,0,0,1,.14-.67,1.63,1.63,0,0,1,.42-.56,2,2,0,0,1,.68-.39,2.71,2.71,0,0,1,.92-.14,2.91,2.91,0,0,1,1.08.19,2.56,2.56,0,0,1,.83.52Z"/><path class="41a5c536-3cdd-4cae-9f81-0981242e11ea" d="M221.73,18.94a1.46,1.46,0,0,1-1.11-.4,1.6,1.6,0,0,1-.39-1.16V13.66h-.73a.24.24,0,0,1-.16-.06.22.22,0,0,1-.07-.18V13l1-.13.25-1.88a.23.23,0,0,1,.08-.15.25.25,0,0,1,.17-.06h.54v2.09H223v.77h-1.74v3.65a.78.78,0,0,0,.19.57.65.65,0,0,0,.48.19.84.84,0,0,0,.29,0l.21-.1.15-.1a.2.2,0,0,1,.11,0,.18.18,0,0,1,.15.1l.31.51a2,2,0,0,1-.67.41A2.27,2.27,0,0,1,221.73,18.94Z"/><path class="41a5c536-3cdd-4cae-9f81-0981242e11ea" d="M232.52,14.55a5.29,5.29,0,0,1-.12,1.15,4.48,4.48,0,0,1-.36,1,4,4,0,0,1-.57.85,3.84,3.84,0,0,1-.76.67l2.21,2.38h-1a1.13,1.13,0,0,1-.38-.06.76.76,0,0,1-.31-.21l-1.51-1.64a4.93,4.93,0,0,1-.71.17,4.79,4.79,0,0,1-.77.06,4.5,4.5,0,0,1-1.73-.32,3.87,3.87,0,0,1-1.34-.9,4.06,4.06,0,0,1-.86-1.39,5.29,5.29,0,0,1,0-3.55,4.09,4.09,0,0,1,.86-1.39,3.89,3.89,0,0,1,1.34-.91,4.78,4.78,0,0,1,3.46,0,3.87,3.87,0,0,1,1.34.91,4.09,4.09,0,0,1,.86,1.39A5,5,0,0,1,232.52,14.55Zm-1.19,0a4.38,4.38,0,0,0-.22-1.42,3,3,0,0,0-.61-1.07,2.66,2.66,0,0,0-1-.67,3.49,3.49,0,0,0-2.51,0,2.7,2.7,0,0,0-1,.67,3,3,0,0,0-.61,1.07,4.78,4.78,0,0,0,0,2.84,3,3,0,0,0,.61,1.06,2.66,2.66,0,0,0,1,.67,3.54,3.54,0,0,0,2.51,0,2.62,2.62,0,0,0,1-.67,3,3,0,0,0,.61-1.06A4.35,4.35,0,0,0,231.33,14.55Z"/><path class="41a5c536-3cdd-4cae-9f81-0981242e11ea" d="M207,56.84h-1.17V52.93H201.2v3.91H200v-8.6h1.17v3.83h4.63V48.25H207Z"/><path class="41a5c536-3cdd-4cae-9f81-0981242e11ea" d="M210.36,48.86a.68.68,0,0,1-.06.29.83.83,0,0,1-.17.24.78.78,0,0,1-.24.17.73.73,0,0,1-.29.06.71.71,0,0,1-.29-.06.79.79,0,0,1-.24-.17.8.8,0,0,1-.17-.24.71.71,0,0,1-.06-.29.75.75,0,0,1,.06-.3.78.78,0,0,1,.17-.25.79.79,0,0,1,.24-.17.71.71,0,0,1,.29-.06.73.73,0,0,1,.29.06.78.78,0,0,1,.24.17.81.81,0,0,1,.17.25A.72.72,0,0,1,210.36,48.86Zm-.24,1.91v6.08h-1.07V50.77Z"/><path class="41a5c536-3cdd-4cae-9f81-0981242e11ea" d="M216.58,49.59a.46.46,0,0,1-.11.13.25.25,0,0,1-.16,0,.41.41,0,0,1-.24-.1l-.34-.23a2.74,2.74,0,0,0-.5-.23,2.15,2.15,0,0,0-.71-.1,2.08,2.08,0,0,0-.69.1,1.47,1.47,0,0,0-.5.29,1.17,1.17,0,0,0-.3.42,1.35,1.35,0,0,0-.1.52,1,1,0,0,0,.18.6,1.53,1.53,0,0,0,.47.4,3.54,3.54,0,0,0,.66.29L215,52q.39.13.76.3a2.66,2.66,0,0,1,.66.42,1.9,1.9,0,0,1,.47.62,2.07,2.07,0,0,1,.18.9,2.91,2.91,0,0,1-.19,1.06,2.44,2.44,0,0,1-.56.86,2.62,2.62,0,0,1-.91.58,3.34,3.34,0,0,1-1.22.21,3.73,3.73,0,0,1-1.52-.3,3.57,3.57,0,0,1-1.17-.82l.34-.55a.44.44,0,0,1,.12-.11.27.27,0,0,1,.15,0,.48.48,0,0,1,.29.13,4.68,4.68,0,0,0,.4.3,3.14,3.14,0,0,0,.59.3,2.33,2.33,0,0,0,.84.13,2.22,2.22,0,0,0,.74-.11,1.57,1.57,0,0,0,.55-.32,1.4,1.4,0,0,0,.34-.49,1.66,1.66,0,0,0,.12-.64,1.08,1.08,0,0,0-.18-.64,1.46,1.46,0,0,0-.46-.42,3.25,3.25,0,0,0-.66-.29l-.76-.24a7.68,7.68,0,0,1-.76-.29,2.46,2.46,0,0,1-.66-.42,1.94,1.94,0,0,1-.46-.65,2.48,2.48,0,0,1,0-1.84,2.26,2.26,0,0,1,.51-.76,2.48,2.48,0,0,1,.83-.53,3,3,0,0,1,1.14-.2,3.63,3.63,0,0,1,1.31.23,3,3,0,0,1,1,.66Z"/><path class="41a5c536-3cdd-4cae-9f81-0981242e11ea" d="M222.83,56.84h-.47a.57.57,0,0,1-.25,0,.26.26,0,0,1-.13-.2l-.12-.56q-.24.22-.47.39a2.69,2.69,0,0,1-.48.29,2.48,2.48,0,0,1-.54.18,3.07,3.07,0,0,1-.63.06,2.15,2.15,0,0,1-.66-.1,1.51,1.51,0,0,1-.54-.3,1.42,1.42,0,0,1-.36-.5,1.76,1.76,0,0,1-.14-.72,1.35,1.35,0,0,1,.2-.7,1.75,1.75,0,0,1,.64-.59,4.16,4.16,0,0,1,1.15-.42,7.87,7.87,0,0,1,1.75-.17V53a1.65,1.65,0,0,0-.3-1.08,1.1,1.1,0,0,0-.9-.37,1.9,1.9,0,0,0-.66.1,2.45,2.45,0,0,0-.46.22l-.34.22a.48.48,0,0,1-.28.1.32.32,0,0,1-.19-.06.44.44,0,0,1-.13-.14l-.19-.34a3.46,3.46,0,0,1,1.09-.73,3.35,3.35,0,0,1,1.29-.24,2.3,2.3,0,0,1,.91.17,1.85,1.85,0,0,1,.67.47,2,2,0,0,1,.41.73,3,3,0,0,1,.14.94Zm-2.77-.65a2.17,2.17,0,0,0,.52-.06A2,2,0,0,0,221,56a2.33,2.33,0,0,0,.4-.25,3.42,3.42,0,0,0,.37-.34V54.12a7.14,7.14,0,0,0-1.25.09,3.53,3.53,0,0,0-.84.24,1.17,1.17,0,0,0-.47.36.76.76,0,0,0-.15.46,1,1,0,0,0,.08.42.79.79,0,0,0,.21.29.83.83,0,0,0,.31.16A1.41,1.41,0,0,0,220.06,56.19Z"/><path class="41a5c536-3cdd-4cae-9f81-0981242e11ea" d="M226.29,56.94a1.46,1.46,0,0,1-1.11-.4,1.6,1.6,0,0,1-.39-1.16V51.66h-.73a.24.24,0,0,1-.16-.06.22.22,0,0,1-.07-.18V51l1-.13.25-1.88a.23.23,0,0,1,.08-.15.25.25,0,0,1,.17-.06h.54v2.09h1.74v.77h-1.74v3.65a.78.78,0,0,0,.19.57.65.65,0,0,0,.48.19.84.84,0,0,0,.29,0l.21-.1.15-.1a.2.2,0,0,1,.11,0,.18.18,0,0,1,.15.1l.31.51a2,2,0,0,1-.67.41A2.27,2.27,0,0,1,226.29,56.94Z"/><path class="41a5c536-3cdd-4cae-9f81-0981242e11ea" d="M231.66,48.15a3.14,3.14,0,0,1,1,.16,2.35,2.35,0,0,1,.82.47,2.19,2.19,0,0,1,.54.75,2.44,2.44,0,0,1,.2,1,2.66,2.66,0,0,1-.14.89,3.65,3.65,0,0,1-.39.78,5.79,5.79,0,0,1-.57.73l-.68.72L230.19,56l.49-.1a3,3,0,0,1,.47,0H234a.37.37,0,0,1,.28.1.36.36,0,0,1,.1.26v.65h-5.74v-.37a.66.66,0,0,1,0-.23.63.63,0,0,1,.15-.22l2.75-2.77q.34-.35.62-.67a4.82,4.82,0,0,0,.48-.65,3,3,0,0,0,.31-.66,2.28,2.28,0,0,0,.11-.71,1.7,1.7,0,0,0-.12-.66,1.28,1.28,0,0,0-.33-.47,1.38,1.38,0,0,0-.49-.28,1.92,1.92,0,0,0-.61-.09,1.82,1.82,0,0,0-.6.1,1.63,1.63,0,0,0-.49.27,1.61,1.61,0,0,0-.36.41,1.58,1.58,0,0,0-.21.52.48.48,0,0,1-.14.25.39.39,0,0,1-.25.08h-.14l-.56-.1a3.15,3.15,0,0,1,.32-1,2.46,2.46,0,0,1,.61-.76,2.6,2.6,0,0,1,.85-.47A3.23,3.23,0,0,1,231.66,48.15Z"/><path class="41a5c536-3cdd-4cae-9f81-0981242e11ea" d="M198.45,92.09a.46.46,0,0,1-.11.13.25.25,0,0,1-.16,0,.41.41,0,0,1-.24-.1l-.34-.23a2.81,2.81,0,0,0-.5-.23,2.15,2.15,0,0,0-.71-.1,2.09,2.09,0,0,0-.69.1,1.47,1.47,0,0,0-.5.29,1.16,1.16,0,0,0-.3.42,1.34,1.34,0,0,0-.1.52,1,1,0,0,0,.18.6,1.51,1.51,0,0,0,.47.4,3.54,3.54,0,0,0,.66.29l.76.26q.39.13.76.3a2.66,2.66,0,0,1,.66.42,1.9,1.9,0,0,1,.47.62,2.05,2.05,0,0,1,.18.9,2.91,2.91,0,0,1-.19,1.06,2.45,2.45,0,0,1-.56.86,2.62,2.62,0,0,1-.91.58,3.34,3.34,0,0,1-1.22.21,3.72,3.72,0,0,1-1.52-.3,3.57,3.57,0,0,1-1.17-.82l.34-.55a.44.44,0,0,1,.12-.11.28.28,0,0,1,.15,0,.48.48,0,0,1,.29.13,4.75,4.75,0,0,0,.41.3,3.17,3.17,0,0,0,.59.3,2.32,2.32,0,0,0,.84.13,2.21,2.21,0,0,0,.74-.11,1.56,1.56,0,0,0,.55-.32,1.39,1.39,0,0,0,.34-.49,1.66,1.66,0,0,0,.12-.64,1.08,1.08,0,0,0-.18-.64,1.48,1.48,0,0,0-.46-.42,3.28,3.28,0,0,0-.66-.29l-.76-.24A7.68,7.68,0,0,1,195,95a2.46,2.46,0,0,1-.66-.42,1.93,1.93,0,0,1-.46-.65,2.36,2.36,0,0,1,.51-2.59,2.48,2.48,0,0,1,.83-.53,3,3,0,0,1,1.14-.2,3.63,3.63,0,0,1,1.31.23,3,3,0,0,1,1,.66Z"/><path class="41a5c536-3cdd-4cae-9f81-0981242e11ea" d="M202.08,99.44A1.46,1.46,0,0,1,201,99a1.6,1.6,0,0,1-.39-1.16V94.16h-.73a.24.24,0,0,1-.16-.06.22.22,0,0,1-.07-.18V93.5l1-.13.25-1.88a.23.23,0,0,1,.08-.15.25.25,0,0,1,.17-.06h.54v2.09h1.74v.77h-1.74v3.65a.78.78,0,0,0,.19.57.65.65,0,0,0,.48.19.84.84,0,0,0,.29,0l.21-.1.15-.1a.2.2,0,0,1,.11,0,.18.18,0,0,1,.15.1l.31.51a2,2,0,0,1-.67.41A2.26,2.26,0,0,1,202.08,99.44Z"/><path class="41a5c536-3cdd-4cae-9f81-0981242e11ea" d="M204.72,99.34V93.27h.61a.34.34,0,0,1,.24.07.4.4,0,0,1,.09.23l.07.95a2.78,2.78,0,0,1,.77-1,1.81,1.81,0,0,1,1.53-.3,1.57,1.57,0,0,1,.38.16l-.14.8a.18.18,0,0,1-.19.15.92.92,0,0,1-.26-.06,1.63,1.63,0,0,0-.49-.06,1.38,1.38,0,0,0-.93.32,2.43,2.43,0,0,0-.63.94v3.87Z"/><path class="41a5c536-3cdd-4cae-9f81-0981242e11ea" d="M211,91.36a.68.68,0,0,1-.06.29.85.85,0,0,1-.17.24.78.78,0,0,1-.24.17.73.73,0,0,1-.29.06.71.71,0,0,1-.29-.06.77.77,0,0,1-.24-.17.78.78,0,0,1-.17-.24.71.71,0,0,1-.06-.29.75.75,0,0,1,.06-.3.78.78,0,0,1,.41-.41.71.71,0,0,1,.29-.06.73.73,0,0,1,.29.06.78.78,0,0,1,.24.17.82.82,0,0,1,.17.25A.72.72,0,0,1,211,91.36Zm-.24,1.91v6.08h-1.07V93.27Z"/><path class="41a5c536-3cdd-4cae-9f81-0981242e11ea" d="M212.63,99.34V93.27h.64a.27.27,0,0,1,.29.22l.08.66a3.42,3.42,0,0,1,.89-.71,2.3,2.3,0,0,1,1.13-.27,2.19,2.19,0,0,1,.88.17,1.7,1.7,0,0,1,.64.47,2.07,2.07,0,0,1,.39.73,3.15,3.15,0,0,1,.13.94v3.87h-1.07V95.47a1.63,1.63,0,0,0-.32-1.07,1.18,1.18,0,0,0-1-.38,1.8,1.8,0,0,0-.88.23,2.93,2.93,0,0,0-.76.62v4.48Z"/><path class="41a5c536-3cdd-4cae-9f81-0981242e11ea" d="M221.34,93.16a3,3,0,0,1,.74.09,2.31,2.31,0,0,1,.63.25h1.65v.4q0,.2-.25.25l-.69.1a1.88,1.88,0,0,1-.44,2.3,2.13,2.13,0,0,1-.72.4,2.9,2.9,0,0,1-.92.14,3.06,3.06,0,0,1-.8-.1,1,1,0,0,0-.29.27.5.5,0,0,0-.1.28.38.38,0,0,0,.17.34,1.2,1.2,0,0,0,.46.17,4,4,0,0,0,.65,0h.75a4.12,4.12,0,0,1,.75.07,2.24,2.24,0,0,1,.65.22,1.22,1.22,0,0,1,.46.42,1.25,1.25,0,0,1,.17.69,1.63,1.63,0,0,1-.19.77,2.07,2.07,0,0,1-.56.66,2.88,2.88,0,0,1-.89.46,3.83,3.83,0,0,1-1.19.17,4.62,4.62,0,0,1-1.17-.13,2.72,2.72,0,0,1-.83-.35,1.55,1.55,0,0,1-.5-.51,1.23,1.23,0,0,1-.17-.61,1.1,1.1,0,0,1,.29-.77,2,2,0,0,1,.78-.5,1.08,1.08,0,0,1-.41-.32.86.86,0,0,1-.15-.54.84.84,0,0,1,0-.27,1.06,1.06,0,0,1,.15-.28,1.6,1.6,0,0,1,.24-.26,1.55,1.55,0,0,1,.34-.22,1.89,1.89,0,0,1-.71-.67,1.83,1.83,0,0,1-.25-1,1.86,1.86,0,0,1,.17-.81,1.79,1.79,0,0,1,.48-.62,2.18,2.18,0,0,1,.73-.39A3,3,0,0,1,221.34,93.16Zm1.9,6.49a.54.54,0,0,0-.13-.37.81.81,0,0,0-.34-.22,2.47,2.47,0,0,0-.5-.11,4.63,4.63,0,0,0-.59,0H221a2.29,2.29,0,0,1-.62-.08,1.76,1.76,0,0,0-.55.4.8.8,0,0,0-.21.56.74.74,0,0,0,.1.38.9.9,0,0,0,.32.31,1.88,1.88,0,0,0,.54.21,3.5,3.5,0,0,0,.77.08,3.44,3.44,0,0,0,.77-.08,1.92,1.92,0,0,0,.58-.23,1.09,1.09,0,0,0,.36-.35A.83.83,0,0,0,223.24,99.65Zm-1.9-3.28a1.68,1.68,0,0,0,.57-.09,1.16,1.16,0,0,0,.42-.25,1,1,0,0,0,.25-.39,1.41,1.41,0,0,0,.08-.49,1.18,1.18,0,0,0-.34-.89,1.63,1.63,0,0,0-2,0,1.18,1.18,0,0,0-.34.89,1.35,1.35,0,0,0,.09.49,1.05,1.05,0,0,0,.25.39,1.17,1.17,0,0,0,.41.25A1.63,1.63,0,0,0,221.34,96.37Z"/><path class="41a5c536-3cdd-4cae-9f81-0981242e11ea" d="M231.45,90.75v1h-2.78v7.62h-1.16V91.72h-2.79v-1Z"/><path class="41a5c536-3cdd-4cae-9f81-0981242e11ea" d="M233.94,91.36a.68.68,0,0,1-.06.29.83.83,0,0,1-.17.24.78.78,0,0,1-.24.17.73.73,0,0,1-.29.06.71.71,0,0,1-.29-.06.79.79,0,0,1-.24-.17.8.8,0,0,1-.17-.24.71.71,0,0,1-.06-.29.75.75,0,0,1,.06-.3.78.78,0,0,1,.17-.25.79.79,0,0,1,.24-.17.71.71,0,0,1,.29-.06.73.73,0,0,1,.29.06.78.78,0,0,1,.24.17.81.81,0,0,1,.17.25A.72.72,0,0,1,233.94,91.36Zm-.24,1.91v6.08h-1.07V93.27Z"/><path class="41a5c536-3cdd-4cae-9f81-0981242e11ea" d="M238,93.17a2.73,2.73,0,0,1,1,.18,2.27,2.27,0,0,1,.8.53,2.41,2.41,0,0,1,.52.85,3.29,3.29,0,0,1,.19,1.15.69.69,0,0,1-.05.34.22.22,0,0,1-.2.08h-4a3.36,3.36,0,0,0,.16,1,2.05,2.05,0,0,0,.4.71,1.58,1.58,0,0,0,.6.43,2,2,0,0,0,.78.14,2.28,2.28,0,0,0,.69-.09,3.38,3.38,0,0,0,.5-.2l.35-.2a.46.46,0,0,1,.24-.09.23.23,0,0,1,.2.1l.3.39a2,2,0,0,1-.47.42,2.91,2.91,0,0,1-.59.29,3.67,3.67,0,0,1-.65.17,4,4,0,0,1-.67.06,3.1,3.1,0,0,1-1.16-.21,2.57,2.57,0,0,1-.92-.62,2.86,2.86,0,0,1-.6-1,4.12,4.12,0,0,1-.22-1.39,3.55,3.55,0,0,1,.2-1.19,2.8,2.8,0,0,1,.56-1,2.57,2.57,0,0,1,.89-.64A2.93,2.93,0,0,1,238,93.17Zm0,.79a1.64,1.64,0,0,0-1.22.45,2.1,2.1,0,0,0-.55,1.24h3.31a2.18,2.18,0,0,0-.1-.68,1.53,1.53,0,0,0-.3-.53,1.35,1.35,0,0,0-.48-.35A1.63,1.63,0,0,0,238,94Z"/><path class="41a5c536-3cdd-4cae-9f81-0981242e11ea" d="M193.38,136.34v-8.6h2.74a5.26,5.26,0,0,1,1.37.16,2.64,2.64,0,0,1,.94.44,1.75,1.75,0,0,1,.55.71,2.39,2.39,0,0,1,.18.94,1.9,1.9,0,0,1-.1.61,1.77,1.77,0,0,1-.3.55,2.11,2.11,0,0,1-.5.45,2.81,2.81,0,0,1-.71.32,2.65,2.65,0,0,1,1.42.68,1.78,1.78,0,0,1,.48,1.3,2.42,2.42,0,0,1-.2,1,2.13,2.13,0,0,1-.59.77,2.73,2.73,0,0,1-.95.5,4.28,4.28,0,0,1-1.28.18Zm1.16-4.75h1.54a3,3,0,0,0,.85-.11,1.72,1.72,0,0,0,.6-.3,1.17,1.17,0,0,0,.35-.46,1.53,1.53,0,0,0,.11-.6,1.32,1.32,0,0,0-.46-1.11,2.3,2.3,0,0,0-1.42-.35h-1.58Zm0,.83v3h1.86a2.82,2.82,0,0,0,.85-.11,1.61,1.61,0,0,0,.59-.32,1.25,1.25,0,0,0,.34-.49,1.77,1.77,0,0,0,.11-.63,1.29,1.29,0,0,0-.47-1.05,2.21,2.21,0,0,0-1.42-.39Z"/><path class="41a5c536-3cdd-4cae-9f81-0981242e11ea" d="M205.44,136.34H205a.57.57,0,0,1-.25,0,.26.26,0,0,1-.13-.2l-.12-.56q-.24.22-.47.39a2.69,2.69,0,0,1-.48.29,2.48,2.48,0,0,1-.54.18,3.07,3.07,0,0,1-.63.06,2.15,2.15,0,0,1-.66-.1,1.5,1.5,0,0,1-.54-.3,1.41,1.41,0,0,1-.36-.5,1.76,1.76,0,0,1-.14-.72,1.35,1.35,0,0,1,.2-.7,1.75,1.75,0,0,1,.64-.59,4.18,4.18,0,0,1,1.15-.42,7.87,7.87,0,0,1,1.75-.17v-.48a1.65,1.65,0,0,0-.3-1.08,1.1,1.1,0,0,0-.9-.37,1.91,1.91,0,0,0-.66.1,2.48,2.48,0,0,0-.46.22l-.34.22a.48.48,0,0,1-.28.1.32.32,0,0,1-.19-.06.44.44,0,0,1-.13-.14l-.19-.34a3.48,3.48,0,0,1,1.09-.73,3.35,3.35,0,0,1,1.29-.24,2.31,2.31,0,0,1,.91.17,1.85,1.85,0,0,1,.67.47,2,2,0,0,1,.41.73,3,3,0,0,1,.14.94Zm-2.77-.65a2.17,2.17,0,0,0,.52-.06,2,2,0,0,0,.44-.16,2.39,2.39,0,0,0,.4-.25,3.42,3.42,0,0,0,.37-.34v-1.25a7.14,7.14,0,0,0-1.25.09,3.55,3.55,0,0,0-.84.24,1.17,1.17,0,0,0-.47.36.77.77,0,0,0-.15.46,1,1,0,0,0,.08.42.79.79,0,0,0,.21.29.83.83,0,0,0,.31.16A1.41,1.41,0,0,0,202.67,135.69Z"/><path class="41a5c536-3cdd-4cae-9f81-0981242e11ea" d="M208.25,127.51v8.84h-1.07v-8.84Z"/><path class="41a5c536-3cdd-4cae-9f81-0981242e11ea" d="M211.32,127.51v8.84h-1.07v-8.84Z"/><path class="41a5c536-3cdd-4cae-9f81-0981242e11ea" d="M215.25,130.16a3,3,0,0,1,.74.09,2.3,2.3,0,0,1,.63.25h1.65v.4q0,.2-.25.25l-.69.1a1.88,1.88,0,0,1-.44,2.3,2.13,2.13,0,0,1-.72.4,2.9,2.9,0,0,1-.92.14,3.06,3.06,0,0,1-.8-.1,1,1,0,0,0-.29.27.5.5,0,0,0-.1.28.38.38,0,0,0,.17.34,1.2,1.2,0,0,0,.46.17,4,4,0,0,0,.65,0h.75a4.12,4.12,0,0,1,.75.07,2.24,2.24,0,0,1,.65.22,1.22,1.22,0,0,1,.46.42,1.25,1.25,0,0,1,.17.69,1.63,1.63,0,0,1-.19.77,2.07,2.07,0,0,1-.56.66,2.88,2.88,0,0,1-.89.46,3.83,3.83,0,0,1-1.19.17,4.62,4.62,0,0,1-1.17-.13,2.72,2.72,0,0,1-.83-.35,1.55,1.55,0,0,1-.5-.51,1.23,1.23,0,0,1-.17-.61,1.1,1.1,0,0,1,.29-.77,2,2,0,0,1,.78-.5,1.08,1.08,0,0,1-.41-.32.86.86,0,0,1-.15-.54.84.84,0,0,1,0-.27,1.06,1.06,0,0,1,.15-.28,1.6,1.6,0,0,1,.24-.26,1.55,1.55,0,0,1,.34-.22,1.89,1.89,0,0,1-.71-.67,1.83,1.83,0,0,1-.25-1,1.87,1.87,0,0,1,.17-.81,1.79,1.79,0,0,1,.48-.62,2.18,2.18,0,0,1,.73-.39A3,3,0,0,1,215.25,130.16Zm1.9,6.49a.54.54,0,0,0-.13-.37.81.81,0,0,0-.34-.22,2.47,2.47,0,0,0-.5-.11,4.63,4.63,0,0,0-.59,0H215a2.29,2.29,0,0,1-.62-.08,1.76,1.76,0,0,0-.55.4.8.8,0,0,0-.21.56.74.74,0,0,0,.1.38.9.9,0,0,0,.32.31,1.88,1.88,0,0,0,.54.21,3.5,3.5,0,0,0,.77.08,3.44,3.44,0,0,0,.77-.08,1.92,1.92,0,0,0,.58-.23,1.09,1.09,0,0,0,.36-.35A.83.83,0,0,0,217.15,136.65Zm-1.9-3.28a1.67,1.67,0,0,0,.57-.09,1.15,1.15,0,0,0,.42-.25,1,1,0,0,0,.25-.39,1.42,1.42,0,0,0,.08-.5,1.18,1.18,0,0,0-.34-.89,1.63,1.63,0,0,0-2,0,1.18,1.18,0,0,0-.34.89,1.35,1.35,0,0,0,.09.5,1,1,0,0,0,.25.39,1.15,1.15,0,0,0,.41.25A1.62,1.62,0,0,0,215.25,133.37Z"/><path class="41a5c536-3cdd-4cae-9f81-0981242e11ea" d="M221.8,130.17a3.11,3.11,0,0,1,1.2.22,2.53,2.53,0,0,1,.91.63,2.79,2.79,0,0,1,.58,1,4.27,4.27,0,0,1,0,2.59,2.79,2.79,0,0,1-.58,1,2.5,2.5,0,0,1-.91.63,3.42,3.42,0,0,1-2.41,0,2.55,2.55,0,0,1-.92-.63,2.79,2.79,0,0,1-.58-1,4.21,4.21,0,0,1,0-2.59,2.79,2.79,0,0,1,.58-1,2.58,2.58,0,0,1,.92-.63A3.12,3.12,0,0,1,221.8,130.17Zm0,5.42a1.56,1.56,0,0,0,1.34-.6,2.79,2.79,0,0,0,.44-1.68,2.82,2.82,0,0,0-.44-1.69,1.56,1.56,0,0,0-1.34-.61,1.88,1.88,0,0,0-.79.16,1.49,1.49,0,0,0-.56.45,2,2,0,0,0-.34.72,4.26,4.26,0,0,0,0,1.93,2,2,0,0,0,.34.72,1.48,1.48,0,0,0,.56.45A1.86,1.86,0,0,0,221.8,135.59Z"/><path class="41a5c536-3cdd-4cae-9f81-0981242e11ea" d="M225.22,130.27h.84a.34.34,0,0,1,.22.07.33.33,0,0,1,.11.16l1.16,3.91.09.42c0,.13.05.27.07.41,0-.14.07-.27.11-.41l.13-.42,1.28-3.94a.31.31,0,0,1,.1-.15.29.29,0,0,1,.19-.06H230a.31.31,0,0,1,.2.06.3.3,0,0,1,.11.15l1.25,3.94c0,.14.08.28.12.41l.1.4c0-.13,0-.27.08-.41s.07-.28.1-.4l1.19-3.91a.32.32,0,0,1,.31-.22h.8l-2,6.08h-.85c-.1,0-.18-.07-.22-.2L229.87,132a2.32,2.32,0,0,1-.08-.28l-.06-.28-.06.28a2.11,2.11,0,0,1-.08.28l-1.36,4.12a.25.25,0,0,1-.25.2h-.8Z"/><path class="41a5c536-3cdd-4cae-9f81-0981242e11ea" d="M235.2,136.34v-6.08h.64a.27.27,0,0,1,.29.22l.08.66a3.4,3.4,0,0,1,.88-.71,2.31,2.31,0,0,1,1.13-.27,2.19,2.19,0,0,1,.88.17,1.69,1.69,0,0,1,.64.47,2.06,2.06,0,0,1,.39.73,3.18,3.18,0,0,1,.13.94v3.87h-1.07v-3.87a1.64,1.64,0,0,0-.32-1.07,1.18,1.18,0,0,0-1-.38,1.8,1.8,0,0,0-.88.23,2.93,2.93,0,0,0-.76.62v4.48Z"/><path class="41a5c536-3cdd-4cae-9f81-0981242e11ea" d="M265.27,10.25v.95h-4.13v3h3.53v.95h-3.53v3.7H260v-8.6Z"/><path class="41a5c536-3cdd-4cae-9f81-0981242e11ea" d="M271.06,18.84h-.47a.57.57,0,0,1-.25,0,.27.27,0,0,1-.13-.2l-.12-.56q-.24.22-.47.39a2.65,2.65,0,0,1-.48.29,2.49,2.49,0,0,1-.54.18,3.08,3.08,0,0,1-.63.06,2.15,2.15,0,0,1-.66-.1,1.51,1.51,0,0,1-.54-.3,1.41,1.41,0,0,1-.36-.5,1.76,1.76,0,0,1-.13-.72,1.35,1.35,0,0,1,.2-.7,1.74,1.74,0,0,1,.64-.59,4.16,4.16,0,0,1,1.16-.42,7.86,7.86,0,0,1,1.75-.17V15a1.65,1.65,0,0,0-.3-1.08,1.1,1.1,0,0,0-.9-.37,1.91,1.91,0,0,0-.66.1,2.48,2.48,0,0,0-.46.22l-.34.22a.49.49,0,0,1-.28.1.32.32,0,0,1-.19-.06.42.42,0,0,1-.13-.14l-.19-.34a3.47,3.47,0,0,1,1.09-.73,3.35,3.35,0,0,1,1.29-.24,2.31,2.31,0,0,1,.91.17,1.87,1.87,0,0,1,.67.47,2,2,0,0,1,.41.73,3,3,0,0,1,.14.94Zm-2.77-.65a2.18,2.18,0,0,0,.52-.06,2,2,0,0,0,.44-.16,2.3,2.3,0,0,0,.4-.25,3.42,3.42,0,0,0,.37-.34V16.12a7.14,7.14,0,0,0-1.25.09,3.54,3.54,0,0,0-.84.24,1.17,1.17,0,0,0-.47.36.77.77,0,0,0-.15.46,1,1,0,0,0,.08.42.79.79,0,0,0,.21.29.83.83,0,0,0,.31.16A1.42,1.42,0,0,0,268.29,18.19Z"/><path class="41a5c536-3cdd-4cae-9f81-0981242e11ea" d="M276.16,13.77a.24.24,0,0,1-.22.13.42.42,0,0,1-.2-.07l-.28-.15a2.65,2.65,0,0,0-.39-.15,1.88,1.88,0,0,0-.54-.07,1.6,1.6,0,0,0-.49.07,1.2,1.2,0,0,0-.37.19.84.84,0,0,0-.23.28.75.75,0,0,0-.08.34.58.58,0,0,0,.13.39,1.17,1.17,0,0,0,.36.27,3.07,3.07,0,0,0,.5.2l.58.19.58.22a2.13,2.13,0,0,1,.5.3,1.38,1.38,0,0,1,.36.44,1.35,1.35,0,0,1,.14.63,2,2,0,0,1-.15.78,1.7,1.7,0,0,1-.44.62,2.13,2.13,0,0,1-.72.41,3,3,0,0,1-1,.15,3.07,3.07,0,0,1-1.15-.21,2.9,2.9,0,0,1-.88-.53l.25-.41a.35.35,0,0,1,.11-.12.32.32,0,0,1,.17,0,.4.4,0,0,1,.23.08l.29.19a2.26,2.26,0,0,0,.41.19,1.88,1.88,0,0,0,.61.08,1.68,1.68,0,0,0,.55-.08,1.15,1.15,0,0,0,.39-.22.87.87,0,0,0,.23-.32,1,1,0,0,0,.07-.38.64.64,0,0,0-.13-.42,1.14,1.14,0,0,0-.36-.28,2.92,2.92,0,0,0-.51-.2l-.58-.18q-.3-.1-.58-.22a2.05,2.05,0,0,1-.51-.31,1.4,1.4,0,0,1-.36-.46,1.49,1.49,0,0,1-.13-.66,1.62,1.62,0,0,1,.14-.67,1.64,1.64,0,0,1,.42-.56,2.06,2.06,0,0,1,.68-.39,2.71,2.71,0,0,1,.92-.14,2.9,2.9,0,0,1,1.08.19,2.55,2.55,0,0,1,.83.52Z"/><path class="41a5c536-3cdd-4cae-9f81-0981242e11ea" d="M279.73,18.94a1.47,1.47,0,0,1-1.11-.4,1.6,1.6,0,0,1-.39-1.16V13.66h-.73a.24.24,0,0,1-.16-.06.22.22,0,0,1-.07-.18V13l1-.13.25-1.88a.23.23,0,0,1,.08-.15.25.25,0,0,1,.17-.06h.54v2.09H281v.77h-1.74v3.65a.78.78,0,0,0,.19.57.65.65,0,0,0,.48.19.84.84,0,0,0,.29,0l.21-.1.15-.1a.2.2,0,0,1,.11,0,.18.18,0,0,1,.15.1l.31.51a2,2,0,0,1-.67.41A2.27,2.27,0,0,1,279.73,18.94Z"/><path class="41a5c536-3cdd-4cae-9f81-0981242e11ea" d="M290.52,14.55a5.29,5.29,0,0,1-.12,1.15,4.48,4.48,0,0,1-.36,1,4,4,0,0,1-.57.85,3.84,3.84,0,0,1-.76.67l2.21,2.38h-1a1.13,1.13,0,0,1-.38-.06.76.76,0,0,1-.31-.21l-1.51-1.64a4.93,4.93,0,0,1-.71.17,4.79,4.79,0,0,1-.77.06,4.5,4.5,0,0,1-1.73-.32,3.87,3.87,0,0,1-1.34-.9,4.06,4.06,0,0,1-.86-1.39,5.29,5.29,0,0,1,0-3.55,4.09,4.09,0,0,1,.86-1.39,3.89,3.89,0,0,1,1.34-.91,4.78,4.78,0,0,1,3.46,0,3.87,3.87,0,0,1,1.34.91,4.09,4.09,0,0,1,.86,1.39A5,5,0,0,1,290.52,14.55Zm-1.19,0a4.38,4.38,0,0,0-.22-1.42,3,3,0,0,0-.61-1.07,2.66,2.66,0,0,0-1-.67,3.49,3.49,0,0,0-2.51,0,2.7,2.7,0,0,0-1,.67,3,3,0,0,0-.61,1.07,4.78,4.78,0,0,0,0,2.84,3,3,0,0,0,.61,1.06,2.66,2.66,0,0,0,1,.67,3.54,3.54,0,0,0,2.51,0,2.62,2.62,0,0,0,1-.67,3,3,0,0,0,.61-1.06A4.35,4.35,0,0,0,289.33,14.55Z"/><path class="41a5c536-3cdd-4cae-9f81-0981242e11ea" d="M252.9,70.58V59.65h2.21v.42a.27.27,0,0,1-.08.21.3.3,0,0,1-.21.07h-1v9.52h1a.3.3,0,0,1,.21.08.27.27,0,0,1,.08.21v.42Z"/><path class="41a5c536-3cdd-4cae-9f81-0981242e11ea" d="M258,64h.44a1,1,0,0,0,.36-.06.7.7,0,0,0,.25-.19l2.86-3.24a.9.9,0,0,1,.25-.21.69.69,0,0,1,.31-.06h1l-3.28,3.7-.24.23a1.07,1.07,0,0,1-.24.16.84.84,0,0,1,.29.16,2.45,2.45,0,0,1,.26.27l3.42,4.07h-1l-.19,0-.14,0-.1-.08-.1-.1-3-3.41-.12-.12-.13-.09-.17-.05-.24,0H258v3.94h-1.16v-8.6H258Z"/><path class="41a5c536-3cdd-4cae-9f81-0981242e11ea" d="M269.16,68.84h-.47a.57.57,0,0,1-.25,0,.27.27,0,0,1-.13-.2l-.12-.56q-.24.22-.47.39a2.65,2.65,0,0,1-.48.29,2.49,2.49,0,0,1-.54.18,3.08,3.08,0,0,1-.63.06,2.15,2.15,0,0,1-.66-.1,1.51,1.51,0,0,1-.54-.3,1.41,1.41,0,0,1-.36-.5,1.76,1.76,0,0,1-.13-.72,1.35,1.35,0,0,1,.2-.7,1.74,1.74,0,0,1,.64-.59,4.16,4.16,0,0,1,1.16-.42,7.86,7.86,0,0,1,1.75-.17V65a1.65,1.65,0,0,0-.3-1.08,1.1,1.1,0,0,0-.9-.37,1.91,1.91,0,0,0-.66.1,2.48,2.48,0,0,0-.46.22l-.34.22a.49.49,0,0,1-.28.1.32.32,0,0,1-.19-.06.42.42,0,0,1-.13-.14l-.19-.34a3.47,3.47,0,0,1,1.09-.73,3.35,3.35,0,0,1,1.29-.24,2.31,2.31,0,0,1,.91.17,1.87,1.87,0,0,1,.67.47A2,2,0,0,1,269,64a3,3,0,0,1,.14.94Zm-2.77-.65a2.18,2.18,0,0,0,.52-.06,2,2,0,0,0,.44-.16,2.3,2.3,0,0,0,.4-.25,3.42,3.42,0,0,0,.37-.34V66.12a7.14,7.14,0,0,0-1.25.09,3.54,3.54,0,0,0-.84.24,1.17,1.17,0,0,0-.47.36.77.77,0,0,0-.15.46,1,1,0,0,0,.08.42.79.79,0,0,0,.21.29.83.83,0,0,0,.31.16A1.42,1.42,0,0,0,266.39,68.19Z"/><path class="41a5c536-3cdd-4cae-9f81-0981242e11ea" d="M272,60v8.84H270.9V60Z"/><path class="41a5c536-3cdd-4cae-9f81-0981242e11ea" d="M275,60v8.84H274V60Z"/><path class="41a5c536-3cdd-4cae-9f81-0981242e11ea" d="M278.35,60.86a.68.68,0,0,1-.06.29.85.85,0,0,1-.17.24.78.78,0,0,1-.24.17.73.73,0,0,1-.29.06.71.71,0,0,1-.29-.06.77.77,0,0,1-.24-.17.78.78,0,0,1-.17-.24.71.71,0,0,1-.06-.29.75.75,0,0,1,.06-.3.78.78,0,0,1,.41-.41.71.71,0,0,1,.29-.06.73.73,0,0,1,.29.06.78.78,0,0,1,.24.17.82.82,0,0,1,.17.25A.72.72,0,0,1,278.35,60.86Zm-.24,1.91v6.08H277V62.77Z"/><path class="41a5c536-3cdd-4cae-9f81-0981242e11ea" d="M283.48,63.77a.24.24,0,0,1-.22.13.41.41,0,0,1-.2-.07l-.28-.15a2.71,2.71,0,0,0-.39-.15,1.88,1.88,0,0,0-.54-.07,1.59,1.59,0,0,0-.49.07,1.17,1.17,0,0,0-.37.19.85.85,0,0,0-.23.28.75.75,0,0,0-.08.34.57.57,0,0,0,.14.39,1.18,1.18,0,0,0,.36.27,3.14,3.14,0,0,0,.5.2l.58.19.58.22a2.09,2.09,0,0,1,.5.3,1.36,1.36,0,0,1,.36.44,1.35,1.35,0,0,1,.13.63,2,2,0,0,1-.15.78,1.7,1.7,0,0,1-.44.62,2.14,2.14,0,0,1-.72.41,3,3,0,0,1-1,.15,3.08,3.08,0,0,1-1.15-.21,2.92,2.92,0,0,1-.88-.53l.25-.41a.37.37,0,0,1,.11-.12.32.32,0,0,1,.17,0,.4.4,0,0,1,.23.08l.29.19a2.23,2.23,0,0,0,.41.19,1.87,1.87,0,0,0,.61.08,1.67,1.67,0,0,0,.55-.08,1.15,1.15,0,0,0,.39-.22.87.87,0,0,0,.23-.32,1,1,0,0,0,.08-.38.64.64,0,0,0-.13-.42,1.13,1.13,0,0,0-.36-.28,2.91,2.91,0,0,0-.51-.2l-.58-.18c-.2-.06-.39-.14-.58-.22a2,2,0,0,1-.51-.31,1.39,1.39,0,0,1-.36-.46,1.49,1.49,0,0,1-.13-.66,1.61,1.61,0,0,1,.14-.67,1.63,1.63,0,0,1,.42-.56,2,2,0,0,1,.68-.39,2.71,2.71,0,0,1,.92-.14,2.91,2.91,0,0,1,1.08.19,2.56,2.56,0,0,1,.83.52Z"/><path class="41a5c536-3cdd-4cae-9f81-0981242e11ea" d="M287,68.94a1.46,1.46,0,0,1-1.11-.4,1.6,1.6,0,0,1-.39-1.16V63.66h-.73a.24.24,0,0,1-.16-.06.22.22,0,0,1-.07-.18V63l1-.13.25-1.88a.23.23,0,0,1,.08-.15.25.25,0,0,1,.17-.06h.54v2.09h1.74v.77h-1.74v3.65a.78.78,0,0,0,.19.57.65.65,0,0,0,.48.19.84.84,0,0,0,.29,0l.21-.1.15-.1a.2.2,0,0,1,.11,0,.18.18,0,0,1,.15.1l.31.51a2,2,0,0,1-.67.41A2.27,2.27,0,0,1,287,68.94Z"/><path class="41a5c536-3cdd-4cae-9f81-0981242e11ea" d="M292.14,62.67a3.13,3.13,0,0,1,1.2.22,2.54,2.54,0,0,1,.91.63,2.78,2.78,0,0,1,.58,1,4.27,4.27,0,0,1,0,2.59,2.79,2.79,0,0,1-.58,1,2.51,2.51,0,0,1-.91.63,3.42,3.42,0,0,1-2.41,0,2.52,2.52,0,0,1-.92-.63,2.8,2.8,0,0,1-.58-1,4.21,4.21,0,0,1,0-2.59,2.79,2.79,0,0,1,.58-1,2.56,2.56,0,0,1,.92-.63A3.12,3.12,0,0,1,292.14,62.67Zm0,5.42a1.56,1.56,0,0,0,1.34-.6,3.43,3.43,0,0,0,0-3.37,1.56,1.56,0,0,0-1.34-.61,1.87,1.87,0,0,0-.79.16,1.49,1.49,0,0,0-.56.45,2,2,0,0,0-.34.72,4.3,4.3,0,0,0,0,1.94,2,2,0,0,0,.34.72,1.5,1.5,0,0,0,.56.45A1.86,1.86,0,0,0,292.14,68.09Z"/><path class="41a5c536-3cdd-4cae-9f81-0981242e11ea" d="M296.44,69a.62.62,0,0,1-.25.31.64.64,0,0,1-.34.1h-.45l3.61-9a.65.65,0,0,1,.22-.29.57.57,0,0,1,.34-.1H300Z"/><path class="41a5c536-3cdd-4cae-9f81-0981242e11ea" d="M260.29,76a.46.46,0,0,1-.11.13.25.25,0,0,1-.16,0,.41.41,0,0,1-.24-.1l-.34-.23a2.74,2.74,0,0,0-.5-.23,2.15,2.15,0,0,0-.71-.1,2.08,2.08,0,0,0-.69.1,1.47,1.47,0,0,0-.5.29,1.17,1.17,0,0,0-.3.42,1.35,1.35,0,0,0-.1.52,1,1,0,0,0,.18.6,1.53,1.53,0,0,0,.47.4,3.54,3.54,0,0,0,.66.29l.76.26q.39.13.76.3a2.66,2.66,0,0,1,.66.42,1.9,1.9,0,0,1,.47.62,2.07,2.07,0,0,1,.18.9,2.91,2.91,0,0,1-.19,1.06,2.44,2.44,0,0,1-.56.86,2.62,2.62,0,0,1-.91.58,3.34,3.34,0,0,1-1.22.21,3.73,3.73,0,0,1-1.52-.3,3.57,3.57,0,0,1-1.17-.82l.34-.55a.44.44,0,0,1,.12-.11.27.27,0,0,1,.15,0,.48.48,0,0,1,.29.13,4.68,4.68,0,0,0,.4.3,3.14,3.14,0,0,0,.59.3,2.33,2.33,0,0,0,.84.13,2.22,2.22,0,0,0,.74-.11,1.57,1.57,0,0,0,.55-.32,1.4,1.4,0,0,0,.34-.49,1.66,1.66,0,0,0,.12-.64,1.08,1.08,0,0,0-.18-.64,1.46,1.46,0,0,0-.46-.42,3.25,3.25,0,0,0-.66-.29l-.76-.24a7.68,7.68,0,0,1-.76-.29,2.46,2.46,0,0,1-.66-.42,1.94,1.94,0,0,1-.46-.65,2.48,2.48,0,0,1,0-1.84,2.26,2.26,0,0,1,.51-.76,2.48,2.48,0,0,1,.83-.53,3,3,0,0,1,1.14-.2,3.63,3.63,0,0,1,1.31.23,3,3,0,0,1,1,.66Z"/><path class="41a5c536-3cdd-4cae-9f81-0981242e11ea" d="M266.54,83.24h-.47a.57.57,0,0,1-.25,0,.26.26,0,0,1-.13-.2l-.12-.56q-.24.22-.47.39a2.69,2.69,0,0,1-.48.29,2.48,2.48,0,0,1-.54.18,3.07,3.07,0,0,1-.63.06,2.15,2.15,0,0,1-.66-.1,1.51,1.51,0,0,1-.54-.3,1.42,1.42,0,0,1-.36-.5,1.76,1.76,0,0,1-.14-.72,1.35,1.35,0,0,1,.2-.7,1.75,1.75,0,0,1,.64-.59,4.16,4.16,0,0,1,1.15-.42,7.87,7.87,0,0,1,1.75-.17v-.48a1.65,1.65,0,0,0-.3-1.08,1.1,1.1,0,0,0-.9-.37,1.9,1.9,0,0,0-.66.1,2.45,2.45,0,0,0-.46.22l-.34.22a.48.48,0,0,1-.28.1.32.32,0,0,1-.19-.06.44.44,0,0,1-.13-.14l-.19-.34a3.46,3.46,0,0,1,1.09-.73,3.35,3.35,0,0,1,1.29-.24,2.3,2.3,0,0,1,.91.17,1.85,1.85,0,0,1,.67.47,2,2,0,0,1,.41.73,3,3,0,0,1,.14.94Zm-2.77-.65a2.17,2.17,0,0,0,.52-.06,2,2,0,0,0,.44-.16,2.33,2.33,0,0,0,.4-.25,3.42,3.42,0,0,0,.37-.34V80.52a7.14,7.14,0,0,0-1.25.09,3.53,3.53,0,0,0-.84.24,1.17,1.17,0,0,0-.47.36.76.76,0,0,0-.15.46,1,1,0,0,0,.08.42.79.79,0,0,0,.21.29.83.83,0,0,0,.31.16A1.41,1.41,0,0,0,263.77,82.59Z"/><path class="41a5c536-3cdd-4cae-9f81-0981242e11ea" d="M269.35,74.41v8.84h-1.07V74.41Z"/><path class="41a5c536-3cdd-4cae-9f81-0981242e11ea" d="M271.24,83.24V77.17h.64a.27.27,0,0,1,.29.22l.08.62a3.11,3.11,0,0,1,.75-.68,1.77,1.77,0,0,1,1-.26,1.44,1.44,0,0,1,1,.34,1.92,1.92,0,0,1,.55.92,1.91,1.91,0,0,1,.33-.57,1.94,1.94,0,0,1,1-.62,2.45,2.45,0,0,1,.59-.07,2.25,2.25,0,0,1,.85.15,1.7,1.7,0,0,1,.64.45,2,2,0,0,1,.4.72,3.21,3.21,0,0,1,.14,1v3.87h-1.07V79.37a1.64,1.64,0,0,0-.31-1.08,1.12,1.12,0,0,0-.91-.37,1.35,1.35,0,0,0-.5.09,1.2,1.2,0,0,0-.42.27,1.27,1.27,0,0,0-.29.45,1.75,1.75,0,0,0-.11.63v3.87h-1.07V79.37a1.71,1.71,0,0,0-.29-1.09,1,1,0,0,0-.86-.36,1.36,1.36,0,0,0-.74.21,2.42,2.42,0,0,0-.62.58v4.53Z"/><path class="41a5c536-3cdd-4cae-9f81-0981242e11ea" d="M283.55,77.07a3.12,3.12,0,0,1,1.2.22,2.53,2.53,0,0,1,.91.63,2.78,2.78,0,0,1,.58,1,4.27,4.27,0,0,1,0,2.59,2.79,2.79,0,0,1-.58,1,2.5,2.5,0,0,1-.91.63,3.42,3.42,0,0,1-2.41,0,2.54,2.54,0,0,1-.92-.63,2.8,2.8,0,0,1-.58-1,4.21,4.21,0,0,1,0-2.59,2.79,2.79,0,0,1,.58-1,2.58,2.58,0,0,1,.92-.63A3.13,3.13,0,0,1,283.55,77.07Zm0,5.42a1.56,1.56,0,0,0,1.34-.6,3.43,3.43,0,0,0,0-3.37,1.56,1.56,0,0,0-1.34-.61,1.88,1.88,0,0,0-.79.16,1.49,1.49,0,0,0-.56.45,2,2,0,0,0-.34.72,4.26,4.26,0,0,0,0,1.94,2,2,0,0,0,.34.72,1.49,1.49,0,0,0,.56.45A1.87,1.87,0,0,0,283.55,82.49Z"/><path class="41a5c536-3cdd-4cae-9f81-0981242e11ea" d="M287.76,83.24V77.17h.64a.27.27,0,0,1,.29.22l.08.66a3.42,3.42,0,0,1,.89-.71,2.3,2.3,0,0,1,1.13-.27,2.19,2.19,0,0,1,.88.17,1.7,1.7,0,0,1,.64.47,2.07,2.07,0,0,1,.39.73,3.15,3.15,0,0,1,.13.94v3.87h-1.07V79.37a1.63,1.63,0,0,0-.32-1.07,1.18,1.18,0,0,0-1-.38,1.8,1.8,0,0,0-.88.23,2.93,2.93,0,0,0-.76.62v4.48Z"/><path class="41a5c536-3cdd-4cae-9f81-0981242e11ea" d="M294.1,84.56a.28.28,0,0,1,.08-.2.28.28,0,0,1,.21-.08h1V74.75h-1a.29.29,0,0,1-.21-.08.27.27,0,0,1-.08-.2V74h2.21V85H294.1Z"/><path class="41a5c536-3cdd-4cae-9f81-0981242e11ea" d="M264.35,129.09a.48.48,0,0,1-.11.13.25.25,0,0,1-.16,0,.42.42,0,0,1-.24-.1l-.34-.23a2.77,2.77,0,0,0-.5-.22,2.14,2.14,0,0,0-.71-.1,2.08,2.08,0,0,0-.69.11,1.47,1.47,0,0,0-.5.29,1.16,1.16,0,0,0-.3.42,1.34,1.34,0,0,0-.1.52,1,1,0,0,0,.18.6,1.5,1.5,0,0,0,.47.4,3.51,3.51,0,0,0,.66.29l.76.26q.39.13.76.3a2.65,2.65,0,0,1,.66.42,1.9,1.9,0,0,1,.47.62,2.05,2.05,0,0,1,.18.9,2.91,2.91,0,0,1-.19,1.06,2.45,2.45,0,0,1-.56.86,2.62,2.62,0,0,1-.91.58,3.34,3.34,0,0,1-1.22.21,3.72,3.72,0,0,1-1.52-.3,3.57,3.57,0,0,1-1.17-.82l.34-.55a.44.44,0,0,1,.12-.11.28.28,0,0,1,.15,0,.48.48,0,0,1,.29.13,4.75,4.75,0,0,0,.41.3,3.17,3.17,0,0,0,.59.3,2.32,2.32,0,0,0,.84.13,2.21,2.21,0,0,0,.74-.11,1.56,1.56,0,0,0,.55-.32,1.39,1.39,0,0,0,.34-.49,1.66,1.66,0,0,0,.12-.64,1.08,1.08,0,0,0-.18-.64,1.48,1.48,0,0,0-.46-.42,3.25,3.25,0,0,0-.66-.29l-.76-.24a7.56,7.56,0,0,1-.76-.29,2.45,2.45,0,0,1-.66-.42,1.93,1.93,0,0,1-.46-.64,2.36,2.36,0,0,1,.51-2.59,2.47,2.47,0,0,1,.83-.53,3,3,0,0,1,1.14-.2,3.63,3.63,0,0,1,1.31.23,3,3,0,0,1,1,.66Z"/><path class="41a5c536-3cdd-4cae-9f81-0981242e11ea" d="M267.32,127.51v8.84h-1.07v-8.84Z"/><path class="41a5c536-3cdd-4cae-9f81-0981242e11ea" d="M271.61,130.17a2.71,2.71,0,0,1,1,.18,2.25,2.25,0,0,1,.8.53,2.39,2.39,0,0,1,.53.85,3.29,3.29,0,0,1,.19,1.16.69.69,0,0,1-.05.34.22.22,0,0,1-.2.08h-4a3.36,3.36,0,0,0,.16,1,2,2,0,0,0,.4.71,1.58,1.58,0,0,0,.6.43,2,2,0,0,0,.78.14,2.27,2.27,0,0,0,.69-.09,3.3,3.3,0,0,0,.5-.2l.35-.2a.46.46,0,0,1,.24-.09.23.23,0,0,1,.2.1l.3.39a2,2,0,0,1-.47.42,2.89,2.89,0,0,1-.59.29,3.65,3.65,0,0,1-.65.17,4,4,0,0,1-.67.06,3.09,3.09,0,0,1-1.16-.21,2.56,2.56,0,0,1-.92-.62,2.86,2.86,0,0,1-.6-1,4.14,4.14,0,0,1-.22-1.39A3.52,3.52,0,0,1,269,132a2.81,2.81,0,0,1,.56-1,2.59,2.59,0,0,1,.89-.64A2.92,2.92,0,0,1,271.61,130.17Zm0,.79a1.64,1.64,0,0,0-1.22.45,2.11,2.11,0,0,0-.55,1.24h3.31a2.15,2.15,0,0,0-.1-.68,1.52,1.52,0,0,0-.3-.53,1.34,1.34,0,0,0-.48-.35A1.63,1.63,0,0,0,271.64,131Z"/><path class="41a5c536-3cdd-4cae-9f81-0981242e11ea" d="M276.42,130.27v3.88a1.61,1.61,0,0,0,.32,1.07,1.18,1.18,0,0,0,1,.38,1.84,1.84,0,0,0,.88-.22,2.74,2.74,0,0,0,.76-.62v-4.48h1.07v6.08h-.64a.27.27,0,0,1-.29-.22l-.08-.65a3.37,3.37,0,0,1-.89.71,2.33,2.33,0,0,1-1.13.27,2.19,2.19,0,0,1-.88-.17,1.74,1.74,0,0,1-.64-.46,2,2,0,0,1-.39-.73,3.25,3.25,0,0,1-.13-.94v-3.88Z"/><path class="41a5c536-3cdd-4cae-9f81-0981242e11ea" d="M284,136.44a1.46,1.46,0,0,1-1.11-.4,1.6,1.6,0,0,1-.39-1.16v-3.72h-.73a.24.24,0,0,1-.16-.06.22.22,0,0,1-.07-.18v-.43l1-.13.25-1.88a.23.23,0,0,1,.08-.15.25.25,0,0,1,.17-.06h.54v2.09h1.74v.77h-1.74v3.65a.78.78,0,0,0,.19.57.65.65,0,0,0,.48.19.84.84,0,0,0,.29,0l.21-.1.15-.1a.2.2,0,0,1,.11,0,.18.18,0,0,1,.15.1l.31.51a2,2,0,0,1-.67.41A2.26,2.26,0,0,1,284,136.44Z"/><path class="41a5c536-3cdd-4cae-9f81-0981242e11ea" d="M286.64,136.34v-8.84h1.07v3.58a3.31,3.31,0,0,1,.86-.66,2.31,2.31,0,0,1,1.09-.25,2.19,2.19,0,0,1,.88.17,1.69,1.69,0,0,1,.64.47,2.06,2.06,0,0,1,.39.73,3.18,3.18,0,0,1,.13.94v3.87h-1.07v-3.87a1.64,1.64,0,0,0-.32-1.07,1.18,1.18,0,0,0-1-.38,1.8,1.8,0,0,0-.88.23,2.93,2.93,0,0,0-.76.62v4.48Z"/></g><g id="9b8c03cf-0fe2-4816-ace5-0940f53cc3bc" data-name="shapes"><polygon class="41a5c536-3cdd-4cae-9f81-0981242e11ea" points="150.75 29.35 146.33 37 141.92 29.35 150.75 29.35"/><polygon class="41a5c536-3cdd-4cae-9f81-0981242e11ea" points="150.75 71.05 146.33 78.7 141.92 71.05 150.75 71.05"/><polygon class="41a5c536-3cdd-4cae-9f81-0981242e11ea" points="150.75 110.72 146.33 118.37 141.92 110.72 150.75 110.72"/><polygon class="41a5c536-3cdd-4cae-9f81-0981242e11ea" points="221.42 29.35 217 37 212.58 29.35 221.42 29.35"/><polygon class="41a5c536-3cdd-4cae-9f81-0981242e11ea" points="221.42 71.05 217 78.7 212.58 71.05 221.42 71.05"/><polygon class="41a5c536-3cdd-4cae-9f81-0981242e11ea" points="221.42 110.72 217 118.37 212.58 110.72 221.42 110.72"/><polygon class="41a5c536-3cdd-4cae-9f81-0981242e11ea" points="279.42 29.35 275 37 270.58 29.35 279.42 29.35"/><polygon class="41a5c536-3cdd-4cae-9f81-0981242e11ea" points="279.42 110.72 275 118.37 270.58 110.72 279.42 110.72"/></g></svg>