<svg xmlns="http://www.w3.org/2000/svg" viewBox="0 0 223.81 56.38"><defs><style>.\34 475e7dd-61f4-4736-ab00-5994b67cc729,.\36 23f30db-dc0e-4009-918e-6cba9bcd793a,.b41d5334-bb37-4821-9230-c40fd07c8765{fill:none;}.\34 475e7dd-61f4-4736-ab00-5994b67cc729,.\34 99aefb5-8d6b-4580-a15d-ad70529a985a,.\36 23f30db-dc0e-4009-918e-6cba9bcd793a,.b179a944-722e-4e6d-b97c-d204b3179e29,.b41d5334-bb37-4821-9230-c40fd07c8765,.e0d99411-f2af-4d31-a7c5-ba0fc0b084ef{stroke:#575756;stroke-miterlimit:10;}.\34 475e7dd-61f4-4736-ab00-5994b67cc729{stroke-dasharray:2.5 2.5;}.\36 23f30db-dc0e-4009-918e-6cba9bcd793a{stroke-dasharray:1.77 1.77;}.ae8885f1-4085-4432-855a-3266245093ce,.b179a944-722e-4e6d-b97c-d204b3179e29{fill:#a7cee3;}.\36 65e2bf6-f1d4-453b-931e-244b9a3aaad6{fill:#575756;}.\34 99aefb5-8d6b-4580-a15d-ad70529a985a,.\36 0e2fce8-810f-44c9-9dc6-2a1d67d57d05{fill:#fffcbf;}.db3420fb-047e-48bb-b352-1d957d85315d,.e0d99411-f2af-4d31-a7c5-ba0fc0b084ef{fill:#c9a0ce;}.\34 99aefb5-8d6b-4580-a15d-ad70529a985a,.b179a944-722e-4e6d-b97c-d204b3179e29,.e0d99411-f2af-4d31-a7c5-ba0fc0b084ef{stroke-width:0.5px;}</style></defs><title>rnaseq</title><g id="340c2775-bc95-447e-a1a5-d9a4930e32cd" data-name="lines"><line class="b41d5334-bb37-4821-9230-c40fd07c8765" x1="5.42" y1="31.36" x2="219.34" y2="31.36"/><line class="b41d5334-bb37-4821-9230-c40fd07c8765" x1="19.06" y1="10.74" x2="20.06" y2="10.74"/><line class="4475e7dd-61f4-4736-ab00-5994b67cc729" x1="22.56" y1="10.74" x2="26.31" y2="10.74"/><line class="b41d5334-bb37-4821-9230-c40fd07c8765" x1="27.56" y1="10.74" x2="28.56" y2="10.74"/><line class="b41d5334-bb37-4821-9230-c40fd07c8765" x1="181.14" y1="10.74" x2="182.14" y2="10.74"/><line class="623f30db-dc0e-4009-918e-6cba9bcd793a" x1="183.91" y1="10.74" x2="193.66" y2="10.74"/><line class="b41d5334-bb37-4821-9230-c40fd07c8765" x1="194.55" y1="10.74" x2="195.55" y2="10.74"/></g><g id="926b7f15-37f8-453c-8edb-b61599712c11" data-name="boxes"><rect class="ae8885f1-4085-4432-855a-3266245093ce" x="48.19" y="23.44" width="11.58" height="15.83"/><path class="665e2bf6-f1d4-453b-931e-244b9a3aaad6" d="M59.51,23.69V39H48.44V23.69H59.51m.5-.5H47.94V39.52H60V23.19Z"/><rect class="ae8885f1-4085-4432-855a-3266245093ce" x="28.31" y="23.44" width="8.33" height="15.83"/><path class="665e2bf6-f1d4-453b-931e-244b9a3aaad6" d="M36.38,23.69V39H28.56V23.69h7.83m.5-.5H28.06V39.52h8.83V23.19Z"/><rect class="ae8885f1-4085-4432-855a-3266245093ce" x="40.06" y="23.44" width="5.34" height="15.83"/><path class="665e2bf6-f1d4-453b-931e-244b9a3aaad6" d="M45.14,23.69V39H40.31V23.69h4.84m.5-.5H39.81V39.52h5.84V23.19Z"/><rect class="ae8885f1-4085-4432-855a-3266245093ce" x="5.17" y="23.44" width="14.13" height="15.83"/><path class="665e2bf6-f1d4-453b-931e-244b9a3aaad6" d="M19.06,23.69V39H5.42V23.69H19.06m.5-.5H4.92V39.52H19.56V23.19Z"/><rect class="60e2fce8-810f-44c9-9dc6-2a1d67d57d05" x="112.13" y="23.44" width="12.92" height="15.83"/><path class="665e2bf6-f1d4-453b-931e-244b9a3aaad6" d="M124.81,23.69V39H112.38V23.69h12.42m.5-.5H111.88V39.52h13.42V23.19Z"/><rect class="60e2fce8-810f-44c9-9dc6-2a1d67d57d05" x="95.63" y="23.44" width="12.92" height="15.83"/><path class="665e2bf6-f1d4-453b-931e-244b9a3aaad6" d="M108.31,23.69V39H95.88V23.69h12.42m.5-.5H95.38V39.52h13.42V23.19Z"/><rect class="60e2fce8-810f-44c9-9dc6-2a1d67d57d05" x="82.63" y="23.44" width="9.43" height="15.83"/><path class="665e2bf6-f1d4-453b-931e-244b9a3aaad6" d="M91.81,23.69V39H82.88V23.69h8.93m.5-.5H82.38V39.52h9.93V23.19Z"/><rect class="db3420fb-047e-48bb-b352-1d957d85315d" x="194.81" y="23.44" width="24.79" height="15.83"/><path class="665e2bf6-f1d4-453b-931e-244b9a3aaad6" d="M219.34,23.69V39H195.06V23.69h24.29m.5-.5H194.56V39.52h25.29V23.19Z"/><rect class="db3420fb-047e-48bb-b352-1d957d85315d" x="157.56" y="23.44" width="23.25" height="15.83"/><path class="665e2bf6-f1d4-453b-931e-244b9a3aaad6" d="M180.56,23.69V39H157.81V23.69h22.75m.5-.5H157.31V39.52h23.75V23.19Z"/><rect class="b179a944-722e-4e6d-b97c-d204b3179e29" x="9.06" y="5.43" width="4.34" height="10.63"/><rect class="b179a944-722e-4e6d-b97c-d204b3179e29" x="14.96" y="5.43" width="4.34" height="10.63"/><rect class="b179a944-722e-4e6d-b97c-d204b3179e29" x="28.89" y="5.43" width="4.34" height="10.63"/><rect class="b179a944-722e-4e6d-b97c-d204b3179e29" x="49.44" y="5.43" width="4.34" height="10.63"/><rect class="499aefb5-8d6b-4580-a15d-ad70529a985a" x="83.82" y="5.43" width="4.34" height="10.63"/><rect class="499aefb5-8d6b-4580-a15d-ad70529a985a" x="96.46" y="5.43" width="4.34" height="10.63"/><rect class="499aefb5-8d6b-4580-a15d-ad70529a985a" x="103.74" y="5.43" width="4.34" height="10.63"/><rect class="499aefb5-8d6b-4580-a15d-ad70529a985a" x="114.5" y="5.43" width="4.34" height="10.63"/><rect class="e0d99411-f2af-4d31-a7c5-ba0fc0b084ef" x="157.81" y="5.43" width="4.34" height="10.63"/><rect class="e0d99411-f2af-4d31-a7c5-ba0fc0b084ef" x="165.34" y="5.43" width="4.34" height="10.63"/><rect class="e0d99411-f2af-4d31-a7c5-ba0fc0b084ef" x="176.8" y="5.43" width="4.34" height="10.63"/><rect class="e0d99411-f2af-4d31-a7c5-ba0fc0b084ef" x="195.06" y="5.43" width="4.34" height="10.63"/><rect class="e0d99411-f2af-4d31-a7c5-ba0fc0b084ef" x="205.03" y="5.43" width="4.34" height="10.63"/></g><g id="e58cf420-048a-4f50-b90d-e1f4bdd29777" data-name="text-annotations"><path class="665e2bf6-f1d4-453b-931e-244b9a3aaad6" d="M19.28,51.84a5.37,5.37,0,0,0,.58,0,3.85,3.85,0,0,0,.5-.09,3.45,3.45,0,0,0,.45-.15l.42-.19V49.64H20a.23.23,0,0,1-.17-.06.2.2,0,0,1-.06-.15v-.61H22.2v3a4.47,4.47,0,0,1-.62.37,4.22,4.22,0,0,1-.69.27,5,5,0,0,1-.78.16,7.27,7.27,0,0,1-.91.05,4.11,4.11,0,0,1-1.57-.29,3.63,3.63,0,0,1-1.23-.83,3.75,3.75,0,0,1-.81-1.27,4.48,4.48,0,0,1-.29-1.63A4.57,4.57,0,0,1,15.59,47a3.54,3.54,0,0,1,2.08-2.1,4.56,4.56,0,0,1,1.67-.29,5.15,5.15,0,0,1,.87.07,4.09,4.09,0,0,1,.75.2,3.46,3.46,0,0,1,.63.31,4,4,0,0,1,.54.42l-.3.48a.28.28,0,0,1-.24.15.39.39,0,0,1-.19-.06L21.08,46a2.63,2.63,0,0,0-.42-.21,3.32,3.32,0,0,0-.58-.17,3.85,3.85,0,0,0-.79-.07,3.18,3.18,0,0,0-1.2.22,2.54,2.54,0,0,0-.92.62,2.75,2.75,0,0,0-.58,1,3.84,3.84,0,0,0-.2,1.29A3.9,3.9,0,0,0,16.6,50a2.81,2.81,0,0,0,.6,1,2.57,2.57,0,0,0,.91.62A3.08,3.08,0,0,0,19.28,51.84Z"/><path class="665e2bf6-f1d4-453b-931e-244b9a3aaad6" d="M25.89,47a2.49,2.49,0,0,1,.92.17,2.08,2.08,0,0,1,.73.48,2.2,2.2,0,0,1,.48.78,3,3,0,0,1,.17,1.06.65.65,0,0,1,0,.31.21.21,0,0,1-.19.08H24.26a3.1,3.1,0,0,0,.14.92,1.89,1.89,0,0,0,.36.65,1.46,1.46,0,0,0,.55.39,1.89,1.89,0,0,0,.71.13,2.1,2.1,0,0,0,.63-.08,3,3,0,0,0,.46-.18l.32-.18a.43.43,0,0,1,.22-.08.22.22,0,0,1,.19.09l.27.36a1.84,1.84,0,0,1-.43.38,2.69,2.69,0,0,1-.54.27,3.48,3.48,0,0,1-.6.16,3.6,3.6,0,0,1-.61.05,2.84,2.84,0,0,1-1.06-.2,2.35,2.35,0,0,1-.84-.57,2.62,2.62,0,0,1-.55-.93,3.79,3.79,0,0,1-.2-1.28,3.24,3.24,0,0,1,.18-1.09,2.57,2.57,0,0,1,.51-.88,2.37,2.37,0,0,1,.82-.58A2.7,2.7,0,0,1,25.89,47Zm0,.72a1.5,1.5,0,0,0-1.12.41,1.93,1.93,0,0,0-.51,1.14h3a2,2,0,0,0-.09-.62,1.39,1.39,0,0,0-.28-.49,1.24,1.24,0,0,0-.44-.32A1.5,1.5,0,0,0,25.91,47.68Z"/><path class="665e2bf6-f1d4-453b-931e-244b9a3aaad6" d="M29.45,52.62V47H30a.25.25,0,0,1,.26.2l.08.6a3.13,3.13,0,0,1,.81-.65,2.11,2.11,0,0,1,1-.25,2,2,0,0,1,.81.15,1.56,1.56,0,0,1,.58.43,1.87,1.87,0,0,1,.35.67,2.9,2.9,0,0,1,.12.86v3.55h-1V49.07a1.5,1.5,0,0,0-.29-1,1.08,1.08,0,0,0-.88-.35,1.66,1.66,0,0,0-.81.21,2.68,2.68,0,0,0-.7.57v4.1Z"/><path class="665e2bf6-f1d4-453b-931e-244b9a3aaad6" d="M37.77,47a2.49,2.49,0,0,1,.92.17,2.08,2.08,0,0,1,.73.48,2.2,2.2,0,0,1,.48.78,3,3,0,0,1,.17,1.06.65.65,0,0,1,0,.31.21.21,0,0,1-.19.08H36.14a3.1,3.1,0,0,0,.14.92,1.89,1.89,0,0,0,.36.65,1.46,1.46,0,0,0,.55.39,1.89,1.89,0,0,0,.71.13,2.1,2.1,0,0,0,.63-.08,3,3,0,0,0,.46-.18l.32-.18a.43.43,0,0,1,.22-.08.22.22,0,0,1,.19.09l.27.36a1.84,1.84,0,0,1-.43.38,2.69,2.69,0,0,1-.54.27,3.48,3.48,0,0,1-.6.16,3.6,3.6,0,0,1-.61.05,2.84,2.84,0,0,1-1.06-.2,2.35,2.35,0,0,1-.84-.57,2.62,2.62,0,0,1-.55-.93,3.79,3.79,0,0,1-.2-1.28,3.24,3.24,0,0,1,.18-1.09,2.57,2.57,0,0,1,.51-.88,2.37,2.37,0,0,1,.82-.58A2.7,2.7,0,0,1,37.77,47Zm0,.72a1.5,1.5,0,0,0-1.12.41,1.93,1.93,0,0,0-.51,1.14h3a2,2,0,0,0-.09-.62,1.39,1.39,0,0,0-.28-.49,1.24,1.24,0,0,0-.44-.32A1.5,1.5,0,0,0,37.79,47.68Z"/><path class="665e2bf6-f1d4-453b-931e-244b9a3aaad6" d="M50.09,52.62h-.82a.36.36,0,0,1-.23-.07.44.44,0,0,1-.13-.18l-.74-1.9H44.63l-.74,1.9a.43.43,0,0,1-.13.18.35.35,0,0,1-.23.08H42.7l3.15-7.88h1.08Zm-5.16-2.93h2.94l-1.24-3.21a5.81,5.81,0,0,1-.24-.74l-.12.42c0,.13-.08.24-.11.33Z"/><path class="665e2bf6-f1d4-453b-931e-244b9a3aaad6" d="M90.73,51.84a5.37,5.37,0,0,0,.58,0,3.81,3.81,0,0,0,.5-.09,3.35,3.35,0,0,0,.45-.15l.42-.19V49.64H91.47a.24.24,0,0,1-.17-.06.2.2,0,0,1-.06-.15v-.61h2.42v3a4.42,4.42,0,0,1-.62.37,4.19,4.19,0,0,1-.69.27,4.94,4.94,0,0,1-.78.16,7.29,7.29,0,0,1-.91.05,4.11,4.11,0,0,1-1.57-.29,3.63,3.63,0,0,1-1.23-.83A3.75,3.75,0,0,1,87,50.31a4.48,4.48,0,0,1-.29-1.63A4.57,4.57,0,0,1,87,47a3.54,3.54,0,0,1,2.08-2.1,4.57,4.57,0,0,1,1.67-.29,5.16,5.16,0,0,1,.87.07,4.06,4.06,0,0,1,.74.2,3.44,3.44,0,0,1,.64.31,3.9,3.9,0,0,1,.54.42l-.3.48a.28.28,0,0,1-.24.15.39.39,0,0,1-.19-.06L92.54,46a2.62,2.62,0,0,0-.41-.21,3.35,3.35,0,0,0-.58-.17,3.85,3.85,0,0,0-.79-.07,3.19,3.19,0,0,0-1.21.22,2.54,2.54,0,0,0-.92.62,2.75,2.75,0,0,0-.58,1,3.84,3.84,0,0,0-.2,1.29A3.9,3.9,0,0,0,88.06,50a2.82,2.82,0,0,0,.6,1,2.58,2.58,0,0,0,.91.62A3.08,3.08,0,0,0,90.73,51.84Z"/><path class="665e2bf6-f1d4-453b-931e-244b9a3aaad6" d="M97.34,47a2.5,2.5,0,0,1,.92.17,2.08,2.08,0,0,1,.73.48,2.2,2.2,0,0,1,.48.78,3,3,0,0,1,.17,1.06.65.65,0,0,1,0,.31.21.21,0,0,1-.19.08H95.71a3.1,3.1,0,0,0,.14.92,1.87,1.87,0,0,0,.36.65,1.46,1.46,0,0,0,.55.39,1.89,1.89,0,0,0,.71.13,2.1,2.1,0,0,0,.63-.08,2.94,2.94,0,0,0,.46-.18l.32-.18a.43.43,0,0,1,.22-.08.22.22,0,0,1,.19.09l.27.36a1.86,1.86,0,0,1-.43.38,2.72,2.72,0,0,1-.54.27,3.5,3.5,0,0,1-.6.16,3.6,3.6,0,0,1-.61.05,2.84,2.84,0,0,1-1.06-.2,2.35,2.35,0,0,1-.84-.57,2.6,2.6,0,0,1-.55-.93,3.77,3.77,0,0,1-.2-1.28,3.24,3.24,0,0,1,.18-1.09,2.58,2.58,0,0,1,.51-.88,2.39,2.39,0,0,1,.82-.58A2.7,2.7,0,0,1,97.34,47Zm0,.72a1.5,1.5,0,0,0-1.12.41,1.93,1.93,0,0,0-.51,1.14h3a2,2,0,0,0-.09-.62,1.39,1.39,0,0,0-.28-.49,1.25,1.25,0,0,0-.44-.32A1.49,1.49,0,0,0,97.37,47.68Z"/><path class="665e2bf6-f1d4-453b-931e-244b9a3aaad6" d="M100.9,52.62V47h.58a.25.25,0,0,1,.26.2l.08.6a3.14,3.14,0,0,1,.81-.65,2.11,2.11,0,0,1,1-.25,2,2,0,0,1,.81.15,1.57,1.57,0,0,1,.58.43,1.88,1.88,0,0,1,.35.67,2.93,2.93,0,0,1,.12.86v3.55h-1V49.07a1.5,1.5,0,0,0-.29-1,1.08,1.08,0,0,0-.88-.35,1.65,1.65,0,0,0-.81.21,2.67,2.67,0,0,0-.7.57v4.1Z"/><path class="665e2bf6-f1d4-453b-931e-244b9a3aaad6" d="M109.23,47a2.5,2.5,0,0,1,.92.17,2.09,2.09,0,0,1,.73.48,2.2,2.2,0,0,1,.48.78,3,3,0,0,1,.17,1.06.63.63,0,0,1,0,.31.2.2,0,0,1-.19.08h-3.71a3.07,3.07,0,0,0,.14.92,1.89,1.89,0,0,0,.36.65,1.46,1.46,0,0,0,.55.39,1.89,1.89,0,0,0,.71.13,2.11,2.11,0,0,0,.64-.08,3,3,0,0,0,.46-.18l.32-.18a.43.43,0,0,1,.22-.08.21.21,0,0,1,.19.09l.28.36a1.84,1.84,0,0,1-.43.38,2.72,2.72,0,0,1-.54.27,3.48,3.48,0,0,1-.6.16,3.61,3.61,0,0,1-.61.05,2.84,2.84,0,0,1-1.06-.2,2.35,2.35,0,0,1-.84-.57,2.63,2.63,0,0,1-.55-.93,3.82,3.82,0,0,1-.2-1.28,3.24,3.24,0,0,1,.18-1.09,2.56,2.56,0,0,1,.51-.88,2.37,2.37,0,0,1,.82-.58A2.7,2.7,0,0,1,109.23,47Zm0,.72a1.5,1.5,0,0,0-1.12.41,1.92,1.92,0,0,0-.51,1.14h3a2,2,0,0,0-.09-.62,1.39,1.39,0,0,0-.28-.49,1.23,1.23,0,0,0-.44-.32A1.5,1.5,0,0,0,109.25,47.68Z"/><path class="665e2bf6-f1d4-453b-931e-244b9a3aaad6" d="M115.06,52.62V44.73h2.51a4.79,4.79,0,0,1,1.25.14,2.41,2.41,0,0,1,.86.41,1.61,1.61,0,0,1,.5.65,2.18,2.18,0,0,1,.16.86,1.74,1.74,0,0,1-.09.56,1.62,1.62,0,0,1-.28.5,2,2,0,0,1-.46.41,2.59,2.59,0,0,1-.65.3,2.43,2.43,0,0,1,1.3.62,1.63,1.63,0,0,1,.44,1.19,2.21,2.21,0,0,1-.19.91,1.94,1.94,0,0,1-.54.71,2.51,2.51,0,0,1-.87.46,3.93,3.93,0,0,1-1.17.16Zm1.07-4.35h1.41a2.72,2.72,0,0,0,.78-.1,1.58,1.58,0,0,0,.55-.27,1.07,1.07,0,0,0,.32-.43,1.41,1.41,0,0,0,.1-.55,1.21,1.21,0,0,0-.42-1,2.12,2.12,0,0,0-1.3-.32h-1.45Zm0,.76v2.74h1.71a2.57,2.57,0,0,0,.78-.1,1.44,1.44,0,0,0,.54-.29,1.14,1.14,0,0,0,.31-.45,1.6,1.6,0,0,0,.1-.57,1.19,1.19,0,0,0-.43-1,2,2,0,0,0-1.31-.35Z"/><path class="665e2bf6-f1d4-453b-931e-244b9a3aaad6" d="M175.36,51.84a5.38,5.38,0,0,0,.59,0,3.81,3.81,0,0,0,.5-.09,3.35,3.35,0,0,0,.45-.15l.42-.19V49.64h-1.22a.23.23,0,0,1-.17-.06.2.2,0,0,1-.06-.15v-.61h2.42v3a4.42,4.42,0,0,1-.62.37,4.19,4.19,0,0,1-.69.27,4.93,4.93,0,0,1-.78.16,7.27,7.27,0,0,1-.91.05,4.11,4.11,0,0,1-1.57-.29,3.63,3.63,0,0,1-1.23-.83,3.75,3.75,0,0,1-.81-1.27,4.48,4.48,0,0,1-.29-1.63,4.59,4.59,0,0,1,.28-1.64,3.54,3.54,0,0,1,2.08-2.1,4.57,4.57,0,0,1,1.67-.29,5.15,5.15,0,0,1,.87.07,4.07,4.07,0,0,1,.75.2,3.44,3.44,0,0,1,.64.31,3.9,3.9,0,0,1,.54.42l-.3.48a.28.28,0,0,1-.24.15.39.39,0,0,1-.19-.06l-.31-.19a2.59,2.59,0,0,0-.42-.21,3.31,3.31,0,0,0-.58-.17,3.86,3.86,0,0,0-.79-.07,3.18,3.18,0,0,0-1.21.22,2.54,2.54,0,0,0-.92.62,2.75,2.75,0,0,0-.58,1,3.84,3.84,0,0,0-.2,1.29,3.92,3.92,0,0,0,.21,1.33,2.82,2.82,0,0,0,.6,1,2.59,2.59,0,0,0,.91.62A3.08,3.08,0,0,0,175.36,51.84Z"/><path class="665e2bf6-f1d4-453b-931e-244b9a3aaad6" d="M182,47a2.5,2.5,0,0,1,.92.17,2.09,2.09,0,0,1,.73.48,2.2,2.2,0,0,1,.48.78,3,3,0,0,1,.17,1.06.63.63,0,0,1,0,.31.2.2,0,0,1-.19.08h-3.71a3.07,3.07,0,0,0,.14.92,1.87,1.87,0,0,0,.36.65,1.46,1.46,0,0,0,.55.39,1.89,1.89,0,0,0,.71.13,2.11,2.11,0,0,0,.64-.08,2.94,2.94,0,0,0,.46-.18l.32-.18a.43.43,0,0,1,.22-.08.22.22,0,0,1,.19.09l.28.36a1.86,1.86,0,0,1-.43.38,2.74,2.74,0,0,1-.54.27,3.5,3.5,0,0,1-.6.16,3.61,3.61,0,0,1-.61.05,2.84,2.84,0,0,1-1.06-.2,2.35,2.35,0,0,1-.84-.57,2.62,2.62,0,0,1-.55-.93,3.79,3.79,0,0,1-.2-1.28,3.24,3.24,0,0,1,.18-1.09,2.57,2.57,0,0,1,.51-.88,2.38,2.38,0,0,1,.82-.58A2.7,2.7,0,0,1,182,47Zm0,.72a1.5,1.5,0,0,0-1.12.41,1.92,1.92,0,0,0-.51,1.14h3a2,2,0,0,0-.09-.62,1.39,1.39,0,0,0-.28-.49,1.23,1.23,0,0,0-.44-.32A1.49,1.49,0,0,0,182,47.68Z"/><path class="665e2bf6-f1d4-453b-931e-244b9a3aaad6" d="M185.53,52.62V47h.58a.25.25,0,0,1,.26.2l.08.6a3.14,3.14,0,0,1,.81-.65,2.11,2.11,0,0,1,1-.25,2,2,0,0,1,.81.15,1.57,1.57,0,0,1,.58.43,1.9,1.9,0,0,1,.35.67,2.93,2.93,0,0,1,.12.86v3.55h-1V49.07a1.5,1.5,0,0,0-.29-1,1.08,1.08,0,0,0-.88-.35,1.65,1.65,0,0,0-.81.21,2.67,2.67,0,0,0-.7.57v4.1Z"/><path class="665e2bf6-f1d4-453b-931e-244b9a3aaad6" d="M193.85,47a2.5,2.5,0,0,1,.92.17,2.09,2.09,0,0,1,.73.48,2.2,2.2,0,0,1,.48.78,3,3,0,0,1,.17,1.06.63.63,0,0,1,0,.31.2.2,0,0,1-.19.08h-3.71a3.07,3.07,0,0,0,.14.92,1.87,1.87,0,0,0,.36.65,1.46,1.46,0,0,0,.55.39,1.89,1.89,0,0,0,.71.13,2.11,2.11,0,0,0,.64-.08,2.94,2.94,0,0,0,.46-.18l.32-.18a.43.43,0,0,1,.22-.08.22.22,0,0,1,.19.09l.28.36a1.86,1.86,0,0,1-.43.38,2.74,2.74,0,0,1-.54.27,3.5,3.5,0,0,1-.6.16,3.61,3.61,0,0,1-.61.05,2.84,2.84,0,0,1-1.06-.2,2.35,2.35,0,0,1-.84-.57,2.62,2.62,0,0,1-.55-.93,3.79,3.79,0,0,1-.2-1.28,3.24,3.24,0,0,1,.18-1.09,2.57,2.57,0,0,1,.51-.88,2.38,2.38,0,0,1,.82-.58A2.7,2.7,0,0,1,193.85,47Zm0,.72a1.5,1.5,0,0,0-1.12.41,1.92,1.92,0,0,0-.51,1.14h3a2,2,0,0,0-.09-.62,1.39,1.39,0,0,0-.28-.49,1.23,1.23,0,0,0-.44-.32A1.49,1.49,0,0,0,193.87,47.68Z"/><path class="665e2bf6-f1d4-453b-931e-244b9a3aaad6" d="M205.24,51a.22.22,0,0,1,.16.07l.42.46a3.37,3.37,0,0,1-1.17.88,4,4,0,0,1-1.66.31,3.93,3.93,0,0,1-1.54-.29,3.39,3.39,0,0,1-1.18-.83,3.74,3.74,0,0,1-.76-1.27,4.76,4.76,0,0,1-.27-1.63,4.47,4.47,0,0,1,.29-1.63,3.73,3.73,0,0,1,.81-1.28,3.64,3.64,0,0,1,1.25-.83,4.26,4.26,0,0,1,1.61-.29,3.59,3.59,0,0,1,2.62,1l-.35.49-.09.09a.24.24,0,0,1-.14,0,.28.28,0,0,1-.15-.05l-.19-.13-.26-.17a2.29,2.29,0,0,0-.35-.17,2.81,2.81,0,0,0-.47-.13,3.26,3.26,0,0,0-.62-.05,3,3,0,0,0-1.16.22,2.59,2.59,0,0,0-.91.62,2.8,2.8,0,0,0-.59,1,3.72,3.72,0,0,0-.21,1.29,3.79,3.79,0,0,0,.21,1.31,2.88,2.88,0,0,0,.58,1,2.43,2.43,0,0,0,.87.61,2.77,2.77,0,0,0,1.08.21,4.41,4.41,0,0,0,.63,0,2.61,2.61,0,0,0,.52-.13,2.21,2.21,0,0,0,.45-.22,3.47,3.47,0,0,0,.42-.32A.28.28,0,0,1,205.24,51Z"/></g></svg>