<svg xmlns="http://www.w3.org/2000/svg" viewBox="0 0 260.5 285.67"><defs><style>.\34 bc19912-7e17-4f1e-9b0a-7566ddcfc603,.b7d07e77-c50e-4dea-b783-74ef052c455c,.cde4aba4-2efa-4c3b-a71b-c495e932e86b{fill:none;stroke:#575756;}.b7d07e77-c50e-4dea-b783-74ef052c455c,.cde4aba4-2efa-4c3b-a71b-c495e932e86b{stroke-miterlimit:10;}.eaa9a9ba-baa3-4948-9f13-c73ba335ec9d{fill:#575756;}.e41fcfb5-6511-4520-b265-d1af5511a229{fill:#a7cee3;}.ad760aed-12e7-47e1-a3e9-9e7e32b79029{fill:#fffcbf;}.\34 1074ef0-6aa9-4478-b21f-919c07c68602{fill:#c9a0ce;}.\34 453dc97-3783-4337-84a1-89276e633f3d{fill:#77e0c1;}.ef84ce43-347a-4679-bc43-5633a3433855{fill:#e89e6c;}.b7995f2e-c7b5-4005-b540-f8d3fc293259{fill:#fb8072;}.b7d07e77-c50e-4dea-b783-74ef052c455c{stroke-width:2px;}</style></defs><title>rnaseq</title><g id="497764f0-0cea-4def-913a-033c7667f724" data-name="lines"><line class="cde4aba4-2efa-4c3b-a71b-c495e932e86b" x1="51.37" y1="16.07" x2="172.84" y2="16.07"/><polygon class="eaa9a9ba-baa3-4948-9f13-c73ba335ec9d" points="52.1 18.56 47.78 16.07 52.1 13.57 52.1 18.56"/><polygon class="eaa9a9ba-baa3-4948-9f13-c73ba335ec9d" points="172.11 18.56 176.42 16.07 172.11 13.57 172.11 18.56"/></g><g id="ccab9f98-df6d-4426-b23a-b09bcd79c559" data-name="boxes"><rect class="e41fcfb5-6511-4520-b265-d1af5511a229" x="74.2" y="134.24" width="17.38" height="15.83"/><path class="eaa9a9ba-baa3-4948-9f13-c73ba335ec9d" d="M91.32,134.49v15.33H74.45V134.49H91.32m.5-.5H73.95v16.33H91.82V134Z"/><rect class="e41fcfb5-6511-4520-b265-d1af5511a229" x="124.99" y="134.24" width="9.45" height="15.83"/><path class="eaa9a9ba-baa3-4948-9f13-c73ba335ec9d" d="M134.19,134.49v15.33h-9V134.49h9m.5-.5h-10v16.33h10V134Z"/><rect class="e41fcfb5-6511-4520-b265-d1af5511a229" x="43.05" y="134.24" width="9.45" height="15.83"/><path class="eaa9a9ba-baa3-4948-9f13-c73ba335ec9d" d="M52.26,134.49v15.33h-9V134.49h9m.5-.5h-10v16.33h10V134Z"/><rect class="e41fcfb5-6511-4520-b265-d1af5511a229" x="102.06" y="152.66" width="12.18" height="15.83"/><path class="eaa9a9ba-baa3-4948-9f13-c73ba335ec9d" d="M114,152.91v15.33H102.31V152.91H114m.5-.5H101.81v16.33h12.68V152.41Z"/><rect class="e41fcfb5-6511-4520-b265-d1af5511a229" x="225.34" y="152.66" width="12.18" height="15.83"/><path class="eaa9a9ba-baa3-4948-9f13-c73ba335ec9d" d="M237.26,152.91v15.33H225.59V152.91h11.68m.5-.5H225.09v16.33h12.68V152.41Z"/><rect class="e41fcfb5-6511-4520-b265-d1af5511a229" x="111.7" y="134.24" width="9.55" height="15.83"/><path class="eaa9a9ba-baa3-4948-9f13-c73ba335ec9d" d="M121,134.49v15.33h-9.05V134.49H121m.5-.5H111.45v16.33H121.5V134Z"/><rect class="e41fcfb5-6511-4520-b265-d1af5511a229" x="156.79" y="134.24" width="12.59" height="15.83"/><path class="eaa9a9ba-baa3-4948-9f13-c73ba335ec9d" d="M169.13,134.49v15.33H157V134.49h12.09m.5-.5H156.54v16.33h13.09V134Z"/><rect class="e41fcfb5-6511-4520-b265-d1af5511a229" x="87.32" y="152.66" width="11.53" height="15.83"/><path class="eaa9a9ba-baa3-4948-9f13-c73ba335ec9d" d="M98.59,152.91v15.33h-11V152.91h11m.5-.5h-12v16.33h12V152.41Z"/><rect class="ad760aed-12e7-47e1-a3e9-9e7e32b79029" x="171.53" y="152.66" width="6.01" height="15.83"/><path class="eaa9a9ba-baa3-4948-9f13-c73ba335ec9d" d="M177.29,152.91v15.33h-5.51V152.91h5.51m.5-.5h-6.51v16.33h6.51V152.41Z"/><rect class="e41fcfb5-6511-4520-b265-d1af5511a229" x="188.01" y="152.66" width="6.01" height="15.83"/><path class="eaa9a9ba-baa3-4948-9f13-c73ba335ec9d" d="M193.77,152.91v15.33h-5.51V152.91h5.51m.5-.5h-6.51v16.33h6.51V152.41Z"/><rect class="e41fcfb5-6511-4520-b265-d1af5511a229" x="196.35" y="152.66" width="7.01" height="15.83"/><path class="eaa9a9ba-baa3-4948-9f13-c73ba335ec9d" d="M203.11,152.91v15.33H196.6V152.91h6.51m.5-.5H196.1v16.33h7.51V152.41Z"/><rect class="e41fcfb5-6511-4520-b265-d1af5511a229" x="179.62" y="152.66" width="6.01" height="15.83"/><path class="eaa9a9ba-baa3-4948-9f13-c73ba335ec9d" d="M185.38,152.91v15.33h-5.51V152.91h5.51m.5-.5h-6.51v16.33h6.51V152.41Z"/><rect class="ad760aed-12e7-47e1-a3e9-9e7e32b79029" x="116.99" y="152.66" width="6.01" height="15.83"/><path class="eaa9a9ba-baa3-4948-9f13-c73ba335ec9d" d="M122.76,152.91v15.33h-5.51V152.91h5.51m.5-.5h-6.51v16.33h6.51V152.41Z"/><rect class="e41fcfb5-6511-4520-b265-d1af5511a229" x="184.81" y="134.24" width="7.44" height="15.83"/><path class="eaa9a9ba-baa3-4948-9f13-c73ba335ec9d" d="M192,134.49v15.33h-6.94V134.49H192m.5-.5h-7.94v16.33h7.94V134Z"/><rect class="e41fcfb5-6511-4520-b265-d1af5511a229" x="78.12" y="152.66" width="6.01" height="15.83"/><path class="eaa9a9ba-baa3-4948-9f13-c73ba335ec9d" d="M83.89,152.91v15.33H78.37V152.91h5.51m.5-.5H77.87v16.33h6.51V152.41Z"/><rect class="e41fcfb5-6511-4520-b265-d1af5511a229" x="21.67" y="152.66" width="6.01" height="15.83"/><path class="eaa9a9ba-baa3-4948-9f13-c73ba335ec9d" d="M27.43,152.91v15.33H21.92V152.91h5.51m.5-.5H21.42v16.33h6.51V152.41Z"/><rect class="e41fcfb5-6511-4520-b265-d1af5511a229" x="59.25" y="152.66" width="8.19" height="15.83"/><path class="eaa9a9ba-baa3-4948-9f13-c73ba335ec9d" d="M67.19,152.91v15.33H59.5V152.91h7.69m.5-.5H59v16.33h8.69V152.41Z"/><rect class="e41fcfb5-6511-4520-b265-d1af5511a229" x="215.23" y="152.66" width="8.19" height="15.83"/><path class="eaa9a9ba-baa3-4948-9f13-c73ba335ec9d" d="M223.17,152.91v15.33h-7.69V152.91h7.69m.5-.5H215v16.33h8.69V152.41Z"/><rect class="41074ef0-6aa9-4478-b21f-919c07c68602" x="69.8" y="152.66" width="6.01" height="15.83"/><path class="eaa9a9ba-baa3-4948-9f13-c73ba335ec9d" d="M75.57,152.91v15.33H70.05V152.91h5.51m.5-.5H69.55v16.33h6.51V152.41Z"/><rect class="e41fcfb5-6511-4520-b265-d1af5511a229" x="134.28" y="152.66" width="6.01" height="15.83"/><path class="eaa9a9ba-baa3-4948-9f13-c73ba335ec9d" d="M140,152.91v15.33h-5.51V152.91H140m.5-.5H134v16.33h6.51V152.41Z"/><rect class="e41fcfb5-6511-4520-b265-d1af5511a229" x="51.03" y="152.66" width="6.01" height="15.83"/><path class="eaa9a9ba-baa3-4948-9f13-c73ba335ec9d" d="M56.79,152.91v15.33H51.28V152.91h5.51m.5-.5H50.78v16.33h6.51V152.41Z"/><rect class="e41fcfb5-6511-4520-b265-d1af5511a229" x="55.03" y="134.24" width="6.01" height="15.83"/><path class="eaa9a9ba-baa3-4948-9f13-c73ba335ec9d" d="M60.79,134.49v15.33H55.28V134.49h5.51m.5-.5H54.78v16.33h6.51V134Z"/><rect class="e41fcfb5-6511-4520-b265-d1af5511a229" x="194.45" y="134.24" width="6.01" height="15.83"/><path class="eaa9a9ba-baa3-4948-9f13-c73ba335ec9d" d="M200.21,134.49v15.33H194.7V134.49h5.51m.5-.5H194.2v16.33h6.51V134Z"/><rect class="e41fcfb5-6511-4520-b265-d1af5511a229" x="211.48" y="134.24" width="6.01" height="15.83"/><path class="eaa9a9ba-baa3-4948-9f13-c73ba335ec9d" d="M217.24,134.49v15.33h-5.51V134.49h5.51m.5-.5h-6.51v16.33h6.51V134Z"/><rect class="4453dc97-3783-4337-84a1-89276e633f3d" x="202.86" y="134.24" width="6.01" height="15.83"/><path class="eaa9a9ba-baa3-4948-9f13-c73ba335ec9d" d="M208.62,134.49v15.33h-5.51V134.49h5.51m.5-.5h-6.51v16.33h6.51V134Z"/><rect class="41074ef0-6aa9-4478-b21f-919c07c68602" x="30.96" y="21.4" width="17.07" height="15.83"/><path class="eaa9a9ba-baa3-4948-9f13-c73ba335ec9d" d="M47.78,21.65V37H31.22V21.65H47.78m.5-.5H30.72V37.48H48.28V21.15Z"/><rect class="ef84ce43-347a-4679-bc43-5633a3433855" x="21.32" y="21.4" width="10.14" height="15.83"/><path class="eaa9a9ba-baa3-4948-9f13-c73ba335ec9d" d="M31.22,21.65V37H21.57V21.65h9.64m.5-.5H21.07V37.48H31.72V21.15Z"/><rect class="ad760aed-12e7-47e1-a3e9-9e7e32b79029" x="137.45" y="134.24" width="16.03" height="15.83"/><path class="eaa9a9ba-baa3-4948-9f13-c73ba335ec9d" d="M153.23,134.49v15.33H137.7V134.49h15.53m.5-.5H137.2v16.33h16.53V134Z"/><rect class="4453dc97-3783-4337-84a1-89276e633f3d" x="163.13" y="152.66" width="6.25" height="15.83"/><path class="eaa9a9ba-baa3-4948-9f13-c73ba335ec9d" d="M169.13,152.91v15.33h-5.74V152.91h5.74m.5-.5h-6.74v16.33h6.74V152.41Z"/><rect class="4453dc97-3783-4337-84a1-89276e633f3d" x="125.59" y="152.66" width="6.25" height="15.83"/><path class="eaa9a9ba-baa3-4948-9f13-c73ba335ec9d" d="M131.59,152.91v15.33h-5.74V152.91h5.74m.5-.5h-6.74v16.33h6.74V152.41Z"/><rect class="e41fcfb5-6511-4520-b265-d1af5511a229" x="94.69" y="134.24" width="13.7" height="15.83"/><path class="eaa9a9ba-baa3-4948-9f13-c73ba335ec9d" d="M108.15,134.49v15.33H94.94V134.49h13.2m.5-.5H94.44v16.33h14.2V134Z"/><rect class="4bc19912-7e17-4f1e-9b0a-7566ddcfc603" x="176.9" y="134.49" width="5.43" height="15.33"/><rect class="4bc19912-7e17-4f1e-9b0a-7566ddcfc603" x="172.16" y="134.49" width="4.75" height="15.33"/><rect class="e41fcfb5-6511-4520-b265-d1af5511a229" x="176.9" y="134.49" width="5.43" height="15.33"/><rect class="ad760aed-12e7-47e1-a3e9-9e7e32b79029" x="172.16" y="134.49" width="4.75" height="15.33"/><rect class="4bc19912-7e17-4f1e-9b0a-7566ddcfc603" x="34.67" y="134.49" width="5.43" height="15.33"/><rect class="4bc19912-7e17-4f1e-9b0a-7566ddcfc603" x="29.93" y="134.49" width="4.75" height="15.33"/><rect class="41074ef0-6aa9-4478-b21f-919c07c68602" x="34.67" y="134.49" width="5.43" height="15.33"/><rect class="e41fcfb5-6511-4520-b265-d1af5511a229" x="29.93" y="134.49" width="4.75" height="15.33"/><rect class="4bc19912-7e17-4f1e-9b0a-7566ddcfc603" x="67.24" y="134.49" width="4.16" height="15.33"/><rect class="4bc19912-7e17-4f1e-9b0a-7566ddcfc603" x="63.61" y="134.49" width="3.64" height="15.33"/><rect class="e41fcfb5-6511-4520-b265-d1af5511a229" x="67.24" y="134.49" width="4.16" height="15.33"/><rect class="41074ef0-6aa9-4478-b21f-919c07c68602" x="63.61" y="134.49" width="3.64" height="15.33"/><rect class="4bc19912-7e17-4f1e-9b0a-7566ddcfc603" x="150.04" y="152.91" width="10.26" height="15.33"/><rect class="4bc19912-7e17-4f1e-9b0a-7566ddcfc603" x="143.13" y="152.91" width="6.93" height="15.33"/><rect class="e41fcfb5-6511-4520-b265-d1af5511a229" x="150.04" y="152.91" width="10.26" height="15.33"/><rect class="ad760aed-12e7-47e1-a3e9-9e7e32b79029" x="143.13" y="152.91" width="6.93" height="15.33"/><rect class="4bc19912-7e17-4f1e-9b0a-7566ddcfc603" x="135.25" y="208.95" width="9.22" height="15.33"/><rect class="4bc19912-7e17-4f1e-9b0a-7566ddcfc603" x="132.14" y="208.95" width="3.12" height="15.33"/><rect class="4bc19912-7e17-4f1e-9b0a-7566ddcfc603" x="144.48" y="208.95" width="3.12" height="15.33"/><rect class="e41fcfb5-6511-4520-b265-d1af5511a229" x="135.25" y="208.95" width="9.22" height="15.33"/><rect class="b7995f2e-c7b5-4005-b540-f8d3fc293259" x="132.14" y="208.95" width="3.12" height="15.33"/><rect class="b7995f2e-c7b5-4005-b540-f8d3fc293259" x="144.48" y="208.95" width="3.12" height="15.33"/><rect class="4bc19912-7e17-4f1e-9b0a-7566ddcfc603" x="97.32" y="208.95" width="9.22" height="15.33"/><rect class="4bc19912-7e17-4f1e-9b0a-7566ddcfc603" x="94.22" y="208.95" width="3.12" height="15.33"/><rect class="4bc19912-7e17-4f1e-9b0a-7566ddcfc603" x="106.55" y="208.95" width="3.12" height="15.33"/><rect class="e41fcfb5-6511-4520-b265-d1af5511a229" x="97.32" y="208.95" width="9.22" height="15.33"/><rect class="b7995f2e-c7b5-4005-b540-f8d3fc293259" x="94.22" y="208.95" width="3.12" height="15.33"/><rect class="b7995f2e-c7b5-4005-b540-f8d3fc293259" x="106.55" y="208.95" width="3.12" height="15.33"/><rect class="4bc19912-7e17-4f1e-9b0a-7566ddcfc603" x="125.09" y="228.62" width="5.24" height="15.33"/><rect class="4bc19912-7e17-4f1e-9b0a-7566ddcfc603" x="130.33" y="228.62" width="3.99" height="15.33"/><rect class="4bc19912-7e17-4f1e-9b0a-7566ddcfc603" x="121.99" y="228.62" width="3.12" height="15.33"/><rect class="4bc19912-7e17-4f1e-9b0a-7566ddcfc603" x="134.33" y="228.62" width="3.12" height="15.33"/><rect class="ad760aed-12e7-47e1-a3e9-9e7e32b79029" x="125.09" y="228.62" width="5.24" height="15.33"/><rect class="e41fcfb5-6511-4520-b265-d1af5511a229" x="130.33" y="228.62" width="3.99" height="15.33"/><rect class="b7995f2e-c7b5-4005-b540-f8d3fc293259" x="121.99" y="228.62" width="3.12" height="15.33"/><rect class="b7995f2e-c7b5-4005-b540-f8d3fc293259" x="134.33" y="228.62" width="3.12" height="15.33"/><rect class="4bc19912-7e17-4f1e-9b0a-7566ddcfc603" x="172.09" y="248.28" width="5.24" height="15.33"/><rect class="4bc19912-7e17-4f1e-9b0a-7566ddcfc603" x="177.33" y="248.28" width="3.99" height="15.33"/><rect class="4bc19912-7e17-4f1e-9b0a-7566ddcfc603" x="168.99" y="248.28" width="3.12" height="15.33"/><rect class="4bc19912-7e17-4f1e-9b0a-7566ddcfc603" x="181.33" y="248.28" width="3.12" height="15.33"/><rect class="41074ef0-6aa9-4478-b21f-919c07c68602" x="172.09" y="248.28" width="5.24" height="15.33"/><rect class="4453dc97-3783-4337-84a1-89276e633f3d" x="177.33" y="248.28" width="3.99" height="15.33"/><rect class="b7995f2e-c7b5-4005-b540-f8d3fc293259" x="168.99" y="248.28" width="3.12" height="15.33"/><rect class="b7995f2e-c7b5-4005-b540-f8d3fc293259" x="181.33" y="248.28" width="3.12" height="15.33"/><rect class="4bc19912-7e17-4f1e-9b0a-7566ddcfc603" x="54.88" y="248.28" width="5.24" height="15.33"/><rect class="4bc19912-7e17-4f1e-9b0a-7566ddcfc603" x="60.12" y="248.28" width="3.99" height="15.33"/><rect class="4bc19912-7e17-4f1e-9b0a-7566ddcfc603" x="51.77" y="248.28" width="3.12" height="15.33"/><rect class="4bc19912-7e17-4f1e-9b0a-7566ddcfc603" x="64.11" y="248.28" width="3.12" height="15.33"/><rect class="e41fcfb5-6511-4520-b265-d1af5511a229" x="54.88" y="248.28" width="5.24" height="15.33"/><rect class="ad760aed-12e7-47e1-a3e9-9e7e32b79029" x="60.12" y="248.28" width="3.99" height="15.33"/><rect class="b7995f2e-c7b5-4005-b540-f8d3fc293259" x="51.77" y="248.28" width="3.12" height="15.33"/><rect class="b7995f2e-c7b5-4005-b540-f8d3fc293259" x="64.11" y="248.28" width="3.12" height="15.33"/><rect class="4bc19912-7e17-4f1e-9b0a-7566ddcfc603" x="209.86" y="208.95" width="9.22" height="15.33"/><rect class="4bc19912-7e17-4f1e-9b0a-7566ddcfc603" x="206.76" y="208.95" width="3.12" height="15.33"/><rect class="4bc19912-7e17-4f1e-9b0a-7566ddcfc603" x="219.09" y="208.95" width="3.12" height="15.33"/><rect class="e41fcfb5-6511-4520-b265-d1af5511a229" x="209.86" y="208.95" width="9.22" height="15.33"/><rect class="b7995f2e-c7b5-4005-b540-f8d3fc293259" x="206.76" y="208.95" width="3.12" height="15.33"/><rect class="b7995f2e-c7b5-4005-b540-f8d3fc293259" x="219.09" y="208.95" width="3.12" height="15.33"/><rect class="4bc19912-7e17-4f1e-9b0a-7566ddcfc603" x="78.26" y="208.95" width="9.22" height="15.33"/><rect class="4bc19912-7e17-4f1e-9b0a-7566ddcfc603" x="75.16" y="208.95" width="3.12" height="15.33"/><rect class="4bc19912-7e17-4f1e-9b0a-7566ddcfc603" x="87.49" y="208.95" width="3.12" height="15.33"/><rect class="e41fcfb5-6511-4520-b265-d1af5511a229" x="78.26" y="208.95" width="9.22" height="15.33"/><rect class="b7995f2e-c7b5-4005-b540-f8d3fc293259" x="75.16" y="208.95" width="3.12" height="15.33"/><rect class="b7995f2e-c7b5-4005-b540-f8d3fc293259" x="87.49" y="208.95" width="3.12" height="15.33"/><rect class="4bc19912-7e17-4f1e-9b0a-7566ddcfc603" x="58.72" y="208.95" width="9.22" height="15.33"/><rect class="4bc19912-7e17-4f1e-9b0a-7566ddcfc603" x="55.62" y="208.95" width="3.12" height="15.33"/><rect class="4bc19912-7e17-4f1e-9b0a-7566ddcfc603" x="67.95" y="208.95" width="3.12" height="15.33"/><rect class="e41fcfb5-6511-4520-b265-d1af5511a229" x="58.72" y="208.95" width="9.22" height="15.33"/><rect class="b7995f2e-c7b5-4005-b540-f8d3fc293259" x="55.62" y="208.95" width="3.12" height="15.33"/><rect class="b7995f2e-c7b5-4005-b540-f8d3fc293259" x="67.95" y="208.95" width="3.12" height="15.33"/><rect class="4bc19912-7e17-4f1e-9b0a-7566ddcfc603" x="38.68" y="208.95" width="9.22" height="15.33"/><rect class="4bc19912-7e17-4f1e-9b0a-7566ddcfc603" x="35.58" y="208.95" width="3.12" height="15.33"/><rect class="4bc19912-7e17-4f1e-9b0a-7566ddcfc603" x="47.91" y="208.95" width="3.12" height="15.33"/><rect class="e41fcfb5-6511-4520-b265-d1af5511a229" x="38.68" y="208.95" width="9.22" height="15.33"/><rect class="b7995f2e-c7b5-4005-b540-f8d3fc293259" x="35.58" y="208.95" width="3.12" height="15.33"/><rect class="b7995f2e-c7b5-4005-b540-f8d3fc293259" x="47.91" y="208.95" width="3.12" height="15.33"/><rect class="4bc19912-7e17-4f1e-9b0a-7566ddcfc603" x="154.89" y="208.95" width="9.22" height="15.33"/><rect class="4bc19912-7e17-4f1e-9b0a-7566ddcfc603" x="151.79" y="208.95" width="3.12" height="15.33"/><rect class="4bc19912-7e17-4f1e-9b0a-7566ddcfc603" x="164.13" y="208.95" width="3.12" height="15.33"/><rect class="e41fcfb5-6511-4520-b265-d1af5511a229" x="154.89" y="208.95" width="9.22" height="15.33"/><rect class="b7995f2e-c7b5-4005-b540-f8d3fc293259" x="151.79" y="208.95" width="3.12" height="15.33"/><rect class="b7995f2e-c7b5-4005-b540-f8d3fc293259" x="164.13" y="208.95" width="3.12" height="15.33"/><rect class="4bc19912-7e17-4f1e-9b0a-7566ddcfc603" x="143.78" y="228.62" width="9.22" height="15.33"/><rect class="4bc19912-7e17-4f1e-9b0a-7566ddcfc603" x="140.67" y="228.62" width="3.12" height="15.33"/><rect class="4bc19912-7e17-4f1e-9b0a-7566ddcfc603" x="153.01" y="228.62" width="3.12" height="15.33"/><rect class="e41fcfb5-6511-4520-b265-d1af5511a229" x="143.78" y="228.62" width="9.22" height="15.33"/><rect class="b7995f2e-c7b5-4005-b540-f8d3fc293259" x="140.67" y="228.62" width="3.12" height="15.33"/><rect class="b7995f2e-c7b5-4005-b540-f8d3fc293259" x="153.01" y="228.62" width="3.12" height="15.33"/><rect class="4bc19912-7e17-4f1e-9b0a-7566ddcfc603" x="105.41" y="228.62" width="9.22" height="15.33"/><rect class="4bc19912-7e17-4f1e-9b0a-7566ddcfc603" x="102.31" y="228.62" width="3.12" height="15.33"/><rect class="4bc19912-7e17-4f1e-9b0a-7566ddcfc603" x="114.64" y="228.62" width="3.12" height="15.33"/><rect class="e41fcfb5-6511-4520-b265-d1af5511a229" x="105.41" y="228.62" width="9.22" height="15.33"/><rect class="b7995f2e-c7b5-4005-b540-f8d3fc293259" x="102.31" y="228.62" width="3.12" height="15.33"/><rect class="b7995f2e-c7b5-4005-b540-f8d3fc293259" x="114.64" y="228.62" width="3.12" height="15.33"/><rect class="4bc19912-7e17-4f1e-9b0a-7566ddcfc603" x="85.99" y="228.62" width="9.22" height="15.33"/><rect class="4bc19912-7e17-4f1e-9b0a-7566ddcfc603" x="82.89" y="228.62" width="3.12" height="15.33"/><rect class="4bc19912-7e17-4f1e-9b0a-7566ddcfc603" x="95.22" y="228.62" width="3.12" height="15.33"/><rect class="e41fcfb5-6511-4520-b265-d1af5511a229" x="85.99" y="228.62" width="9.22" height="15.33"/><rect class="b7995f2e-c7b5-4005-b540-f8d3fc293259" x="82.89" y="228.62" width="3.12" height="15.33"/><rect class="b7995f2e-c7b5-4005-b540-f8d3fc293259" x="95.22" y="228.62" width="3.12" height="15.33"/><rect class="4bc19912-7e17-4f1e-9b0a-7566ddcfc603" x="46.66" y="228.62" width="9.22" height="15.33"/><rect class="4bc19912-7e17-4f1e-9b0a-7566ddcfc603" x="43.56" y="228.62" width="3.12" height="15.33"/><rect class="4bc19912-7e17-4f1e-9b0a-7566ddcfc603" x="55.89" y="228.62" width="3.12" height="15.33"/><rect class="e41fcfb5-6511-4520-b265-d1af5511a229" x="46.66" y="228.62" width="9.22" height="15.33"/><rect class="b7995f2e-c7b5-4005-b540-f8d3fc293259" x="43.56" y="228.62" width="3.12" height="15.33"/><rect class="b7995f2e-c7b5-4005-b540-f8d3fc293259" x="55.89" y="228.62" width="3.12" height="15.33"/><rect class="4bc19912-7e17-4f1e-9b0a-7566ddcfc603" x="162.62" y="228.62" width="9.22" height="15.33"/><rect class="4bc19912-7e17-4f1e-9b0a-7566ddcfc603" x="159.52" y="228.62" width="3.12" height="15.33"/><rect class="4bc19912-7e17-4f1e-9b0a-7566ddcfc603" x="171.85" y="228.62" width="3.12" height="15.33"/><rect class="e41fcfb5-6511-4520-b265-d1af5511a229" x="162.62" y="228.62" width="9.22" height="15.33"/><rect class="b7995f2e-c7b5-4005-b540-f8d3fc293259" x="159.52" y="228.62" width="3.12" height="15.33"/><rect class="b7995f2e-c7b5-4005-b540-f8d3fc293259" x="171.85" y="228.62" width="3.12" height="15.33"/><rect class="4bc19912-7e17-4f1e-9b0a-7566ddcfc603" x="66.45" y="228.62" width="9.22" height="15.33"/><rect class="4bc19912-7e17-4f1e-9b0a-7566ddcfc603" x="63.34" y="228.62" width="3.12" height="15.33"/><rect class="4bc19912-7e17-4f1e-9b0a-7566ddcfc603" x="75.68" y="228.62" width="3.12" height="15.33"/><rect class="4453dc97-3783-4337-84a1-89276e633f3d" x="66.45" y="228.62" width="9.22" height="15.33"/><rect class="b7995f2e-c7b5-4005-b540-f8d3fc293259" x="63.34" y="228.62" width="3.12" height="15.33"/><rect class="b7995f2e-c7b5-4005-b540-f8d3fc293259" x="75.68" y="228.62" width="3.12" height="15.33"/><rect class="4bc19912-7e17-4f1e-9b0a-7566ddcfc603" x="181.22" y="228.62" width="9.22" height="15.33"/><rect class="4bc19912-7e17-4f1e-9b0a-7566ddcfc603" x="178.12" y="228.62" width="3.12" height="15.33"/><rect class="4bc19912-7e17-4f1e-9b0a-7566ddcfc603" x="190.45" y="228.62" width="3.12" height="15.33"/><rect class="e41fcfb5-6511-4520-b265-d1af5511a229" x="181.22" y="228.62" width="9.22" height="15.33"/><rect class="b7995f2e-c7b5-4005-b540-f8d3fc293259" x="178.12" y="228.62" width="3.12" height="15.33"/><rect class="b7995f2e-c7b5-4005-b540-f8d3fc293259" x="190.45" y="228.62" width="3.12" height="15.33"/><rect class="4bc19912-7e17-4f1e-9b0a-7566ddcfc603" x="199.7" y="228.62" width="9.22" height="15.33"/><rect class="4bc19912-7e17-4f1e-9b0a-7566ddcfc603" x="196.6" y="228.62" width="3.12" height="15.33"/><rect class="4bc19912-7e17-4f1e-9b0a-7566ddcfc603" x="208.93" y="228.62" width="3.12" height="15.33"/><rect class="e41fcfb5-6511-4520-b265-d1af5511a229" x="199.7" y="228.62" width="9.22" height="15.33"/><rect class="b7995f2e-c7b5-4005-b540-f8d3fc293259" x="196.6" y="228.62" width="3.12" height="15.33"/><rect class="b7995f2e-c7b5-4005-b540-f8d3fc293259" x="208.93" y="228.62" width="3.12" height="15.33"/><rect class="4bc19912-7e17-4f1e-9b0a-7566ddcfc603" x="191.7" y="248.28" width="9.22" height="15.33"/><rect class="4bc19912-7e17-4f1e-9b0a-7566ddcfc603" x="188.6" y="248.28" width="3.12" height="15.33"/><rect class="4bc19912-7e17-4f1e-9b0a-7566ddcfc603" x="200.93" y="248.28" width="3.12" height="15.33"/><rect class="e41fcfb5-6511-4520-b265-d1af5511a229" x="191.7" y="248.28" width="9.22" height="15.33"/><rect class="b7995f2e-c7b5-4005-b540-f8d3fc293259" x="188.6" y="248.28" width="3.12" height="15.33"/><rect class="b7995f2e-c7b5-4005-b540-f8d3fc293259" x="200.93" y="248.28" width="3.12" height="15.33"/><rect class="4bc19912-7e17-4f1e-9b0a-7566ddcfc603" x="152.41" y="248.28" width="9.22" height="15.33"/><rect class="4bc19912-7e17-4f1e-9b0a-7566ddcfc603" x="149.31" y="248.28" width="3.12" height="15.33"/><rect class="4bc19912-7e17-4f1e-9b0a-7566ddcfc603" x="161.65" y="248.28" width="3.12" height="15.33"/><rect class="e41fcfb5-6511-4520-b265-d1af5511a229" x="152.41" y="248.28" width="9.22" height="15.33"/><rect class="b7995f2e-c7b5-4005-b540-f8d3fc293259" x="149.31" y="248.28" width="3.12" height="15.33"/><rect class="b7995f2e-c7b5-4005-b540-f8d3fc293259" x="161.65" y="248.28" width="3.12" height="15.33"/><rect class="4bc19912-7e17-4f1e-9b0a-7566ddcfc603" x="133.08" y="248.28" width="9.22" height="15.33"/><rect class="4bc19912-7e17-4f1e-9b0a-7566ddcfc603" x="129.98" y="248.28" width="3.12" height="15.33"/><rect class="4bc19912-7e17-4f1e-9b0a-7566ddcfc603" x="142.31" y="248.28" width="3.12" height="15.33"/><rect class="e41fcfb5-6511-4520-b265-d1af5511a229" x="133.08" y="248.28" width="9.22" height="15.33"/><rect class="b7995f2e-c7b5-4005-b540-f8d3fc293259" x="129.98" y="248.28" width="3.12" height="15.33"/><rect class="b7995f2e-c7b5-4005-b540-f8d3fc293259" x="142.31" y="248.28" width="3.12" height="15.33"/><rect class="4bc19912-7e17-4f1e-9b0a-7566ddcfc603" x="113.14" y="248.28" width="9.22" height="15.33"/><rect class="4bc19912-7e17-4f1e-9b0a-7566ddcfc603" x="110.03" y="248.28" width="3.12" height="15.33"/><rect class="4bc19912-7e17-4f1e-9b0a-7566ddcfc603" x="122.37" y="248.28" width="3.12" height="15.33"/><rect class="e41fcfb5-6511-4520-b265-d1af5511a229" x="113.14" y="248.28" width="9.22" height="15.33"/><rect class="b7995f2e-c7b5-4005-b540-f8d3fc293259" x="110.03" y="248.28" width="3.12" height="15.33"/><rect class="b7995f2e-c7b5-4005-b540-f8d3fc293259" x="122.37" y="248.28" width="3.12" height="15.33"/><rect class="4bc19912-7e17-4f1e-9b0a-7566ddcfc603" x="93.71" y="248.28" width="9.22" height="15.33"/><rect class="4bc19912-7e17-4f1e-9b0a-7566ddcfc603" x="90.61" y="248.28" width="3.12" height="15.33"/><rect class="4bc19912-7e17-4f1e-9b0a-7566ddcfc603" x="102.95" y="248.28" width="3.12" height="15.33"/><rect class="e41fcfb5-6511-4520-b265-d1af5511a229" x="93.71" y="248.28" width="9.22" height="15.33"/><rect class="b7995f2e-c7b5-4005-b540-f8d3fc293259" x="90.61" y="248.28" width="3.12" height="15.33"/><rect class="b7995f2e-c7b5-4005-b540-f8d3fc293259" x="102.95" y="248.28" width="3.12" height="15.33"/><rect class="4bc19912-7e17-4f1e-9b0a-7566ddcfc603" x="74.17" y="248.28" width="9.22" height="15.33"/><rect class="4bc19912-7e17-4f1e-9b0a-7566ddcfc603" x="71.07" y="248.28" width="3.12" height="15.33"/><rect class="4bc19912-7e17-4f1e-9b0a-7566ddcfc603" x="83.4" y="248.28" width="3.12" height="15.33"/><rect class="e41fcfb5-6511-4520-b265-d1af5511a229" x="74.17" y="248.28" width="9.22" height="15.33"/><rect class="b7995f2e-c7b5-4005-b540-f8d3fc293259" x="71.07" y="248.28" width="3.12" height="15.33"/><rect class="b7995f2e-c7b5-4005-b540-f8d3fc293259" x="83.4" y="248.28" width="3.12" height="15.33"/><rect class="4bc19912-7e17-4f1e-9b0a-7566ddcfc603" x="35.47" y="248.28" width="9.22" height="15.33"/><rect class="4bc19912-7e17-4f1e-9b0a-7566ddcfc603" x="32.37" y="248.28" width="3.12" height="15.33"/><rect class="4bc19912-7e17-4f1e-9b0a-7566ddcfc603" x="44.71" y="248.28" width="3.12" height="15.33"/><rect class="e41fcfb5-6511-4520-b265-d1af5511a229" x="35.47" y="248.28" width="9.22" height="15.33"/><rect class="b7995f2e-c7b5-4005-b540-f8d3fc293259" x="32.37" y="248.28" width="3.12" height="15.33"/><rect class="b7995f2e-c7b5-4005-b540-f8d3fc293259" x="44.71" y="248.28" width="3.12" height="15.33"/><rect class="4bc19912-7e17-4f1e-9b0a-7566ddcfc603" x="210.86" y="248.28" width="9.22" height="15.33"/><rect class="4bc19912-7e17-4f1e-9b0a-7566ddcfc603" x="207.76" y="248.28" width="3.12" height="15.33"/><rect class="4bc19912-7e17-4f1e-9b0a-7566ddcfc603" x="220.09" y="248.28" width="3.12" height="15.33"/><rect class="ad760aed-12e7-47e1-a3e9-9e7e32b79029" x="210.86" y="248.28" width="9.22" height="15.33"/><rect class="b7995f2e-c7b5-4005-b540-f8d3fc293259" x="207.76" y="248.28" width="3.12" height="15.33"/><rect class="b7995f2e-c7b5-4005-b540-f8d3fc293259" x="220.09" y="248.28" width="3.12" height="15.33"/><rect class="4bc19912-7e17-4f1e-9b0a-7566ddcfc603" x="191.73" y="208.95" width="8.5" height="15.33"/><rect class="4bc19912-7e17-4f1e-9b0a-7566ddcfc603" x="188.87" y="208.95" width="2.87" height="15.33"/><rect class="4bc19912-7e17-4f1e-9b0a-7566ddcfc603" x="200.24" y="208.95" width="2.87" height="15.33"/><rect class="ad760aed-12e7-47e1-a3e9-9e7e32b79029" x="191.73" y="208.95" width="8.5" height="15.33"/><rect class="b7995f2e-c7b5-4005-b540-f8d3fc293259" x="188.87" y="208.95" width="2.87" height="15.33"/><rect class="b7995f2e-c7b5-4005-b540-f8d3fc293259" x="200.24" y="208.95" width="2.87" height="15.33"/><rect class="4bc19912-7e17-4f1e-9b0a-7566ddcfc603" x="116.74" y="208.95" width="8.5" height="15.33"/><rect class="4bc19912-7e17-4f1e-9b0a-7566ddcfc603" x="113.88" y="208.95" width="2.87" height="15.33"/><rect class="4bc19912-7e17-4f1e-9b0a-7566ddcfc603" x="125.25" y="208.95" width="2.87" height="15.33"/><rect class="ad760aed-12e7-47e1-a3e9-9e7e32b79029" x="116.74" y="208.95" width="8.5" height="15.33"/><rect class="b7995f2e-c7b5-4005-b540-f8d3fc293259" x="113.88" y="208.95" width="2.87" height="15.33"/><rect class="b7995f2e-c7b5-4005-b540-f8d3fc293259" x="125.25" y="208.95" width="2.87" height="15.33"/><rect class="4bc19912-7e17-4f1e-9b0a-7566ddcfc603" x="174.03" y="208.95" width="8.18" height="15.33"/><rect class="4bc19912-7e17-4f1e-9b0a-7566ddcfc603" x="171.28" y="208.95" width="2.76" height="15.33"/><rect class="4bc19912-7e17-4f1e-9b0a-7566ddcfc603" x="182.22" y="208.95" width="2.76" height="15.33"/><rect class="e41fcfb5-6511-4520-b265-d1af5511a229" x="174.03" y="208.95" width="8.18" height="15.33"/><rect class="b7995f2e-c7b5-4005-b540-f8d3fc293259" x="171.28" y="208.95" width="2.76" height="15.33"/><rect class="b7995f2e-c7b5-4005-b540-f8d3fc293259" x="182.22" y="208.95" width="2.76" height="15.33"/><rect class="4bc19912-7e17-4f1e-9b0a-7566ddcfc603" x="208.66" y="152.91" width="4.14" height="15.33"/><rect class="4bc19912-7e17-4f1e-9b0a-7566ddcfc603" x="205.87" y="152.91" width="2.8" height="15.33"/><rect class="ad760aed-12e7-47e1-a3e9-9e7e32b79029" x="208.66" y="152.91" width="4.14" height="15.33"/><rect class="e41fcfb5-6511-4520-b265-d1af5511a229" x="205.87" y="152.91" width="2.8" height="15.33"/><rect class="4bc19912-7e17-4f1e-9b0a-7566ddcfc603" x="34.01" y="152.91" width="4.14" height="15.33"/><rect class="4bc19912-7e17-4f1e-9b0a-7566ddcfc603" x="31.22" y="152.91" width="2.8" height="15.33"/><rect class="ad760aed-12e7-47e1-a3e9-9e7e32b79029" x="34.01" y="152.91" width="4.14" height="15.33"/><rect class="e41fcfb5-6511-4520-b265-d1af5511a229" x="31.22" y="152.91" width="2.8" height="15.33"/><rect class="4bc19912-7e17-4f1e-9b0a-7566ddcfc603" x="223.5" y="134.49" width="4.14" height="15.33"/><rect class="4bc19912-7e17-4f1e-9b0a-7566ddcfc603" x="220.71" y="134.49" width="2.8" height="15.33"/><rect class="ad760aed-12e7-47e1-a3e9-9e7e32b79029" x="223.5" y="134.49" width="4.14" height="15.33"/><rect class="e41fcfb5-6511-4520-b265-d1af5511a229" x="220.71" y="134.49" width="2.8" height="15.33"/><rect class="4bc19912-7e17-4f1e-9b0a-7566ddcfc603" x="44.18" y="152.91" width="4.14" height="15.33"/><rect class="4bc19912-7e17-4f1e-9b0a-7566ddcfc603" x="41.39" y="152.91" width="2.8" height="15.33"/><rect class="41074ef0-6aa9-4478-b21f-919c07c68602" x="44.18" y="152.91" width="4.14" height="15.33"/><rect class="ef84ce43-347a-4679-bc43-5633a3433855" x="41.39" y="152.91" width="2.8" height="15.33"/><rect class="4bc19912-7e17-4f1e-9b0a-7566ddcfc603" x="47.78" y="21.65" width="47.25" height="15.33"/><rect class="4bc19912-7e17-4f1e-9b0a-7566ddcfc603" x="95.03" y="21.65" width="41.26" height="15.33"/><rect class="4bc19912-7e17-4f1e-9b0a-7566ddcfc603" x="136.26" y="21.65" width="40.17" height="15.33"/><rect class="e41fcfb5-6511-4520-b265-d1af5511a229" x="47.78" y="21.65" width="47.25" height="15.33"/><rect class="ad760aed-12e7-47e1-a3e9-9e7e32b79029" x="95.03" y="21.65" width="41.26" height="15.33"/><rect class="e41fcfb5-6511-4520-b265-d1af5511a229" x="136.26" y="21.65" width="40.17" height="15.33"/><rect class="4bc19912-7e17-4f1e-9b0a-7566ddcfc603" x="56.99" y="77.75" width="47.25" height="15.33"/><rect class="4bc19912-7e17-4f1e-9b0a-7566ddcfc603" x="56.65" y="77.75" width="13.11" height="15.33"/><rect class="4bc19912-7e17-4f1e-9b0a-7566ddcfc603" x="172.83" y="77.75" width="13.11" height="15.33"/><rect class="4bc19912-7e17-4f1e-9b0a-7566ddcfc603" x="186.17" y="77.75" width="17.68" height="15.33"/><rect class="4bc19912-7e17-4f1e-9b0a-7566ddcfc603" x="104.24" y="77.75" width="41.26" height="15.33"/><rect class="4bc19912-7e17-4f1e-9b0a-7566ddcfc603" x="145.46" y="77.75" width="27.41" height="15.33"/><rect class="e41fcfb5-6511-4520-b265-d1af5511a229" x="56.99" y="77.75" width="47.25" height="15.33"/><rect class="41074ef0-6aa9-4478-b21f-919c07c68602" x="56.65" y="77.75" width="13.11" height="15.33"/><rect class="41074ef0-6aa9-4478-b21f-919c07c68602" x="172.83" y="77.75" width="13.11" height="15.33"/><rect class="4453dc97-3783-4337-84a1-89276e633f3d" x="186.17" y="77.75" width="17.68" height="15.33"/><rect class="ad760aed-12e7-47e1-a3e9-9e7e32b79029" x="104.24" y="77.75" width="41.26" height="15.33"/><rect class="e41fcfb5-6511-4520-b265-d1af5511a229" x="145.46" y="77.75" width="27.41" height="15.33"/><rect class="41074ef0-6aa9-4478-b21f-919c07c68602" x="176.17" y="21.4" width="17.78" height="15.83"/><path class="eaa9a9ba-baa3-4948-9f13-c73ba335ec9d" d="M193.7,21.65V37H176.42V21.65H193.7m.5-.5H175.92V37.48H194.2V21.15Z"/><rect class="4453dc97-3783-4337-84a1-89276e633f3d" x="193.45" y="21.4" width="46.53" height="15.83"/><path class="eaa9a9ba-baa3-4948-9f13-c73ba335ec9d" d="M239.73,21.65V37h-46V21.65h46m.5-.5h-47V37.48h47V21.15Z"/></g><g id="7209af10-a786-48f6-9f80-48d83e6d49c6" data-name="text-annotations"><path class="eaa9a9ba-baa3-4948-9f13-c73ba335ec9d" d="M204.24,13.29v2.95h-1.06V8.35h2.33a4.36,4.36,0,0,1,1.3.17,2.49,2.49,0,0,1,.92.49,2,2,0,0,1,.54.77,2.71,2.71,0,0,1,.18,1,2.57,2.57,0,0,1-.19,1,2.17,2.17,0,0,1-.56.79,2.61,2.61,0,0,1-.92.51,4,4,0,0,1-1.26.18Zm0-.85h1.26a2.46,2.46,0,0,0,.81-.12,1.64,1.64,0,0,0,.59-.34,1.4,1.4,0,0,0,.36-.52,1.77,1.77,0,0,0,.12-.67,1.51,1.51,0,0,0-.46-1.18,2,2,0,0,0-1.41-.42h-1.26Z"/><path class="eaa9a9ba-baa3-4948-9f13-c73ba335ec9d" d="M211.73,10.58a2.86,2.86,0,0,1,1.1.2,2.33,2.33,0,0,1,.84.58,2.56,2.56,0,0,1,.53.9,3.93,3.93,0,0,1,0,2.37,2.56,2.56,0,0,1-.53.9,2.3,2.3,0,0,1-.84.58,3.13,3.13,0,0,1-2.21,0,2.31,2.31,0,0,1-.84-.58,2.57,2.57,0,0,1-.53-.9,3.87,3.87,0,0,1,0-2.37,2.57,2.57,0,0,1,.53-.9,2.34,2.34,0,0,1,.84-.58A2.86,2.86,0,0,1,211.73,10.58Zm0,5A1.43,1.43,0,0,0,213,15a2.56,2.56,0,0,0,.41-1.54A2.58,2.58,0,0,0,213,11.9a1.43,1.43,0,0,0-1.23-.56,1.71,1.71,0,0,0-.73.14,1.36,1.36,0,0,0-.51.41,1.84,1.84,0,0,0-.31.66,3.92,3.92,0,0,0,0,1.77,1.81,1.81,0,0,0,.31.66,1.36,1.36,0,0,0,.51.41A1.71,1.71,0,0,0,211.73,15.55Z"/><path class="eaa9a9ba-baa3-4948-9f13-c73ba335ec9d" d="M216.68,8.13v8.1h-1V8.13Z"/><path class="eaa9a9ba-baa3-4948-9f13-c73ba335ec9d" d="M220,17.88a.51.51,0,0,1-.12.18.34.34,0,0,1-.23.07H219l1-2.21-2.3-5.25h.85a.29.29,0,0,1,.2.06.41.41,0,0,1,.1.14l1.49,3.51a2.38,2.38,0,0,1,.08.24c0,.08,0,.16.06.25l.08-.25.09-.25,1.45-3.5a.31.31,0,0,1,.11-.15.29.29,0,0,1,.17-.06h.78Z"/><path class="eaa9a9ba-baa3-4948-9f13-c73ba335ec9d" d="M230.22,16.24h-.82a.36.36,0,0,1-.23-.07A.44.44,0,0,1,229,16l-.74-1.9h-3.54L224,16a.42.42,0,0,1-.13.18.35.35,0,0,1-.23.08h-.82L226,8.35h1.08Zm-5.16-2.93H228l-1.24-3.21a5.82,5.82,0,0,1-.24-.74l-.12.42c0,.13-.08.24-.11.33Z"/><path class="eaa9a9ba-baa3-4948-9f13-c73ba335ec9d" d="M104.66,9.77a.24.24,0,0,1,.18.08l.51.56a3.25,3.25,0,0,1-1.19.9,4.09,4.09,0,0,1-1.68.32,4,4,0,0,1-1.57-.3,3.45,3.45,0,0,1-1.2-.84A3.7,3.7,0,0,1,99,9.21a4.8,4.8,0,0,1-.27-1.63A4.58,4.58,0,0,1,99,5.94a3.75,3.75,0,0,1,.8-1.28A3.58,3.58,0,0,1,101,3.83a4.09,4.09,0,0,1,1.58-.3,3.87,3.87,0,0,1,1.52.28,3.77,3.77,0,0,1,1.14.74l-.42.6a.47.47,0,0,1-.1.1.28.28,0,0,1-.17,0,.44.44,0,0,1-.25-.1L103.94,5a2.64,2.64,0,0,0-1.36-.33,2.67,2.67,0,0,0-1,.2,2.25,2.25,0,0,0-.81.58,2.69,2.69,0,0,0-.53.92A3.76,3.76,0,0,0,100,7.58a3.65,3.65,0,0,0,.2,1.25,2.71,2.71,0,0,0,.54.92,2.34,2.34,0,0,0,.81.57,2.56,2.56,0,0,0,1,.2,4.37,4.37,0,0,0,.59,0,2.35,2.35,0,0,0,.48-.12,2.17,2.17,0,0,0,.42-.2,2.63,2.63,0,0,0,.39-.3A.33.33,0,0,1,104.66,9.77Z"/><path class="eaa9a9ba-baa3-4948-9f13-c73ba335ec9d" d="M113.42,7.58a4.37,4.37,0,0,1-.29,1.61,3.55,3.55,0,0,1-2.05,2.06,4.37,4.37,0,0,1-1.62.29h-3V3.62h3a4.37,4.37,0,0,1,1.62.29A3.55,3.55,0,0,1,113.13,6,4.37,4.37,0,0,1,113.42,7.58Zm-1.31,0a3.81,3.81,0,0,0-.18-1.23,2.54,2.54,0,0,0-.53-.92,2.3,2.3,0,0,0-.83-.57,2.88,2.88,0,0,0-1.1-.2h-1.7V10.5h1.7a2.92,2.92,0,0,0,1.1-.2,2.27,2.27,0,0,0,.83-.57,2.57,2.57,0,0,0,.53-.92A3.8,3.8,0,0,0,112.11,7.58Z"/><path class="eaa9a9ba-baa3-4948-9f13-c73ba335ec9d" d="M119,5a.49.49,0,0,1-.13.15.28.28,0,0,1-.17,0,.43.43,0,0,1-.23-.09l-.32-.2a2.74,2.74,0,0,0-.45-.2,1.88,1.88,0,0,0-.62-.09,1.85,1.85,0,0,0-.58.08,1.2,1.2,0,0,0-.42.23,1,1,0,0,0-.25.35,1.09,1.09,0,0,0-.09.44.78.78,0,0,0,.16.5,1.35,1.35,0,0,0,.42.34,3.45,3.45,0,0,0,.6.25l.69.23q.35.12.68.27a2.33,2.33,0,0,1,.6.39,1.8,1.8,0,0,1,.42.58,2,2,0,0,1,.16.83,2.68,2.68,0,0,1-.18,1,2.33,2.33,0,0,1-.53.81,2.43,2.43,0,0,1-.85.54,3.12,3.12,0,0,1-1.15.2,3.64,3.64,0,0,1-.74-.07,3.83,3.83,0,0,1-.69-.21,3.44,3.44,0,0,1-.61-.33,3,3,0,0,1-.51-.43l.37-.62a.36.36,0,0,1,.13-.12.34.34,0,0,1,.17,0,.48.48,0,0,1,.28.12l.37.26a2.86,2.86,0,0,0,.53.26,2.06,2.06,0,0,0,.74.12,1.57,1.57,0,0,0,1.08-.34,1.2,1.2,0,0,0,.38-.94.88.88,0,0,0-.16-.55,1.3,1.3,0,0,0-.42-.35,3,3,0,0,0-.6-.24l-.68-.21a6.7,6.7,0,0,1-.68-.26,2.16,2.16,0,0,1-.6-.4,1.83,1.83,0,0,1-.42-.6,2.22,2.22,0,0,1-.16-.9,2.14,2.14,0,0,1,.66-1.54,2.4,2.4,0,0,1,.79-.5,2.91,2.91,0,0,1,1.08-.19,3.52,3.52,0,0,1,1.25.21,2.86,2.86,0,0,1,1,.61Z"/><path class="eaa9a9ba-baa3-4948-9f13-c73ba335ec9d" d="M17.55,5.61a.47.47,0,0,1-.13.34.61.61,0,0,1-.45.13H14.5l-.36,2.07A5.43,5.43,0,0,1,15.28,8a3,3,0,0,1,1.09.18,2.24,2.24,0,0,1,.79.5,2.08,2.08,0,0,1,.48.75,2.68,2.68,0,0,1,.16.95,2.82,2.82,0,0,1-.22,1.13,2.6,2.6,0,0,1-.6.87,2.64,2.64,0,0,1-.9.55,3.17,3.17,0,0,1-1.12.19,3.13,3.13,0,0,1-.67-.07,3.32,3.32,0,0,1-.59-.18,3.54,3.54,0,0,1-.51-.26,2.83,2.83,0,0,1-.42-.31l.3-.42a.31.31,0,0,1,.26-.14.5.5,0,0,1,.25.09l.34.19a2.88,2.88,0,0,0,.46.19,2.09,2.09,0,0,0,.63.09,2,2,0,0,0,.74-.13,1.58,1.58,0,0,0,.56-.38,1.69,1.69,0,0,0,.36-.59,2.19,2.19,0,0,0,.13-.76,2,2,0,0,0-.11-.67,1.31,1.31,0,0,0-.33-.51,1.48,1.48,0,0,0-.54-.32,2.26,2.26,0,0,0-.76-.12,4,4,0,0,0-.62,0A4.25,4.25,0,0,0,13.8,9l-.62-.18.64-3.69h3.73Z"/><path class="eaa9a9ba-baa3-4948-9f13-c73ba335ec9d" d="M20,4.76a2.1,2.1,0,0,1,.23.53,2,2,0,0,1,.07.53,2,2,0,0,1-.24,1,3,3,0,0,1-.68.83l-.3-.19a.14.14,0,0,1-.06-.06.18.18,0,0,1,0-.07.18.18,0,0,1,.05-.13l.17-.23a2.29,2.29,0,0,0,.15-.26,1.48,1.48,0,0,0,.1-.28,1.26,1.26,0,0,0,0-.31,1.33,1.33,0,0,0-.05-.36,1.63,1.63,0,0,0-.18-.4.23.23,0,0,1,0-.12A.2.2,0,0,1,19.44,5Z"/><path class="eaa9a9ba-baa3-4948-9f13-c73ba335ec9d" d="M27.61,8.48l-.09.09a.21.21,0,0,1-.13,0,.31.31,0,0,1-.18-.07L27,8.38a2,2,0,0,0-.36-.15,1.91,1.91,0,0,0-1.24.08,1.4,1.4,0,0,0-.53.42,1.93,1.93,0,0,0-.32.67,3.31,3.31,0,0,0-.11.87,3.19,3.19,0,0,0,.12.9,1.94,1.94,0,0,0,.32.66,1.39,1.39,0,0,0,.51.41,1.57,1.57,0,0,0,.67.14,1.73,1.73,0,0,0,.59-.08A1.81,1.81,0,0,0,27,12.1l.25-.19a.31.31,0,0,1,.2-.08.21.21,0,0,1,.19.09l.28.36a2.12,2.12,0,0,1-.91.65,3.21,3.21,0,0,1-1.15.21,2.44,2.44,0,0,1-1-.19,2.2,2.2,0,0,1-.78-.56,2.64,2.64,0,0,1-.52-.9,3.63,3.63,0,0,1-.19-1.22,3.68,3.68,0,0,1,.17-1.15,2.6,2.6,0,0,1,.51-.91,2.29,2.29,0,0,1,.82-.6A2.77,2.77,0,0,1,26,7.4a2.65,2.65,0,0,1,1,.19,2.48,2.48,0,0,1,.8.54Z"/><path class="eaa9a9ba-baa3-4948-9f13-c73ba335ec9d" d="M33,13.06h-.43a.52.52,0,0,1-.23,0,.24.24,0,0,1-.12-.19l-.11-.52q-.22.2-.43.35a2.45,2.45,0,0,1-.44.26,2.24,2.24,0,0,1-.49.16,2.82,2.82,0,0,1-.58.05,2,2,0,0,1-.61-.09,1.37,1.37,0,0,1-.49-.27,1.3,1.3,0,0,1-.33-.46,1.62,1.62,0,0,1-.12-.66,1.23,1.23,0,0,1,.18-.64,1.6,1.6,0,0,1,.59-.54,3.8,3.8,0,0,1,1.06-.39,7.21,7.21,0,0,1,1.6-.15V9.5a1.52,1.52,0,0,0-.28-1A1,1,0,0,0,31,8.18a1.74,1.74,0,0,0-.6.09,2.32,2.32,0,0,0-.42.2l-.31.2a.44.44,0,0,1-.26.09.29.29,0,0,1-.17-.05.39.39,0,0,1-.12-.13l-.18-.31a3.2,3.2,0,0,1,1-.67,3.08,3.08,0,0,1,1.18-.22,2.11,2.11,0,0,1,.83.15,1.7,1.7,0,0,1,.61.43,1.81,1.81,0,0,1,.37.67,2.75,2.75,0,0,1,.13.86Zm-2.54-.6a2,2,0,0,0,.47-.05,1.82,1.82,0,0,0,.4-.15,2.14,2.14,0,0,0,.36-.23,3.13,3.13,0,0,0,.34-.31V10.56a6.57,6.57,0,0,0-1.15.09,3.19,3.19,0,0,0-.77.22,1.07,1.07,0,0,0-.43.33.71.71,0,0,0-.13.42.93.93,0,0,0,.07.38.71.71,0,0,0,.19.26.75.75,0,0,0,.29.15A1.3,1.3,0,0,0,30.5,12.46Z"/><path class="eaa9a9ba-baa3-4948-9f13-c73ba335ec9d" d="M34.52,14.94V7.49h.58a.25.25,0,0,1,.26.2l.08.66a3,3,0,0,1,.82-.7,2.09,2.09,0,0,1,1.06-.26,2,2,0,0,1,.87.18,1.8,1.8,0,0,1,.67.54,2.62,2.62,0,0,1,.42.89,4.56,4.56,0,0,1,.15,1.23,3.83,3.83,0,0,1-.17,1.15,2.78,2.78,0,0,1-.47.92,2.21,2.21,0,0,1-.76.61,2.24,2.24,0,0,1-1,.22,2.08,2.08,0,0,1-.88-.17,2,2,0,0,1-.65-.48v2.46ZM37,8.18a1.58,1.58,0,0,0-.84.22A2.41,2.41,0,0,0,35.5,9v2.7a1.57,1.57,0,0,0,.59.51,1.69,1.69,0,0,0,.72.15A1.4,1.4,0,0,0,38,11.82a2.6,2.6,0,0,0,.42-1.58,4,4,0,0,0-.1-.94A1.84,1.84,0,0,0,38,8.66a1.09,1.09,0,0,0-.45-.37A1.49,1.49,0,0,0,37,8.18Z"/><polygon class="eaa9a9ba-baa3-4948-9f13-c73ba335ec9d" points="28.39 15.61 25.67 20.32 22.95 15.61 28.39 15.61"/></g><g id="b7b4b08f-a52c-42ce-9801-f1b9b00eb809" data-name="text-ends"><path class="eaa9a9ba-baa3-4948-9f13-c73ba335ec9d" d="M12.56,24.73a.6.6,0,0,1-.17.44.78.78,0,0,1-.57.17H8.68L8.21,28a7,7,0,0,1,1.45-.17A3.83,3.83,0,0,1,11,28a2.86,2.86,0,0,1,1,.64,2.65,2.65,0,0,1,.61,1,3.42,3.42,0,0,1,.21,1.2,3.58,3.58,0,0,1-.28,1.44,3.31,3.31,0,0,1-.77,1.1,3.36,3.36,0,0,1-1.14.7,4,4,0,0,1-1.42.24,4,4,0,0,1-.85-.09A4.25,4.25,0,0,1,7.65,34,4.54,4.54,0,0,1,7,33.67a3.84,3.84,0,0,1-.53-.4l.38-.53a.39.39,0,0,1,.34-.18.63.63,0,0,1,.31.11l.43.24a3.63,3.63,0,0,0,.59.24,2.67,2.67,0,0,0,.81.11,2.53,2.53,0,0,0,.95-.17,2,2,0,0,0,.72-.48,2.15,2.15,0,0,0,.46-.75,2.78,2.78,0,0,0,.16-1,2.48,2.48,0,0,0-.14-.85,1.66,1.66,0,0,0-.41-.64,1.9,1.9,0,0,0-.69-.41,2.88,2.88,0,0,0-1-.15,5.12,5.12,0,0,0-.78.06,5.48,5.48,0,0,0-.84.2L7,28.88l.81-4.69h4.75Z"/><path class="eaa9a9ba-baa3-4948-9f13-c73ba335ec9d" d="M15.73,23.66a2.62,2.62,0,0,1,.29.67,2.56,2.56,0,0,1,.09.67,2.53,2.53,0,0,1-.31,1.21,3.81,3.81,0,0,1-.87,1.06L14.56,27a.18.18,0,0,1-.07-.08.22.22,0,0,1,0-.08.23.23,0,0,1,.07-.17,3.43,3.43,0,0,0,.22-.29,2.91,2.91,0,0,0,.19-.33,1.83,1.83,0,0,0,.13-.36,1.56,1.56,0,0,0,0-.4,1.73,1.73,0,0,0-.07-.46,2.12,2.12,0,0,0-.23-.5.28.28,0,0,1,0-.15A.26.26,0,0,1,15,24Z"/><path class="eaa9a9ba-baa3-4948-9f13-c73ba335ec9d" d="M247.38,24.07a3.65,3.65,0,0,1,1.18.18,2.74,2.74,0,0,1,.93.52,2.33,2.33,0,0,1,.61.81,2.52,2.52,0,0,1,.22,1.06,2.72,2.72,0,0,1-.12.85,2.06,2.06,0,0,1-.35.66,2.11,2.11,0,0,1-.55.48,3.05,3.05,0,0,1-.72.31,2.72,2.72,0,0,1,1.47.87,2.34,2.34,0,0,1,.49,1.53,2.87,2.87,0,0,1-.26,1.25,2.8,2.8,0,0,1-.72.94,3.2,3.2,0,0,1-1.06.59,4,4,0,0,1-1.3.21,4.14,4.14,0,0,1-1.37-.2,2.84,2.84,0,0,1-1-.55,2.91,2.91,0,0,1-.64-.83,6.28,6.28,0,0,1-.43-1l.53-.22a.74.74,0,0,1,.29-.06.51.51,0,0,1,.25.06.38.38,0,0,1,.16.19l0,.06,0,.07.24.46a2,2,0,0,0,.38.48,2.05,2.05,0,0,0,.59.38,2.2,2.2,0,0,0,.88.15,2.3,2.3,0,0,0,.92-.17,2,2,0,0,0,.66-.44,1.87,1.87,0,0,0,.4-.61,1.79,1.79,0,0,0,.13-.67,2.41,2.41,0,0,0-.11-.74,1.28,1.28,0,0,0-.39-.58,2,2,0,0,0-.78-.38,4.89,4.89,0,0,0-1.29-.14v-.91a3.9,3.9,0,0,0,1.09-.13,2.12,2.12,0,0,0,.74-.36,1.35,1.35,0,0,0,.42-.55,1.91,1.91,0,0,0,.13-.71,1.93,1.93,0,0,0-.14-.76,1.46,1.46,0,0,0-.37-.53,1.56,1.56,0,0,0-.56-.31,2.27,2.27,0,0,0-.7-.1,2.12,2.12,0,0,0-.7.11,1.88,1.88,0,0,0-.57.31,1.81,1.81,0,0,0-.42.48,2.27,2.27,0,0,0-.25.6.55.55,0,0,1-.17.29.44.44,0,0,1-.29.09h-.16l-.65-.11a3.69,3.69,0,0,1,.38-1.21,2.91,2.91,0,0,1,.71-.89,3,3,0,0,1,1-.54A3.78,3.78,0,0,1,247.38,24.07Z"/><path class="eaa9a9ba-baa3-4948-9f13-c73ba335ec9d" d="M253.06,23.66a2.62,2.62,0,0,1,.29.67,2.56,2.56,0,0,1,.09.67,2.53,2.53,0,0,1-.31,1.21,3.81,3.81,0,0,1-.87,1.06l-.38-.24a.18.18,0,0,1-.07-.08.22.22,0,0,1,0-.08.23.23,0,0,1,.07-.17,3.43,3.43,0,0,0,.22-.29,2.91,2.91,0,0,0,.19-.33,1.83,1.83,0,0,0,.13-.36,1.56,1.56,0,0,0,0-.4,1.73,1.73,0,0,0-.07-.46,2.12,2.12,0,0,0-.23-.5.28.28,0,0,1,0-.15.26.26,0,0,1,.19-.25Z"/></g><g id="7378a46a-44d2-48d5-bbfb-d33d7087acc3" data-name="text-titles"><path class="eaa9a9ba-baa3-4948-9f13-c73ba335ec9d" d="M85.59,53.42V47.26h.91a.36.36,0,0,1,.38.27L87,48a3.41,3.41,0,0,1,.34-.33,2.2,2.2,0,0,1,.38-.26,2.07,2.07,0,0,1,.43-.17,1.93,1.93,0,0,1,.51-.06,1.44,1.44,0,0,1,1,.31,1.89,1.89,0,0,1,.56.84,1.86,1.86,0,0,1,.36-.52,2,2,0,0,1,.47-.36,2.19,2.19,0,0,1,.55-.2,2.65,2.65,0,0,1,.58-.07,2.46,2.46,0,0,1,.91.16,1.75,1.75,0,0,1,.67.46,2,2,0,0,1,.41.73,3.2,3.2,0,0,1,.14,1v3.92H92.76V49.5a1.32,1.32,0,0,0-.26-.89,1,1,0,0,0-.76-.3,1.13,1.13,0,0,0-.42.08,1,1,0,0,0-.34.23,1,1,0,0,0-.23.37,1.45,1.45,0,0,0-.08.51v3.92H89.17V49.5a1.34,1.34,0,0,0-.25-.9.93.93,0,0,0-.74-.28,1.18,1.18,0,0,0-.6.16,2,2,0,0,0-.52.44v4.51Z"/><path class="eaa9a9ba-baa3-4948-9f13-c73ba335ec9d" d="M97.45,50v3.39H95.83V44.74h2.65a5.55,5.55,0,0,1,1.52.18,2.9,2.9,0,0,1,1,.51,2,2,0,0,1,.59.79,2.77,2.77,0,0,1,.06,1.84,2.39,2.39,0,0,1-.37.71,2.51,2.51,0,0,1-.6.56,3.13,3.13,0,0,1-.81.38,1.61,1.61,0,0,1,.53.5l2.17,3.2h-1.45a.71.71,0,0,1-.36-.08.72.72,0,0,1-.25-.24l-1.82-2.78a.65.65,0,0,0-.22-.22.79.79,0,0,0-.36-.07Zm0-1.16h1a2.5,2.5,0,0,0,.8-.11,1.53,1.53,0,0,0,.56-.31,1.27,1.27,0,0,0,.33-.48,1.64,1.64,0,0,0,.11-.61,1.23,1.23,0,0,0-.43-1A2.08,2.08,0,0,0,98.48,46h-1Z"/><path class="eaa9a9ba-baa3-4948-9f13-c73ba335ec9d" d="M104.67,44.75l.13,0,.11.08L105,45l4.55,5.8c0-.14,0-.28,0-.41s0-.26,0-.37V44.74H111v8.68h-.83a.74.74,0,0,1-.32-.06.71.71,0,0,1-.25-.22L105,47.36c0,.13,0,.26,0,.38s0,.24,0,.34v5.33h-1.42V44.74h1Z"/><path class="eaa9a9ba-baa3-4948-9f13-c73ba335ec9d" d="M120.34,53.42h-1.25a.55.55,0,0,1-.34-.1.6.6,0,0,1-.2-.26l-.65-1.77h-3.59L113.66,53a.57.57,0,0,1-.19.25.53.53,0,0,1-.34.11h-1.25l3.41-8.68h1.65Zm-5.62-3.28h2.77l-1.06-2.89q-.07-.19-.16-.45t-.17-.57l-.17.57q-.08.26-.16.46Z"/><path class="eaa9a9ba-baa3-4948-9f13-c73ba335ec9d" d="M125.49,53.51a1.62,1.62,0,0,1-1.23-.45,1.74,1.74,0,0,1-.43-1.25V48.37h-.62a.28.28,0,0,1-.29-.31v-.59l1-.16.31-1.68a.29.29,0,0,1,.11-.19.35.35,0,0,1,.22-.07h.77v1.94h1.62v1.06h-1.62v3.34a.66.66,0,0,0,.14.45.49.49,0,0,0,.38.16.7.7,0,0,0,.23,0l.16-.07.12-.07a.2.2,0,0,1,.11,0,.17.17,0,0,1,.11,0l.09.1.44.72a2.25,2.25,0,0,1-.74.41A2.78,2.78,0,0,1,125.49,53.51Z"/><path class="eaa9a9ba-baa3-4948-9f13-c73ba335ec9d" d="M128.11,53.42V47.26H129a.46.46,0,0,1,.32.08.48.48,0,0,1,.12.29l.09.74a2.94,2.94,0,0,1,.77-.9,1.63,1.63,0,0,1,1-.33,1.29,1.29,0,0,1,.76.21l-.19,1.11a.23.23,0,0,1-.08.15.26.26,0,0,1-.16,0,1,1,0,0,1-.25,0,1.66,1.66,0,0,0-.41,0,1.26,1.26,0,0,0-.79.25,2,2,0,0,0-.56.75v3.83Z"/><path class="eaa9a9ba-baa3-4948-9f13-c73ba335ec9d" d="M137.66,53.42H137a.72.72,0,0,1-.33-.06.4.4,0,0,1-.18-.25l-.13-.44a5.16,5.16,0,0,1-.46.37,2.76,2.76,0,0,1-.47.27,2.34,2.34,0,0,1-.51.16,3.05,3.05,0,0,1-.6.05,2.35,2.35,0,0,1-.72-.11,1.55,1.55,0,0,1-.57-.32,1.44,1.44,0,0,1-.37-.52,1.87,1.87,0,0,1-.13-.73,1.44,1.44,0,0,1,.18-.69,1.73,1.73,0,0,1,.61-.61,3.9,3.9,0,0,1,1.13-.45,7.25,7.25,0,0,1,1.76-.18v-.36a1.38,1.38,0,0,0-.26-.92,1,1,0,0,0-.76-.3,1.85,1.85,0,0,0-.6.08,2.38,2.38,0,0,0-.42.19l-.33.19a.66.66,0,0,1-.33.08.43.43,0,0,1-.26-.08.62.62,0,0,1-.17-.19l-.27-.47a3.66,3.66,0,0,1,2.56-1,2.47,2.47,0,0,1,1,.18,2,2,0,0,1,.72.49,2.11,2.11,0,0,1,.45.75,2.88,2.88,0,0,1,.15,1Zm-2.88-.92a2,2,0,0,0,.42,0,1.6,1.6,0,0,0,.36-.12,2,2,0,0,0,.33-.2,3,3,0,0,0,.32-.29v-1a6,6,0,0,0-1.08.08,2.85,2.85,0,0,0-.7.21.89.89,0,0,0-.37.3.74.74,0,0,0,.12.93A1,1,0,0,0,134.78,52.49Z"/><path class="eaa9a9ba-baa3-4948-9f13-c73ba335ec9d" d="M139.12,53.42V47.26H140a.36.36,0,0,1,.38.27l.1.49a3.33,3.33,0,0,1,.39-.35,2.77,2.77,0,0,1,.44-.27,2.26,2.26,0,0,1,.5-.17,2.6,2.6,0,0,1,.58-.06,2.22,2.22,0,0,1,.89.17,1.77,1.77,0,0,1,.65.48,2.11,2.11,0,0,1,.4.74,3.14,3.14,0,0,1,.13.94v3.92H143V49.5a1.32,1.32,0,0,0-.26-.87,1,1,0,0,0-.78-.31,1.54,1.54,0,0,0-.72.17,2.59,2.59,0,0,0-.64.47v4.45Z"/><path class="eaa9a9ba-baa3-4948-9f13-c73ba335ec9d" d="M149.59,48.46a.4.4,0,0,1-.13.14.33.33,0,0,1-.17,0,.53.53,0,0,1-.23-.06l-.29-.14a2.68,2.68,0,0,0-.37-.13,1.76,1.76,0,0,0-.49-.06,1.14,1.14,0,0,0-.69.19.58.58,0,0,0-.25.49.46.46,0,0,0,.13.33,1.16,1.16,0,0,0,.34.24,3.23,3.23,0,0,0,.48.18l.55.18c.19.06.37.14.55.22a1.93,1.93,0,0,1,.48.31,1.37,1.37,0,0,1,.47,1.09,2,2,0,0,1-.16.82,1.79,1.79,0,0,1-.47.65,2.22,2.22,0,0,1-.77.43,3.58,3.58,0,0,1-1.67.1,3.65,3.65,0,0,1-.58-.16,3.25,3.25,0,0,1-.52-.24,2.5,2.5,0,0,1-.42-.3l.34-.56a.48.48,0,0,1,.16-.16.43.43,0,0,1,.23-.05.48.48,0,0,1,.26.08l.29.17a2.56,2.56,0,0,0,.38.17,1.67,1.67,0,0,0,.56.08,1.44,1.44,0,0,0,.45-.06,1,1,0,0,0,.31-.17.62.62,0,0,0,.18-.24.71.71,0,0,0,.06-.28.5.5,0,0,0-.13-.35,1.13,1.13,0,0,0-.34-.24,3.27,3.27,0,0,0-.49-.18l-.56-.18a5.08,5.08,0,0,1-.56-.23,1.92,1.92,0,0,1-.49-.33,1.49,1.49,0,0,1-.34-.49,1.7,1.7,0,0,1-.13-.7,1.77,1.77,0,0,1,.15-.72,1.69,1.69,0,0,1,.44-.6,2.2,2.2,0,0,1,.73-.41,3,3,0,0,1,1-.15,3.08,3.08,0,0,1,1.16.21,2.63,2.63,0,0,1,.87.55Z"/><path class="eaa9a9ba-baa3-4948-9f13-c73ba335ec9d" d="M155.51,48.56a.76.76,0,0,1-.13.13.29.29,0,0,1-.18,0,.4.4,0,0,1-.22-.07l-.26-.16a2,2,0,0,0-.36-.16,1.64,1.64,0,0,0-.51-.07,1.56,1.56,0,0,0-.68.14,1.3,1.3,0,0,0-.49.4,1.8,1.8,0,0,0-.29.64,3.41,3.41,0,0,0-.1.85,3.32,3.32,0,0,0,.11.88,1.87,1.87,0,0,0,.3.65,1.31,1.31,0,0,0,.48.4,1.45,1.45,0,0,0,.64.13,1.58,1.58,0,0,0,.57-.09,1.82,1.82,0,0,0,.37-.19l.26-.19a.39.39,0,0,1,.25-.09.3.3,0,0,1,.27.14l.43.54a2.69,2.69,0,0,1-.53.48,2.91,2.91,0,0,1-.6.31,3,3,0,0,1-.64.17,4.58,4.58,0,0,1-.65,0,2.73,2.73,0,0,1-1.07-.21,2.51,2.51,0,0,1-.88-.62,3,3,0,0,1-.59-1,4.2,4.2,0,0,1,0-2.6,2.85,2.85,0,0,1,.57-1,2.63,2.63,0,0,1,.94-.66,3.23,3.23,0,0,1,1.28-.24,3.06,3.06,0,0,1,1.21.22,3,3,0,0,1,.93.64Z"/><path class="eaa9a9ba-baa3-4948-9f13-c73ba335ec9d" d="M156.91,53.42V47.26h.87a.47.47,0,0,1,.32.08.49.49,0,0,1,.12.29l.09.74a2.92,2.92,0,0,1,.77-.9,1.63,1.63,0,0,1,1-.33,1.28,1.28,0,0,1,.76.21l-.19,1.11a.23.23,0,0,1-.08.15.27.27,0,0,1-.16,0,1,1,0,0,1-.25,0,1.65,1.65,0,0,0-.41,0,1.26,1.26,0,0,0-.79.25,2,2,0,0,0-.56.75v3.83Z"/><path class="eaa9a9ba-baa3-4948-9f13-c73ba335ec9d" d="M163.61,45.47a.85.85,0,0,1-.08.36,1,1,0,0,1-.51.49.93.93,0,0,1-.37.08.89.89,0,0,1-.36-.08,1,1,0,0,1-.3-.2,1,1,0,0,1-.2-.29.88.88,0,0,1-.08-.36.93.93,0,0,1,.08-.37,1,1,0,0,1,.2-.3,1,1,0,0,1,.3-.2.9.9,0,0,1,.36-.07.93.93,0,0,1,.37.07,1,1,0,0,1,.3.2,1,1,0,0,1,.21.3A.9.9,0,0,1,163.61,45.47Zm-.22,1.79v6.16h-1.48V47.26Z"/><path class="eaa9a9ba-baa3-4948-9f13-c73ba335ec9d" d="M165.06,55.43V47.26H166a.44.44,0,0,1,.25.07.31.31,0,0,1,.13.2l.12.57a3.1,3.1,0,0,1,.86-.69,2.32,2.32,0,0,1,1.13-.26,2,2,0,0,1,.92.21,2.07,2.07,0,0,1,.72.61,3,3,0,0,1,.47,1,5,5,0,0,1,.17,1.34,4.21,4.21,0,0,1-.19,1.28,3.12,3.12,0,0,1-.53,1,2.39,2.39,0,0,1-1.93.92,2.2,2.2,0,0,1-.88-.16,2.17,2.17,0,0,1-.65-.44v2.52Zm2.88-7.11a1.51,1.51,0,0,0-.79.2,2.29,2.29,0,0,0-.61.55v2.76a1.41,1.41,0,0,0,.55.44,1.65,1.65,0,0,0,.64.12,1.43,1.43,0,0,0,.61-.13,1.18,1.18,0,0,0,.46-.38,1.91,1.91,0,0,0,.29-.65,3.75,3.75,0,0,0,.1-.93,4.14,4.14,0,0,0-.09-.92,1.77,1.77,0,0,0-.25-.61,1,1,0,0,0-.39-.34A1.22,1.22,0,0,0,167.94,48.32Z"/><path class="eaa9a9ba-baa3-4948-9f13-c73ba335ec9d" d="M173.87,53.51a1.62,1.62,0,0,1-1.23-.45,1.74,1.74,0,0,1-.43-1.25V48.37h-.62a.28.28,0,0,1-.29-.31v-.59l1-.16.31-1.68a.29.29,0,0,1,.11-.19.35.35,0,0,1,.22-.07h.77v1.94h1.62v1.06h-1.62v3.34a.66.66,0,0,0,.14.45.49.49,0,0,0,.38.16.7.7,0,0,0,.23,0l.16-.07.12-.07a.2.2,0,0,1,.11,0,.17.17,0,0,1,.11,0l.09.1.44.72a2.25,2.25,0,0,1-.74.41A2.78,2.78,0,0,1,173.87,53.51Z"/><path class="eaa9a9ba-baa3-4948-9f13-c73ba335ec9d" d="M119.23,104.85a.76.76,0,0,1-.13.13.29.29,0,0,1-.18,0,.4.4,0,0,1-.22-.07l-.26-.16a2,2,0,0,0-.36-.16,1.64,1.64,0,0,0-.51-.07,1.56,1.56,0,0,0-.68.14,1.3,1.3,0,0,0-.49.4,1.8,1.8,0,0,0-.29.64,3.41,3.41,0,0,0-.1.85,3.32,3.32,0,0,0,.11.88,1.87,1.87,0,0,0,.3.65,1.31,1.31,0,0,0,.48.4,1.45,1.45,0,0,0,.64.13,1.58,1.58,0,0,0,.57-.09,1.82,1.82,0,0,0,.37-.19l.26-.19a.39.39,0,0,1,.25-.09.3.3,0,0,1,.27.14l.43.54a2.69,2.69,0,0,1-.53.48,2.91,2.91,0,0,1-.6.31,3,3,0,0,1-.64.17,4.58,4.58,0,0,1-.65,0,2.73,2.73,0,0,1-1.07-.21,2.51,2.51,0,0,1-.88-.62,3,3,0,0,1-.59-1,4.2,4.2,0,0,1,0-2.6,2.85,2.85,0,0,1,.57-1,2.63,2.63,0,0,1,.94-.66,3.23,3.23,0,0,1,1.28-.24,3.06,3.06,0,0,1,1.21.22,3,3,0,0,1,.93.64Z"/><path class="eaa9a9ba-baa3-4948-9f13-c73ba335ec9d" d="M128.41,105.37a4.69,4.69,0,0,1-.32,1.75,4,4,0,0,1-.89,1.37,4,4,0,0,1-1.39.89,4.87,4.87,0,0,1-1.79.32h-3.31V101H124a4.84,4.84,0,0,1,1.79.32,4.05,4.05,0,0,1,1.39.89,4,4,0,0,1,.89,1.37A4.69,4.69,0,0,1,128.41,105.37Zm-1.65,0a4,4,0,0,0-.19-1.28,2.73,2.73,0,0,0-.55-1,2.36,2.36,0,0,0-.86-.6,3,3,0,0,0-1.14-.21h-1.69v6.11H124a3,3,0,0,0,1.14-.21,2.35,2.35,0,0,0,.86-.6,2.72,2.72,0,0,0,.55-1A4,4,0,0,0,126.76,105.37Z"/><path class="eaa9a9ba-baa3-4948-9f13-c73ba335ec9d" d="M130.7,101l.13,0,.11.08.12.14,4.55,5.8c0-.14,0-.28,0-.41s0-.26,0-.37V101H137v8.68h-.83a.74.74,0,0,1-.32-.06.71.71,0,0,1-.25-.22l-4.54-5.78q0,.19,0,.38t0,.34v5.33h-1.42V101h1Z"/><path class="eaa9a9ba-baa3-4948-9f13-c73ba335ec9d" d="M146.38,109.71h-1.25a.54.54,0,0,1-.34-.1.59.59,0,0,1-.2-.26l-.65-1.77h-3.59l-.65,1.77a.57.57,0,0,1-.19.25.53.53,0,0,1-.34.11h-1.25l3.41-8.68H143Zm-5.62-3.28h2.77l-1.06-2.89-.16-.45c-.06-.17-.12-.36-.17-.57-.06.2-.11.39-.17.57s-.11.33-.16.46Z"/><path class="eaa9a9ba-baa3-4948-9f13-c73ba335ec9d" d="M90.74,179.45a.76.76,0,0,1-.13.13.29.29,0,0,1-.18,0,.4.4,0,0,1-.22-.07l-.26-.16a2,2,0,0,0-.36-.16,1.64,1.64,0,0,0-.51-.07,1.56,1.56,0,0,0-.68.14,1.3,1.3,0,0,0-.49.4,1.8,1.8,0,0,0-.29.64,3.41,3.41,0,0,0-.1.85,3.32,3.32,0,0,0,.11.88,1.87,1.87,0,0,0,.3.65,1.31,1.31,0,0,0,.48.4,1.45,1.45,0,0,0,.64.13,1.58,1.58,0,0,0,.57-.09A1.82,1.82,0,0,0,90,183l.26-.19a.39.39,0,0,1,.25-.09.3.3,0,0,1,.27.14l.43.54a2.69,2.69,0,0,1-.53.48,2.91,2.91,0,0,1-.6.31,3,3,0,0,1-.64.17,4.58,4.58,0,0,1-.65,0,2.73,2.73,0,0,1-1.07-.21,2.51,2.51,0,0,1-.88-.62,3,3,0,0,1-.59-1,4.2,4.2,0,0,1,0-2.6,2.85,2.85,0,0,1,.57-1,2.63,2.63,0,0,1,.94-.66,3.23,3.23,0,0,1,1.28-.24,3.06,3.06,0,0,1,1.21.22,3,3,0,0,1,.93.64Z"/><path class="eaa9a9ba-baa3-4948-9f13-c73ba335ec9d" d="M99.93,180a4.69,4.69,0,0,1-.32,1.75,4,4,0,0,1-.89,1.37,4,4,0,0,1-1.39.89,4.87,4.87,0,0,1-1.79.32H92.22v-8.68h3.31a4.84,4.84,0,0,1,1.79.32,4.05,4.05,0,0,1,1.39.89,4,4,0,0,1,.89,1.37A4.69,4.69,0,0,1,99.93,180Zm-1.65,0a4,4,0,0,0-.19-1.28,2.73,2.73,0,0,0-.55-1,2.36,2.36,0,0,0-.86-.6,3,3,0,0,0-1.14-.21H93.85V183h1.69a3,3,0,0,0,1.14-.21,2.35,2.35,0,0,0,.86-.6,2.72,2.72,0,0,0,.55-1A4,4,0,0,0,98.28,180Z"/><path class="eaa9a9ba-baa3-4948-9f13-c73ba335ec9d" d="M102.22,175.64l.13,0,.11.08.12.14,4.55,5.8c0-.14,0-.28,0-.41s0-.26,0-.37v-5.27h1.42v8.68h-.83a.74.74,0,0,1-.32-.06.71.71,0,0,1-.25-.22l-4.54-5.78q0,.19,0,.38t0,.34v5.33h-1.42v-8.68h1Z"/><path class="eaa9a9ba-baa3-4948-9f13-c73ba335ec9d" d="M117.89,184.3h-1.25a.54.54,0,0,1-.34-.1.59.59,0,0,1-.2-.26l-.65-1.77h-3.59l-.65,1.77a.57.57,0,0,1-.19.25.53.53,0,0,1-.34.11h-1.25l3.41-8.68h1.65ZM112.27,181H115L114,178.14l-.16-.45c-.06-.17-.12-.36-.17-.57-.06.2-.11.39-.17.57s-.11.33-.16.46Z"/><path class="eaa9a9ba-baa3-4948-9f13-c73ba335ec9d" d="M121.28,184.3v-5l-.53-.08a.56.56,0,0,1-.28-.12.31.31,0,0,1-.11-.25v-.61h.92v-.46a2.65,2.65,0,0,1,.16-.95,1.92,1.92,0,0,1,1.18-1.16,2.78,2.78,0,0,1,1-.16,2.64,2.64,0,0,1,.79.11l0,.74a.22.22,0,0,1-.16.22,1.31,1.31,0,0,1-.35,0,1.77,1.77,0,0,0-.47.06.79.79,0,0,0-.35.2.89.89,0,0,0-.22.37,1.89,1.89,0,0,0-.07.57v.41h1.6v1.06h-1.55v5Z"/><path class="eaa9a9ba-baa3-4948-9f13-c73ba335ec9d" d="M125.22,184.3v-6.16h.87a.46.46,0,0,1,.32.08.48.48,0,0,1,.12.29l.09.74a2.94,2.94,0,0,1,.77-.9,1.63,1.63,0,0,1,1-.33,1.29,1.29,0,0,1,.76.21l-.19,1.11a.23.23,0,0,1-.08.15.26.26,0,0,1-.16,0,1,1,0,0,1-.25,0,1.66,1.66,0,0,0-.41,0,1.26,1.26,0,0,0-.79.25,2,2,0,0,0-.56.75v3.83Z"/><path class="eaa9a9ba-baa3-4948-9f13-c73ba335ec9d" d="M134.77,184.3h-.67a.72.72,0,0,1-.33-.06.4.4,0,0,1-.18-.25l-.13-.44a5.16,5.16,0,0,1-.46.37,2.76,2.76,0,0,1-.47.27,2.34,2.34,0,0,1-.51.16,3.05,3.05,0,0,1-.6.05,2.35,2.35,0,0,1-.72-.11,1.55,1.55,0,0,1-.57-.32,1.44,1.44,0,0,1-.37-.52,1.87,1.87,0,0,1-.13-.73,1.44,1.44,0,0,1,.18-.69,1.73,1.73,0,0,1,.61-.61,3.9,3.9,0,0,1,1.13-.45,7.25,7.25,0,0,1,1.76-.18v-.36a1.38,1.38,0,0,0-.26-.92,1,1,0,0,0-.76-.3,1.85,1.85,0,0,0-.6.08,2.38,2.38,0,0,0-.42.19l-.33.19a.66.66,0,0,1-.33.08.43.43,0,0,1-.26-.08.62.62,0,0,1-.17-.19l-.27-.47a3.66,3.66,0,0,1,2.56-1,2.47,2.47,0,0,1,1,.18,2,2,0,0,1,.72.49,2.11,2.11,0,0,1,.45.75,2.88,2.88,0,0,1,.15,1Zm-2.88-.92a2,2,0,0,0,.42,0,1.6,1.6,0,0,0,.36-.12,2,2,0,0,0,.33-.2,3,3,0,0,0,.32-.29v-1a6,6,0,0,0-1.08.08,2.85,2.85,0,0,0-.7.21.89.89,0,0,0-.37.3.74.74,0,0,0,.12.93A1,1,0,0,0,131.89,183.38Z"/><path class="eaa9a9ba-baa3-4948-9f13-c73ba335ec9d" d="M138.36,178a3.29,3.29,0,0,1,.74.08,2.53,2.53,0,0,1,.64.24h1.77v.55a.31.31,0,0,1-.07.22.43.43,0,0,1-.25.11l-.55.1a1.86,1.86,0,0,1,.09.33,1.93,1.93,0,0,1,0,.37,1.83,1.83,0,0,1-.18.83,1.85,1.85,0,0,1-.5.63,2.36,2.36,0,0,1-.76.4,3.13,3.13,0,0,1-1,.14,3.42,3.42,0,0,1-.68-.07q-.29.18-.29.39a.29.29,0,0,0,.17.27,1.4,1.4,0,0,0,.45.12,5,5,0,0,0,.63,0l.73,0a5.67,5.67,0,0,1,.73.11,2.12,2.12,0,0,1,.63.24,1.27,1.27,0,0,1,.45.44,1.36,1.36,0,0,1,.17.72,1.69,1.69,0,0,1-.2.79,2.12,2.12,0,0,1-.58.69,3,3,0,0,1-.93.48,4,4,0,0,1-1.26.18,4.83,4.83,0,0,1-1.22-.14,2.83,2.83,0,0,1-.86-.36,1.56,1.56,0,0,1-.51-.52,1.21,1.21,0,0,1-.17-.61,1,1,0,0,1,.26-.73,1.8,1.8,0,0,1,.73-.47,1,1,0,0,1-.37-.34,1,1,0,0,1-.14-.55.91.91,0,0,1,0-.28,1.16,1.16,0,0,1,.15-.29,1.45,1.45,0,0,1,.25-.27,1.74,1.74,0,0,1,.35-.23,1.93,1.93,0,0,1-.74-.67,1.8,1.8,0,0,1-.27-1,1.83,1.83,0,0,1,.18-.83,1.85,1.85,0,0,1,.51-.63,2.34,2.34,0,0,1,.77-.4A3.3,3.3,0,0,1,138.36,178Zm1.63,6.52a.42.42,0,0,0-.11-.3.71.71,0,0,0-.29-.18,2.14,2.14,0,0,0-.44-.1,4.31,4.31,0,0,0-.53,0H138a2.46,2.46,0,0,1-.57-.07,1.35,1.35,0,0,0-.41.33.67.67,0,0,0-.15.44.59.59,0,0,0,.08.3.67.67,0,0,0,.26.24,1.54,1.54,0,0,0,.46.16,3.58,3.58,0,0,0,.69.06,3.49,3.49,0,0,0,.71-.06,1.71,1.71,0,0,0,.49-.18.76.76,0,0,0,.29-.27A.67.67,0,0,0,140,184.56Zm-1.63-3.49a1.38,1.38,0,0,0,.48-.08.94.94,0,0,0,.34-.21.86.86,0,0,0,.2-.32,1.17,1.17,0,0,0,.07-.41,1,1,0,0,0-.27-.72,1.39,1.39,0,0,0-1.64,0,1,1,0,0,0-.27.72,1.15,1.15,0,0,0,.07.4.88.88,0,0,0,.2.32.91.91,0,0,0,.34.21A1.39,1.39,0,0,0,138.36,181.08Z"/><path class="eaa9a9ba-baa3-4948-9f13-c73ba335ec9d" d="M142.44,184.3v-6.16h.91a.36.36,0,0,1,.38.27l.1.46a3.53,3.53,0,0,1,.34-.33,2.13,2.13,0,0,1,.38-.26,2,2,0,0,1,.43-.17,1.93,1.93,0,0,1,.51-.06,1.44,1.44,0,0,1,1,.31,1.9,1.9,0,0,1,.56.84,1.88,1.88,0,0,1,.36-.52,2,2,0,0,1,.47-.36,2.18,2.18,0,0,1,.55-.2,2.63,2.63,0,0,1,.58-.07,2.46,2.46,0,0,1,.91.16,1.75,1.75,0,0,1,.67.46,2,2,0,0,1,.41.73,3.17,3.17,0,0,1,.14,1v3.92h-1.48v-3.92a1.32,1.32,0,0,0-.26-.89,1,1,0,0,0-.76-.3,1.13,1.13,0,0,0-.42.08,1,1,0,0,0-.57.59,1.45,1.45,0,0,0-.08.51v3.92H146v-3.92a1.34,1.34,0,0,0-.25-.9.93.93,0,0,0-.73-.28,1.19,1.19,0,0,0-.6.16,2,2,0,0,0-.52.44v4.51Z"/><path class="eaa9a9ba-baa3-4948-9f13-c73ba335ec9d" d="M155.09,178.05a3,3,0,0,1,1.07.19,2.36,2.36,0,0,1,.84.54,2.48,2.48,0,0,1,.55.88,3.31,3.31,0,0,1,.2,1.19,2,2,0,0,1,0,.28.44.44,0,0,1-.05.17.22.22,0,0,1-.1.09.45.45,0,0,1-.17,0h-3.8a2.12,2.12,0,0,0,.51,1.39,1.59,1.59,0,0,0,1.18.44,2,2,0,0,0,.62-.08,2.89,2.89,0,0,0,.46-.19l.34-.19a.57.57,0,0,1,.29-.08.32.32,0,0,1,.16,0,.35.35,0,0,1,.11.1l.43.54a2.47,2.47,0,0,1-.55.48,3.12,3.12,0,0,1-.64.31,3.5,3.5,0,0,1-.68.17,4.9,4.9,0,0,1-.67,0,3.29,3.29,0,0,1-1.19-.21,2.67,2.67,0,0,1-1-.63,3,3,0,0,1-.64-1,4,4,0,0,1-.23-1.42,3.39,3.39,0,0,1,.2-1.19,2.84,2.84,0,0,1,.58-1,2.75,2.75,0,0,1,.93-.65A3.07,3.07,0,0,1,155.09,178.05Zm0,1.06a1.37,1.37,0,0,0-1,.37,1.81,1.81,0,0,0-.47,1h2.78a1.85,1.85,0,0,0-.08-.54,1.24,1.24,0,0,0-.24-.45,1.13,1.13,0,0,0-.41-.3A1.39,1.39,0,0,0,155.12,179.11Z"/><path class="eaa9a9ba-baa3-4948-9f13-c73ba335ec9d" d="M159,184.3v-6.16h.91a.36.36,0,0,1,.38.27l.1.49a3.33,3.33,0,0,1,.39-.35,2.77,2.77,0,0,1,.44-.27,2.26,2.26,0,0,1,.5-.17,2.6,2.6,0,0,1,.58-.06,2.22,2.22,0,0,1,.89.17,1.77,1.77,0,0,1,.65.48,2.11,2.11,0,0,1,.4.74,3.14,3.14,0,0,1,.13.94v3.92h-1.48v-3.92a1.32,1.32,0,0,0-.26-.87,1,1,0,0,0-.78-.31,1.54,1.54,0,0,0-.72.17,2.59,2.59,0,0,0-.64.47v4.45Z"/><path class="eaa9a9ba-baa3-4948-9f13-c73ba335ec9d" d="M167.8,184.4a1.62,1.62,0,0,1-1.23-.45,1.74,1.74,0,0,1-.43-1.25v-3.44h-.62a.28.28,0,0,1-.29-.31v-.59l1-.16.31-1.68a.3.3,0,0,1,.11-.19.35.35,0,0,1,.22-.07h.77v1.94h1.62v1.06h-1.62v3.34a.66.66,0,0,0,.14.45.49.49,0,0,0,.38.16.69.69,0,0,0,.23,0l.16-.07.12-.07a.21.21,0,0,1,.11,0,.17.17,0,0,1,.11,0l.09.1.44.72a2.23,2.23,0,0,1-.74.41A2.78,2.78,0,0,1,167.8,184.4Z"/><path class="eaa9a9ba-baa3-4948-9f13-c73ba335ec9d" d="M174.08,179.35a.4.4,0,0,1-.13.14.33.33,0,0,1-.17,0,.53.53,0,0,1-.23-.06l-.28-.14a2.68,2.68,0,0,0-.37-.13,1.77,1.77,0,0,0-.49-.06,1.14,1.14,0,0,0-.69.19.58.58,0,0,0-.25.49.46.46,0,0,0,.13.33,1.16,1.16,0,0,0,.34.24,3.26,3.26,0,0,0,.48.18l.55.18c.19.06.37.14.55.22a1.92,1.92,0,0,1,.48.31,1.45,1.45,0,0,1,.34.45,1.44,1.44,0,0,1,.13.64,2.05,2.05,0,0,1-.16.82,1.81,1.81,0,0,1-.47.65,2.22,2.22,0,0,1-.77.43,3.58,3.58,0,0,1-1.67.1,3.62,3.62,0,0,1-.58-.16,3.22,3.22,0,0,1-.52-.24,2.5,2.5,0,0,1-.42-.3l.34-.56a.48.48,0,0,1,.16-.16.44.44,0,0,1,.23-.05.48.48,0,0,1,.26.08l.29.17a2.47,2.47,0,0,0,.38.17,1.67,1.67,0,0,0,.55.08,1.44,1.44,0,0,0,.45-.06,1,1,0,0,0,.31-.17.62.62,0,0,0,.18-.24.71.71,0,0,0,.06-.28.5.5,0,0,0-.13-.35,1.13,1.13,0,0,0-.34-.24,3.19,3.19,0,0,0-.49-.18l-.56-.18a5,5,0,0,1-.56-.23,1.89,1.89,0,0,1-.49-.33,1.47,1.47,0,0,1-.34-.49,1.7,1.7,0,0,1-.13-.7,1.78,1.78,0,0,1,.15-.72,1.7,1.7,0,0,1,.44-.6,2.18,2.18,0,0,1,.73-.41,3,3,0,0,1,1-.15,3.07,3.07,0,0,1,1.16.21,2.63,2.63,0,0,1,.87.55Z"/><path class="eaa9a9ba-baa3-4948-9f13-c73ba335ec9d" d="M113.44,279.41h3.47v1.33h-5.09v-8.68h1.61Z"/><path class="eaa9a9ba-baa3-4948-9f13-c73ba335ec9d" d="M119.74,272.79a.85.85,0,0,1-.08.36,1,1,0,0,1-.51.49.92.92,0,0,1-.37.08.88.88,0,0,1-.36-.08,1,1,0,0,1-.3-.2,1,1,0,0,1-.2-.29.86.86,0,0,1-.08-.36.91.91,0,0,1,.08-.37,1,1,0,0,1,.2-.3,1,1,0,0,1,.3-.2.89.89,0,0,1,.36-.07.93.93,0,0,1,.37.07,1,1,0,0,1,.3.2,1,1,0,0,1,.21.3A.9.9,0,0,1,119.74,272.79Zm-.22,1.79v6.16H118v-6.16Z"/><path class="eaa9a9ba-baa3-4948-9f13-c73ba335ec9d" d="M121.21,280.74v-8.92h1.48v3.52a2.92,2.92,0,0,1,.83-.62,2.39,2.39,0,0,1,1.08-.23,2,2,0,0,1,1.64.81,2.89,2.89,0,0,1,.47,1,4.94,4.94,0,0,1,.17,1.34,4.21,4.21,0,0,1-.19,1.28,3.12,3.12,0,0,1-.53,1,2.39,2.39,0,0,1-1.93.92,2.2,2.2,0,0,1-.52-.06,1.83,1.83,0,0,1-.43-.16,1.79,1.79,0,0,1-.36-.25,3.09,3.09,0,0,1-.32-.33l-.07.41a.38.38,0,0,1-.12.22.39.39,0,0,1-.24.07Zm2.88-5.1a1.51,1.51,0,0,0-.79.2,2.29,2.29,0,0,0-.61.55v2.76a1.42,1.42,0,0,0,.55.44,1.67,1.67,0,0,0,.65.12,1.41,1.41,0,0,0,.61-.13,1.18,1.18,0,0,0,.46-.38,1.89,1.89,0,0,0,.29-.65,3.7,3.7,0,0,0,.1-.93,4.14,4.14,0,0,0-.09-.92,1.79,1.79,0,0,0-.25-.61,1,1,0,0,0-.39-.34A1.23,1.23,0,0,0,124.09,275.64Z"/><path class="eaa9a9ba-baa3-4948-9f13-c73ba335ec9d" d="M128,280.74v-6.16h.87a.47.47,0,0,1,.32.08.49.49,0,0,1,.12.29l.09.74a2.92,2.92,0,0,1,.77-.9,1.63,1.63,0,0,1,1-.33,1.28,1.28,0,0,1,.76.21l-.19,1.11a.23.23,0,0,1-.08.15.27.27,0,0,1-.16,0,1,1,0,0,1-.25,0,1.65,1.65,0,0,0-.41,0,1.26,1.26,0,0,0-.79.25,2,2,0,0,0-.56.75v3.83Z"/><path class="eaa9a9ba-baa3-4948-9f13-c73ba335ec9d" d="M137.59,280.74h-.67a.72.72,0,0,1-.33-.06.41.41,0,0,1-.18-.25l-.13-.44a5,5,0,0,1-.46.37,2.71,2.71,0,0,1-.46.27,2.37,2.37,0,0,1-.51.16,3.06,3.06,0,0,1-.6.05,2.35,2.35,0,0,1-.72-.11,1.56,1.56,0,0,1-.57-.32,1.44,1.44,0,0,1-.37-.52,1.85,1.85,0,0,1-.13-.73,1.44,1.44,0,0,1,.18-.69,1.73,1.73,0,0,1,.61-.61,3.89,3.89,0,0,1,1.13-.45,7.25,7.25,0,0,1,1.76-.18v-.36a1.38,1.38,0,0,0-.26-.92,1,1,0,0,0-.76-.3,1.85,1.85,0,0,0-.6.08,2.34,2.34,0,0,0-.42.19l-.33.19a.66.66,0,0,1-.33.08.43.43,0,0,1-.26-.08.61.61,0,0,1-.17-.19l-.27-.47a3.66,3.66,0,0,1,2.56-1,2.47,2.47,0,0,1,1,.18,2,2,0,0,1,.72.49,2.11,2.11,0,0,1,.45.75,2.91,2.91,0,0,1,.15,1Zm-2.88-.92a2,2,0,0,0,.42,0,1.59,1.59,0,0,0,.36-.12,1.92,1.92,0,0,0,.33-.2,3,3,0,0,0,.32-.29v-1a6,6,0,0,0-1.08.08,2.86,2.86,0,0,0-.7.21.9.9,0,0,0-.37.3.66.66,0,0,0-.11.37.65.65,0,0,0,.23.56A1,1,0,0,0,134.71,279.82Z"/><path class="eaa9a9ba-baa3-4948-9f13-c73ba335ec9d" d="M139,280.74v-6.16h.87a.47.47,0,0,1,.32.08.49.49,0,0,1,.12.29l.09.74a2.92,2.92,0,0,1,.77-.9,1.63,1.63,0,0,1,1-.33,1.28,1.28,0,0,1,.76.21l-.19,1.11a.23.23,0,0,1-.08.15.27.27,0,0,1-.16,0,1,1,0,0,1-.25,0,1.65,1.65,0,0,0-.41,0,1.26,1.26,0,0,0-.79.25,2,2,0,0,0-.56.75v3.83Z"/><path class="eaa9a9ba-baa3-4948-9f13-c73ba335ec9d" d="M146.13,282.43a.57.57,0,0,1-.17.24.53.53,0,0,1-.32.08h-1.1l1.15-2.47-2.49-5.7h1.3a.4.4,0,0,1,.28.08.54.54,0,0,1,.14.19l1.31,3.19a2.68,2.68,0,0,1,.11.32c0,.11.06.22.08.34q0-.17.11-.34l.12-.33,1.24-3.19a.44.44,0,0,1,.16-.2.43.43,0,0,1,.25-.08h1.19Z"/></g><g id="5da42a2a-7c2b-4ac4-9229-c2bcd507db2e" data-name="shapes"><polygon class="eaa9a9ba-baa3-4948-9f13-c73ba335ec9d" points="134.67 61.07 130.25 68.72 125.83 61.07 134.67 61.07"/><polygon class="eaa9a9ba-baa3-4948-9f13-c73ba335ec9d" points="134.67 117.36 130.25 125.02 125.83 117.36 134.67 117.36"/><polygon class="eaa9a9ba-baa3-4948-9f13-c73ba335ec9d" points="134.67 191.96 130.25 199.61 125.83 191.96 134.67 191.96"/><line class="b7d07e77-c50e-4dea-b783-74ef052c455c" x1="47.78" y1="21.65" x2="47.78" y2="36.98"/><line class="b7d07e77-c50e-4dea-b783-74ef052c455c" x1="176.42" y1="21.65" x2="176.42" y2="36.98"/></g></svg>