<svg xmlns="http://www.w3.org/2000/svg" viewBox="0 0 243.5 204.1"><defs><style>.bc783cea-3032-48d9-b7a1-4d07b94500ec{fill:none;stroke:#575756;}.\33 792814b-78b8-4613-a218-4adfb6b0fd91{fill:#a7cee3;}.\39 1c77716-6a58-4555-9ab8-29b2a18a8e4d{fill:#fffcbf;}.fd4f4d2a-e081-45ed-b967-97bbb86a93b3{fill:#fb8072;}.\36 ac89d97-9231-4923-8654-e5ff17da86bc{fill:#77e0c1;}.df43a984-7bf1-4fad-aa4a-4e835d347498{fill:#575756;}</style></defs><title>rnaseq</title><g id="2add2e71-1fb0-4d0e-9bae-6da046763024" data-name="boxes"><rect class="bc783cea-3032-48d9-b7a1-4d07b94500ec" x="163.66" y="94.37" width="5.24" height="15.33"/><rect class="bc783cea-3032-48d9-b7a1-4d07b94500ec" x="168.89" y="94.37" width="3.99" height="15.33"/><rect class="bc783cea-3032-48d9-b7a1-4d07b94500ec" x="160.55" y="94.37" width="3.12" height="15.33"/><rect class="bc783cea-3032-48d9-b7a1-4d07b94500ec" x="172.89" y="94.37" width="3.12" height="15.33"/><rect class="3792814b-78b8-4613-a218-4adfb6b0fd91" x="163.66" y="94.37" width="5.24" height="15.33"/><rect class="91c77716-6a58-4555-9ab8-29b2a18a8e4d" x="168.89" y="94.37" width="3.99" height="15.33"/><rect class="fd4f4d2a-e081-45ed-b967-97bbb86a93b3" x="160.55" y="94.37" width="3.12" height="15.33"/><rect class="fd4f4d2a-e081-45ed-b967-97bbb86a93b3" x="172.89" y="94.37" width="3.12" height="15.33"/><rect class="bc783cea-3032-48d9-b7a1-4d07b94500ec" x="31.97" y="94.37" width="5.24" height="15.33"/><rect class="bc783cea-3032-48d9-b7a1-4d07b94500ec" x="37.21" y="94.37" width="3.99" height="15.33"/><rect class="bc783cea-3032-48d9-b7a1-4d07b94500ec" x="28.87" y="94.37" width="3.12" height="15.33"/><rect class="bc783cea-3032-48d9-b7a1-4d07b94500ec" x="41.2" y="94.37" width="3.12" height="15.33"/><rect class="3792814b-78b8-4613-a218-4adfb6b0fd91" x="31.97" y="94.37" width="5.24" height="15.33"/><rect class="91c77716-6a58-4555-9ab8-29b2a18a8e4d" x="37.21" y="94.37" width="3.99" height="15.33"/><rect class="fd4f4d2a-e081-45ed-b967-97bbb86a93b3" x="28.87" y="94.37" width="3.12" height="15.33"/><rect class="fd4f4d2a-e081-45ed-b967-97bbb86a93b3" x="41.2" y="94.37" width="3.12" height="15.33"/><rect class="bc783cea-3032-48d9-b7a1-4d07b94500ec" x="66.52" y="4.93" width="5.24" height="15.33"/><rect class="bc783cea-3032-48d9-b7a1-4d07b94500ec" x="71.76" y="4.93" width="3.99" height="15.33"/><rect class="bc783cea-3032-48d9-b7a1-4d07b94500ec" x="63.42" y="4.93" width="3.12" height="15.33"/><rect class="bc783cea-3032-48d9-b7a1-4d07b94500ec" x="75.75" y="4.93" width="3.12" height="15.33"/><rect class="3792814b-78b8-4613-a218-4adfb6b0fd91" x="66.52" y="4.93" width="5.24" height="15.33"/><rect class="91c77716-6a58-4555-9ab8-29b2a18a8e4d" x="71.76" y="4.93" width="3.99" height="15.33"/><rect class="fd4f4d2a-e081-45ed-b967-97bbb86a93b3" x="63.42" y="4.93" width="3.12" height="15.33"/><rect class="fd4f4d2a-e081-45ed-b967-97bbb86a93b3" x="75.75" y="4.93" width="3.12" height="15.33"/><rect class="bc783cea-3032-48d9-b7a1-4d07b94500ec" x="123.75" y="4.93" width="9.22" height="15.33"/><rect class="bc783cea-3032-48d9-b7a1-4d07b94500ec" x="120.64" y="4.93" width="3.12" height="15.33"/><rect class="bc783cea-3032-48d9-b7a1-4d07b94500ec" x="132.98" y="4.93" width="3.12" height="15.33"/><rect class="3792814b-78b8-4613-a218-4adfb6b0fd91" x="123.75" y="4.93" width="9.22" height="15.33"/><rect class="fd4f4d2a-e081-45ed-b967-97bbb86a93b3" x="120.64" y="4.93" width="3.12" height="15.33"/><rect class="fd4f4d2a-e081-45ed-b967-97bbb86a93b3" x="132.98" y="4.93" width="3.12" height="15.33"/><rect class="bc783cea-3032-48d9-b7a1-4d07b94500ec" x="85.82" y="4.93" width="9.22" height="15.33"/><rect class="bc783cea-3032-48d9-b7a1-4d07b94500ec" x="82.72" y="4.93" width="3.12" height="15.33"/><rect class="bc783cea-3032-48d9-b7a1-4d07b94500ec" x="95.05" y="4.93" width="3.12" height="15.33"/><rect class="3792814b-78b8-4613-a218-4adfb6b0fd91" x="85.82" y="4.93" width="9.22" height="15.33"/><rect class="fd4f4d2a-e081-45ed-b967-97bbb86a93b3" x="82.72" y="4.93" width="3.12" height="15.33"/><rect class="fd4f4d2a-e081-45ed-b967-97bbb86a93b3" x="95.05" y="4.93" width="3.12" height="15.33"/><rect class="bc783cea-3032-48d9-b7a1-4d07b94500ec" x="198.36" y="4.93" width="9.22" height="15.33"/><rect class="bc783cea-3032-48d9-b7a1-4d07b94500ec" x="195.26" y="4.93" width="3.12" height="15.33"/><rect class="bc783cea-3032-48d9-b7a1-4d07b94500ec" x="207.59" y="4.93" width="3.12" height="15.33"/><rect class="3792814b-78b8-4613-a218-4adfb6b0fd91" x="198.36" y="4.93" width="9.22" height="15.33"/><rect class="fd4f4d2a-e081-45ed-b967-97bbb86a93b3" x="195.26" y="4.93" width="3.12" height="15.33"/><rect class="fd4f4d2a-e081-45ed-b967-97bbb86a93b3" x="207.59" y="4.93" width="3.12" height="15.33"/><rect class="bc783cea-3032-48d9-b7a1-4d07b94500ec" x="47.22" y="4.93" width="9.22" height="15.33"/><rect class="bc783cea-3032-48d9-b7a1-4d07b94500ec" x="44.12" y="4.93" width="3.12" height="15.33"/><rect class="bc783cea-3032-48d9-b7a1-4d07b94500ec" x="56.45" y="4.93" width="3.12" height="15.33"/><rect class="3792814b-78b8-4613-a218-4adfb6b0fd91" x="47.22" y="4.93" width="9.22" height="15.33"/><rect class="fd4f4d2a-e081-45ed-b967-97bbb86a93b3" x="44.12" y="4.93" width="3.12" height="15.33"/><rect class="fd4f4d2a-e081-45ed-b967-97bbb86a93b3" x="56.45" y="4.93" width="3.12" height="15.33"/><rect class="bc783cea-3032-48d9-b7a1-4d07b94500ec" x="27.18" y="4.93" width="9.22" height="15.33"/><rect class="bc783cea-3032-48d9-b7a1-4d07b94500ec" x="24.08" y="4.93" width="3.12" height="15.33"/><rect class="bc783cea-3032-48d9-b7a1-4d07b94500ec" x="36.41" y="4.93" width="3.12" height="15.33"/><rect class="3792814b-78b8-4613-a218-4adfb6b0fd91" x="27.18" y="4.93" width="9.22" height="15.33"/><rect class="fd4f4d2a-e081-45ed-b967-97bbb86a93b3" x="24.08" y="4.93" width="3.12" height="15.33"/><rect class="fd4f4d2a-e081-45ed-b967-97bbb86a93b3" x="36.41" y="4.93" width="3.12" height="15.33"/><rect class="bc783cea-3032-48d9-b7a1-4d07b94500ec" x="143.39" y="4.93" width="9.22" height="15.33"/><rect class="bc783cea-3032-48d9-b7a1-4d07b94500ec" x="140.29" y="4.93" width="3.12" height="15.33"/><rect class="bc783cea-3032-48d9-b7a1-4d07b94500ec" x="152.63" y="4.93" width="3.12" height="15.33"/><rect class="3792814b-78b8-4613-a218-4adfb6b0fd91" x="143.39" y="4.93" width="9.22" height="15.33"/><rect class="fd4f4d2a-e081-45ed-b967-97bbb86a93b3" x="140.29" y="4.93" width="3.12" height="15.33"/><rect class="fd4f4d2a-e081-45ed-b967-97bbb86a93b3" x="152.63" y="4.93" width="3.12" height="15.33"/><rect class="bc783cea-3032-48d9-b7a1-4d07b94500ec" x="132.28" y="24.59" width="9.22" height="15.33"/><rect class="bc783cea-3032-48d9-b7a1-4d07b94500ec" x="129.17" y="24.59" width="3.12" height="15.33"/><rect class="bc783cea-3032-48d9-b7a1-4d07b94500ec" x="141.51" y="24.59" width="3.12" height="15.33"/><rect class="3792814b-78b8-4613-a218-4adfb6b0fd91" x="132.28" y="24.59" width="9.22" height="15.33"/><rect class="fd4f4d2a-e081-45ed-b967-97bbb86a93b3" x="129.17" y="24.59" width="3.12" height="15.33"/><rect class="fd4f4d2a-e081-45ed-b967-97bbb86a93b3" x="141.51" y="24.59" width="3.12" height="15.33"/><rect class="bc783cea-3032-48d9-b7a1-4d07b94500ec" x="93.91" y="24.59" width="9.22" height="15.33"/><rect class="bc783cea-3032-48d9-b7a1-4d07b94500ec" x="90.81" y="24.59" width="3.12" height="15.33"/><rect class="bc783cea-3032-48d9-b7a1-4d07b94500ec" x="103.14" y="24.59" width="3.12" height="15.33"/><rect class="3792814b-78b8-4613-a218-4adfb6b0fd91" x="93.91" y="24.59" width="9.22" height="15.33"/><rect class="fd4f4d2a-e081-45ed-b967-97bbb86a93b3" x="90.81" y="24.59" width="3.12" height="15.33"/><rect class="fd4f4d2a-e081-45ed-b967-97bbb86a93b3" x="103.14" y="24.59" width="3.12" height="15.33"/><rect class="bc783cea-3032-48d9-b7a1-4d07b94500ec" x="74.49" y="24.59" width="9.22" height="15.33"/><rect class="bc783cea-3032-48d9-b7a1-4d07b94500ec" x="71.39" y="24.59" width="3.12" height="15.33"/><rect class="bc783cea-3032-48d9-b7a1-4d07b94500ec" x="83.72" y="24.59" width="3.12" height="15.33"/><rect class="3792814b-78b8-4613-a218-4adfb6b0fd91" x="74.49" y="24.59" width="9.22" height="15.33"/><rect class="fd4f4d2a-e081-45ed-b967-97bbb86a93b3" x="71.39" y="24.59" width="3.12" height="15.33"/><rect class="fd4f4d2a-e081-45ed-b967-97bbb86a93b3" x="83.72" y="24.59" width="3.12" height="15.33"/><rect class="bc783cea-3032-48d9-b7a1-4d07b94500ec" x="35.16" y="24.59" width="9.22" height="15.33"/><rect class="bc783cea-3032-48d9-b7a1-4d07b94500ec" x="32.06" y="24.59" width="3.12" height="15.33"/><rect class="bc783cea-3032-48d9-b7a1-4d07b94500ec" x="44.39" y="24.59" width="3.12" height="15.33"/><rect class="3792814b-78b8-4613-a218-4adfb6b0fd91" x="35.16" y="24.59" width="9.22" height="15.33"/><rect class="fd4f4d2a-e081-45ed-b967-97bbb86a93b3" x="32.06" y="24.59" width="3.12" height="15.33"/><rect class="fd4f4d2a-e081-45ed-b967-97bbb86a93b3" x="44.39" y="24.59" width="3.12" height="15.33"/><rect class="bc783cea-3032-48d9-b7a1-4d07b94500ec" x="151.12" y="24.59" width="9.22" height="15.33"/><rect class="bc783cea-3032-48d9-b7a1-4d07b94500ec" x="148.02" y="24.59" width="3.12" height="15.33"/><rect class="bc783cea-3032-48d9-b7a1-4d07b94500ec" x="160.35" y="24.59" width="3.12" height="15.33"/><rect class="3792814b-78b8-4613-a218-4adfb6b0fd91" x="151.12" y="24.59" width="9.22" height="15.33"/><rect class="fd4f4d2a-e081-45ed-b967-97bbb86a93b3" x="148.02" y="24.59" width="3.12" height="15.33"/><rect class="fd4f4d2a-e081-45ed-b967-97bbb86a93b3" x="160.35" y="24.59" width="3.12" height="15.33"/><rect class="bc783cea-3032-48d9-b7a1-4d07b94500ec" x="54.95" y="24.59" width="9.22" height="15.33"/><rect class="bc783cea-3032-48d9-b7a1-4d07b94500ec" x="51.84" y="24.59" width="3.12" height="15.33"/><rect class="bc783cea-3032-48d9-b7a1-4d07b94500ec" x="64.18" y="24.59" width="3.12" height="15.33"/><rect class="6ac89d97-9231-4923-8654-e5ff17da86bc" x="54.95" y="24.59" width="9.22" height="15.33"/><rect class="fd4f4d2a-e081-45ed-b967-97bbb86a93b3" x="51.84" y="24.59" width="3.12" height="15.33"/><rect class="fd4f4d2a-e081-45ed-b967-97bbb86a93b3" x="64.18" y="24.59" width="3.12" height="15.33"/><rect class="bc783cea-3032-48d9-b7a1-4d07b94500ec" x="169.72" y="24.59" width="9.22" height="15.33"/><rect class="bc783cea-3032-48d9-b7a1-4d07b94500ec" x="166.62" y="24.59" width="3.12" height="15.33"/><rect class="bc783cea-3032-48d9-b7a1-4d07b94500ec" x="178.95" y="24.59" width="3.12" height="15.33"/><rect class="3792814b-78b8-4613-a218-4adfb6b0fd91" x="169.72" y="24.59" width="9.22" height="15.33"/><rect class="fd4f4d2a-e081-45ed-b967-97bbb86a93b3" x="166.62" y="24.59" width="3.12" height="15.33"/><rect class="fd4f4d2a-e081-45ed-b967-97bbb86a93b3" x="178.95" y="24.59" width="3.12" height="15.33"/><rect class="bc783cea-3032-48d9-b7a1-4d07b94500ec" x="188.2" y="24.59" width="9.22" height="15.33"/><rect class="bc783cea-3032-48d9-b7a1-4d07b94500ec" x="185.1" y="24.59" width="3.12" height="15.33"/><rect class="bc783cea-3032-48d9-b7a1-4d07b94500ec" x="197.43" y="24.59" width="3.12" height="15.33"/><rect class="3792814b-78b8-4613-a218-4adfb6b0fd91" x="188.2" y="24.59" width="9.22" height="15.33"/><rect class="fd4f4d2a-e081-45ed-b967-97bbb86a93b3" x="185.1" y="24.59" width="3.12" height="15.33"/><rect class="fd4f4d2a-e081-45ed-b967-97bbb86a93b3" x="197.43" y="24.59" width="3.12" height="15.33"/><rect class="bc783cea-3032-48d9-b7a1-4d07b94500ec" x="180.23" y="4.93" width="8.5" height="15.33"/><rect class="bc783cea-3032-48d9-b7a1-4d07b94500ec" x="177.37" y="4.93" width="2.87" height="15.33"/><rect class="bc783cea-3032-48d9-b7a1-4d07b94500ec" x="188.74" y="4.93" width="2.87" height="15.33"/><rect class="91c77716-6a58-4555-9ab8-29b2a18a8e4d" x="180.23" y="4.93" width="8.5" height="15.33"/><rect class="fd4f4d2a-e081-45ed-b967-97bbb86a93b3" x="177.37" y="4.93" width="2.87" height="15.33"/><rect class="fd4f4d2a-e081-45ed-b967-97bbb86a93b3" x="188.74" y="4.93" width="2.87" height="15.33"/><rect class="bc783cea-3032-48d9-b7a1-4d07b94500ec" x="105.24" y="4.93" width="8.5" height="15.33"/><rect class="bc783cea-3032-48d9-b7a1-4d07b94500ec" x="102.38" y="4.93" width="2.87" height="15.33"/><rect class="bc783cea-3032-48d9-b7a1-4d07b94500ec" x="113.75" y="4.93" width="2.87" height="15.33"/><rect class="91c77716-6a58-4555-9ab8-29b2a18a8e4d" x="105.24" y="4.93" width="8.5" height="15.33"/><rect class="fd4f4d2a-e081-45ed-b967-97bbb86a93b3" x="102.38" y="4.93" width="2.87" height="15.33"/><rect class="fd4f4d2a-e081-45ed-b967-97bbb86a93b3" x="113.75" y="4.93" width="2.87" height="15.33"/><rect class="bc783cea-3032-48d9-b7a1-4d07b94500ec" x="51.76" y="94.37" width="9.22" height="15.33"/><rect class="bc783cea-3032-48d9-b7a1-4d07b94500ec" x="48.66" y="94.37" width="3.12" height="15.33"/><rect class="bc783cea-3032-48d9-b7a1-4d07b94500ec" x="60.99" y="94.37" width="3.12" height="15.33"/><rect class="3792814b-78b8-4613-a218-4adfb6b0fd91" x="51.76" y="94.37" width="9.22" height="15.33"/><rect class="fd4f4d2a-e081-45ed-b967-97bbb86a93b3" x="48.66" y="94.37" width="3.12" height="15.33"/><rect class="fd4f4d2a-e081-45ed-b967-97bbb86a93b3" x="60.99" y="94.37" width="3.12" height="15.33"/><rect class="bc783cea-3032-48d9-b7a1-4d07b94500ec" x="12.18" y="94.37" width="9.22" height="15.33"/><rect class="bc783cea-3032-48d9-b7a1-4d07b94500ec" x="9.08" y="94.37" width="3.12" height="15.33"/><rect class="bc783cea-3032-48d9-b7a1-4d07b94500ec" x="21.41" y="94.37" width="3.12" height="15.33"/><rect class="3792814b-78b8-4613-a218-4adfb6b0fd91" x="12.18" y="94.37" width="9.22" height="15.33"/><rect class="fd4f4d2a-e081-45ed-b967-97bbb86a93b3" x="9.08" y="94.37" width="3.12" height="15.33"/><rect class="fd4f4d2a-e081-45ed-b967-97bbb86a93b3" x="21.41" y="94.37" width="3.12" height="15.33"/><rect class="bc783cea-3032-48d9-b7a1-4d07b94500ec" x="90.24" y="94.37" width="8.5" height="15.33"/><rect class="bc783cea-3032-48d9-b7a1-4d07b94500ec" x="87.38" y="94.37" width="2.87" height="15.33"/><rect class="bc783cea-3032-48d9-b7a1-4d07b94500ec" x="98.75" y="94.37" width="2.87" height="15.33"/><rect class="91c77716-6a58-4555-9ab8-29b2a18a8e4d" x="90.24" y="94.37" width="8.5" height="15.33"/><rect class="fd4f4d2a-e081-45ed-b967-97bbb86a93b3" x="87.38" y="94.37" width="2.87" height="15.33"/><rect class="fd4f4d2a-e081-45ed-b967-97bbb86a93b3" x="98.75" y="94.37" width="2.87" height="15.33"/><rect class="bc783cea-3032-48d9-b7a1-4d07b94500ec" x="162.53" y="4.93" width="8.18" height="15.33"/><rect class="bc783cea-3032-48d9-b7a1-4d07b94500ec" x="159.78" y="4.93" width="2.76" height="15.33"/><rect class="bc783cea-3032-48d9-b7a1-4d07b94500ec" x="170.72" y="4.93" width="2.76" height="15.33"/><rect class="3792814b-78b8-4613-a218-4adfb6b0fd91" x="162.53" y="4.93" width="8.18" height="15.33"/><rect class="fd4f4d2a-e081-45ed-b967-97bbb86a93b3" x="159.78" y="4.93" width="2.76" height="15.33"/><rect class="fd4f4d2a-e081-45ed-b967-97bbb86a93b3" x="170.72" y="4.93" width="2.76" height="15.33"/><rect class="bc783cea-3032-48d9-b7a1-4d07b94500ec" x="89.87" y="75.62" width="4.14" height="15.33"/><rect class="bc783cea-3032-48d9-b7a1-4d07b94500ec" x="87.08" y="75.62" width="2.8" height="15.33"/><rect class="91c77716-6a58-4555-9ab8-29b2a18a8e4d" x="89.87" y="75.62" width="4.14" height="15.33"/><rect class="fd4f4d2a-e081-45ed-b967-97bbb86a93b3" x="87.08" y="75.62" width="2.8" height="15.33"/><rect class="bc783cea-3032-48d9-b7a1-4d07b94500ec" x="11.77" y="75.5" width="4.14" height="15.33"/><rect class="bc783cea-3032-48d9-b7a1-4d07b94500ec" x="8.97" y="75.5" width="2.8" height="15.33"/><rect class="3792814b-78b8-4613-a218-4adfb6b0fd91" x="11.77" y="75.5" width="4.14" height="15.33"/><rect class="fd4f4d2a-e081-45ed-b967-97bbb86a93b3" x="8.97" y="75.5" width="2.8" height="15.33"/><rect class="bc783cea-3032-48d9-b7a1-4d07b94500ec" x="32.01" y="75.5" width="4.14" height="15.33"/><rect class="bc783cea-3032-48d9-b7a1-4d07b94500ec" x="29.22" y="75.5" width="2.8" height="15.33"/><rect class="3792814b-78b8-4613-a218-4adfb6b0fd91" x="32.01" y="75.5" width="4.14" height="15.33"/><rect class="fd4f4d2a-e081-45ed-b967-97bbb86a93b3" x="29.22" y="75.5" width="2.8" height="15.33"/><rect class="bc783cea-3032-48d9-b7a1-4d07b94500ec" x="51.43" y="75.5" width="4.14" height="15.33"/><rect class="bc783cea-3032-48d9-b7a1-4d07b94500ec" x="48.64" y="75.5" width="2.8" height="15.33"/><rect class="3792814b-78b8-4613-a218-4adfb6b0fd91" x="51.43" y="75.5" width="4.14" height="15.33"/><rect class="fd4f4d2a-e081-45ed-b967-97bbb86a93b3" x="48.64" y="75.5" width="2.8" height="15.33"/><rect class="bc783cea-3032-48d9-b7a1-4d07b94500ec" x="70.76" y="75.5" width="4.14" height="15.33"/><rect class="bc783cea-3032-48d9-b7a1-4d07b94500ec" x="67.97" y="75.5" width="2.8" height="15.33"/><rect class="91c77716-6a58-4555-9ab8-29b2a18a8e4d" x="70.76" y="75.5" width="4.14" height="15.33"/><rect class="fd4f4d2a-e081-45ed-b967-97bbb86a93b3" x="67.97" y="75.5" width="2.8" height="15.33"/><rect class="bc783cea-3032-48d9-b7a1-4d07b94500ec" x="80.76" y="157.17" width="4.14" height="15.33"/><rect class="bc783cea-3032-48d9-b7a1-4d07b94500ec" x="77.97" y="157.17" width="2.8" height="15.33"/><rect class="91c77716-6a58-4555-9ab8-29b2a18a8e4d" x="80.76" y="157.17" width="4.14" height="15.33"/><rect class="fd4f4d2a-e081-45ed-b967-97bbb86a93b3" x="77.97" y="157.17" width="2.8" height="15.33"/><rect class="bc783cea-3032-48d9-b7a1-4d07b94500ec" x="21.51" y="157.17" width="4.14" height="15.33"/><rect class="bc783cea-3032-48d9-b7a1-4d07b94500ec" x="18.72" y="157.17" width="2.8" height="15.33"/><rect class="3792814b-78b8-4613-a218-4adfb6b0fd91" x="21.51" y="157.17" width="4.14" height="15.33"/><rect class="fd4f4d2a-e081-45ed-b967-97bbb86a93b3" x="18.72" y="157.17" width="2.8" height="15.33"/><rect class="bc783cea-3032-48d9-b7a1-4d07b94500ec" x="36.55" y="157.17" width="4.14" height="15.33"/><rect class="bc783cea-3032-48d9-b7a1-4d07b94500ec" x="33.76" y="157.17" width="2.8" height="15.33"/><rect class="3792814b-78b8-4613-a218-4adfb6b0fd91" x="36.55" y="157.17" width="4.14" height="15.33"/><rect class="fd4f4d2a-e081-45ed-b967-97bbb86a93b3" x="33.76" y="157.17" width="2.8" height="15.33"/><rect class="bc783cea-3032-48d9-b7a1-4d07b94500ec" x="51.09" y="157.17" width="4.14" height="15.33"/><rect class="bc783cea-3032-48d9-b7a1-4d07b94500ec" x="48.3" y="157.17" width="2.8" height="15.33"/><rect class="3792814b-78b8-4613-a218-4adfb6b0fd91" x="51.09" y="157.17" width="4.14" height="15.33"/><rect class="fd4f4d2a-e081-45ed-b967-97bbb86a93b3" x="48.3" y="157.17" width="2.8" height="15.33"/><rect class="bc783cea-3032-48d9-b7a1-4d07b94500ec" x="66.16" y="157.17" width="4.14" height="15.33"/><rect class="bc783cea-3032-48d9-b7a1-4d07b94500ec" x="63.37" y="157.17" width="2.8" height="15.33"/><rect class="91c77716-6a58-4555-9ab8-29b2a18a8e4d" x="66.16" y="157.17" width="4.14" height="15.33"/><rect class="fd4f4d2a-e081-45ed-b967-97bbb86a93b3" x="63.37" y="157.17" width="2.8" height="15.33"/><rect class="bc783cea-3032-48d9-b7a1-4d07b94500ec" x="202.62" y="94.37" width="6.25" height="15.33"/><rect class="bc783cea-3032-48d9-b7a1-4d07b94500ec" x="208.87" y="94.37" width="2.98" height="15.33"/><rect class="bc783cea-3032-48d9-b7a1-4d07b94500ec" x="199.52" y="94.37" width="3.12" height="15.33"/><rect class="bc783cea-3032-48d9-b7a1-4d07b94500ec" x="211.85" y="94.37" width="3.12" height="15.33"/><rect class="91c77716-6a58-4555-9ab8-29b2a18a8e4d" x="202.62" y="94.37" width="6.25" height="15.33"/><rect class="3792814b-78b8-4613-a218-4adfb6b0fd91" x="208.87" y="94.37" width="2.98" height="15.33"/><rect class="fd4f4d2a-e081-45ed-b967-97bbb86a93b3" x="199.52" y="94.37" width="3.12" height="15.33"/><rect class="fd4f4d2a-e081-45ed-b967-97bbb86a93b3" x="211.85" y="94.37" width="3.12" height="15.33"/><rect class="bc783cea-3032-48d9-b7a1-4d07b94500ec" x="71.07" y="94.37" width="6.25" height="15.33"/><rect class="bc783cea-3032-48d9-b7a1-4d07b94500ec" x="77.32" y="94.37" width="2.98" height="15.33"/><rect class="bc783cea-3032-48d9-b7a1-4d07b94500ec" x="67.97" y="94.37" width="3.12" height="15.33"/><rect class="bc783cea-3032-48d9-b7a1-4d07b94500ec" x="80.31" y="94.37" width="3.12" height="15.33"/><rect class="91c77716-6a58-4555-9ab8-29b2a18a8e4d" x="71.07" y="94.37" width="6.25" height="15.33"/><rect class="3792814b-78b8-4613-a218-4adfb6b0fd91" x="77.32" y="94.37" width="2.98" height="15.33"/><rect class="fd4f4d2a-e081-45ed-b967-97bbb86a93b3" x="67.97" y="94.37" width="3.12" height="15.33"/><rect class="fd4f4d2a-e081-45ed-b967-97bbb86a93b3" x="80.31" y="94.37" width="3.12" height="15.33"/><rect class="bc783cea-3032-48d9-b7a1-4d07b94500ec" x="113.09" y="24.59" width="6.25" height="15.33"/><rect class="bc783cea-3032-48d9-b7a1-4d07b94500ec" x="119.34" y="24.59" width="2.98" height="15.33"/><rect class="bc783cea-3032-48d9-b7a1-4d07b94500ec" x="109.99" y="24.59" width="3.12" height="15.33"/><rect class="bc783cea-3032-48d9-b7a1-4d07b94500ec" x="122.33" y="24.59" width="3.12" height="15.33"/><rect class="91c77716-6a58-4555-9ab8-29b2a18a8e4d" x="113.09" y="24.59" width="6.25" height="15.33"/><rect class="3792814b-78b8-4613-a218-4adfb6b0fd91" x="119.34" y="24.59" width="2.98" height="15.33"/><rect class="fd4f4d2a-e081-45ed-b967-97bbb86a93b3" x="109.99" y="24.59" width="3.12" height="15.33"/><rect class="fd4f4d2a-e081-45ed-b967-97bbb86a93b3" x="122.33" y="24.59" width="3.12" height="15.33"/><rect class="bc783cea-3032-48d9-b7a1-4d07b94500ec" x="202.39" y="75.5" width="4.14" height="15.33"/><rect class="bc783cea-3032-48d9-b7a1-4d07b94500ec" x="199.59" y="75.5" width="2.8" height="15.33"/><rect class="91c77716-6a58-4555-9ab8-29b2a18a8e4d" x="202.39" y="75.5" width="4.14" height="15.33"/><rect class="fd4f4d2a-e081-45ed-b967-97bbb86a93b3" x="199.59" y="75.5" width="2.8" height="15.33"/><rect class="bc783cea-3032-48d9-b7a1-4d07b94500ec" x="183.45" y="94.37" width="9.22" height="15.33"/><rect class="bc783cea-3032-48d9-b7a1-4d07b94500ec" x="180.34" y="94.37" width="3.12" height="15.33"/><rect class="bc783cea-3032-48d9-b7a1-4d07b94500ec" x="192.68" y="94.37" width="3.12" height="15.33"/><rect class="3792814b-78b8-4613-a218-4adfb6b0fd91" x="183.45" y="94.37" width="9.22" height="15.33"/><rect class="fd4f4d2a-e081-45ed-b967-97bbb86a93b3" x="180.34" y="94.37" width="3.12" height="15.33"/><rect class="fd4f4d2a-e081-45ed-b967-97bbb86a93b3" x="192.68" y="94.37" width="3.12" height="15.33"/><rect class="bc783cea-3032-48d9-b7a1-4d07b94500ec" x="143.86" y="94.37" width="9.22" height="15.33"/><rect class="bc783cea-3032-48d9-b7a1-4d07b94500ec" x="140.76" y="94.37" width="3.12" height="15.33"/><rect class="bc783cea-3032-48d9-b7a1-4d07b94500ec" x="153.1" y="94.37" width="3.12" height="15.33"/><rect class="3792814b-78b8-4613-a218-4adfb6b0fd91" x="143.86" y="94.37" width="9.22" height="15.33"/><rect class="fd4f4d2a-e081-45ed-b967-97bbb86a93b3" x="140.76" y="94.37" width="3.12" height="15.33"/><rect class="fd4f4d2a-e081-45ed-b967-97bbb86a93b3" x="153.1" y="94.37" width="3.12" height="15.33"/><rect class="bc783cea-3032-48d9-b7a1-4d07b94500ec" x="221.92" y="94.37" width="8.5" height="15.33"/><rect class="bc783cea-3032-48d9-b7a1-4d07b94500ec" x="219.06" y="94.37" width="2.87" height="15.33"/><rect class="bc783cea-3032-48d9-b7a1-4d07b94500ec" x="230.43" y="94.37" width="2.87" height="15.33"/><rect class="91c77716-6a58-4555-9ab8-29b2a18a8e4d" x="221.92" y="94.37" width="8.5" height="15.33"/><rect class="fd4f4d2a-e081-45ed-b967-97bbb86a93b3" x="219.06" y="94.37" width="2.87" height="15.33"/><rect class="fd4f4d2a-e081-45ed-b967-97bbb86a93b3" x="230.43" y="94.37" width="2.87" height="15.33"/><rect class="bc783cea-3032-48d9-b7a1-4d07b94500ec" x="221.58" y="75.5" width="4.14" height="15.33"/><rect class="bc783cea-3032-48d9-b7a1-4d07b94500ec" x="218.79" y="75.5" width="2.8" height="15.33"/><rect class="91c77716-6a58-4555-9ab8-29b2a18a8e4d" x="221.58" y="75.5" width="4.14" height="15.33"/><rect class="fd4f4d2a-e081-45ed-b967-97bbb86a93b3" x="218.79" y="75.5" width="2.8" height="15.33"/><rect class="bc783cea-3032-48d9-b7a1-4d07b94500ec" x="143.45" y="75.5" width="4.14" height="15.33"/><rect class="bc783cea-3032-48d9-b7a1-4d07b94500ec" x="140.66" y="75.5" width="2.8" height="15.33"/><rect class="3792814b-78b8-4613-a218-4adfb6b0fd91" x="143.45" y="75.5" width="4.14" height="15.33"/><rect class="fd4f4d2a-e081-45ed-b967-97bbb86a93b3" x="140.66" y="75.5" width="2.8" height="15.33"/><rect class="bc783cea-3032-48d9-b7a1-4d07b94500ec" x="163.7" y="75.5" width="4.14" height="15.33"/><rect class="bc783cea-3032-48d9-b7a1-4d07b94500ec" x="160.91" y="75.5" width="2.8" height="15.33"/><rect class="3792814b-78b8-4613-a218-4adfb6b0fd91" x="163.7" y="75.5" width="4.14" height="15.33"/><rect class="fd4f4d2a-e081-45ed-b967-97bbb86a93b3" x="160.91" y="75.5" width="2.8" height="15.33"/><rect class="bc783cea-3032-48d9-b7a1-4d07b94500ec" x="183.11" y="75.5" width="4.14" height="15.33"/><rect class="bc783cea-3032-48d9-b7a1-4d07b94500ec" x="180.32" y="75.5" width="2.8" height="15.33"/><rect class="3792814b-78b8-4613-a218-4adfb6b0fd91" x="183.11" y="75.5" width="4.14" height="15.33"/><rect class="fd4f4d2a-e081-45ed-b967-97bbb86a93b3" x="180.32" y="75.5" width="2.8" height="15.33"/><rect class="bc783cea-3032-48d9-b7a1-4d07b94500ec" x="201.39" y="154.17" width="4.14" height="15.33"/><rect class="bc783cea-3032-48d9-b7a1-4d07b94500ec" x="198.59" y="154.17" width="2.8" height="15.33"/><rect class="91c77716-6a58-4555-9ab8-29b2a18a8e4d" x="201.39" y="154.17" width="4.14" height="15.33"/><rect class="fd4f4d2a-e081-45ed-b967-97bbb86a93b3" x="198.59" y="154.17" width="2.8" height="15.33"/><rect class="bc783cea-3032-48d9-b7a1-4d07b94500ec" x="221.44" y="154.17" width="4.14" height="15.33"/><rect class="bc783cea-3032-48d9-b7a1-4d07b94500ec" x="218.65" y="154.17" width="2.8" height="15.33"/><rect class="91c77716-6a58-4555-9ab8-29b2a18a8e4d" x="221.44" y="154.17" width="4.14" height="15.33"/><rect class="fd4f4d2a-e081-45ed-b967-97bbb86a93b3" x="218.65" y="154.17" width="2.8" height="15.33"/><rect class="bc783cea-3032-48d9-b7a1-4d07b94500ec" x="138.19" y="154.17" width="4.14" height="15.33"/><rect class="bc783cea-3032-48d9-b7a1-4d07b94500ec" x="135.4" y="154.17" width="2.8" height="15.33"/><rect class="3792814b-78b8-4613-a218-4adfb6b0fd91" x="138.19" y="154.17" width="4.14" height="15.33"/><rect class="fd4f4d2a-e081-45ed-b967-97bbb86a93b3" x="135.4" y="154.17" width="2.8" height="15.33"/><rect class="bc783cea-3032-48d9-b7a1-4d07b94500ec" x="160.23" y="154.17" width="4.14" height="15.33"/><rect class="bc783cea-3032-48d9-b7a1-4d07b94500ec" x="157.44" y="154.17" width="2.8" height="15.33"/><rect class="3792814b-78b8-4613-a218-4adfb6b0fd91" x="160.23" y="154.17" width="4.14" height="15.33"/><rect class="fd4f4d2a-e081-45ed-b967-97bbb86a93b3" x="157.44" y="154.17" width="2.8" height="15.33"/><rect class="bc783cea-3032-48d9-b7a1-4d07b94500ec" x="180.77" y="154.17" width="4.14" height="15.33"/><rect class="bc783cea-3032-48d9-b7a1-4d07b94500ec" x="177.98" y="154.17" width="2.8" height="15.33"/><rect class="3792814b-78b8-4613-a218-4adfb6b0fd91" x="180.77" y="154.17" width="4.14" height="15.33"/><rect class="fd4f4d2a-e081-45ed-b967-97bbb86a93b3" x="177.98" y="154.17" width="2.8" height="15.33"/><rect class="bc783cea-3032-48d9-b7a1-4d07b94500ec" x="169.22" y="113.25" width="4.14" height="15.33"/><rect class="bc783cea-3032-48d9-b7a1-4d07b94500ec" x="173.35" y="113.25" width="2.8" height="15.33"/><rect class="91c77716-6a58-4555-9ab8-29b2a18a8e4d" x="169.22" y="113.25" width="4.14" height="15.33"/><rect class="fd4f4d2a-e081-45ed-b967-97bbb86a93b3" x="173.35" y="113.25" width="2.8" height="15.33"/><rect class="bc783cea-3032-48d9-b7a1-4d07b94500ec" x="149.17" y="113.25" width="4.14" height="15.33"/><rect class="bc783cea-3032-48d9-b7a1-4d07b94500ec" x="153.3" y="113.25" width="2.8" height="15.33"/><rect class="3792814b-78b8-4613-a218-4adfb6b0fd91" x="149.17" y="113.25" width="4.14" height="15.33"/><rect class="fd4f4d2a-e081-45ed-b967-97bbb86a93b3" x="153.3" y="113.25" width="2.8" height="15.33"/><rect class="bc783cea-3032-48d9-b7a1-4d07b94500ec" x="226.42" y="113.25" width="4.14" height="15.33"/><rect class="bc783cea-3032-48d9-b7a1-4d07b94500ec" x="230.55" y="113.25" width="2.8" height="15.33"/><rect class="91c77716-6a58-4555-9ab8-29b2a18a8e4d" x="226.42" y="113.25" width="4.14" height="15.33"/><rect class="fd4f4d2a-e081-45ed-b967-97bbb86a93b3" x="230.55" y="113.25" width="2.8" height="15.33"/><rect class="bc783cea-3032-48d9-b7a1-4d07b94500ec" x="188.83" y="113.25" width="4.14" height="15.33"/><rect class="bc783cea-3032-48d9-b7a1-4d07b94500ec" x="192.97" y="113.25" width="2.8" height="15.33"/><rect class="3792814b-78b8-4613-a218-4adfb6b0fd91" x="188.83" y="113.25" width="4.14" height="15.33"/><rect class="fd4f4d2a-e081-45ed-b967-97bbb86a93b3" x="192.97" y="113.25" width="2.8" height="15.33"/><rect class="bc783cea-3032-48d9-b7a1-4d07b94500ec" x="167.22" y="163.17" width="4.14" height="15.33"/><rect class="bc783cea-3032-48d9-b7a1-4d07b94500ec" x="171.35" y="163.17" width="2.8" height="15.33"/><rect class="91c77716-6a58-4555-9ab8-29b2a18a8e4d" x="167.22" y="163.17" width="4.14" height="15.33"/><rect class="fd4f4d2a-e081-45ed-b967-97bbb86a93b3" x="171.35" y="163.17" width="2.8" height="15.33"/><rect class="bc783cea-3032-48d9-b7a1-4d07b94500ec" x="145.17" y="163.17" width="4.14" height="15.33"/><rect class="bc783cea-3032-48d9-b7a1-4d07b94500ec" x="149.3" y="163.17" width="2.8" height="15.33"/><rect class="3792814b-78b8-4613-a218-4adfb6b0fd91" x="145.17" y="163.17" width="4.14" height="15.33"/><rect class="fd4f4d2a-e081-45ed-b967-97bbb86a93b3" x="149.3" y="163.17" width="2.8" height="15.33"/><rect class="bc783cea-3032-48d9-b7a1-4d07b94500ec" x="228.42" y="163.17" width="4.14" height="15.33"/><rect class="bc783cea-3032-48d9-b7a1-4d07b94500ec" x="232.55" y="163.17" width="2.8" height="15.33"/><rect class="91c77716-6a58-4555-9ab8-29b2a18a8e4d" x="228.42" y="163.17" width="4.14" height="15.33"/><rect class="fd4f4d2a-e081-45ed-b967-97bbb86a93b3" x="232.55" y="163.17" width="2.8" height="15.33"/><rect class="bc783cea-3032-48d9-b7a1-4d07b94500ec" x="187.83" y="163.17" width="4.14" height="15.33"/><rect class="bc783cea-3032-48d9-b7a1-4d07b94500ec" x="191.97" y="163.17" width="2.8" height="15.33"/><rect class="3792814b-78b8-4613-a218-4adfb6b0fd91" x="187.83" y="163.17" width="4.14" height="15.33"/><rect class="fd4f4d2a-e081-45ed-b967-97bbb86a93b3" x="191.97" y="163.17" width="2.8" height="15.33"/><rect class="bc783cea-3032-48d9-b7a1-4d07b94500ec" x="208.11" y="113.06" width="1.16" height="15.33"/><rect class="bc783cea-3032-48d9-b7a1-4d07b94500ec" x="209.27" y="113.06" width="2.97" height="15.33"/><rect class="bc783cea-3032-48d9-b7a1-4d07b94500ec" x="212.24" y="113.06" width="2.8" height="15.33"/><rect class="91c77716-6a58-4555-9ab8-29b2a18a8e4d" x="208.11" y="113.06" width="1.16" height="15.33"/><rect class="3792814b-78b8-4613-a218-4adfb6b0fd91" x="209.27" y="113.06" width="2.97" height="15.33"/><rect class="fd4f4d2a-e081-45ed-b967-97bbb86a93b3" x="212.24" y="113.06" width="2.8" height="15.33"/><rect class="bc783cea-3032-48d9-b7a1-4d07b94500ec" x="208.11" y="163.17" width="1.16" height="15.33"/><rect class="bc783cea-3032-48d9-b7a1-4d07b94500ec" x="209.27" y="163.17" width="2.97" height="15.33"/><rect class="bc783cea-3032-48d9-b7a1-4d07b94500ec" x="212.24" y="163.17" width="2.8" height="15.33"/><rect class="91c77716-6a58-4555-9ab8-29b2a18a8e4d" x="208.11" y="163.17" width="1.16" height="15.33"/><rect class="3792814b-78b8-4613-a218-4adfb6b0fd91" x="209.27" y="163.17" width="2.97" height="15.33"/><rect class="fd4f4d2a-e081-45ed-b967-97bbb86a93b3" x="212.24" y="163.17" width="2.8" height="15.33"/></g><g id="475b95f7-0f3e-4c17-9841-8a0a84533c98" data-name="text-titles"><path class="df43a984-7bf1-4fad-aa4a-4e835d347498" d="M99,53.38h3.47v1.33H97.41V46H99Z"/><path class="df43a984-7bf1-4fad-aa4a-4e835d347498" d="M105.33,46.77a.85.85,0,0,1-.08.36,1,1,0,0,1-.21.29,1,1,0,0,1-.3.2.92.92,0,0,1-.37.08.88.88,0,0,1-.36-.08,1,1,0,0,1-.3-.2,1,1,0,0,1-.2-.29.88.88,0,0,1-.08-.36.93.93,0,0,1,.08-.37.94.94,0,0,1,.5-.5.9.9,0,0,1,.36-.08.93.93,0,0,1,.37.08,1,1,0,0,1,.3.2,1,1,0,0,1,.21.3A.9.9,0,0,1,105.33,46.77Zm-.22,1.79v6.16h-1.48V48.56Z"/><path class="df43a984-7bf1-4fad-aa4a-4e835d347498" d="M106.79,54.72V45.8h1.48v3.52a2.93,2.93,0,0,1,.83-.62,2.39,2.39,0,0,1,1.08-.23,2,2,0,0,1,1.64.81,2.89,2.89,0,0,1,.47,1,4.9,4.9,0,0,1,.17,1.34,4.21,4.21,0,0,1-.19,1.28,3.14,3.14,0,0,1-.53,1,2.46,2.46,0,0,1-.83.67,2.43,2.43,0,0,1-1.09.24,2.23,2.23,0,0,1-.52-.06,1.78,1.78,0,0,1-.78-.41,3.13,3.13,0,0,1-.31-.33l-.07.41a.37.37,0,0,1-.12.22.38.38,0,0,1-.24.07Zm2.88-5.1a1.52,1.52,0,0,0-.79.2,2.28,2.28,0,0,0-.61.55v2.76a1.41,1.41,0,0,0,.55.44,1.67,1.67,0,0,0,.64.12,1.42,1.42,0,0,0,.61-.13,1.19,1.19,0,0,0,.46-.38,1.91,1.91,0,0,0,.29-.65,3.7,3.7,0,0,0,.1-.93,4.08,4.08,0,0,0-.09-.92,1.76,1.76,0,0,0-.25-.61,1,1,0,0,0-.39-.34A1.22,1.22,0,0,0,109.67,49.62Z"/><path class="df43a984-7bf1-4fad-aa4a-4e835d347498" d="M113.62,54.72V48.56h.87a.47.47,0,0,1,.32.08.48.48,0,0,1,.12.29l.09.74a3,3,0,0,1,.77-.9,1.63,1.63,0,0,1,1-.33,1.29,1.29,0,0,1,.76.21l-.19,1.11a.23.23,0,0,1-.08.15.27.27,0,0,1-.16,0,1,1,0,0,1-.25,0,1.64,1.64,0,0,0-.41,0,1.26,1.26,0,0,0-.79.25,2,2,0,0,0-.56.75v3.83Z"/><path class="df43a984-7bf1-4fad-aa4a-4e835d347498" d="M123.17,54.72h-.67a.72.72,0,0,1-.33-.06.4.4,0,0,1-.18-.25l-.13-.44a5.15,5.15,0,0,1-.46.37,2.79,2.79,0,0,1-.47.27,2.34,2.34,0,0,1-.51.16,3.05,3.05,0,0,1-.6.05,2.35,2.35,0,0,1-.72-.11,1.56,1.56,0,0,1-.57-.32,1.43,1.43,0,0,1-.37-.52,1.86,1.86,0,0,1-.13-.73,1.44,1.44,0,0,1,.18-.69,1.73,1.73,0,0,1,.61-.61,3.91,3.91,0,0,1,1.13-.46,7.25,7.25,0,0,1,1.76-.18v-.36a1.38,1.38,0,0,0-.26-.92,1,1,0,0,0-.76-.3,1.85,1.85,0,0,0-.6.08,2.38,2.38,0,0,0-.42.19l-.33.19a.66.66,0,0,1-.33.08.43.43,0,0,1-.26-.08.63.63,0,0,1-.17-.19l-.27-.47a3.66,3.66,0,0,1,2.56-1,2.47,2.47,0,0,1,1,.18,2,2,0,0,1,.72.49,2.11,2.11,0,0,1,.45.75,2.88,2.88,0,0,1,.15,1Zm-2.88-.92a2,2,0,0,0,.42,0,1.58,1.58,0,0,0,.36-.12,2,2,0,0,0,.33-.2,3,3,0,0,0,.32-.29v-1a6,6,0,0,0-1.08.08,2.85,2.85,0,0,0-.7.21.9.9,0,0,0-.37.3.66.66,0,0,0-.11.37.65.65,0,0,0,.23.56A1,1,0,0,0,120.29,53.79Z"/><path class="df43a984-7bf1-4fad-aa4a-4e835d347498" d="M124.63,54.72V48.56h.87a.47.47,0,0,1,.32.08.48.48,0,0,1,.12.29l.09.74a3,3,0,0,1,.77-.9,1.63,1.63,0,0,1,1-.33,1.29,1.29,0,0,1,.76.21l-.19,1.11a.23.23,0,0,1-.08.15.27.27,0,0,1-.16,0,1,1,0,0,1-.25,0,1.64,1.64,0,0,0-.41,0,1.26,1.26,0,0,0-.79.25,2,2,0,0,0-.56.75v3.83Z"/><path class="df43a984-7bf1-4fad-aa4a-4e835d347498" d="M131.71,56.41a.57.57,0,0,1-.17.24.53.53,0,0,1-.32.08h-1.1l1.15-2.47-2.49-5.7h1.3a.41.41,0,0,1,.28.08.54.54,0,0,1,.14.19L131.81,52a2.89,2.89,0,0,1,.11.32c0,.11.06.22.08.34,0-.12.07-.23.1-.34l.12-.33,1.24-3.19a.44.44,0,0,1,.16-.2.42.42,0,0,1,.25-.08h1.19Z"/><path class="df43a984-7bf1-4fad-aa4a-4e835d347498" d="M14.54,181.12a.44.44,0,0,1-.15.19.38.38,0,0,1-.21.05.53.53,0,0,1-.27-.09l-.35-.21a2.92,2.92,0,0,0-.48-.21,2,2,0,0,0-.65-.09,1.88,1.88,0,0,0-.58.08,1.24,1.24,0,0,0-.42.22.89.89,0,0,0-.25.34,1.14,1.14,0,0,0-.08.44.76.76,0,0,0,.17.51,1.43,1.43,0,0,0,.45.35,4.3,4.3,0,0,0,.64.26l.74.24a7,7,0,0,1,.74.3,2.56,2.56,0,0,1,.64.43,2,2,0,0,1,.45.64,2.22,2.22,0,0,1,.17.92,3,3,0,0,1-.2,1.1,2.54,2.54,0,0,1-.59.89,2.77,2.77,0,0,1-.94.6,3.49,3.49,0,0,1-1.28.22,4.15,4.15,0,0,1-.82-.08,4.31,4.31,0,0,1-.77-.23,4.09,4.09,0,0,1-.69-.36,3.39,3.39,0,0,1-.57-.47l.47-.77a.61.61,0,0,1,.16-.14.39.39,0,0,1,.21-.06.57.57,0,0,1,.32.12l.41.27a3.12,3.12,0,0,0,.56.27,2.16,2.16,0,0,0,.77.12,1.58,1.58,0,0,0,1.07-.33,1.18,1.18,0,0,0,.38-.94.87.87,0,0,0-.17-.56,1.38,1.38,0,0,0-.45-.36,3.44,3.44,0,0,0-.64-.25l-.73-.22a6.47,6.47,0,0,1-.73-.29,2.37,2.37,0,0,1-.64-.44,2,2,0,0,1-.45-.67,2.57,2.57,0,0,1-.17-1,2.38,2.38,0,0,1,.74-1.72,2.71,2.71,0,0,1,.89-.56,3.25,3.25,0,0,1,1.21-.21,4,4,0,0,1,1.42.24,3.2,3.2,0,0,1,1.1.67Z"/><path class="df43a984-7bf1-4fad-aa4a-4e835d347498" d="M18,180.27a.85.85,0,0,1-.08.36,1,1,0,0,1-.21.29,1,1,0,0,1-.3.2.92.92,0,0,1-.37.08.88.88,0,0,1-.36-.08,1,1,0,0,1-.3-.2,1,1,0,0,1-.2-.29.88.88,0,0,1-.08-.36.93.93,0,0,1,.08-.37.94.94,0,0,1,.5-.5.9.9,0,0,1,.36-.08.93.93,0,0,1,.37.08,1,1,0,0,1,.3.2,1,1,0,0,1,.21.3A.9.9,0,0,1,18,180.27Zm-.22,1.79v6.16H16.34v-6.16Z"/><path class="df43a984-7bf1-4fad-aa4a-4e835d347498" d="M19.5,188.22v-6.16h.91a.36.36,0,0,1,.38.27l.1.49a3.36,3.36,0,0,1,.39-.35,2.74,2.74,0,0,1,.44-.27,2.29,2.29,0,0,1,.5-.17,2.6,2.6,0,0,1,.58-.06,2.2,2.2,0,0,1,.89.17,1.77,1.77,0,0,1,.65.48,2.11,2.11,0,0,1,.4.74,3.14,3.14,0,0,1,.13.95v3.92H23.38V184.3a1.32,1.32,0,0,0-.26-.87,1,1,0,0,0-.78-.31,1.54,1.54,0,0,0-.72.17,2.55,2.55,0,0,0-.64.47v4.45Z"/><path class="df43a984-7bf1-4fad-aa4a-4e835d347498" d="M28.45,182a3.29,3.29,0,0,1,.74.08,2.56,2.56,0,0,1,.64.24H31.6v.55a.3.3,0,0,1-.07.22.42.42,0,0,1-.25.11l-.55.1a1.86,1.86,0,0,1,.09.33,1.93,1.93,0,0,1,0,.37,1.83,1.83,0,0,1-.18.83,1.85,1.85,0,0,1-.5.63,2.37,2.37,0,0,1-.76.4,3.13,3.13,0,0,1-1,.14,3.38,3.38,0,0,1-.68-.07q-.29.18-.29.39a.29.29,0,0,0,.17.27,1.4,1.4,0,0,0,.45.12,4.92,4.92,0,0,0,.63,0l.73,0a5.85,5.85,0,0,1,.73.11,2.13,2.13,0,0,1,.63.24,1.27,1.27,0,0,1,.45.44,1.36,1.36,0,0,1,.17.72,1.69,1.69,0,0,1-.2.79,2.13,2.13,0,0,1-.58.69,3.06,3.06,0,0,1-.93.48,4,4,0,0,1-1.26.18,4.81,4.81,0,0,1-1.22-.14,2.84,2.84,0,0,1-.86-.36,1.57,1.57,0,0,1-.51-.52,1.21,1.21,0,0,1-.17-.61A1,1,0,0,1,26,188a1.81,1.81,0,0,1,.73-.47,1,1,0,0,1-.37-.34,1,1,0,0,1-.14-.55.91.91,0,0,1,0-.29,1.16,1.16,0,0,1,.15-.29,1.46,1.46,0,0,1,.25-.27,1.72,1.72,0,0,1,.35-.23,1.93,1.93,0,0,1-.74-.67,1.8,1.8,0,0,1-.27-1,1.83,1.83,0,0,1,.18-.83,1.86,1.86,0,0,1,.51-.63,2.34,2.34,0,0,1,.77-.4A3.3,3.3,0,0,1,28.45,182Zm1.63,6.52a.42.42,0,0,0-.11-.3.71.71,0,0,0-.29-.18,2.14,2.14,0,0,0-.44-.09,4.3,4.3,0,0,0-.53,0h-.58a2.46,2.46,0,0,1-.57-.07,1.35,1.35,0,0,0-.41.33.67.67,0,0,0-.15.43.59.59,0,0,0,.08.3.66.66,0,0,0,.26.24,1.52,1.52,0,0,0,.46.16,4.14,4.14,0,0,0,1.4,0,1.71,1.71,0,0,0,.49-.18.76.76,0,0,0,.29-.27A.67.67,0,0,0,30.08,188.47ZM28.45,185a1.37,1.37,0,0,0,.48-.08.94.94,0,0,0,.34-.21.86.86,0,0,0,.2-.32,1.17,1.17,0,0,0,.07-.41,1,1,0,0,0-.27-.72,1.39,1.39,0,0,0-1.64,0,1,1,0,0,0-.27.72,1.15,1.15,0,0,0,.07.4.88.88,0,0,0,.2.32.9.9,0,0,0,.34.21A1.38,1.38,0,0,0,28.45,185Z"/><path class="df43a984-7bf1-4fad-aa4a-4e835d347498" d="M34.11,179.3v8.92H32.63V179.3Z"/><path class="df43a984-7bf1-4fad-aa4a-4e835d347498" d="M38.33,182a3,3,0,0,1,1.07.19,2.35,2.35,0,0,1,.84.54,2.48,2.48,0,0,1,.55.88,3.29,3.29,0,0,1,.2,1.19,2.18,2.18,0,0,1,0,.28.46.46,0,0,1-.05.17.22.22,0,0,1-.11.09.46.46,0,0,1-.17,0h-3.8a2.12,2.12,0,0,0,.51,1.39,1.59,1.59,0,0,0,1.18.44,2,2,0,0,0,.62-.08,2.85,2.85,0,0,0,.46-.19l.34-.19a.58.58,0,0,1,.29-.08.33.33,0,0,1,.16,0,.36.36,0,0,1,.11.1l.43.54a2.48,2.48,0,0,1-.55.48,3.1,3.1,0,0,1-.64.31,3.48,3.48,0,0,1-.68.17,5,5,0,0,1-.67,0,3.3,3.3,0,0,1-1.19-.21,2.69,2.69,0,0,1-1-.63,3,3,0,0,1-.64-1,4,4,0,0,1-.23-1.42,3.42,3.42,0,0,1,.2-1.19,2.85,2.85,0,0,1,.58-1,2.76,2.76,0,0,1,.93-.65A3.07,3.07,0,0,1,38.33,182Zm0,1.06a1.37,1.37,0,0,0-1,.37,1.81,1.81,0,0,0-.47,1h2.78a1.82,1.82,0,0,0-.08-.54,1.26,1.26,0,0,0-.24-.45,1.14,1.14,0,0,0-.41-.3A1.39,1.39,0,0,0,38.36,183Z"/><path class="df43a984-7bf1-4fad-aa4a-4e835d347498" d="M42,184h3.11v1.24H42Z"/><path class="df43a984-7bf1-4fad-aa4a-4e835d347498" d="M49,182a3,3,0,0,1,1.07.19,2.35,2.35,0,0,1,.84.54,2.48,2.48,0,0,1,.55.88,3.29,3.29,0,0,1,.2,1.19,2.18,2.18,0,0,1,0,.28.46.46,0,0,1-.05.17.22.22,0,0,1-.11.09.46.46,0,0,1-.17,0h-3.8a2.12,2.12,0,0,0,.51,1.39,1.59,1.59,0,0,0,1.18.44,2,2,0,0,0,.62-.08,2.85,2.85,0,0,0,.46-.19l.34-.19a.58.58,0,0,1,.29-.08.33.33,0,0,1,.16,0,.36.36,0,0,1,.11.1l.43.54a2.48,2.48,0,0,1-.55.48,3.1,3.1,0,0,1-.64.31,3.48,3.48,0,0,1-.68.17,5,5,0,0,1-.67,0,3.3,3.3,0,0,1-1.19-.21,2.69,2.69,0,0,1-1-.63,3,3,0,0,1-.64-1,4,4,0,0,1-.23-1.42,3.42,3.42,0,0,1,.2-1.19,2.85,2.85,0,0,1,.58-1,2.76,2.76,0,0,1,.93-.65A3.07,3.07,0,0,1,49,182Zm0,1.06a1.37,1.37,0,0,0-1,.37,1.81,1.81,0,0,0-.47,1h2.78a1.82,1.82,0,0,0-.08-.54,1.26,1.26,0,0,0-.24-.45,1.14,1.14,0,0,0-.41-.3A1.39,1.39,0,0,0,49.08,183Z"/><path class="df43a984-7bf1-4fad-aa4a-4e835d347498" d="M52.92,188.22v-6.16h.91a.36.36,0,0,1,.38.27l.1.49a3.36,3.36,0,0,1,.39-.35,2.74,2.74,0,0,1,.44-.27,2.29,2.29,0,0,1,.5-.17,2.6,2.6,0,0,1,.58-.06,2.2,2.2,0,0,1,.89.17,1.77,1.77,0,0,1,.65.48,2.11,2.11,0,0,1,.4.74,3.14,3.14,0,0,1,.13.95v3.92H56.8V184.3a1.32,1.32,0,0,0-.26-.87,1,1,0,0,0-.78-.31,1.54,1.54,0,0,0-.72.17,2.55,2.55,0,0,0-.64.47v4.45Z"/><path class="df43a984-7bf1-4fad-aa4a-4e835d347498" d="M64.07,188.22a.36.36,0,0,1-.38-.27l-.12-.59a3.67,3.67,0,0,1-.4.39,2.55,2.55,0,0,1-.45.3,2.35,2.35,0,0,1-.52.19,2.51,2.51,0,0,1-.6.07,2,2,0,0,1-1.65-.82,2.92,2.92,0,0,1-.47-1,5,5,0,0,1-.17-1.34,4.19,4.19,0,0,1,.19-1.27,3.1,3.1,0,0,1,.53-1,2.5,2.5,0,0,1,.83-.67,2.41,2.41,0,0,1,1.09-.24,2.15,2.15,0,0,1,.88.17,2.31,2.31,0,0,1,.65.44V179.3H65v8.92Zm-2-1.09a1.52,1.52,0,0,0,.79-.19,2.32,2.32,0,0,0,.61-.55v-2.76a1.46,1.46,0,0,0-.55-.43,1.62,1.62,0,0,0-.64-.13,1.44,1.44,0,0,0-.61.13,1.19,1.19,0,0,0-.46.38,1.87,1.87,0,0,0-.29.65,3.75,3.75,0,0,0-.1.93,4.08,4.08,0,0,0,.09.92,1.79,1.79,0,0,0,.25.61.94.94,0,0,0,.4.34A1.26,1.26,0,0,0,62.1,187.13Z"/><path class="df43a984-7bf1-4fad-aa4a-4e835d347498" d="M68.9,188.22v-6.16h.87a.47.47,0,0,1,.32.08.48.48,0,0,1,.12.29l.09.74a3,3,0,0,1,.77-.9,1.63,1.63,0,0,1,1-.33,1.29,1.29,0,0,1,.76.21l-.19,1.11a.23.23,0,0,1-.08.15.27.27,0,0,1-.16,0,1,1,0,0,1-.25,0,1.64,1.64,0,0,0-.41,0,1.26,1.26,0,0,0-.79.25,2,2,0,0,0-.56.75v3.83Z"/><path class="df43a984-7bf1-4fad-aa4a-4e835d347498" d="M76.34,182a3,3,0,0,1,1.07.19,2.35,2.35,0,0,1,.84.54,2.48,2.48,0,0,1,.55.88,3.29,3.29,0,0,1,.2,1.19,2.18,2.18,0,0,1,0,.28.46.46,0,0,1-.05.17.22.22,0,0,1-.11.09.46.46,0,0,1-.17,0h-3.8a2.12,2.12,0,0,0,.51,1.39,1.59,1.59,0,0,0,1.18.44,2,2,0,0,0,.62-.08,2.85,2.85,0,0,0,.46-.19l.34-.19a.58.58,0,0,1,.29-.08.33.33,0,0,1,.16,0,.36.36,0,0,1,.11.1l.43.54a2.48,2.48,0,0,1-.55.48,3.1,3.1,0,0,1-.64.31,3.48,3.48,0,0,1-.68.17,5,5,0,0,1-.67,0,3.3,3.3,0,0,1-1.19-.21,2.69,2.69,0,0,1-1-.63,3,3,0,0,1-.64-1,4,4,0,0,1-.23-1.42,3.42,3.42,0,0,1,.2-1.19,2.85,2.85,0,0,1,.58-1,2.76,2.76,0,0,1,.93-.65A3.07,3.07,0,0,1,76.34,182Zm0,1.06a1.37,1.37,0,0,0-1,.37,1.81,1.81,0,0,0-.47,1h2.78a1.82,1.82,0,0,0-.08-.54,1.26,1.26,0,0,0-.24-.45,1.14,1.14,0,0,0-.41-.3A1.39,1.39,0,0,0,76.37,183Z"/><path class="df43a984-7bf1-4fad-aa4a-4e835d347498" d="M85,188.22h-.67a.72.72,0,0,1-.33-.06.41.41,0,0,1-.18-.25l-.13-.44a5,5,0,0,1-.46.37,2.75,2.75,0,0,1-.46.27,2.37,2.37,0,0,1-.51.16,3.07,3.07,0,0,1-.6.05,2.35,2.35,0,0,1-.72-.11,1.57,1.57,0,0,1-.57-.32,1.44,1.44,0,0,1-.37-.52,1.84,1.84,0,0,1-.13-.73,1.44,1.44,0,0,1,.18-.69,1.73,1.73,0,0,1,.61-.61,3.91,3.91,0,0,1,1.13-.46,7.25,7.25,0,0,1,1.76-.18v-.36a1.38,1.38,0,0,0-.26-.92,1,1,0,0,0-.76-.3,1.85,1.85,0,0,0-.6.08,2.34,2.34,0,0,0-.42.19l-.33.19a.66.66,0,0,1-.33.08.43.43,0,0,1-.26-.08.62.62,0,0,1-.17-.19l-.27-.47a3.66,3.66,0,0,1,2.56-1,2.47,2.47,0,0,1,1,.18,2,2,0,0,1,.72.49,2.11,2.11,0,0,1,.45.75,2.91,2.91,0,0,1,.15,1Zm-2.88-.92a2,2,0,0,0,.42,0,1.56,1.56,0,0,0,.36-.12,1.91,1.91,0,0,0,.33-.2,3,3,0,0,0,.32-.29v-1a6,6,0,0,0-1.08.08,2.86,2.86,0,0,0-.7.21.91.91,0,0,0-.37.3.66.66,0,0,0-.11.37.65.65,0,0,0,.23.56A1,1,0,0,0,82.16,187.29Z"/><path class="df43a984-7bf1-4fad-aa4a-4e835d347498" d="M90.83,188.22a.36.36,0,0,1-.38-.27l-.12-.59a3.67,3.67,0,0,1-.4.39,2.52,2.52,0,0,1-.45.3,2.36,2.36,0,0,1-.52.19,2.52,2.52,0,0,1-.6.07,2,2,0,0,1-1.65-.82,2.92,2.92,0,0,1-.47-1,5,5,0,0,1-.16-1.34,4.19,4.19,0,0,1,.19-1.27,3.09,3.09,0,0,1,.53-1,2.48,2.48,0,0,1,.83-.67,2.41,2.41,0,0,1,1.09-.24,2.15,2.15,0,0,1,.88.17,2.31,2.31,0,0,1,.65.44V179.3h1.48v8.92Zm-2-1.09a1.52,1.52,0,0,0,.79-.19,2.34,2.34,0,0,0,.61-.55v-2.76a1.46,1.46,0,0,0-.55-.43,1.62,1.62,0,0,0-.64-.13,1.43,1.43,0,0,0-.61.13,1.18,1.18,0,0,0-.46.38,1.85,1.85,0,0,0-.29.65,3.7,3.7,0,0,0-.1.93,4.14,4.14,0,0,0,.09.92,1.83,1.83,0,0,0,.25.61.94.94,0,0,0,.4.34A1.26,1.26,0,0,0,88.85,187.13Z"/><path class="df43a984-7bf1-4fad-aa4a-4e835d347498" d="M97,183.26a.4.4,0,0,1-.13.13.32.32,0,0,1-.17,0,.53.53,0,0,1-.23-.06l-.29-.14a2.68,2.68,0,0,0-.37-.13,1.76,1.76,0,0,0-.49-.06,1.14,1.14,0,0,0-.69.19.58.58,0,0,0-.25.49.46.46,0,0,0,.13.33,1.15,1.15,0,0,0,.34.24,3.23,3.23,0,0,0,.48.18l.55.18c.19.06.37.14.55.22a1.93,1.93,0,0,1,.48.31,1.37,1.37,0,0,1,.47,1.09,2,2,0,0,1-.16.82,1.79,1.79,0,0,1-.47.65,2.2,2.2,0,0,1-.77.43,3.31,3.31,0,0,1-1.05.15,3.35,3.35,0,0,1-.62-.06,3.65,3.65,0,0,1-.58-.16,3.29,3.29,0,0,1-.52-.24,2.47,2.47,0,0,1-.42-.3l.34-.56a.47.47,0,0,1,.16-.16.43.43,0,0,1,.23-.05.48.48,0,0,1,.26.08l.29.17a2.51,2.51,0,0,0,.38.17,1.66,1.66,0,0,0,.56.08,1.44,1.44,0,0,0,.45-.06,1,1,0,0,0,.31-.17.62.62,0,0,0,.18-.24.71.71,0,0,0,.06-.28.5.5,0,0,0-.13-.35,1.14,1.14,0,0,0-.34-.24,3.28,3.28,0,0,0-.49-.18l-.56-.18a5.08,5.08,0,0,1-.56-.22,1.92,1.92,0,0,1-.49-.33,1.48,1.48,0,0,1-.34-.49,1.69,1.69,0,0,1-.13-.7,1.77,1.77,0,0,1,.15-.72,1.69,1.69,0,0,1,.44-.6,2.21,2.21,0,0,1,.73-.41,3,3,0,0,1,1-.15,3.07,3.07,0,0,1,1.16.21,2.63,2.63,0,0,1,.87.55Z"/><path class="df43a984-7bf1-4fad-aa4a-4e835d347498" d="M141.82,197.16v3.05h-1.61v-8.68H143a5,5,0,0,1,1.51.2,2.91,2.91,0,0,1,1,.57,2.24,2.24,0,0,1,.61.88,3,3,0,0,1,.2,1.12,3.09,3.09,0,0,1-.21,1.16,2.39,2.39,0,0,1-.63.9,2.93,2.93,0,0,1-1,.59,4.66,4.66,0,0,1-1.48.21Zm0-1.26H143a2.46,2.46,0,0,0,.77-.11,1.44,1.44,0,0,0,.55-.32,1.3,1.3,0,0,0,.32-.5,1.92,1.92,0,0,0,.11-.66,1.74,1.74,0,0,0-.11-.63,1.24,1.24,0,0,0-.32-.48,1.45,1.45,0,0,0-.55-.3,2.55,2.55,0,0,0-.77-.11h-1.21Z"/><path class="df43a984-7bf1-4fad-aa4a-4e835d347498" d="M152.09,200.22h-.67a.72.72,0,0,1-.33-.06.4.4,0,0,1-.18-.25l-.13-.44a5.15,5.15,0,0,1-.46.37,2.79,2.79,0,0,1-.47.27,2.34,2.34,0,0,1-.51.16,3.05,3.05,0,0,1-.6.05,2.35,2.35,0,0,1-.72-.11,1.56,1.56,0,0,1-.57-.32,1.43,1.43,0,0,1-.37-.52,1.86,1.86,0,0,1-.13-.73,1.44,1.44,0,0,1,.18-.69,1.73,1.73,0,0,1,.61-.61,3.91,3.91,0,0,1,1.13-.46,7.25,7.25,0,0,1,1.76-.18v-.36a1.38,1.38,0,0,0-.26-.92,1,1,0,0,0-.76-.3,1.85,1.85,0,0,0-.6.08,2.38,2.38,0,0,0-.42.19l-.33.19a.66.66,0,0,1-.33.08.43.43,0,0,1-.26-.08.63.63,0,0,1-.17-.19l-.27-.47a3.66,3.66,0,0,1,2.56-1,2.47,2.47,0,0,1,1,.18,2,2,0,0,1,.72.49,2.11,2.11,0,0,1,.45.75,2.88,2.88,0,0,1,.15,1Zm-2.88-.92a2,2,0,0,0,.42,0,1.58,1.58,0,0,0,.36-.12,2,2,0,0,0,.33-.2,3,3,0,0,0,.32-.29v-1a6,6,0,0,0-1.08.08,2.85,2.85,0,0,0-.7.21.9.9,0,0,0-.37.3.66.66,0,0,0-.11.37.65.65,0,0,0,.23.56A1,1,0,0,0,149.21,199.29Z"/><path class="df43a984-7bf1-4fad-aa4a-4e835d347498" d="M155.35,192.27a.85.85,0,0,1-.08.36,1,1,0,0,1-.21.29,1,1,0,0,1-.3.2.92.92,0,0,1-.37.08.88.88,0,0,1-.36-.08,1,1,0,0,1-.3-.2,1,1,0,0,1-.2-.29.88.88,0,0,1-.08-.36.93.93,0,0,1,.08-.37.94.94,0,0,1,.5-.5.9.9,0,0,1,.36-.08.93.93,0,0,1,.37.08,1,1,0,0,1,.3.2,1,1,0,0,1,.21.3A.9.9,0,0,1,155.35,192.27Zm-.22,1.79v6.16h-1.48v-6.16Z"/><path class="df43a984-7bf1-4fad-aa4a-4e835d347498" d="M156.8,200.22v-6.16h.87a.47.47,0,0,1,.32.08.48.48,0,0,1,.12.29l.09.74a3,3,0,0,1,.77-.9,1.63,1.63,0,0,1,1-.33,1.29,1.29,0,0,1,.76.21l-.19,1.11a.23.23,0,0,1-.08.15.27.27,0,0,1-.16,0,1,1,0,0,1-.25,0,1.64,1.64,0,0,0-.41,0,1.26,1.26,0,0,0-.79.25,2,2,0,0,0-.56.75v3.83Z"/><path class="df43a984-7bf1-4fad-aa4a-4e835d347498" d="M164.25,194a3,3,0,0,1,1.07.19,2.35,2.35,0,0,1,.84.54,2.48,2.48,0,0,1,.55.88,3.29,3.29,0,0,1,.2,1.19,2.18,2.18,0,0,1,0,.28.46.46,0,0,1-.05.17.22.22,0,0,1-.11.09.46.46,0,0,1-.17,0h-3.8a2.12,2.12,0,0,0,.51,1.39,1.59,1.59,0,0,0,1.18.44,2,2,0,0,0,.62-.08,2.85,2.85,0,0,0,.46-.19l.34-.19a.58.58,0,0,1,.29-.08.33.33,0,0,1,.16,0,.36.36,0,0,1,.11.1l.43.54a2.48,2.48,0,0,1-.55.48,3.1,3.1,0,0,1-.64.31,3.48,3.48,0,0,1-.68.17,5,5,0,0,1-.67,0,3.3,3.3,0,0,1-1.19-.21,2.69,2.69,0,0,1-1-.63,3,3,0,0,1-.64-1,4,4,0,0,1-.23-1.42,3.42,3.42,0,0,1,.2-1.19,2.85,2.85,0,0,1,.58-1,2.76,2.76,0,0,1,.93-.65A3.07,3.07,0,0,1,164.25,194Zm0,1.06a1.37,1.37,0,0,0-1,.37,1.81,1.81,0,0,0-.47,1h2.78a1.82,1.82,0,0,0-.08-.54,1.26,1.26,0,0,0-.24-.45,1.14,1.14,0,0,0-.41-.3A1.39,1.39,0,0,0,164.28,195Z"/><path class="df43a984-7bf1-4fad-aa4a-4e835d347498" d="M172.45,200.22a.36.36,0,0,1-.38-.27l-.12-.59a3.67,3.67,0,0,1-.4.39,2.52,2.52,0,0,1-.45.3,2.36,2.36,0,0,1-.52.19,2.52,2.52,0,0,1-.6.07,2,2,0,0,1-1.65-.82,2.92,2.92,0,0,1-.47-1,5,5,0,0,1-.16-1.34,4.19,4.19,0,0,1,.19-1.27,3.09,3.09,0,0,1,.53-1,2.48,2.48,0,0,1,.83-.67,2.41,2.41,0,0,1,1.09-.24,2.15,2.15,0,0,1,.88.17,2.31,2.31,0,0,1,.65.44V191.3h1.48v8.92Zm-2-1.09a1.52,1.52,0,0,0,.79-.19,2.34,2.34,0,0,0,.61-.55v-2.76a1.46,1.46,0,0,0-.55-.43,1.62,1.62,0,0,0-.64-.13,1.43,1.43,0,0,0-.61.13,1.18,1.18,0,0,0-.46.38,1.85,1.85,0,0,0-.29.65,3.7,3.7,0,0,0-.1.93,4.14,4.14,0,0,0,.09.92,1.83,1.83,0,0,0,.25.61.94.94,0,0,0,.4.34A1.26,1.26,0,0,0,170.48,199.13Z"/><path class="df43a984-7bf1-4fad-aa4a-4e835d347498" d="M174.77,196h3.11v1.24h-3.11Z"/><path class="df43a984-7bf1-4fad-aa4a-4e835d347498" d="M181.81,194a3,3,0,0,1,1.07.19,2.35,2.35,0,0,1,.84.54,2.48,2.48,0,0,1,.55.88,3.29,3.29,0,0,1,.2,1.19,2.18,2.18,0,0,1,0,.28.46.46,0,0,1-.05.17.22.22,0,0,1-.11.09.46.46,0,0,1-.17,0h-3.8a2.12,2.12,0,0,0,.51,1.39,1.59,1.59,0,0,0,1.18.44,2,2,0,0,0,.62-.08,2.85,2.85,0,0,0,.46-.19l.34-.19a.58.58,0,0,1,.29-.08.33.33,0,0,1,.16,0,.36.36,0,0,1,.11.1l.43.54a2.48,2.48,0,0,1-.55.48,3.1,3.1,0,0,1-.64.31,3.48,3.48,0,0,1-.68.17,5,5,0,0,1-.67,0,3.3,3.3,0,0,1-1.19-.21,2.69,2.69,0,0,1-1-.63,3,3,0,0,1-.64-1,4,4,0,0,1-.23-1.42,3.42,3.42,0,0,1,.2-1.19,2.85,2.85,0,0,1,.58-1,2.76,2.76,0,0,1,.93-.65A3.07,3.07,0,0,1,181.81,194Zm0,1.06a1.37,1.37,0,0,0-1,.37,1.81,1.81,0,0,0-.47,1h2.78a1.82,1.82,0,0,0-.08-.54,1.26,1.26,0,0,0-.24-.45,1.14,1.14,0,0,0-.41-.3A1.39,1.39,0,0,0,181.84,195Z"/><path class="df43a984-7bf1-4fad-aa4a-4e835d347498" d="M185.68,200.22v-6.16h.91a.36.36,0,0,1,.38.27l.1.49a3.36,3.36,0,0,1,.39-.35,2.74,2.74,0,0,1,.44-.27,2.29,2.29,0,0,1,.5-.17A2.6,2.6,0,0,1,189,194a2.2,2.2,0,0,1,.89.17,1.77,1.77,0,0,1,.65.48,2.11,2.11,0,0,1,.4.74,3.14,3.14,0,0,1,.13.95v3.92h-1.48V196.3a1.32,1.32,0,0,0-.26-.87,1,1,0,0,0-.78-.31,1.54,1.54,0,0,0-.72.17,2.55,2.55,0,0,0-.64.47v4.45Z"/><path class="df43a984-7bf1-4fad-aa4a-4e835d347498" d="M196.83,200.22a.36.36,0,0,1-.38-.27l-.12-.59a3.67,3.67,0,0,1-.4.39,2.55,2.55,0,0,1-.45.3,2.35,2.35,0,0,1-.52.19,2.51,2.51,0,0,1-.6.07,2,2,0,0,1-1.65-.82,2.92,2.92,0,0,1-.47-1,5,5,0,0,1-.17-1.34,4.19,4.19,0,0,1,.19-1.27,3.1,3.1,0,0,1,.53-1,2.5,2.5,0,0,1,.83-.67,2.41,2.41,0,0,1,1.09-.24,2.15,2.15,0,0,1,.88.17,2.31,2.31,0,0,1,.65.44V191.3h1.48v8.92Zm-2-1.09a1.52,1.52,0,0,0,.79-.19,2.32,2.32,0,0,0,.61-.55v-2.76a1.46,1.46,0,0,0-.55-.43,1.62,1.62,0,0,0-.64-.13,1.44,1.44,0,0,0-.61.13,1.19,1.19,0,0,0-.46.38,1.87,1.87,0,0,0-.29.65,3.75,3.75,0,0,0-.1.93,4.08,4.08,0,0,0,.09.92,1.79,1.79,0,0,0,.25.61.94.94,0,0,0,.4.34A1.26,1.26,0,0,0,194.86,199.13Z"/><path class="df43a984-7bf1-4fad-aa4a-4e835d347498" d="M201.66,200.22v-6.16h.87a.47.47,0,0,1,.32.08.48.48,0,0,1,.12.29l.09.74a3,3,0,0,1,.77-.9,1.63,1.63,0,0,1,1-.33,1.29,1.29,0,0,1,.76.21l-.19,1.11a.23.23,0,0,1-.08.15.27.27,0,0,1-.16,0,1,1,0,0,1-.25,0,1.64,1.64,0,0,0-.41,0,1.26,1.26,0,0,0-.79.25,2,2,0,0,0-.56.75v3.83Z"/><path class="df43a984-7bf1-4fad-aa4a-4e835d347498" d="M209.1,194a3,3,0,0,1,1.07.19,2.35,2.35,0,0,1,.84.54,2.48,2.48,0,0,1,.55.88,3.29,3.29,0,0,1,.2,1.19,2.18,2.18,0,0,1,0,.28.46.46,0,0,1-.05.17.22.22,0,0,1-.11.09.46.46,0,0,1-.17,0h-3.8a2.12,2.12,0,0,0,.51,1.39,1.59,1.59,0,0,0,1.18.44,2,2,0,0,0,.62-.08,2.85,2.85,0,0,0,.46-.19l.34-.19a.58.58,0,0,1,.29-.08.33.33,0,0,1,.16,0,.36.36,0,0,1,.11.1l.43.54a2.48,2.48,0,0,1-.55.48,3.1,3.1,0,0,1-.64.31,3.48,3.48,0,0,1-.68.17,5,5,0,0,1-.67,0,3.3,3.3,0,0,1-1.19-.21,2.69,2.69,0,0,1-1-.63,3,3,0,0,1-.64-1,4,4,0,0,1-.23-1.42,3.42,3.42,0,0,1,.2-1.19,2.85,2.85,0,0,1,.58-1,2.76,2.76,0,0,1,.93-.65A3.07,3.07,0,0,1,209.1,194Zm0,1.06a1.37,1.37,0,0,0-1,.37,1.81,1.81,0,0,0-.47,1h2.78a1.82,1.82,0,0,0-.08-.54,1.26,1.26,0,0,0-.24-.45,1.14,1.14,0,0,0-.41-.3A1.39,1.39,0,0,0,209.13,195Z"/><path class="df43a984-7bf1-4fad-aa4a-4e835d347498" d="M217.8,200.22h-.67a.72.72,0,0,1-.33-.06.41.41,0,0,1-.18-.25l-.13-.44a5,5,0,0,1-.46.37,2.75,2.75,0,0,1-.46.27,2.37,2.37,0,0,1-.51.16,3.07,3.07,0,0,1-.6.05,2.35,2.35,0,0,1-.72-.11,1.57,1.57,0,0,1-.57-.32,1.44,1.44,0,0,1-.37-.52,1.84,1.84,0,0,1-.13-.73,1.44,1.44,0,0,1,.18-.69,1.73,1.73,0,0,1,.61-.61,3.91,3.91,0,0,1,1.13-.46,7.25,7.25,0,0,1,1.76-.18v-.36a1.38,1.38,0,0,0-.26-.92,1,1,0,0,0-.76-.3,1.85,1.85,0,0,0-.6.08,2.34,2.34,0,0,0-.42.19l-.33.19a.66.66,0,0,1-.33.08.43.43,0,0,1-.26-.08.62.62,0,0,1-.17-.19l-.27-.47a3.66,3.66,0,0,1,2.56-1,2.47,2.47,0,0,1,1,.18,2,2,0,0,1,.72.49,2.11,2.11,0,0,1,.45.75,2.91,2.91,0,0,1,.15,1Zm-2.88-.92a2,2,0,0,0,.42,0,1.56,1.56,0,0,0,.36-.12,1.91,1.91,0,0,0,.33-.2,3,3,0,0,0,.32-.29v-1a6,6,0,0,0-1.08.08,2.86,2.86,0,0,0-.7.21.91.91,0,0,0-.37.3.66.66,0,0,0-.11.37.65.65,0,0,0,.23.56A1,1,0,0,0,214.92,199.29Z"/><path class="df43a984-7bf1-4fad-aa4a-4e835d347498" d="M223.59,200.22a.36.36,0,0,1-.38-.27l-.12-.59a3.67,3.67,0,0,1-.4.39,2.52,2.52,0,0,1-.45.3,2.36,2.36,0,0,1-.52.19,2.52,2.52,0,0,1-.6.07,2,2,0,0,1-1.65-.82,2.92,2.92,0,0,1-.47-1,5,5,0,0,1-.16-1.34,4.19,4.19,0,0,1,.19-1.27,3.09,3.09,0,0,1,.53-1,2.48,2.48,0,0,1,.83-.67,2.41,2.41,0,0,1,1.09-.24,2.15,2.15,0,0,1,.88.17,2.31,2.31,0,0,1,.65.44V191.3h1.48v8.92Zm-2-1.09a1.52,1.52,0,0,0,.79-.19,2.34,2.34,0,0,0,.61-.55v-2.76a1.46,1.46,0,0,0-.55-.43,1.62,1.62,0,0,0-.64-.13,1.43,1.43,0,0,0-.61.13,1.18,1.18,0,0,0-.46.38,1.85,1.85,0,0,0-.29.65,3.7,3.7,0,0,0-.1.93,4.14,4.14,0,0,0,.09.92,1.83,1.83,0,0,0,.25.61.94.94,0,0,0,.4.34A1.26,1.26,0,0,0,221.61,199.13Z"/><path class="df43a984-7bf1-4fad-aa4a-4e835d347498" d="M229.75,195.26a.4.4,0,0,1-.13.13.32.32,0,0,1-.17,0,.53.53,0,0,1-.23-.06l-.29-.14a2.68,2.68,0,0,0-.37-.13,1.76,1.76,0,0,0-.49-.06,1.14,1.14,0,0,0-.69.19.58.58,0,0,0-.25.49.46.46,0,0,0,.13.33,1.15,1.15,0,0,0,.34.24,3.23,3.23,0,0,0,.48.18l.55.18c.19.06.37.14.55.22a1.93,1.93,0,0,1,.48.31,1.37,1.37,0,0,1,.47,1.09,2,2,0,0,1-.16.82,1.79,1.79,0,0,1-.47.65,2.2,2.2,0,0,1-.77.43,3.31,3.31,0,0,1-1.05.15,3.35,3.35,0,0,1-.62-.06,3.65,3.65,0,0,1-.58-.16,3.29,3.29,0,0,1-.52-.24,2.47,2.47,0,0,1-.42-.3l.34-.56a.47.47,0,0,1,.16-.16.43.43,0,0,1,.23-.05.48.48,0,0,1,.26.08l.29.17a2.51,2.51,0,0,0,.38.17,1.66,1.66,0,0,0,.56.08,1.44,1.44,0,0,0,.45-.06,1,1,0,0,0,.31-.17.62.62,0,0,0,.18-.24.71.71,0,0,0,.06-.28.5.5,0,0,0-.13-.35,1.14,1.14,0,0,0-.34-.24,3.28,3.28,0,0,0-.49-.18l-.56-.18a5.08,5.08,0,0,1-.56-.22,1.92,1.92,0,0,1-.49-.33,1.48,1.48,0,0,1-.34-.49,1.69,1.69,0,0,1-.13-.7,1.77,1.77,0,0,1,.15-.72,1.69,1.69,0,0,1,.44-.6,2.21,2.21,0,0,1,.73-.41,3,3,0,0,1,1-.15,3.07,3.07,0,0,1,1.16.21,2.63,2.63,0,0,1,.87.55Z"/></g><g id="40447479-89c3-435d-b244-8e8e7b926153" data-name="shapes"><polygon class="df43a984-7bf1-4fad-aa4a-4e835d347498" points="120.25 133.89 115.83 141.54 111.42 133.89 120.25 133.89"/><polygon class="df43a984-7bf1-4fad-aa4a-4e835d347498" points="120.25 62.51 115.83 70.16 111.42 62.51 120.25 62.51"/><polygon class="df43a984-7bf1-4fad-aa4a-4e835d347498" points="18.49 80.96 22.32 83.17 18.49 85.38 18.49 80.96"/><polygon class="df43a984-7bf1-4fad-aa4a-4e835d347498" points="18.72 150.56 22.55 152.77 18.72 154.97 18.72 150.56"/><polygon class="df43a984-7bf1-4fad-aa4a-4e835d347498" points="33.76 150.56 37.59 152.77 33.76 154.97 33.76 150.56"/><polygon class="df43a984-7bf1-4fad-aa4a-4e835d347498" points="48.31 150.56 52.13 152.77 48.31 154.97 48.31 150.56"/><polygon class="df43a984-7bf1-4fad-aa4a-4e835d347498" points="62.94 150.56 66.76 152.77 62.94 154.97 62.94 150.56"/><polygon class="df43a984-7bf1-4fad-aa4a-4e835d347498" points="77.9 150.56 81.73 152.77 77.9 154.97 77.9 150.56"/><polygon class="df43a984-7bf1-4fad-aa4a-4e835d347498" points="134.97 147.56 138.8 149.77 134.97 151.97 134.97 147.56"/><polygon class="df43a984-7bf1-4fad-aa4a-4e835d347498" points="156.93 147.56 160.75 149.77 156.93 151.97 156.93 147.56"/><polygon class="df43a984-7bf1-4fad-aa4a-4e835d347498" points="178.07 147.56 181.89 149.77 178.07 151.97 178.07 147.56"/><polygon class="df43a984-7bf1-4fad-aa4a-4e835d347498" points="198.08 147.56 201.91 149.77 198.08 151.97 198.08 147.56"/><polygon class="df43a984-7bf1-4fad-aa4a-4e835d347498" points="218.58 147.56 222.41 149.77 218.58 151.97 218.58 147.56"/><polygon class="df43a984-7bf1-4fad-aa4a-4e835d347498" points="38.32 80.96 42.15 83.17 38.32 85.38 38.32 80.96"/><polygon class="df43a984-7bf1-4fad-aa4a-4e835d347498" points="57.99 80.96 61.82 83.17 57.99 85.38 57.99 80.96"/><polygon class="df43a984-7bf1-4fad-aa4a-4e835d347498" points="77.79 80.96 81.61 83.17 77.79 85.38 77.79 80.96"/><polygon class="df43a984-7bf1-4fad-aa4a-4e835d347498" points="96.96 81.08 100.78 83.28 96.96 85.49 96.96 81.08"/><polygon class="df43a984-7bf1-4fad-aa4a-4e835d347498" points="150.18 80.96 154 83.17 150.18 85.38 150.18 80.96"/><polygon class="df43a984-7bf1-4fad-aa4a-4e835d347498" points="170.01 80.96 173.83 83.17 170.01 85.38 170.01 80.96"/><polygon class="df43a984-7bf1-4fad-aa4a-4e835d347498" points="189.68 80.96 193.5 83.17 189.68 85.38 189.68 80.96"/><polygon class="df43a984-7bf1-4fad-aa4a-4e835d347498" points="208.87 80.96 212.69 83.17 208.87 85.38 208.87 80.96"/><polygon class="df43a984-7bf1-4fad-aa4a-4e835d347498" points="228.66 80.96 232.49 83.17 228.66 85.38 228.66 80.96"/><polygon class="df43a984-7bf1-4fad-aa4a-4e835d347498" points="223.83 118.7 220 120.91 223.83 123.12 223.83 118.7"/><polygon class="df43a984-7bf1-4fad-aa4a-4e835d347498" points="206.21 118.7 202.38 120.91 206.21 123.12 206.21 118.7"/><polygon class="df43a984-7bf1-4fad-aa4a-4e835d347498" points="186.41 118.7 182.58 120.91 186.41 123.12 186.41 118.7"/><polygon class="df43a984-7bf1-4fad-aa4a-4e835d347498" points="166.88 118.7 163.05 120.91 166.88 123.12 166.88 118.7"/><polygon class="df43a984-7bf1-4fad-aa4a-4e835d347498" points="146.22 118.7 142.4 120.91 146.22 123.12 146.22 118.7"/><polygon class="df43a984-7bf1-4fad-aa4a-4e835d347498" points="152.61 180.56 148.78 182.77 152.61 184.97 152.61 180.56"/><polygon class="df43a984-7bf1-4fad-aa4a-4e835d347498" points="174.66 180.56 170.84 182.77 174.66 184.97 174.66 180.56"/><polygon class="df43a984-7bf1-4fad-aa4a-4e835d347498" points="195.18 180.56 191.35 182.77 195.18 184.97 195.18 180.56"/><polygon class="df43a984-7bf1-4fad-aa4a-4e835d347498" points="215.82 180.56 212 182.77 215.82 184.97 215.82 180.56"/><polygon class="df43a984-7bf1-4fad-aa4a-4e835d347498" points="235.86 180.56 232.03 182.77 235.86 184.97 235.86 180.56"/></g></svg>