<svg xmlns="http://www.w3.org/2000/svg" viewBox="0 0 190.61 307.99"><defs><style>.\30 3243d2a-c0ea-4432-ba4b-3b0bf2f563d6,.b806a33b-9e0e-4262-ae51-1198918a0ca3{fill:none;}.\30 3243d2a-c0ea-4432-ba4b-3b0bf2f563d6,.\30 d680c92-ed55-4392-ad47-10dee7ecdf7b,.\37 0569e56-a373-47c1-8acd-863d8251c134,.\38 712c04e-cfac-489a-a6b6-f7f839924923,.b806a33b-9e0e-4262-ae51-1198918a0ca3{stroke:#575756;stroke-miterlimit:10;}.b806a33b-9e0e-4262-ae51-1198918a0ca3{stroke-dasharray:1.83 1.83;}.\38 712c04e-cfac-489a-a6b6-f7f839924923,.d81500ea-5f30-484f-a2f7-5b60b1ce1a59{fill:#a7cee3;}.\30 d680c92-ed55-4392-ad47-10dee7ecdf7b,.\37 0569e56-a373-47c1-8acd-863d8251c134,.\38 712c04e-cfac-489a-a6b6-f7f839924923{stroke-width:0.5px;}.\33 d24279c-8ac3-4596-8a79-52a576806c40,.\37 0569e56-a373-47c1-8acd-863d8251c134{fill:#fb9a99;}.\30 d680c92-ed55-4392-ad47-10dee7ecdf7b{fill:#fffcbf;}.\31 db7f73d-c8e7-431b-84fe-871207b8a25e{fill:#575756;}</style></defs><title>rnaseq</title><g id="3b832498-b682-42ba-9255-9f1f78764fdf" data-name="lines"><line class="03243d2a-c0ea-4432-ba4b-3b0bf2f563d6" x1="48.44" y1="109.69" x2="70.59" y2="109.69"/><line class="03243d2a-c0ea-4432-ba4b-3b0bf2f563d6" x1="48.44" y1="139.66" x2="70.59" y2="139.66"/><line class="03243d2a-c0ea-4432-ba4b-3b0bf2f563d6" x1="48.44" y1="128.85" x2="49.44" y2="128.85"/><line class="b806a33b-9e0e-4262-ae51-1198918a0ca3" x1="51.27" y1="128.85" x2="68.67" y2="128.85"/><line class="03243d2a-c0ea-4432-ba4b-3b0bf2f563d6" x1="69.59" y1="128.85" x2="70.59" y2="128.85"/></g><g id="ab5be457-9eb0-4ef0-ae9a-2f1464e1f526" data-name="boxes"><rect class="8712c04e-cfac-489a-a6b6-f7f839924923" x="5.77" y="77.98" width="100.58" height="7.67"/><rect class="70569e56-a373-47c1-8acd-863d8251c134" x="69.7" y="67.2" width="46.55" height="7.67"/><rect class="8712c04e-cfac-489a-a6b6-f7f839924923" x="5.77" y="295.49" width="42.44" height="7.67"/><rect class="70569e56-a373-47c1-8acd-863d8251c134" x="36.24" y="284.71" width="46.55" height="7.67"/><rect class="8712c04e-cfac-489a-a6b6-f7f839924923" x="5.77" y="167.24" width="80.42" height="7.67"/><rect class="0d680c92-ed55-4392-ad47-10dee7ecdf7b" x="65.2" y="178.01" width="51.04" height="7.67"/><rect class="0d680c92-ed55-4392-ad47-10dee7ecdf7b" x="22.36" y="263.25" width="93.88" height="7.67"/><rect class="70569e56-a373-47c1-8acd-863d8251c134" x="5.42" y="156.46" width="46.55" height="7.67"/><rect class="8712c04e-cfac-489a-a6b6-f7f839924923" x="5.77" y="252.24" width="83.51" height="7.67"/><rect class="0d680c92-ed55-4392-ad47-10dee7ecdf7b" x="73.49" y="295.49" width="42.75" height="7.67"/><rect class="70569e56-a373-47c1-8acd-863d8251c134" x="36.24" y="241.46" width="46.55" height="7.67"/><rect class="0d680c92-ed55-4392-ad47-10dee7ecdf7b" x="59.51" y="220.87" width="56.73" height="7.67"/><rect class="8712c04e-cfac-489a-a6b6-f7f839924923" x="5.77" y="209.86" width="74.76" height="7.67"/><rect class="70569e56-a373-47c1-8acd-863d8251c134" x="29.24" y="199.08" width="46.55" height="7.67"/><rect class="8712c04e-cfac-489a-a6b6-f7f839924923" x="5.77" y="105.85" width="42.44" height="7.67"/><rect class="8712c04e-cfac-489a-a6b6-f7f839924923" x="70.4" y="105.85" width="37.77" height="7.67"/><rect class="70569e56-a373-47c1-8acd-863d8251c134" x="40.7" y="95.08" width="46.55" height="7.67"/><rect class="8712c04e-cfac-489a-a6b6-f7f839924923" x="5.77" y="135.82" width="42.44" height="7.67"/><rect class="8712c04e-cfac-489a-a6b6-f7f839924923" x="70.4" y="135.82" width="37.77" height="7.67"/><rect class="70569e56-a373-47c1-8acd-863d8251c134" x="40.7" y="125.05" width="7.74" height="7.67"/><rect class="70569e56-a373-47c1-8acd-863d8251c134" x="70.4" y="125.05" width="15.79" height="7.67"/><rect class="3d24279c-8ac3-4596-8a79-52a576806c40" x="25.14" y="19.37" width="46.59" height="15.83"/><path class="1db7f73d-c8e7-431b-84fe-871207b8a25e" d="M71.48,19.62V35H25.39V19.62H71.48m.5-.5H24.89V35.46H72V19.12Z"/><rect class="d81500ea-5f30-484f-a2f7-5b60b1ce1a59" x="5.52" y="38.51" width="101.08" height="15.83"/><path class="1db7f73d-c8e7-431b-84fe-871207b8a25e" d="M106.35,38.76V54.09H5.77V38.76H106.35m.5-.5H5.27V54.59H106.85V38.26Z"/></g><g id="35c35581-2366-4b44-a9ee-ac19fa27b071" data-name="text-annotations"><path class="1db7f73d-c8e7-431b-84fe-871207b8a25e" d="M47.25,49.91a5.38,5.38,0,0,0,.59,0,3.81,3.81,0,0,0,.5-.09,3.35,3.35,0,0,0,.45-.15l.42-.19V47.71H48a.23.23,0,0,1-.17-.06.2.2,0,0,1-.06-.15v-.61h2.42v3a4.42,4.42,0,0,1-.62.37,4.19,4.19,0,0,1-.69.27,4.93,4.93,0,0,1-.78.16,7.27,7.27,0,0,1-.91.05,4.11,4.11,0,0,1-1.57-.29,3.63,3.63,0,0,1-1.23-.83,3.75,3.75,0,0,1-.81-1.27,4.48,4.48,0,0,1-.29-1.63,4.59,4.59,0,0,1,.28-1.64A3.54,3.54,0,0,1,45.64,43a4.57,4.57,0,0,1,1.67-.29,5.15,5.15,0,0,1,.87.07,4.07,4.07,0,0,1,.75.2,3.44,3.44,0,0,1,.64.31,3.9,3.9,0,0,1,.54.42l-.3.48a.28.28,0,0,1-.24.15.39.39,0,0,1-.19-.06l-.31-.19a2.59,2.59,0,0,0-.42-.21,3.31,3.31,0,0,0-.58-.17,3.86,3.86,0,0,0-.79-.07,3.18,3.18,0,0,0-1.21.22,2.54,2.54,0,0,0-.92.62,2.75,2.75,0,0,0-.58,1,3.84,3.84,0,0,0-.2,1.29,3.92,3.92,0,0,0,.21,1.33,2.82,2.82,0,0,0,.6,1,2.59,2.59,0,0,0,.91.62A3.08,3.08,0,0,0,47.25,49.91Z"/><path class="1db7f73d-c8e7-431b-84fe-871207b8a25e" d="M53.86,45a2.5,2.5,0,0,1,.92.17,2.09,2.09,0,0,1,.73.48,2.2,2.2,0,0,1,.48.78,3,3,0,0,1,.17,1.06.63.63,0,0,1,0,.31.2.2,0,0,1-.19.08H52.23a3.07,3.07,0,0,0,.14.92,1.87,1.87,0,0,0,.36.65,1.46,1.46,0,0,0,.55.39A1.89,1.89,0,0,0,54,50a2.11,2.11,0,0,0,.64-.08,2.94,2.94,0,0,0,.46-.18l.32-.18a.43.43,0,0,1,.22-.08.22.22,0,0,1,.19.09l.28.36a1.86,1.86,0,0,1-.43.38,2.74,2.74,0,0,1-.54.27,3.5,3.5,0,0,1-.6.16,3.61,3.61,0,0,1-.61.05,2.84,2.84,0,0,1-1.06-.2A2.35,2.35,0,0,1,52,50a2.62,2.62,0,0,1-.55-.93,3.79,3.79,0,0,1-.2-1.28,3.24,3.24,0,0,1,.18-1.09,2.57,2.57,0,0,1,.51-.88,2.38,2.38,0,0,1,.82-.58A2.7,2.7,0,0,1,53.86,45Zm0,.72a1.5,1.5,0,0,0-1.12.41,1.92,1.92,0,0,0-.51,1.14h3a2,2,0,0,0-.09-.62,1.39,1.39,0,0,0-.28-.49,1.23,1.23,0,0,0-.44-.32A1.49,1.49,0,0,0,53.88,45.74Z"/><path class="1db7f73d-c8e7-431b-84fe-871207b8a25e" d="M57.42,50.68V45.11H58a.25.25,0,0,1,.26.2l.08.6a3.14,3.14,0,0,1,.81-.65,2.11,2.11,0,0,1,1-.25,2,2,0,0,1,.81.15,1.57,1.57,0,0,1,.58.43,1.9,1.9,0,0,1,.35.67,2.93,2.93,0,0,1,.12.86v3.55h-1V47.14a1.5,1.5,0,0,0-.29-1,1.08,1.08,0,0,0-.88-.35,1.65,1.65,0,0,0-.81.21,2.67,2.67,0,0,0-.7.57v4.1Z"/><path class="1db7f73d-c8e7-431b-84fe-871207b8a25e" d="M65.74,45a2.5,2.5,0,0,1,.92.17,2.09,2.09,0,0,1,.73.48,2.2,2.2,0,0,1,.48.78,3,3,0,0,1,.17,1.06.63.63,0,0,1,0,.31.2.2,0,0,1-.19.08H64.11a3.07,3.07,0,0,0,.14.92,1.87,1.87,0,0,0,.36.65,1.46,1.46,0,0,0,.55.39,1.89,1.89,0,0,0,.71.13,2.11,2.11,0,0,0,.64-.08,2.94,2.94,0,0,0,.46-.18l.32-.18a.43.43,0,0,1,.22-.08.22.22,0,0,1,.19.09l.28.36a1.86,1.86,0,0,1-.43.38,2.74,2.74,0,0,1-.54.27,3.5,3.5,0,0,1-.6.16,3.61,3.61,0,0,1-.61.05,2.84,2.84,0,0,1-1.06-.2,2.35,2.35,0,0,1-.84-.57,2.62,2.62,0,0,1-.55-.93,3.79,3.79,0,0,1-.2-1.28,3.24,3.24,0,0,1,.18-1.09,2.57,2.57,0,0,1,.51-.88,2.38,2.38,0,0,1,.82-.58A2.7,2.7,0,0,1,65.74,45Zm0,.72a1.5,1.5,0,0,0-1.12.41,1.92,1.92,0,0,0-.51,1.14h3a2,2,0,0,0-.09-.62,1.39,1.39,0,0,0-.28-.49,1.23,1.23,0,0,0-.44-.32A1.49,1.49,0,0,0,65.76,45.74Z"/><path class="1db7f73d-c8e7-431b-84fe-871207b8a25e" d="M38,28.22v3.29H37V23.63h2.23a4.88,4.88,0,0,1,1.29.15,2.47,2.47,0,0,1,.9.44,1.76,1.76,0,0,1,.53.69,2.31,2.31,0,0,1,.17.9,2.27,2.27,0,0,1-.13.78,2.07,2.07,0,0,1-.38.65,2.3,2.3,0,0,1-.61.49,3,3,0,0,1-.82.31,1.12,1.12,0,0,1,.35.33l2.3,3.13h-.95a.47.47,0,0,1-.43-.23l-2-2.82a.6.6,0,0,0-.2-.19.74.74,0,0,0-.33-.06Zm0-.78h1.12a2.72,2.72,0,0,0,.82-.11,1.68,1.68,0,0,0,.59-.32,1.33,1.33,0,0,0,.36-.49,1.62,1.62,0,0,0,.12-.63,1.26,1.26,0,0,0-.46-1.06,2.25,2.25,0,0,0-1.38-.36H38Z"/><path class="1db7f73d-c8e7-431b-84fe-871207b8a25e" d="M46,25.85a2.5,2.5,0,0,1,.92.17,2.09,2.09,0,0,1,.73.48,2.2,2.2,0,0,1,.48.78,3,3,0,0,1,.17,1.06.63.63,0,0,1,0,.31.2.2,0,0,1-.19.08H44.38a3.07,3.07,0,0,0,.14.92,1.87,1.87,0,0,0,.36.65,1.46,1.46,0,0,0,.55.39,1.89,1.89,0,0,0,.71.13,2.11,2.11,0,0,0,.64-.08,2.94,2.94,0,0,0,.46-.18l.32-.18a.43.43,0,0,1,.22-.08.22.22,0,0,1,.19.09l.28.36a1.86,1.86,0,0,1-.43.38,2.74,2.74,0,0,1-.54.27,3.5,3.5,0,0,1-.6.16,3.61,3.61,0,0,1-.61.05,2.84,2.84,0,0,1-1.06-.2,2.35,2.35,0,0,1-.84-.57,2.62,2.62,0,0,1-.55-.93,3.79,3.79,0,0,1-.2-1.28,3.24,3.24,0,0,1,.18-1.09,2.57,2.57,0,0,1,.51-.88,2.38,2.38,0,0,1,.82-.58A2.7,2.7,0,0,1,46,25.85Zm0,.72a1.5,1.5,0,0,0-1.12.41,1.92,1.92,0,0,0-.51,1.14h3a2,2,0,0,0-.09-.62,1.39,1.39,0,0,0-.28-.49,1.23,1.23,0,0,0-.44-.32A1.49,1.49,0,0,0,46,26.57Z"/><path class="1db7f73d-c8e7-431b-84fe-871207b8a25e" d="M53.66,31.51h-.43a.52.52,0,0,1-.23,0,.24.24,0,0,1-.12-.19l-.11-.52c-.15.13-.29.25-.43.35a2.45,2.45,0,0,1-.44.26,2.28,2.28,0,0,1-.49.16,2.86,2.86,0,0,1-.58.05,2,2,0,0,1-.61-.09,1.39,1.39,0,0,1-.49-.27,1.3,1.3,0,0,1-.33-.46,1.6,1.6,0,0,1-.12-.66,1.23,1.23,0,0,1,.18-.64,1.6,1.6,0,0,1,.59-.54,3.79,3.79,0,0,1,1.06-.39,7.17,7.17,0,0,1,1.6-.15V28a1.52,1.52,0,0,0-.28-1,1,1,0,0,0-.82-.33,1.74,1.74,0,0,0-.6.09,2.32,2.32,0,0,0-.42.2l-.31.2a.44.44,0,0,1-.25.09.29.29,0,0,1-.17-.05.38.38,0,0,1-.12-.13l-.18-.31a3.2,3.2,0,0,1,1-.67,3.08,3.08,0,0,1,1.18-.22,2.12,2.12,0,0,1,.83.15,1.7,1.7,0,0,1,.61.43,1.83,1.83,0,0,1,.37.67,2.78,2.78,0,0,1,.13.86Zm-2.54-.6a2,2,0,0,0,.47-.05,1.84,1.84,0,0,0,.4-.15,2.1,2.1,0,0,0,.36-.23,3.14,3.14,0,0,0,.34-.31V29a6.51,6.51,0,0,0-1.15.09,3.21,3.21,0,0,0-.77.22,1.07,1.07,0,0,0-.43.33.71.71,0,0,0-.13.42.93.93,0,0,0,.07.38.74.74,0,0,0,.19.26.76.76,0,0,0,.29.15A1.31,1.31,0,0,0,51.12,30.91Z"/><path class="1db7f73d-c8e7-431b-84fe-871207b8a25e" d="M59.07,31.51a.25.25,0,0,1-.26-.2l-.09-.68a2.93,2.93,0,0,1-.82.7,2.09,2.09,0,0,1-1.05.26A2,2,0,0,1,56,31.4a1.81,1.81,0,0,1-.67-.54,2.59,2.59,0,0,1-.42-.89,4.56,4.56,0,0,1-.15-1.23,3.83,3.83,0,0,1,.17-1.15,2.79,2.79,0,0,1,.48-.92,2.18,2.18,0,0,1,1.77-.84A2,2,0,0,1,58,26a2.1,2.1,0,0,1,.65.49V23.41h1v8.1Zm-1.9-.71a1.57,1.57,0,0,0,.84-.22,2.42,2.42,0,0,0,.66-.62v-2.7a1.55,1.55,0,0,0-.59-.51,1.71,1.71,0,0,0-.71-.15,1.41,1.41,0,0,0-1.2.56,2.6,2.6,0,0,0-.42,1.58,4,4,0,0,0,.09.93,1.8,1.8,0,0,0,.27.64,1.08,1.08,0,0,0,.45.37A1.49,1.49,0,0,0,57.17,30.8Z"/><path class="1db7f73d-c8e7-431b-84fe-871207b8a25e" d="M133.68,39.49a5.14,5.14,0,0,0,.59,0,3.52,3.52,0,0,0,.5-.09,3.35,3.35,0,0,0,.45-.15l.42-.2V37.29h-1.22a.23.23,0,0,1-.17-.06.2.2,0,0,1-.06-.15v-.6h2.42v3a4.25,4.25,0,0,1-1.31.64,5,5,0,0,1-.78.16,7.47,7.47,0,0,1-.91.05,4.1,4.1,0,0,1-1.57-.29,3.61,3.61,0,0,1-1.23-.83A3.74,3.74,0,0,1,130,38a4.47,4.47,0,0,1-.29-1.63,4.59,4.59,0,0,1,.28-1.64,3.54,3.54,0,0,1,2.08-2.1,4.55,4.55,0,0,1,1.67-.29,5.15,5.15,0,0,1,.87.07,4,4,0,0,1,.75.2,3.44,3.44,0,0,1,.64.31,3.76,3.76,0,0,1,.54.42l-.3.48a.28.28,0,0,1-.24.15.39.39,0,0,1-.19-.06l-.31-.19a2.67,2.67,0,0,0-.42-.21,3.4,3.4,0,0,0-.58-.17,3.79,3.79,0,0,0-.79-.07,3.2,3.2,0,0,0-1.21.22,2.54,2.54,0,0,0-.92.62,2.75,2.75,0,0,0-.58,1,3.84,3.84,0,0,0-.2,1.29,3.92,3.92,0,0,0,.21,1.33,2.82,2.82,0,0,0,.6,1,2.57,2.57,0,0,0,.91.62A3.06,3.06,0,0,0,133.68,39.49Z"/><path class="1db7f73d-c8e7-431b-84fe-871207b8a25e" d="M140.29,34.61a2.48,2.48,0,0,1,.92.17,2.07,2.07,0,0,1,.73.48,2.21,2.21,0,0,1,.48.78,3,3,0,0,1,.17,1.06.64.64,0,0,1,0,.31.21.21,0,0,1-.19.08h-3.71a3.07,3.07,0,0,0,.14.92,1.86,1.86,0,0,0,.36.65,1.45,1.45,0,0,0,.55.39,1.88,1.88,0,0,0,.71.13,2.07,2.07,0,0,0,.64-.09,3,3,0,0,0,.46-.18l.32-.18a.43.43,0,0,1,.22-.08.22.22,0,0,1,.19.09l.28.36a1.88,1.88,0,0,1-.43.38,2.69,2.69,0,0,1-.54.27,3.5,3.5,0,0,1-.6.16,3.71,3.71,0,0,1-.61.05,2.84,2.84,0,0,1-1.06-.2,2.33,2.33,0,0,1-.84-.57,2.62,2.62,0,0,1-.55-.93,3.8,3.8,0,0,1-.2-1.28,3.25,3.25,0,0,1,.18-1.09,2.56,2.56,0,0,1,.51-.88,2.36,2.36,0,0,1,.82-.58A2.68,2.68,0,0,1,140.29,34.61Zm0,.72a1.51,1.51,0,0,0-1.12.41,1.93,1.93,0,0,0-.51,1.14h3a2,2,0,0,0-.09-.62,1.4,1.4,0,0,0-.28-.49,1.22,1.22,0,0,0-.44-.32A1.49,1.49,0,0,0,140.31,35.33Z"/><path class="1db7f73d-c8e7-431b-84fe-871207b8a25e" d="M143.85,40.27V34.69h.58a.25.25,0,0,1,.26.2l.08.61a3.14,3.14,0,0,1,.81-.65,2.11,2.11,0,0,1,1-.25,2,2,0,0,1,.81.15,1.57,1.57,0,0,1,.58.43,1.92,1.92,0,0,1,.35.67,2.93,2.93,0,0,1,.12.86v3.55h-1V36.72a1.5,1.5,0,0,0-.29-1,1.08,1.08,0,0,0-.88-.35,1.64,1.64,0,0,0-.81.21,2.65,2.65,0,0,0-.7.57v4.1Z"/><path class="1db7f73d-c8e7-431b-84fe-871207b8a25e" d="M152.17,34.61a2.48,2.48,0,0,1,.92.17,2.07,2.07,0,0,1,.73.48,2.21,2.21,0,0,1,.48.78,3,3,0,0,1,.17,1.06.64.64,0,0,1,0,.31.21.21,0,0,1-.19.08h-3.71a3.07,3.07,0,0,0,.14.92,1.86,1.86,0,0,0,.36.65,1.45,1.45,0,0,0,.55.39,1.88,1.88,0,0,0,.71.13,2.07,2.07,0,0,0,.64-.09,3,3,0,0,0,.46-.18l.32-.18a.43.43,0,0,1,.22-.08.22.22,0,0,1,.19.09l.28.36a1.88,1.88,0,0,1-.43.38,2.69,2.69,0,0,1-.54.27,3.5,3.5,0,0,1-.6.16,3.71,3.71,0,0,1-.61.05,2.84,2.84,0,0,1-1.06-.2,2.33,2.33,0,0,1-.84-.57,2.62,2.62,0,0,1-.55-.93,3.8,3.8,0,0,1-.2-1.28,3.25,3.25,0,0,1,.18-1.09,2.56,2.56,0,0,1,.51-.88,2.36,2.36,0,0,1,.82-.58A2.68,2.68,0,0,1,152.17,34.61Zm0,.72a1.51,1.51,0,0,0-1.12.41,1.93,1.93,0,0,0-.51,1.14h3a2,2,0,0,0-.09-.62,1.4,1.4,0,0,0-.28-.49,1.22,1.22,0,0,0-.44-.32A1.49,1.49,0,0,0,152.19,35.33Z"/><path class="1db7f73d-c8e7-431b-84fe-871207b8a25e" d="M164.49,40.27h-.83a.35.35,0,0,1-.23-.07.44.44,0,0,1-.13-.18l-.74-1.9H159l-.74,1.9a.43.43,0,0,1-.13.18.35.35,0,0,1-.23.08h-.83l3.15-7.88h1.08Zm-5.17-2.93h2.94L161,34.13a6.16,6.16,0,0,1-.24-.74l-.12.42c0,.13-.08.24-.11.33Z"/><path class="1db7f73d-c8e7-431b-84fe-871207b8a25e" d="M133.68,78.78a5.13,5.13,0,0,0,.59,0,3.66,3.66,0,0,0,.5-.09,3.5,3.5,0,0,0,.45-.15l.42-.2V76.58h-1.22a.23.23,0,0,1-.17-.06.2.2,0,0,1-.06-.15v-.6h2.42v3a4.34,4.34,0,0,1-.62.38,4.28,4.28,0,0,1-.69.27,5,5,0,0,1-.78.16,7.27,7.27,0,0,1-.91.05,4.1,4.1,0,0,1-1.57-.29,3.61,3.61,0,0,1-1.23-.82,3.76,3.76,0,0,1-.81-1.27,4.48,4.48,0,0,1-.29-1.63A4.59,4.59,0,0,1,130,74a3.54,3.54,0,0,1,2.08-2.1,4.55,4.55,0,0,1,1.67-.29,5.15,5.15,0,0,1,.87.07,4.07,4.07,0,0,1,.75.2,3.44,3.44,0,0,1,.64.31,3.76,3.76,0,0,1,.54.42l-.3.48a.28.28,0,0,1-.24.15.39.39,0,0,1-.19-.06l-.31-.19a2.68,2.68,0,0,0-.42-.21,3.31,3.31,0,0,0-.58-.17,3.86,3.86,0,0,0-.79-.07,3.18,3.18,0,0,0-1.21.22,2.54,2.54,0,0,0-.92.62,2.75,2.75,0,0,0-.58,1,3.84,3.84,0,0,0-.2,1.29A3.91,3.91,0,0,0,131,77a2.83,2.83,0,0,0,.6,1,2.59,2.59,0,0,0,.91.62A3.08,3.08,0,0,0,133.68,78.78Z"/><path class="1db7f73d-c8e7-431b-84fe-871207b8a25e" d="M140.29,73.9a2.5,2.5,0,0,1,.92.17,2.07,2.07,0,0,1,.73.48,2.2,2.2,0,0,1,.48.78,3,3,0,0,1,.17,1.06.64.64,0,0,1,0,.31.2.2,0,0,1-.19.08h-3.71a3.06,3.06,0,0,0,.14.92,1.87,1.87,0,0,0,.36.65,1.46,1.46,0,0,0,.55.39,1.89,1.89,0,0,0,.71.13,2.07,2.07,0,0,0,.64-.09,3,3,0,0,0,.46-.18l.32-.18a.43.43,0,0,1,.22-.08.22.22,0,0,1,.19.09l.28.36a1.88,1.88,0,0,1-.43.38,2.69,2.69,0,0,1-.54.27,3.42,3.42,0,0,1-.6.16,3.71,3.71,0,0,1-.61.05,2.82,2.82,0,0,1-1.06-.2,2.33,2.33,0,0,1-.84-.57,2.6,2.6,0,0,1-.55-.93,3.79,3.79,0,0,1-.2-1.28,3.25,3.25,0,0,1,.18-1.09,2.57,2.57,0,0,1,.51-.88,2.37,2.37,0,0,1,.82-.58A2.68,2.68,0,0,1,140.29,73.9Zm0,.72a1.5,1.5,0,0,0-1.12.41,1.92,1.92,0,0,0-.51,1.13h3a2,2,0,0,0-.09-.62,1.39,1.39,0,0,0-.28-.49,1.22,1.22,0,0,0-.44-.32A1.47,1.47,0,0,0,140.31,74.62Z"/><path class="1db7f73d-c8e7-431b-84fe-871207b8a25e" d="M143.85,79.56V74h.58a.25.25,0,0,1,.26.2l.08.61a3.12,3.12,0,0,1,.81-.65,2.1,2.1,0,0,1,1-.25,2,2,0,0,1,.81.15,1.57,1.57,0,0,1,.58.43,1.92,1.92,0,0,1,.35.67,2.94,2.94,0,0,1,.12.86v3.55h-1V76a1.5,1.5,0,0,0-.29-1,1.08,1.08,0,0,0-.88-.35,1.65,1.65,0,0,0-.81.21,2.65,2.65,0,0,0-.7.57v4.1Z"/><path class="1db7f73d-c8e7-431b-84fe-871207b8a25e" d="M152.17,73.9a2.5,2.5,0,0,1,.92.17,2.07,2.07,0,0,1,.73.48,2.2,2.2,0,0,1,.48.78,3,3,0,0,1,.17,1.06.64.64,0,0,1,0,.31.2.2,0,0,1-.19.08h-3.71a3.06,3.06,0,0,0,.14.92,1.87,1.87,0,0,0,.36.65,1.46,1.46,0,0,0,.55.39,1.89,1.89,0,0,0,.71.13,2.07,2.07,0,0,0,.64-.09,3,3,0,0,0,.46-.18l.32-.18a.43.43,0,0,1,.22-.08.22.22,0,0,1,.19.09l.28.36a1.88,1.88,0,0,1-.43.38,2.69,2.69,0,0,1-.54.27,3.42,3.42,0,0,1-.6.16,3.71,3.71,0,0,1-.61.05,2.82,2.82,0,0,1-1.06-.2,2.33,2.33,0,0,1-.84-.57,2.6,2.6,0,0,1-.55-.93,3.79,3.79,0,0,1-.2-1.28,3.25,3.25,0,0,1,.18-1.09,2.57,2.57,0,0,1,.51-.88,2.37,2.37,0,0,1,.82-.58A2.68,2.68,0,0,1,152.17,73.9Zm0,.72a1.5,1.5,0,0,0-1.12.41,1.92,1.92,0,0,0-.51,1.13h3a2,2,0,0,0-.09-.62,1.39,1.39,0,0,0-.28-.49,1.22,1.22,0,0,0-.44-.32A1.47,1.47,0,0,0,152.19,74.62Z"/><path class="1db7f73d-c8e7-431b-84fe-871207b8a25e" d="M164.49,79.56h-.83a.35.35,0,0,1-.23-.07.42.42,0,0,1-.13-.18l-.74-1.9H159l-.74,1.9a.43.43,0,0,1-.13.18.34.34,0,0,1-.23.08h-.83l3.15-7.88h1.08Zm-5.17-2.93h2.94L161,73.43a6.14,6.14,0,0,1-.24-.74c0,.15-.08.29-.12.41s-.08.24-.11.33Z"/><path class="1db7f73d-c8e7-431b-84fe-871207b8a25e" d="M11.5,84.42H11a.23.23,0,0,1-.15,0,.3.3,0,0,1-.09-.12l-.36-1H8.5l-.36,1a.29.29,0,0,1-.08.11.23.23,0,0,1-.15.05H7.36L9.08,80.1h.71ZM8.69,82.8h1.48l-.59-1.58c0-.06,0-.13-.07-.21l-.07-.26L9.36,81l-.07.21Z"/><path class="1db7f73d-c8e7-431b-84fe-871207b8a25e" d="M11.5,112.34H11a.23.23,0,0,1-.15,0,.3.3,0,0,1-.09-.12l-.36-1H8.5l-.36,1a.29.29,0,0,1-.08.11.23.23,0,0,1-.15.05H7.36L9.08,108h.71Zm-2.81-1.62h1.48l-.59-1.58c0-.06,0-.13-.07-.21l-.07-.26-.07.26-.07.21Z"/><path class="1db7f73d-c8e7-431b-84fe-871207b8a25e" d="M11.5,141.29H11a.23.23,0,0,1-.15,0,.3.3,0,0,1-.09-.12l-.36-1H8.5l-.36,1a.29.29,0,0,1-.08.11.22.22,0,0,1-.15.05H7.36L9.08,137h.71Zm-2.81-1.62h1.48l-.59-1.58c0-.06,0-.13-.07-.21l-.07-.26-.07.26-.07.21Z"/><path class="1db7f73d-c8e7-431b-84fe-871207b8a25e" d="M11.5,173.91H11a.23.23,0,0,1-.15,0,.29.29,0,0,1-.09-.12l-.36-1H8.5l-.36,1a.28.28,0,0,1-.08.11.22.22,0,0,1-.15.05H7.36l1.71-4.32h.71Zm-2.81-1.62h1.48l-.59-1.58c0-.06,0-.13-.07-.21l-.07-.26-.07.26-.07.21Z"/><path class="1db7f73d-c8e7-431b-84fe-871207b8a25e" d="M11.5,215.35H11a.23.23,0,0,1-.15,0,.3.3,0,0,1-.09-.12l-.36-1H8.5l-.36,1a.29.29,0,0,1-.08.11.23.23,0,0,1-.15.05H7.36L9.08,211h.71Zm-2.81-1.62h1.48l-.59-1.58c0-.06,0-.13-.07-.21l-.07-.26-.07.26-.07.21Z"/><path class="1db7f73d-c8e7-431b-84fe-871207b8a25e" d="M11.5,258.11H11a.23.23,0,0,1-.15,0,.3.3,0,0,1-.09-.12l-.36-1H8.5l-.36,1a.29.29,0,0,1-.08.11.22.22,0,0,1-.15.05H7.36l1.71-4.32h.71Zm-2.81-1.62h1.48l-.59-1.58c0-.06,0-.13-.07-.21l-.07-.26-.07.26-.07.21Z"/><path class="1db7f73d-c8e7-431b-84fe-871207b8a25e" d="M11.5,301.4H11a.23.23,0,0,1-.15,0,.3.3,0,0,1-.09-.12l-.36-1H8.5l-.36,1a.29.29,0,0,1-.08.11.22.22,0,0,1-.15.05H7.36l1.71-4.32h.71Zm-2.81-1.62h1.48l-.59-1.58c0-.06,0-.13-.07-.21l-.07-.26-.07.26-.07.21Z"/><path class="1db7f73d-c8e7-431b-84fe-871207b8a25e" d="M76,301.4v-4.32h1.44a2.75,2.75,0,0,1,.71.08,1.37,1.37,0,0,1,.48.23.89.89,0,0,1,.28.36,1.22,1.22,0,0,1,.09.47,1,1,0,0,1,0,.3.85.85,0,0,1-.14.27,1.1,1.1,0,0,1-.24.22,1.38,1.38,0,0,1-.35.17,1.29,1.29,0,0,1,.69.34.89.89,0,0,1,.23.63,1.22,1.22,0,0,1-.1.5,1.11,1.11,0,0,1-.3.4,1.42,1.42,0,0,1-.48.26,2.15,2.15,0,0,1-.66.09Zm.7-2.42h.7a1.08,1.08,0,0,0,.67-.17.6.6,0,0,0,.22-.5.61.61,0,0,0-.21-.52,1.08,1.08,0,0,0-.65-.16h-.74Zm0,.5v1.37h.87a1.25,1.25,0,0,0,.4-.05.73.73,0,0,0,.27-.15.55.55,0,0,0,.15-.23.83.83,0,0,0,0-.28.6.6,0,0,0-.21-.48,1,1,0,0,0-.66-.17Z"/><path class="1db7f73d-c8e7-431b-84fe-871207b8a25e" d="M24.65,269.24v-4.32h1.44a2.75,2.75,0,0,1,.71.08,1.36,1.36,0,0,1,.48.23.88.88,0,0,1,.28.36,1.23,1.23,0,0,1,.09.48,1,1,0,0,1,0,.3.83.83,0,0,1-.14.27,1.08,1.08,0,0,1-.24.22,1.35,1.35,0,0,1-.35.17,1.28,1.28,0,0,1,.69.34.89.89,0,0,1,.23.63,1.23,1.23,0,0,1-.1.51,1.11,1.11,0,0,1-.3.4,1.39,1.39,0,0,1-.48.26,2.12,2.12,0,0,1-.66.09Zm.7-2.42h.7a1.08,1.08,0,0,0,.67-.17.71.71,0,0,0,0-1,1.07,1.07,0,0,0-.65-.16h-.74Zm0,.5v1.37h.87a1.25,1.25,0,0,0,.4-.06.73.73,0,0,0,.27-.15.56.56,0,0,0,.15-.23.82.82,0,0,0,0-.28.6.6,0,0,0-.21-.48,1,1,0,0,0-.66-.18Z"/><path class="1db7f73d-c8e7-431b-84fe-871207b8a25e" d="M61.83,226.71v-4.32h1.44a2.77,2.77,0,0,1,.71.08,1.36,1.36,0,0,1,.48.23.87.87,0,0,1,.28.36,1.23,1.23,0,0,1,.09.48,1,1,0,0,1,0,.3.83.83,0,0,1-.14.27,1.09,1.09,0,0,1-.25.22,1.35,1.35,0,0,1-.35.17,1.28,1.28,0,0,1,.69.34.89.89,0,0,1,.23.63,1.21,1.21,0,0,1-.1.51,1.12,1.12,0,0,1-.3.4,1.4,1.4,0,0,1-.48.26,2.13,2.13,0,0,1-.66.09Zm.7-2.42h.7a1.08,1.08,0,0,0,.67-.17.71.71,0,0,0,0-1,1.07,1.07,0,0,0-.65-.16h-.73Zm0,.5v1.37h.87a1.25,1.25,0,0,0,.4-.06.72.72,0,0,0,.27-.15.58.58,0,0,0,.15-.23.82.82,0,0,0,0-.28.6.6,0,0,0-.21-.48,1,1,0,0,0-.66-.18Z"/><path class="1db7f73d-c8e7-431b-84fe-871207b8a25e" d="M67.33,183.73v-4.32h1.44a2.77,2.77,0,0,1,.71.08,1.36,1.36,0,0,1,.48.23.87.87,0,0,1,.28.36,1.23,1.23,0,0,1,.09.48,1,1,0,0,1,0,.3.83.83,0,0,1-.14.27,1.09,1.09,0,0,1-.25.22,1.35,1.35,0,0,1-.35.17,1.28,1.28,0,0,1,.69.34.89.89,0,0,1,.23.63,1.21,1.21,0,0,1-.1.51,1.12,1.12,0,0,1-.3.4,1.4,1.4,0,0,1-.48.26,2.13,2.13,0,0,1-.66.09Zm.7-2.42h.7a1.08,1.08,0,0,0,.67-.17.71.71,0,0,0,0-1,1.07,1.07,0,0,0-.65-.16H68Zm0,.5v1.37h.87a1.25,1.25,0,0,0,.4-.06.72.72,0,0,0,.27-.15.58.58,0,0,0,.15-.23.82.82,0,0,0,0-.28.6.6,0,0,0-.21-.48,1,1,0,0,0-.66-.18Z"/><path class="1db7f73d-c8e7-431b-84fe-871207b8a25e" d="M136.65,297.07h-.82a.36.36,0,0,1-.23-.07.44.44,0,0,1-.13-.18l-.74-1.9h-3.54l-.74,1.9a.43.43,0,0,1-.13.18.35.35,0,0,1-.23.08h-.82l3.15-7.88h1.08Zm-5.16-2.93h2.94l-1.24-3.21a5.81,5.81,0,0,1-.24-.74l-.12.42c0,.13-.08.24-.11.33Z"/><path class="1db7f73d-c8e7-431b-84fe-871207b8a25e" d="M137.49,297.07V291.5h.58a.25.25,0,0,1,.26.2l.07.57a2.85,2.85,0,0,1,.69-.62,1.63,1.63,0,0,1,.89-.24,1.32,1.32,0,0,1,.92.31,1.77,1.77,0,0,1,.5.85,1.73,1.73,0,0,1,.31-.52,1.77,1.77,0,0,1,.93-.57,2.25,2.25,0,0,1,.54-.07,2.06,2.06,0,0,1,.78.14,1.57,1.57,0,0,1,.58.41,1.82,1.82,0,0,1,.37.66,2.92,2.92,0,0,1,.13.9v3.55h-1v-3.55a1.49,1.49,0,0,0-.29-1,1,1,0,0,0-.83-.34,1.25,1.25,0,0,0-.46.08,1.11,1.11,0,0,0-.38.25,1.16,1.16,0,0,0-.26.42,1.6,1.6,0,0,0-.1.58v3.55h-1v-3.55a1.56,1.56,0,0,0-.27-1,1,1,0,0,0-.79-.33,1.25,1.25,0,0,0-.67.2,2.2,2.2,0,0,0-.57.53v4.15Z"/><path class="1db7f73d-c8e7-431b-84fe-871207b8a25e" d="M146.55,297.07V289h1v3.33a2.85,2.85,0,0,1,.79-.65,2.11,2.11,0,0,1,1-.25,2,2,0,0,1,.87.18,1.77,1.77,0,0,1,.67.54,2.62,2.62,0,0,1,.42.89,4.54,4.54,0,0,1,.15,1.22,3.83,3.83,0,0,1-.17,1.15,2.75,2.75,0,0,1-.48.92,2.2,2.2,0,0,1-1.77.83,1.87,1.87,0,0,1-.92-.21,2.09,2.09,0,0,1-.66-.58l0,.51a.24.24,0,0,1-.25.21Zm2.49-4.88a1.58,1.58,0,0,0-.84.22,2.44,2.44,0,0,0-.66.62v2.7a1.55,1.55,0,0,0,.59.51,1.69,1.69,0,0,0,.72.15,1.41,1.41,0,0,0,1.2-.55,2.6,2.6,0,0,0,.42-1.58,3.94,3.94,0,0,0-.1-.94,1.82,1.82,0,0,0-.28-.64,1.08,1.08,0,0,0-.45-.37A1.5,1.5,0,0,0,149,292.19Z"/><path class="1db7f73d-c8e7-431b-84fe-871207b8a25e" d="M154,289.75a.62.62,0,0,1-.06.27.78.78,0,0,1-.15.22.73.73,0,0,1-.22.15.68.68,0,0,1-.27.05.66.66,0,0,1-.27-.05.74.74,0,0,1-.37-.37.66.66,0,0,1-.05-.27.7.7,0,0,1,.05-.27.72.72,0,0,1,.15-.23.74.74,0,0,1,.22-.15.65.65,0,0,1,.27-.05.67.67,0,0,1,.27.05.73.73,0,0,1,.22.15.76.76,0,0,1,.15.23A.65.65,0,0,1,154,289.75Zm-.22,1.75v5.57h-1V291.5Z"/><path class="1db7f73d-c8e7-431b-84fe-871207b8a25e" d="M157.36,291.4a2.8,2.8,0,0,1,.68.08,2.16,2.16,0,0,1,.57.23h1.51v.36c0,.12-.08.2-.23.23l-.63.09a1.81,1.81,0,0,1,0,1.54,1.67,1.67,0,0,1-.43.57,1.94,1.94,0,0,1-.66.36,2.67,2.67,0,0,1-.84.13,2.81,2.81,0,0,1-.74-.09.93.93,0,0,0-.27.24.45.45,0,0,0-.09.26.35.35,0,0,0,.16.31,1.1,1.1,0,0,0,.42.15,3.56,3.56,0,0,0,.6,0h.68a3.8,3.8,0,0,1,.69.06,2.09,2.09,0,0,1,.6.2,1.12,1.12,0,0,1,.42.38,1.14,1.14,0,0,1,.16.63,1.49,1.49,0,0,1-.18.7,1.89,1.89,0,0,1-.51.6,2.65,2.65,0,0,1-.82.42,3.52,3.52,0,0,1-1.09.16,4.21,4.21,0,0,1-1.07-.12,2.5,2.5,0,0,1-.76-.32,1.42,1.42,0,0,1-.45-.47,1.11,1.11,0,0,1-.15-.56,1,1,0,0,1,.26-.7,1.79,1.79,0,0,1,.72-.46,1,1,0,0,1-.38-.29.79.79,0,0,1-.14-.49.77.77,0,0,1,0-.25,1,1,0,0,1,.13-.26,1.46,1.46,0,0,1,.22-.24,1.44,1.44,0,0,1,.31-.2,1.73,1.73,0,0,1-.65-.61,1.68,1.68,0,0,1-.23-.89,1.72,1.72,0,0,1,.16-.74,1.64,1.64,0,0,1,.44-.57,2,2,0,0,1,.67-.36A2.74,2.74,0,0,1,157.36,291.4Zm1.74,5.95A.49.49,0,0,0,159,297a.74.74,0,0,0-.31-.2,2.23,2.23,0,0,0-.46-.1,4.22,4.22,0,0,0-.54,0h-.58a2.11,2.11,0,0,1-.57-.07,1.62,1.62,0,0,0-.51.36.73.73,0,0,0-.2.51.67.67,0,0,0,.1.35.82.82,0,0,0,.29.28,1.71,1.71,0,0,0,.5.19,3.6,3.6,0,0,0,1.42,0,1.77,1.77,0,0,0,.53-.21,1,1,0,0,0,.33-.32A.76.76,0,0,0,159.1,297.35Zm-1.74-3a1.53,1.53,0,0,0,.53-.08,1.06,1.06,0,0,0,.38-.23,1,1,0,0,0,.23-.35,1.3,1.3,0,0,0,.08-.45,1.08,1.08,0,0,0-.31-.81,1.5,1.5,0,0,0-1.8,0,1.09,1.09,0,0,0-.31.81,1.24,1.24,0,0,0,.08.45,1,1,0,0,0,.23.35,1.07,1.07,0,0,0,.38.23A1.48,1.48,0,0,0,157.36,294.35Z"/><path class="1db7f73d-c8e7-431b-84fe-871207b8a25e" d="M162,291.5v3.55a1.48,1.48,0,0,0,.29,1,1.08,1.08,0,0,0,.88.35,1.68,1.68,0,0,0,.81-.2,2.53,2.53,0,0,0,.7-.57V291.5h1v5.57H165a.25.25,0,0,1-.26-.2l-.08-.6a3,3,0,0,1-.81.65,2.14,2.14,0,0,1-1,.25A2,2,0,0,1,162,297a1.61,1.61,0,0,1-.59-.43,1.82,1.82,0,0,1-.35-.67,3,3,0,0,1-.12-.86V291.5Z"/><path class="1db7f73d-c8e7-431b-84fe-871207b8a25e" d="M169.48,291.41a2.86,2.86,0,0,1,1.1.2,2.32,2.32,0,0,1,.84.58,2.56,2.56,0,0,1,.53.91,3.91,3.91,0,0,1,0,2.37,2.56,2.56,0,0,1-.53.9,2.28,2.28,0,0,1-.84.58,3.12,3.12,0,0,1-2.21,0,2.32,2.32,0,0,1-.84-.58,2.57,2.57,0,0,1-.53-.9,3.85,3.85,0,0,1,0-2.37,2.57,2.57,0,0,1,.53-.91,2.36,2.36,0,0,1,.84-.58A2.86,2.86,0,0,1,169.48,291.41Zm0,5a1.43,1.43,0,0,0,1.23-.55,3.15,3.15,0,0,0,0-3.09,1.43,1.43,0,0,0-1.23-.56,1.72,1.72,0,0,0-.73.14,1.36,1.36,0,0,0-.51.41,1.82,1.82,0,0,0-.31.66,3.93,3.93,0,0,0,0,1.77,1.8,1.8,0,0,0,.31.66,1.36,1.36,0,0,0,.51.41A1.7,1.7,0,0,0,169.48,296.38Z"/><path class="1db7f73d-c8e7-431b-84fe-871207b8a25e" d="M174.18,291.5v3.55a1.48,1.48,0,0,0,.29,1,1.08,1.08,0,0,0,.88.35,1.68,1.68,0,0,0,.81-.2,2.53,2.53,0,0,0,.7-.57V291.5h1v5.57h-.58a.25.25,0,0,1-.26-.2l-.08-.6a3,3,0,0,1-.81.65,2.14,2.14,0,0,1-1,.25,2,2,0,0,1-.81-.15,1.61,1.61,0,0,1-.59-.43,1.82,1.82,0,0,1-.35-.67,3,3,0,0,1-.12-.86V291.5Z"/><path class="1db7f73d-c8e7-431b-84fe-871207b8a25e" d="M182.64,292.42a.22.22,0,0,1-.2.12.38.38,0,0,1-.19-.06l-.26-.13a2.33,2.33,0,0,0-.36-.14,1.73,1.73,0,0,0-.5-.06,1.46,1.46,0,0,0-.45.06,1.08,1.08,0,0,0-.34.17.77.77,0,0,0-.21.26.68.68,0,0,0-.07.32.52.52,0,0,0,.12.36,1.06,1.06,0,0,0,.33.25,2.88,2.88,0,0,0,.46.18l.53.17.53.2a2,2,0,0,1,.46.27,1.27,1.27,0,0,1,.33.4,1.25,1.25,0,0,1,.12.58,1.81,1.81,0,0,1-.14.71,1.55,1.55,0,0,1-.41.57,2,2,0,0,1-.66.38,2.7,2.7,0,0,1-.9.14,2.83,2.83,0,0,1-1.06-.19,2.68,2.68,0,0,1-.8-.49l.23-.37a.33.33,0,0,1,.1-.11.29.29,0,0,1,.16,0,.37.37,0,0,1,.21.08l.27.17a2.08,2.08,0,0,0,.38.17,1.71,1.71,0,0,0,.56.08,1.53,1.53,0,0,0,.5-.07,1.05,1.05,0,0,0,.36-.2.8.8,0,0,0,.21-.29.91.91,0,0,0,.07-.35.58.58,0,0,0-.12-.38,1.05,1.05,0,0,0-.33-.26,2.63,2.63,0,0,0-.46-.19l-.53-.17-.53-.2a1.82,1.82,0,0,1-.46-.28,1.28,1.28,0,0,1-.33-.42,1.36,1.36,0,0,1-.12-.61,1.49,1.49,0,0,1,.13-.61,1.51,1.51,0,0,1,.38-.52,1.9,1.9,0,0,1,.62-.35,2.46,2.46,0,0,1,.84-.13,2.66,2.66,0,0,1,1,.17,2.34,2.34,0,0,1,.76.48Z"/><path class="1db7f73d-c8e7-431b-84fe-871207b8a25e" d="M133.68,173a5.38,5.38,0,0,0,.59,0,3.81,3.81,0,0,0,.5-.09,3.35,3.35,0,0,0,.45-.15l.42-.19v-1.74h-1.22a.23.23,0,0,1-.17-.06.2.2,0,0,1-.06-.15V170h2.42v3a4.42,4.42,0,0,1-.62.37,4.19,4.19,0,0,1-.69.27,4.93,4.93,0,0,1-.78.16,7.27,7.27,0,0,1-.91.05,4.11,4.11,0,0,1-1.57-.29,3.63,3.63,0,0,1-1.23-.83,3.75,3.75,0,0,1-.81-1.27,4.48,4.48,0,0,1-.29-1.63,4.59,4.59,0,0,1,.28-1.64,3.54,3.54,0,0,1,2.08-2.1,4.57,4.57,0,0,1,1.67-.29,5.15,5.15,0,0,1,.87.07,4.07,4.07,0,0,1,.75.2,3.44,3.44,0,0,1,.64.31,3.9,3.9,0,0,1,.54.42l-.3.48a.28.28,0,0,1-.24.15.39.39,0,0,1-.19-.06l-.31-.19a2.59,2.59,0,0,0-.42-.21,3.31,3.31,0,0,0-.58-.17,3.86,3.86,0,0,0-.79-.07,3.18,3.18,0,0,0-1.21.22,2.54,2.54,0,0,0-.92.62,2.75,2.75,0,0,0-.58,1,3.84,3.84,0,0,0-.2,1.29,3.92,3.92,0,0,0,.21,1.33,2.82,2.82,0,0,0,.6,1,2.59,2.59,0,0,0,.91.62A3.08,3.08,0,0,0,133.68,173Z"/><path class="1db7f73d-c8e7-431b-84fe-871207b8a25e" d="M140.29,168.16a2.5,2.5,0,0,1,.92.17,2.09,2.09,0,0,1,.73.48,2.2,2.2,0,0,1,.48.78,3,3,0,0,1,.17,1.06.63.63,0,0,1,0,.31.2.2,0,0,1-.19.08h-3.71a3.07,3.07,0,0,0,.14.92,1.87,1.87,0,0,0,.36.65,1.46,1.46,0,0,0,.55.39,1.89,1.89,0,0,0,.71.13,2.11,2.11,0,0,0,.64-.08,2.94,2.94,0,0,0,.46-.18l.32-.18a.43.43,0,0,1,.22-.08.22.22,0,0,1,.19.09l.28.36a1.86,1.86,0,0,1-.43.38,2.74,2.74,0,0,1-.54.27,3.5,3.5,0,0,1-.6.16,3.61,3.61,0,0,1-.61.05,2.84,2.84,0,0,1-1.06-.2,2.35,2.35,0,0,1-.84-.57,2.62,2.62,0,0,1-.55-.93,3.79,3.79,0,0,1-.2-1.28,3.24,3.24,0,0,1,.18-1.09,2.57,2.57,0,0,1,.51-.88,2.38,2.38,0,0,1,.82-.58A2.7,2.7,0,0,1,140.29,168.16Zm0,.72a1.5,1.5,0,0,0-1.12.41,1.92,1.92,0,0,0-.51,1.14h3a2,2,0,0,0-.09-.62,1.39,1.39,0,0,0-.28-.49,1.23,1.23,0,0,0-.44-.32A1.49,1.49,0,0,0,140.31,168.88Z"/><path class="1db7f73d-c8e7-431b-84fe-871207b8a25e" d="M143.85,173.82v-5.57h.58a.25.25,0,0,1,.26.2l.08.6a3.14,3.14,0,0,1,.81-.65,2.11,2.11,0,0,1,1-.25,2,2,0,0,1,.81.15,1.57,1.57,0,0,1,.58.43,1.9,1.9,0,0,1,.35.67,2.93,2.93,0,0,1,.12.86v3.55h-1v-3.55a1.5,1.5,0,0,0-.29-1,1.08,1.08,0,0,0-.88-.35,1.65,1.65,0,0,0-.81.21,2.67,2.67,0,0,0-.7.57v4.1Z"/><path class="1db7f73d-c8e7-431b-84fe-871207b8a25e" d="M152.17,168.16a2.5,2.5,0,0,1,.92.17,2.09,2.09,0,0,1,.73.48,2.2,2.2,0,0,1,.48.78,3,3,0,0,1,.17,1.06.63.63,0,0,1,0,.31.2.2,0,0,1-.19.08h-3.71a3.07,3.07,0,0,0,.14.92,1.87,1.87,0,0,0,.36.65,1.46,1.46,0,0,0,.55.39,1.89,1.89,0,0,0,.71.13,2.11,2.11,0,0,0,.64-.08,2.94,2.94,0,0,0,.46-.18l.32-.18a.43.43,0,0,1,.22-.08.22.22,0,0,1,.19.09l.28.36a1.86,1.86,0,0,1-.43.38,2.74,2.74,0,0,1-.54.27,3.5,3.5,0,0,1-.6.16,3.61,3.61,0,0,1-.61.05,2.84,2.84,0,0,1-1.06-.2,2.35,2.35,0,0,1-.84-.57,2.62,2.62,0,0,1-.55-.93,3.79,3.79,0,0,1-.2-1.28,3.24,3.24,0,0,1,.18-1.09,2.57,2.57,0,0,1,.51-.88,2.38,2.38,0,0,1,.82-.58A2.7,2.7,0,0,1,152.17,168.16Zm0,.72a1.5,1.5,0,0,0-1.12.41,1.92,1.92,0,0,0-.51,1.14h3a2,2,0,0,0-.09-.62,1.39,1.39,0,0,0-.28-.49,1.23,1.23,0,0,0-.44-.32A1.49,1.49,0,0,0,152.19,168.88Z"/><path class="1db7f73d-c8e7-431b-84fe-871207b8a25e" d="M164.49,173.82h-.83a.36.36,0,0,1-.23-.07.44.44,0,0,1-.13-.18l-.74-1.9H159l-.74,1.9a.44.44,0,0,1-.13.18.35.35,0,0,1-.23.08h-.83l3.15-7.88h1.08Zm-5.17-2.93h2.94L161,167.69a6.14,6.14,0,0,1-.24-.74l-.12.42c0,.13-.08.24-.11.33Z"/><path class="1db7f73d-c8e7-431b-84fe-871207b8a25e" d="M136.65,258.82h-.82a.36.36,0,0,1-.23-.07.44.44,0,0,1-.13-.18l-.74-1.9h-3.54l-.74,1.9a.43.43,0,0,1-.13.18.35.35,0,0,1-.23.08h-.82l3.15-7.88h1.08Zm-5.16-2.93h2.94l-1.24-3.21a5.81,5.81,0,0,1-.24-.74l-.12.42c0,.13-.08.24-.11.33Z"/><path class="1db7f73d-c8e7-431b-84fe-871207b8a25e" d="M137.49,258.82v-5.57h.58a.25.25,0,0,1,.26.2l.07.57a2.85,2.85,0,0,1,.69-.62,1.63,1.63,0,0,1,.89-.24,1.32,1.32,0,0,1,.92.31,1.77,1.77,0,0,1,.5.85,1.73,1.73,0,0,1,.31-.52,1.77,1.77,0,0,1,.93-.57,2.25,2.25,0,0,1,.54-.07,2.06,2.06,0,0,1,.78.14,1.57,1.57,0,0,1,.58.41,1.82,1.82,0,0,1,.37.66,2.92,2.92,0,0,1,.13.9v3.55h-1v-3.55a1.49,1.49,0,0,0-.29-1,1,1,0,0,0-.83-.34,1.25,1.25,0,0,0-.46.08,1.11,1.11,0,0,0-.38.25,1.16,1.16,0,0,0-.26.42,1.6,1.6,0,0,0-.1.58v3.55h-1v-3.55a1.56,1.56,0,0,0-.27-1,1,1,0,0,0-.79-.33,1.25,1.25,0,0,0-.67.2,2.2,2.2,0,0,0-.57.53v4.15Z"/><path class="1db7f73d-c8e7-431b-84fe-871207b8a25e" d="M146.55,258.82v-8.1h1v3.33a2.85,2.85,0,0,1,.79-.65,2.11,2.11,0,0,1,1-.25,2,2,0,0,1,.87.18,1.77,1.77,0,0,1,.67.54,2.62,2.62,0,0,1,.42.89,4.54,4.54,0,0,1,.15,1.22,3.83,3.83,0,0,1-.17,1.15,2.75,2.75,0,0,1-.48.92,2.2,2.2,0,0,1-1.77.83,1.87,1.87,0,0,1-.92-.21,2.09,2.09,0,0,1-.66-.58l0,.51a.24.24,0,0,1-.25.21Zm2.49-4.88a1.58,1.58,0,0,0-.84.22,2.44,2.44,0,0,0-.66.62v2.7a1.55,1.55,0,0,0,.59.51,1.69,1.69,0,0,0,.72.15,1.41,1.41,0,0,0,1.2-.55,2.6,2.6,0,0,0,.42-1.58,3.94,3.94,0,0,0-.1-.94,1.82,1.82,0,0,0-.28-.64,1.08,1.08,0,0,0-.45-.37A1.5,1.5,0,0,0,149,253.94Z"/><path class="1db7f73d-c8e7-431b-84fe-871207b8a25e" d="M154,251.5a.62.62,0,0,1-.06.27.78.78,0,0,1-.15.22.73.73,0,0,1-.22.15.68.68,0,0,1-.27.05.66.66,0,0,1-.27-.05.74.74,0,0,1-.37-.37.66.66,0,0,1-.05-.27.7.7,0,0,1,.05-.27.72.72,0,0,1,.15-.23.74.74,0,0,1,.22-.15.65.65,0,0,1,.27-.05.67.67,0,0,1,.27.05.73.73,0,0,1,.22.15.76.76,0,0,1,.15.23A.65.65,0,0,1,154,251.5Zm-.22,1.75v5.57h-1v-5.57Z"/><path class="1db7f73d-c8e7-431b-84fe-871207b8a25e" d="M157.36,253.15a2.8,2.8,0,0,1,.68.08,2.16,2.16,0,0,1,.57.23h1.51v.36c0,.12-.08.2-.23.23l-.63.09a1.81,1.81,0,0,1,0,1.54,1.67,1.67,0,0,1-.43.57,1.94,1.94,0,0,1-.66.36,2.67,2.67,0,0,1-.84.13,2.81,2.81,0,0,1-.74-.09.93.93,0,0,0-.27.24.45.45,0,0,0-.09.26.35.35,0,0,0,.16.31,1.1,1.1,0,0,0,.42.15,3.56,3.56,0,0,0,.6,0h.68a3.8,3.8,0,0,1,.69.06,2.09,2.09,0,0,1,.6.2,1.12,1.12,0,0,1,.42.38,1.14,1.14,0,0,1,.16.63,1.49,1.49,0,0,1-.18.7,1.89,1.89,0,0,1-.51.6,2.65,2.65,0,0,1-.82.42,3.52,3.52,0,0,1-1.09.16,4.21,4.21,0,0,1-1.07-.12,2.5,2.5,0,0,1-.76-.32,1.42,1.42,0,0,1-.45-.47,1.11,1.11,0,0,1-.15-.56,1,1,0,0,1,.26-.7,1.79,1.79,0,0,1,.72-.46,1,1,0,0,1-.38-.29.79.79,0,0,1-.14-.49.77.77,0,0,1,0-.25,1,1,0,0,1,.13-.26,1.46,1.46,0,0,1,.22-.24,1.44,1.44,0,0,1,.31-.2,1.73,1.73,0,0,1-.65-.61,1.68,1.68,0,0,1-.23-.89,1.72,1.72,0,0,1,.16-.74,1.64,1.64,0,0,1,.44-.57,2,2,0,0,1,.67-.36A2.74,2.74,0,0,1,157.36,253.15Zm1.74,5.95a.49.49,0,0,0-.12-.34.74.74,0,0,0-.31-.2,2.23,2.23,0,0,0-.46-.1,4.22,4.22,0,0,0-.54,0h-.58a2.11,2.11,0,0,1-.57-.07,1.62,1.62,0,0,0-.51.36.73.73,0,0,0-.2.51.67.67,0,0,0,.1.35.82.82,0,0,0,.29.28,1.71,1.71,0,0,0,.5.19,3.6,3.6,0,0,0,1.42,0,1.77,1.77,0,0,0,.53-.21,1,1,0,0,0,.33-.32A.76.76,0,0,0,159.1,259.1Zm-1.74-3a1.53,1.53,0,0,0,.53-.08,1.06,1.06,0,0,0,.38-.23,1,1,0,0,0,.23-.35,1.3,1.3,0,0,0,.08-.45,1.08,1.08,0,0,0-.31-.81,1.5,1.5,0,0,0-1.8,0,1.09,1.09,0,0,0-.31.81,1.24,1.24,0,0,0,.08.45,1,1,0,0,0,.23.35,1.07,1.07,0,0,0,.38.23A1.48,1.48,0,0,0,157.36,256.1Z"/><path class="1db7f73d-c8e7-431b-84fe-871207b8a25e" d="M162,253.25v3.55a1.48,1.48,0,0,0,.29,1,1.08,1.08,0,0,0,.88.35,1.68,1.68,0,0,0,.81-.2,2.53,2.53,0,0,0,.7-.57v-4.11h1v5.57H165a.25.25,0,0,1-.26-.2l-.08-.6a3,3,0,0,1-.81.65,2.14,2.14,0,0,1-1,.25,2,2,0,0,1-.81-.15,1.61,1.61,0,0,1-.59-.43,1.82,1.82,0,0,1-.35-.67,3,3,0,0,1-.12-.86v-3.55Z"/><path class="1db7f73d-c8e7-431b-84fe-871207b8a25e" d="M169.48,253.16a2.86,2.86,0,0,1,1.1.2,2.32,2.32,0,0,1,.84.58,2.56,2.56,0,0,1,.53.91,3.91,3.91,0,0,1,0,2.37,2.56,2.56,0,0,1-.53.9,2.28,2.28,0,0,1-.84.58,3.12,3.12,0,0,1-2.21,0,2.32,2.32,0,0,1-.84-.58,2.57,2.57,0,0,1-.53-.9,3.85,3.85,0,0,1,0-2.37,2.57,2.57,0,0,1,.53-.91,2.36,2.36,0,0,1,.84-.58A2.86,2.86,0,0,1,169.48,253.16Zm0,5a1.43,1.43,0,0,0,1.23-.55,3.15,3.15,0,0,0,0-3.09,1.43,1.43,0,0,0-1.23-.56,1.72,1.72,0,0,0-.73.14,1.36,1.36,0,0,0-.51.41,1.82,1.82,0,0,0-.31.66,3.93,3.93,0,0,0,0,1.77,1.8,1.8,0,0,0,.31.66,1.36,1.36,0,0,0,.51.41A1.7,1.7,0,0,0,169.48,258.13Z"/><path class="1db7f73d-c8e7-431b-84fe-871207b8a25e" d="M174.18,253.25v3.55a1.48,1.48,0,0,0,.29,1,1.08,1.08,0,0,0,.88.35,1.68,1.68,0,0,0,.81-.2,2.53,2.53,0,0,0,.7-.57v-4.11h1v5.57h-.58a.25.25,0,0,1-.26-.2l-.08-.6a3,3,0,0,1-.81.65,2.14,2.14,0,0,1-1,.25,2,2,0,0,1-.81-.15,1.61,1.61,0,0,1-.59-.43,1.82,1.82,0,0,1-.35-.67,3,3,0,0,1-.12-.86v-3.55Z"/><path class="1db7f73d-c8e7-431b-84fe-871207b8a25e" d="M182.64,254.17a.22.22,0,0,1-.2.12.38.38,0,0,1-.19-.06l-.26-.13a2.33,2.33,0,0,0-.36-.14,1.73,1.73,0,0,0-.5-.06,1.46,1.46,0,0,0-.45.06,1.08,1.08,0,0,0-.34.17.77.77,0,0,0-.21.26.68.68,0,0,0-.07.32.52.52,0,0,0,.12.36,1.06,1.06,0,0,0,.33.25,2.88,2.88,0,0,0,.46.18l.53.17.53.2a2,2,0,0,1,.46.27,1.27,1.27,0,0,1,.33.4,1.25,1.25,0,0,1,.12.58,1.81,1.81,0,0,1-.14.71,1.55,1.55,0,0,1-.41.57,2,2,0,0,1-.66.38,2.7,2.7,0,0,1-.9.14,2.83,2.83,0,0,1-1.06-.19,2.68,2.68,0,0,1-.8-.49l.23-.37a.33.33,0,0,1,.1-.11.29.29,0,0,1,.16,0,.37.37,0,0,1,.21.08l.27.17a2.08,2.08,0,0,0,.38.17,1.71,1.71,0,0,0,.56.08,1.53,1.53,0,0,0,.5-.07,1.05,1.05,0,0,0,.36-.2.8.8,0,0,0,.21-.29.91.91,0,0,0,.07-.35.58.58,0,0,0-.12-.38,1.05,1.05,0,0,0-.33-.26,2.63,2.63,0,0,0-.46-.19l-.53-.17-.53-.2a1.82,1.82,0,0,1-.46-.28,1.28,1.28,0,0,1-.33-.42,1.36,1.36,0,0,1-.12-.61,1.49,1.49,0,0,1,.13-.61,1.51,1.51,0,0,1,.38-.52,1.9,1.9,0,0,1,.62-.35,2.46,2.46,0,0,1,.84-.13,2.66,2.66,0,0,1,1,.17,2.34,2.34,0,0,1,.76.48Z"/><path class="1db7f73d-c8e7-431b-84fe-871207b8a25e" d="M136.65,216.44h-.82a.35.35,0,0,1-.23-.07.44.44,0,0,1-.13-.18l-.74-1.9h-3.54l-.74,1.9a.42.42,0,0,1-.13.18.35.35,0,0,1-.23.08h-.82l3.15-7.88h1.08Zm-5.16-2.93h2.94l-1.24-3.21a5.83,5.83,0,0,1-.24-.74l-.12.42c0,.13-.08.24-.11.33Z"/><path class="1db7f73d-c8e7-431b-84fe-871207b8a25e" d="M137.49,216.44v-5.57h.58a.25.25,0,0,1,.26.2l.07.57a2.84,2.84,0,0,1,.69-.62,1.63,1.63,0,0,1,.89-.24,1.32,1.32,0,0,1,.92.31,1.77,1.77,0,0,1,.5.85,1.74,1.74,0,0,1,.73-.88,1.79,1.79,0,0,1,.5-.21,2.2,2.2,0,0,1,.54-.07,2.06,2.06,0,0,1,.78.14,1.55,1.55,0,0,1,.58.41,1.82,1.82,0,0,1,.37.66,2.91,2.91,0,0,1,.13.9v3.55h-1v-3.55a1.5,1.5,0,0,0-.29-1,1,1,0,0,0-.83-.34,1.25,1.25,0,0,0-.46.08,1.11,1.11,0,0,0-.38.25,1.18,1.18,0,0,0-.26.42,1.61,1.61,0,0,0-.1.58v3.55h-1v-3.55a1.56,1.56,0,0,0-.27-1,1,1,0,0,0-.79-.33,1.24,1.24,0,0,0-.67.2,2.19,2.19,0,0,0-.57.53v4.15Z"/><path class="1db7f73d-c8e7-431b-84fe-871207b8a25e" d="M146.55,216.44v-8.1h1v3.33a2.85,2.85,0,0,1,.79-.65,2.11,2.11,0,0,1,1-.25,2,2,0,0,1,.87.18,1.77,1.77,0,0,1,.67.54,2.61,2.61,0,0,1,.42.89,4.53,4.53,0,0,1,.15,1.22,3.83,3.83,0,0,1-.17,1.15,2.75,2.75,0,0,1-.48.92,2.2,2.2,0,0,1-1.77.83,1.86,1.86,0,0,1-.92-.21,2.09,2.09,0,0,1-.66-.58l0,.51a.24.24,0,0,1-.25.21Zm2.49-4.88a1.58,1.58,0,0,0-.84.22,2.42,2.42,0,0,0-.66.62v2.7a1.55,1.55,0,0,0,.59.51,1.7,1.7,0,0,0,.72.15,1.41,1.41,0,0,0,1.2-.56,2.6,2.6,0,0,0,.42-1.58,3.93,3.93,0,0,0-.1-.93,1.82,1.82,0,0,0-.28-.64,1.09,1.09,0,0,0-.45-.37A1.48,1.48,0,0,0,149,211.56Z"/><path class="1db7f73d-c8e7-431b-84fe-871207b8a25e" d="M154,209.12a.61.61,0,0,1-.06.27.75.75,0,0,1-.15.22.71.71,0,0,1-.22.15.67.67,0,0,1-.27.06.65.65,0,0,1-.27-.06.74.74,0,0,1-.37-.37.65.65,0,0,1-.05-.27.7.7,0,0,1,.05-.27.72.72,0,0,1,.15-.23.75.75,0,0,1,.22-.15.66.66,0,0,1,.27-.05.68.68,0,0,1,.27.05.74.74,0,0,1,.22.15.76.76,0,0,1,.15.23A.65.65,0,0,1,154,209.12Zm-.22,1.75v5.57h-1v-5.57Z"/><path class="1db7f73d-c8e7-431b-84fe-871207b8a25e" d="M157.36,210.77a2.8,2.8,0,0,1,.68.08,2.13,2.13,0,0,1,.57.23h1.51v.36q0,.18-.23.23l-.63.09a1.72,1.72,0,0,1-.4,2.11,2,2,0,0,1-.66.36,2.64,2.64,0,0,1-.84.13,2.81,2.81,0,0,1-.74-.09.94.94,0,0,0-.27.25.45.45,0,0,0-.09.26.35.35,0,0,0,.16.31,1.1,1.1,0,0,0,.42.15,3.56,3.56,0,0,0,.6,0h.68a3.8,3.8,0,0,1,.69.06,2.06,2.06,0,0,1,.6.2,1.12,1.12,0,0,1,.42.38,1.15,1.15,0,0,1,.16.63,1.49,1.49,0,0,1-.18.7,1.89,1.89,0,0,1-.51.6,2.62,2.62,0,0,1-.82.42,3.49,3.49,0,0,1-1.09.16,4.21,4.21,0,0,1-1.07-.12,2.52,2.52,0,0,1-.76-.33,1.42,1.42,0,0,1-.45-.47A1.11,1.11,0,0,1,155,217a1,1,0,0,1,.26-.7,1.81,1.81,0,0,1,.72-.46,1,1,0,0,1-.38-.29.79.79,0,0,1-.14-.49.78.78,0,0,1,0-.25,1,1,0,0,1,.13-.25,1.42,1.42,0,0,1,.22-.24,1.48,1.48,0,0,1,.31-.2,1.72,1.72,0,0,1-.65-.61,1.68,1.68,0,0,1-.23-.89,1.71,1.71,0,0,1,.16-.74,1.63,1.63,0,0,1,.44-.57,2,2,0,0,1,.67-.36A2.71,2.71,0,0,1,157.36,210.77Zm1.74,5.95a.49.49,0,0,0-.12-.34.74.74,0,0,0-.31-.2,2.3,2.3,0,0,0-.46-.1,4.22,4.22,0,0,0-.54,0h-.58a2.15,2.15,0,0,1-.57-.07,1.6,1.6,0,0,0-.51.36.74.74,0,0,0-.2.51.67.67,0,0,0,.1.35.81.81,0,0,0,.29.28,1.71,1.71,0,0,0,.5.19,3.19,3.19,0,0,0,.71.07,3.13,3.13,0,0,0,.71-.07,1.8,1.8,0,0,0,.53-.21,1,1,0,0,0,.33-.32A.76.76,0,0,0,159.1,216.72Zm-1.74-3a1.55,1.55,0,0,0,.53-.08,1,1,0,0,0,.38-.23,1,1,0,0,0,.23-.35,1.3,1.3,0,0,0,.08-.45,1.08,1.08,0,0,0-.31-.81,1.49,1.49,0,0,0-1.8,0,1.08,1.08,0,0,0-.31.81,1.24,1.24,0,0,0,.08.45,1,1,0,0,0,.23.35,1.05,1.05,0,0,0,.38.23A1.51,1.51,0,0,0,157.36,213.72Z"/><path class="1db7f73d-c8e7-431b-84fe-871207b8a25e" d="M162,210.87v3.55a1.48,1.48,0,0,0,.29,1,1.09,1.09,0,0,0,.88.35,1.69,1.69,0,0,0,.81-.2,2.52,2.52,0,0,0,.7-.57v-4.11h1v5.57H165a.25.25,0,0,1-.26-.2l-.08-.6a3,3,0,0,1-.81.65,2.13,2.13,0,0,1-1,.24,2,2,0,0,1-.81-.15,1.6,1.6,0,0,1-.59-.43,1.82,1.82,0,0,1-.35-.67,3,3,0,0,1-.12-.86v-3.55Z"/><path class="1db7f73d-c8e7-431b-84fe-871207b8a25e" d="M169.48,210.78a2.86,2.86,0,0,1,1.1.2,2.31,2.31,0,0,1,.84.58,2.55,2.55,0,0,1,.53.9,3.91,3.91,0,0,1,0,2.37,2.55,2.55,0,0,1-.53.9,2.3,2.3,0,0,1-.84.58,3.14,3.14,0,0,1-2.21,0,2.33,2.33,0,0,1-.84-.58,2.56,2.56,0,0,1-.53-.9,3.85,3.85,0,0,1,0-2.37,2.56,2.56,0,0,1,.53-.9,2.35,2.35,0,0,1,.84-.58A2.86,2.86,0,0,1,169.48,210.78Zm0,5a1.43,1.43,0,0,0,1.23-.55,2.56,2.56,0,0,0,.41-1.54,2.58,2.58,0,0,0-.41-1.55,1.43,1.43,0,0,0-1.23-.56,1.7,1.7,0,0,0-.73.14,1.36,1.36,0,0,0-.51.41,1.82,1.82,0,0,0-.31.66,3.92,3.92,0,0,0,0,1.77,1.79,1.79,0,0,0,.31.66,1.37,1.37,0,0,0,.51.41A1.72,1.72,0,0,0,169.48,215.75Z"/><path class="1db7f73d-c8e7-431b-84fe-871207b8a25e" d="M174.18,210.87v3.55a1.48,1.48,0,0,0,.29,1,1.09,1.09,0,0,0,.88.35,1.69,1.69,0,0,0,.81-.2,2.52,2.52,0,0,0,.7-.57v-4.11h1v5.57h-.58a.25.25,0,0,1-.26-.2l-.08-.6a3,3,0,0,1-.81.65,2.13,2.13,0,0,1-1,.24,2,2,0,0,1-.81-.15,1.6,1.6,0,0,1-.59-.43,1.82,1.82,0,0,1-.35-.67,3,3,0,0,1-.12-.86v-3.55Z"/><path class="1db7f73d-c8e7-431b-84fe-871207b8a25e" d="M182.64,211.79a.22.22,0,0,1-.2.12.38.38,0,0,1-.19-.06l-.26-.13a2.33,2.33,0,0,0-.36-.14,1.73,1.73,0,0,0-.5-.06,1.46,1.46,0,0,0-.45.06,1.08,1.08,0,0,0-.34.17.78.78,0,0,0-.21.26.69.69,0,0,0-.07.32.53.53,0,0,0,.12.36,1.06,1.06,0,0,0,.33.25,2.71,2.71,0,0,0,.46.18l.53.17.53.2a1.92,1.92,0,0,1,.46.28,1.2,1.2,0,0,1,.45,1,1.82,1.82,0,0,1-.14.71,1.56,1.56,0,0,1-.41.57,2,2,0,0,1-.66.38,2.73,2.73,0,0,1-.9.14,2.81,2.81,0,0,1-1.06-.19,2.67,2.67,0,0,1-.8-.49l.23-.37a.33.33,0,0,1,.1-.11.3.3,0,0,1,.16,0,.37.37,0,0,1,.21.08l.27.17a2.08,2.08,0,0,0,.38.17,1.74,1.74,0,0,0,.56.08,1.53,1.53,0,0,0,.5-.07,1.05,1.05,0,0,0,.36-.2.8.8,0,0,0,.21-.29.9.9,0,0,0,.07-.35.58.58,0,0,0-.12-.38,1,1,0,0,0-.33-.26,2.71,2.71,0,0,0-.46-.19l-.53-.17-.53-.2a1.88,1.88,0,0,1-.46-.28,1.27,1.27,0,0,1-.33-.42,1.35,1.35,0,0,1-.12-.61,1.48,1.48,0,0,1,.13-.61,1.51,1.51,0,0,1,.38-.52,1.9,1.9,0,0,1,.62-.35,2.49,2.49,0,0,1,.84-.13,2.66,2.66,0,0,1,1,.17,2.36,2.36,0,0,1,.76.48Z"/><path class="1db7f73d-c8e7-431b-84fe-871207b8a25e" d="M133.68,105.66a5.14,5.14,0,0,0,.59,0,3.52,3.52,0,0,0,.5-.09,3.35,3.35,0,0,0,.45-.15l.42-.2v-1.74h-1.22a.23.23,0,0,1-.17-.06.2.2,0,0,1-.06-.15v-.6h2.42v3a4.25,4.25,0,0,1-1.31.64,5,5,0,0,1-.78.16,7.47,7.47,0,0,1-.91.05,4.1,4.1,0,0,1-1.57-.29,3.61,3.61,0,0,1-1.23-.83,3.74,3.74,0,0,1-.81-1.27,4.47,4.47,0,0,1-.29-1.63,4.59,4.59,0,0,1,.28-1.64,3.54,3.54,0,0,1,2.08-2.1,4.55,4.55,0,0,1,1.67-.29,5.15,5.15,0,0,1,.87.07,4,4,0,0,1,.75.2A3.44,3.44,0,0,1,136,99a3.76,3.76,0,0,1,.54.42l-.3.48a.28.28,0,0,1-.24.15.39.39,0,0,1-.19-.06l-.31-.19a2.67,2.67,0,0,0-.42-.21,3.4,3.4,0,0,0-.58-.17,3.79,3.79,0,0,0-.79-.07,3.2,3.2,0,0,0-1.21.22,2.54,2.54,0,0,0-.92.62,2.75,2.75,0,0,0-.58,1,3.84,3.84,0,0,0-.2,1.29,3.92,3.92,0,0,0,.21,1.33,2.82,2.82,0,0,0,.6,1,2.57,2.57,0,0,0,.91.62A3.06,3.06,0,0,0,133.68,105.66Z"/><path class="1db7f73d-c8e7-431b-84fe-871207b8a25e" d="M140.29,100.78a2.48,2.48,0,0,1,.92.17,2.07,2.07,0,0,1,.73.48,2.21,2.21,0,0,1,.48.78,3,3,0,0,1,.17,1.06.64.64,0,0,1,0,.31.21.21,0,0,1-.19.08h-3.71a3.07,3.07,0,0,0,.14.92,1.86,1.86,0,0,0,.36.65,1.45,1.45,0,0,0,.55.39,1.88,1.88,0,0,0,.71.13,2.07,2.07,0,0,0,.64-.09,3,3,0,0,0,.46-.18l.32-.18a.43.43,0,0,1,.22-.08.22.22,0,0,1,.19.09l.28.36a1.88,1.88,0,0,1-.43.38,2.69,2.69,0,0,1-.54.27,3.5,3.5,0,0,1-.6.16,3.71,3.71,0,0,1-.61.05,2.84,2.84,0,0,1-1.06-.2,2.33,2.33,0,0,1-.84-.57,2.62,2.62,0,0,1-.55-.93,3.8,3.8,0,0,1-.2-1.28,3.25,3.25,0,0,1,.18-1.09,2.56,2.56,0,0,1,.51-.88,2.36,2.36,0,0,1,.82-.58A2.68,2.68,0,0,1,140.29,100.78Zm0,.72a1.51,1.51,0,0,0-1.12.41,1.93,1.93,0,0,0-.51,1.14h3a2,2,0,0,0-.09-.62,1.4,1.4,0,0,0-.28-.49,1.22,1.22,0,0,0-.44-.32A1.49,1.49,0,0,0,140.31,101.5Z"/><path class="1db7f73d-c8e7-431b-84fe-871207b8a25e" d="M143.85,106.44v-5.57h.58a.25.25,0,0,1,.26.2l.08.61a3.14,3.14,0,0,1,.81-.65,2.11,2.11,0,0,1,1-.25,2,2,0,0,1,.81.15,1.57,1.57,0,0,1,.58.43,1.92,1.92,0,0,1,.35.67,2.93,2.93,0,0,1,.12.86v3.55h-1v-3.55a1.5,1.5,0,0,0-.29-1,1.08,1.08,0,0,0-.88-.35,1.64,1.64,0,0,0-.81.21,2.65,2.65,0,0,0-.7.57v4.1Z"/><path class="1db7f73d-c8e7-431b-84fe-871207b8a25e" d="M152.17,100.78a2.48,2.48,0,0,1,.92.17,2.07,2.07,0,0,1,.73.48,2.21,2.21,0,0,1,.48.78,3,3,0,0,1,.17,1.06.64.64,0,0,1,0,.31.21.21,0,0,1-.19.08h-3.71a3.07,3.07,0,0,0,.14.92,1.86,1.86,0,0,0,.36.65,1.45,1.45,0,0,0,.55.39,1.88,1.88,0,0,0,.71.13,2.07,2.07,0,0,0,.64-.09,3,3,0,0,0,.46-.18l.32-.18a.43.43,0,0,1,.22-.08.22.22,0,0,1,.19.09l.28.36a1.88,1.88,0,0,1-.43.38,2.69,2.69,0,0,1-.54.27,3.5,3.5,0,0,1-.6.16,3.71,3.71,0,0,1-.61.05,2.84,2.84,0,0,1-1.06-.2,2.33,2.33,0,0,1-.84-.57,2.62,2.62,0,0,1-.55-.93,3.8,3.8,0,0,1-.2-1.28,3.25,3.25,0,0,1,.18-1.09,2.56,2.56,0,0,1,.51-.88,2.36,2.36,0,0,1,.82-.58A2.68,2.68,0,0,1,152.17,100.78Zm0,.72a1.51,1.51,0,0,0-1.12.41,1.93,1.93,0,0,0-.51,1.14h3a2,2,0,0,0-.09-.62,1.4,1.4,0,0,0-.28-.49,1.22,1.22,0,0,0-.44-.32A1.49,1.49,0,0,0,152.19,101.5Z"/><path class="1db7f73d-c8e7-431b-84fe-871207b8a25e" d="M164.49,106.44h-.83a.35.35,0,0,1-.23-.07.44.44,0,0,1-.13-.18l-.74-1.9H159l-.74,1.9a.43.43,0,0,1-.13.18.35.35,0,0,1-.23.08h-.83l3.15-7.88h1.08Zm-5.17-2.93h2.94L161,100.3a6.16,6.16,0,0,1-.24-.74l-.12.42c0,.13-.08.24-.11.33Z"/><path class="1db7f73d-c8e7-431b-84fe-871207b8a25e" d="M133.68,136.19a5.38,5.38,0,0,0,.59,0,3.81,3.81,0,0,0,.5-.09,3.35,3.35,0,0,0,.45-.15l.42-.19V134h-1.22a.23.23,0,0,1-.17-.06.2.2,0,0,1-.06-.15v-.61h2.42v3a4.42,4.42,0,0,1-.62.37,4.19,4.19,0,0,1-.69.27,4.93,4.93,0,0,1-.78.16,7.27,7.27,0,0,1-.91.05,4.11,4.11,0,0,1-1.57-.29,3.63,3.63,0,0,1-1.23-.83,3.75,3.75,0,0,1-.81-1.27,4.48,4.48,0,0,1-.29-1.63,4.59,4.59,0,0,1,.28-1.64,3.54,3.54,0,0,1,2.08-2.1,4.57,4.57,0,0,1,1.67-.29,5.15,5.15,0,0,1,.87.07,4.07,4.07,0,0,1,.75.2,3.44,3.44,0,0,1,.64.31,3.9,3.9,0,0,1,.54.42l-.3.48a.28.28,0,0,1-.24.15.39.39,0,0,1-.19-.06l-.31-.19a2.59,2.59,0,0,0-.42-.21,3.31,3.31,0,0,0-.58-.17,3.86,3.86,0,0,0-.79-.07,3.18,3.18,0,0,0-1.21.22,2.54,2.54,0,0,0-.92.62,2.75,2.75,0,0,0-.58,1,3.84,3.84,0,0,0-.2,1.29,3.92,3.92,0,0,0,.21,1.33,2.82,2.82,0,0,0,.6,1,2.59,2.59,0,0,0,.91.62A3.08,3.08,0,0,0,133.68,136.19Z"/><path class="1db7f73d-c8e7-431b-84fe-871207b8a25e" d="M140.29,131.3a2.5,2.5,0,0,1,.92.17,2.09,2.09,0,0,1,.73.48,2.2,2.2,0,0,1,.48.78,3,3,0,0,1,.17,1.06.63.63,0,0,1,0,.31.2.2,0,0,1-.19.08h-3.71a3.07,3.07,0,0,0,.14.92,1.87,1.87,0,0,0,.36.65,1.46,1.46,0,0,0,.55.39,1.89,1.89,0,0,0,.71.13,2.11,2.11,0,0,0,.64-.08,2.94,2.94,0,0,0,.46-.18l.32-.18a.43.43,0,0,1,.22-.08.22.22,0,0,1,.19.09l.28.36a1.86,1.86,0,0,1-.43.38,2.74,2.74,0,0,1-.54.27,3.5,3.5,0,0,1-.6.16,3.61,3.61,0,0,1-.61.05,2.84,2.84,0,0,1-1.06-.2,2.35,2.35,0,0,1-.84-.57,2.62,2.62,0,0,1-.55-.93,3.79,3.79,0,0,1-.2-1.28,3.24,3.24,0,0,1,.18-1.09,2.57,2.57,0,0,1,.51-.88,2.38,2.38,0,0,1,.82-.58A2.7,2.7,0,0,1,140.29,131.3Zm0,.72a1.5,1.5,0,0,0-1.12.41,1.92,1.92,0,0,0-.51,1.14h3a2,2,0,0,0-.09-.62,1.39,1.39,0,0,0-.28-.49,1.23,1.23,0,0,0-.44-.32A1.49,1.49,0,0,0,140.31,132Z"/><path class="1db7f73d-c8e7-431b-84fe-871207b8a25e" d="M143.85,137v-5.57h.58a.25.25,0,0,1,.26.2l.08.6a3.14,3.14,0,0,1,.81-.65,2.11,2.11,0,0,1,1-.25,2,2,0,0,1,.81.15,1.57,1.57,0,0,1,.58.43,1.9,1.9,0,0,1,.35.67,2.93,2.93,0,0,1,.12.86V137h-1v-3.55a1.5,1.5,0,0,0-.29-1,1.08,1.08,0,0,0-.88-.35,1.65,1.65,0,0,0-.81.21,2.67,2.67,0,0,0-.7.57V137Z"/><path class="1db7f73d-c8e7-431b-84fe-871207b8a25e" d="M152.17,131.3a2.5,2.5,0,0,1,.92.17,2.09,2.09,0,0,1,.73.48,2.2,2.2,0,0,1,.48.78,3,3,0,0,1,.17,1.06.63.63,0,0,1,0,.31.2.2,0,0,1-.19.08h-3.71a3.07,3.07,0,0,0,.14.92,1.87,1.87,0,0,0,.36.65,1.46,1.46,0,0,0,.55.39,1.89,1.89,0,0,0,.71.13,2.11,2.11,0,0,0,.64-.08,2.94,2.94,0,0,0,.46-.18l.32-.18a.43.43,0,0,1,.22-.08.22.22,0,0,1,.19.09l.28.36a1.86,1.86,0,0,1-.43.38,2.74,2.74,0,0,1-.54.27,3.5,3.5,0,0,1-.6.16,3.61,3.61,0,0,1-.61.05,2.84,2.84,0,0,1-1.06-.2,2.35,2.35,0,0,1-.84-.57,2.62,2.62,0,0,1-.55-.93,3.79,3.79,0,0,1-.2-1.28,3.24,3.24,0,0,1,.18-1.09,2.57,2.57,0,0,1,.51-.88,2.38,2.38,0,0,1,.82-.58A2.7,2.7,0,0,1,152.17,131.3Zm0,.72a1.5,1.5,0,0,0-1.12.41,1.92,1.92,0,0,0-.51,1.14h3a2,2,0,0,0-.09-.62,1.39,1.39,0,0,0-.28-.49,1.23,1.23,0,0,0-.44-.32A1.49,1.49,0,0,0,152.19,132Z"/><path class="1db7f73d-c8e7-431b-84fe-871207b8a25e" d="M164.49,137h-.83a.36.36,0,0,1-.23-.07.44.44,0,0,1-.13-.18l-.74-1.9H159l-.74,1.9a.44.44,0,0,1-.13.18.35.35,0,0,1-.23.08h-.83l3.15-7.88h1.08ZM159.32,134h2.94L161,130.83a6.14,6.14,0,0,1-.24-.74l-.12.42c0,.13-.08.24-.11.33Z"/></g><g id="74c2d647-3b69-422a-9ce2-c442038e52bd" data-name="text-titles"><path class="1db7f73d-c8e7-431b-84fe-871207b8a25e" d="M134.05,14.17a2.13,2.13,0,0,0,.84-.16,1.74,1.74,0,0,0,.62-.44,1.91,1.91,0,0,0,.39-.68A2.82,2.82,0,0,0,136,12V6.8h1.61V12a4,4,0,0,1-.25,1.43,3.23,3.23,0,0,1-.72,1.13,3.27,3.27,0,0,1-1.13.74,4.34,4.34,0,0,1-3,0,3.18,3.18,0,0,1-1.84-1.88,4,4,0,0,1-.25-1.43V6.8h1.61V12a2.82,2.82,0,0,0,.13.9,2,2,0,0,0,.39.69,1.7,1.7,0,0,0,.62.44A2.12,2.12,0,0,0,134.05,14.17Z"/><path class="1db7f73d-c8e7-431b-84fe-871207b8a25e" d="M139.21,15.47V9.32h.91a.36.36,0,0,1,.38.27l.1.49a3.3,3.3,0,0,1,.39-.35,2.76,2.76,0,0,1,.44-.27,2.23,2.23,0,0,1,.5-.17,2.6,2.6,0,0,1,.58-.06,2.22,2.22,0,0,1,.89.17,1.77,1.77,0,0,1,.65.48,2.11,2.11,0,0,1,.4.74,3.13,3.13,0,0,1,.13.94v3.92h-1.48V11.56a1.32,1.32,0,0,0-.26-.87,1,1,0,0,0-.78-.31,1.54,1.54,0,0,0-.72.17,2.59,2.59,0,0,0-.64.47v4.45Z"/><path class="1db7f73d-c8e7-431b-84fe-871207b8a25e" d="M147.83,7.52a.85.85,0,0,1-.08.36,1,1,0,0,1-.51.5.93.93,0,0,1-.37.08.89.89,0,0,1-.36-.08,1,1,0,0,1-.3-.2,1,1,0,0,1-.2-.29.86.86,0,0,1-.08-.36.91.91,0,0,1,.08-.37,1,1,0,0,1,.2-.3,1,1,0,0,1,.3-.2.89.89,0,0,1,.36-.07.93.93,0,0,1,.37.07,1,1,0,0,1,.3.2,1,1,0,0,1,.21.3A.9.9,0,0,1,147.83,7.52Zm-.22,1.79v6.16h-1.48V9.32Z"/><path class="1db7f73d-c8e7-431b-84fe-871207b8a25e" d="M151.91,9.22a3.37,3.37,0,0,1,1.25.22,2.7,2.7,0,0,1,1,.63,2.78,2.78,0,0,1,.61,1,4.11,4.11,0,0,1,0,2.63,2.85,2.85,0,0,1-.61,1,2.67,2.67,0,0,1-1,.64,3.65,3.65,0,0,1-2.51,0,2.69,2.69,0,0,1-1-.64,2.87,2.87,0,0,1-.62-1,4.07,4.07,0,0,1,0-2.63,2.79,2.79,0,0,1,.62-1,2.71,2.71,0,0,1,1-.63A3.4,3.4,0,0,1,151.91,9.22Zm0,5.2a1.3,1.3,0,0,0,1.14-.52,2.59,2.59,0,0,0,.37-1.51,2.62,2.62,0,0,0-.37-1.52,1.3,1.3,0,0,0-1.14-.52,1.32,1.32,0,0,0-1.15.53,2.6,2.6,0,0,0-.37,1.51,2.58,2.58,0,0,0,.37,1.51A1.32,1.32,0,0,0,151.91,14.42Z"/><path class="1db7f73d-c8e7-431b-84fe-871207b8a25e" d="M156.11,15.47V9.32H157a.36.36,0,0,1,.38.27l.1.49a3.54,3.54,0,0,1,.39-.35,2.86,2.86,0,0,1,.44-.27,2.23,2.23,0,0,1,.5-.17,2.6,2.6,0,0,1,.58-.06,2.22,2.22,0,0,1,.89.17,1.77,1.77,0,0,1,.65.48,2.11,2.11,0,0,1,.4.74,3.13,3.13,0,0,1,.13.94v3.92H160V11.56a1.32,1.32,0,0,0-.26-.87,1,1,0,0,0-.78-.31,1.54,1.54,0,0,0-.72.17,2.62,2.62,0,0,0-.64.47v4.45Z"/></g></svg>